<?xml version="1.0" encoding="UTF-8" standalone="no"?>
<!-- Created with Inkscape (http://www.inkscape.org/) -->

<svg
   xmlns:dc="http://purl.org/dc/elements/1.1/"
   xmlns:cc="http://creativecommons.org/ns#"
   xmlns:rdf="http://www.w3.org/1999/02/22-rdf-syntax-ns#"
   xmlns:svg="http://www.w3.org/2000/svg"
   xmlns="http://www.w3.org/2000/svg"
   xmlns:sodipodi="http://sodipodi.sourceforge.net/DTD/sodipodi-0.dtd"
   xmlns:inkscape="http://www.inkscape.org/namespaces/inkscape"
   width="2.5999999in"
   height="0.60000002in"
   viewBox="0 0 66.039998 15.240001"
   version="1.1"
   id="svg8"
   inkscape:version="0.92.4 (f8dce91, 2019-08-02)"
   sodipodi:docname="banner-io.svg">
  <defs
     id="defs2" />
  <sodipodi:namedview
     id="base"
     pagecolor="#ffffff"
     bordercolor="#666666"
     borderopacity="1.0"
     inkscape:pageopacity="0.0"
     inkscape:pageshadow="2"
     inkscape:zoom="7.6057999"
     inkscape:cx="113.9315"
     inkscape:cy="27.300658"
     inkscape:document-units="mm"
     inkscape:current-layer="layer1"
     showgrid="false"
     inkscape:snap-object-midpoints="true"
     inkscape:snap-smooth-nodes="true"
     units="in"
     inkscape:pagecheckerboard="false"
     inkscape:window-width="3840"
     inkscape:window-height="2049"
     inkscape:window-x="0"
     inkscape:window-y="55"
     inkscape:window-maximized="1"
     inkscape:snap-global="false"
     inkscape:measure-start="-7423.91,3779.49"
     inkscape:measure-end="-7423.91,3545.43">
    <inkscape:grid
       type="axonomgrid"
       id="grid4508"
       units="mm"
       empspacing="5"
       spacingy="10"
       gridanglex="30"
       gridanglez="30" />
  </sodipodi:namedview>
  <metadata
     id="metadata5">
    <rdf:RDF>
      <cc:Work
         rdf:about="">
        <dc:format>image/svg+xml</dc:format>
        <dc:type
           rdf:resource="http://purl.org/dc/dcmitype/StillImage" />
        <dc:title></dc:title>
      </cc:Work>
    </rdf:RDF>
  </metadata>
  <g
     inkscape:groupmode="layer"
     id="layer2"
     inkscape:label="Layer 2"
     transform="translate(0,-200.66)" />
  <g
     inkscape:label="Layer 1"
     inkscape:groupmode="layer"
     id="layer1"
     transform="translate(0,-281.76)">
    <path
       inkscape:connector-curvature="0"
       id="path3852"
       style="font-style:normal;font-variant:normal;font-weight:normal;font-stretch:normal;font-size:12.07011414px;line-height:1.57162941px;font-family:'Averia Serif GWF';-inkscape-font-specification:'Averia Serif GWF';letter-spacing:0px;word-spacing:0px;fill:#000000;fill-opacity:1;stroke:none;stroke-width:0.06286518"
       d="m 19.77621,294.56481 h -0.324149 q -1.726828,0 -1.726828,-0.26521 0,-0.15323 0.288787,-0.33593 0.294681,-0.18271 0.383085,-0.50096 0.0943,-0.32415 0.0943,-1.82113 0,-1.49697 -0.0884,-1.70325 -0.08251,-0.20628 -0.312362,-0.35951 -0.229851,-0.15913 -0.229851,-0.28289 0,-0.12966 0.259319,-0.45381 0.265213,-0.33004 0.371298,-0.78975 0.271106,-1.14336 0.748488,-1.66199 0.607042,-0.66598 1.703254,-0.66598 0.530425,0 0.84868,0.18859 0.318255,0.18271 0.318255,0.47739 0,0.29468 -0.159128,0.43612 -0.153234,0.14145 -0.330042,0.14145 -0.170915,0 -0.565787,-0.21217 -0.388978,-0.21217 -0.589361,-0.21217 -0.324148,0 -0.500957,0.40666 -0.170914,0.40076 -0.170914,0.88404 0,0.48328 0.200382,0.70723 0.07072,0.0766 0.524532,0.31236 0.453808,0.22986 0.453808,0.40666 0,0.13556 -0.465595,0.277 -0.465596,0.13556 -0.577574,0.30058 -0.188596,0.277 -0.188596,1.79166 0,1.50876 0.106085,1.81523 0.111979,0.30647 0.430234,0.53632 0.318255,0.22985 0.318255,0.35361 0,0.22985 -0.819212,0.22985 z" />
    <path
       inkscape:connector-curvature="0"
       id="path3854"
       style="font-style:normal;font-variant:normal;font-weight:normal;font-stretch:normal;font-size:12.07011414px;line-height:1.57162941px;font-family:'Averia Serif GWF';-inkscape-font-specification:'Averia Serif GWF';letter-spacing:0px;word-spacing:0px;fill:#000000;fill-opacity:1;stroke:none;stroke-width:0.06286518"
       d="m 25.039204,294.19941 q 0,0.22985 -1.066744,0.22985 h -0.624722 l -0.247532,-0.0118 -0.371297,-0.006 q -0.624723,0 -0.624723,-0.22396 0,-0.15913 0.277,-0.33593 0.282893,-0.18271 0.377191,-0.4656 0.100191,-0.28879 0.100191,-1.69146 0,-1.40268 -0.0943,-1.70326 -0.0884,-0.30057 -0.282893,-0.43023 -0.347723,-0.22985 -0.347723,-0.33594 0,-0.10608 0.123766,-0.18859 0.365404,-0.24753 1.237658,-0.24753 h 0.111979 q 0.335935,0 0.477382,0.34182 0.141447,0.33594 0.229851,0.33594 0.0884,0 0.300574,-0.16502 0.218064,-0.16502 0.518638,-0.33004 0.306467,-0.16502 0.677765,-0.16502 0.371297,0 0.565786,0.19449 0.200383,0.18859 0.200383,0.48916 -0.0059,0.30647 -0.159127,0.45971 -0.153234,0.15323 -0.330042,0.15323 -0.176809,0 -0.465596,-0.14145 -0.288787,-0.14734 -0.483276,-0.14734 -0.194489,0 -0.42434,0.16502 -0.22985,0.15913 -0.394872,0.57758 -0.159127,0.41255 -0.159127,1.42036 0,1.00191 0.141447,1.29659 0.141446,0.28879 0.436127,0.53043 0.300574,0.24164 0.300574,0.39487 z" />
    <path
       inkscape:connector-curvature="0"
       id="path3856"
       style="font-style:normal;font-variant:normal;font-weight:normal;font-stretch:normal;font-size:12.07011414px;line-height:1.57162941px;font-family:'Averia Serif GWF';-inkscape-font-specification:'Averia Serif GWF';letter-spacing:0px;word-spacing:0px;fill:#000000;fill-opacity:1;stroke:none;stroke-width:0.06286518"
       d="m 31.009432,290.59841 v -0.1827 q 0,-0.43613 -0.312362,-0.78385 -0.312361,-0.35362 -0.766169,-0.35362 h -0.111978 q -0.08251,0.0118 -0.111979,0.0118 -0.412553,0 -0.78385,0.47149 -0.365404,0.47149 -0.365404,1.00781 v 0.0766 q 0,0.18859 0.223957,0.18859 0.0884,0.0177 0.0943,0.0177 l 0.135553,0.006 h 0.03536 l 0.04125,-0.006 1.137467,-0.0648 0.21217,-0.0236 q 0.57168,0 0.57168,-0.36541 z m -2.451742,1.56181 q 0,0.67187 0.50685,1.12568 0.506851,0.45381 1.284807,0.45381 0.312362,0 0.565787,-0.0884 0.259319,-0.0943 0.559893,-0.22395 0.306468,-0.12966 0.383085,-0.12966 0.235744,0 0.235744,0.25342 0,0.34183 -0.872254,0.73081 -0.565787,0.25343 -1.214084,0.25343 h -0.129659 q -1.107999,0 -1.838807,-0.67188 -0.394872,-0.3654 -0.612935,-0.93119 -0.218064,-0.57168 -0.218064,-1.22587 l 0.0059,-0.13555 v -0.13555 q 0,-0.56579 0.259319,-1.1139 0.265212,-0.5481 0.630616,-0.90172 0.772063,-0.74259 1.832913,-0.74849 1.603062,0 2.133487,1.24945 0.165021,0.39487 0.165021,0.72491 v 0.11787 q 0,0.40666 -0.335936,0.54811 -0.335936,0.13555 -1.585381,0.22396 -1.249446,0.0884 -1.355531,0.11787 -0.400765,0.10019 -0.400765,0.50685 z" />
    <path
       inkscape:connector-curvature="0"
       id="path3858"
       style="font-style:normal;font-variant:normal;font-weight:normal;font-stretch:normal;font-size:12.07011414px;line-height:1.57162941px;font-family:'Averia Serif GWF';-inkscape-font-specification:'Averia Serif GWF';letter-spacing:0px;word-spacing:0px;fill:#000000;fill-opacity:1;stroke:none;stroke-width:0.06286518"
       d="m 37.138786,291.78303 q 0.465595,0.44202 0.465595,1.11979 0,0.67187 -0.553999,1.15514 -0.553999,0.47739 -1.532339,0.47739 h -0.159127 q -1.113892,0 -1.69736,-0.277 -0.324148,-0.15324 -0.324148,-0.68366 v -0.14734 q 0,-0.67777 0.253425,-0.67777 0.21217,0 0.500957,0.40077 0.288787,0.39487 0.483276,0.53042 0.377191,0.25932 0.884041,0.25932 0.512744,0 0.754382,-0.21217 0.241638,-0.21806 0.241638,-0.57168 0,-0.35362 -0.412552,-0.65419 -0.218064,-0.15913 -1.019595,-0.50096 -0.795637,-0.34183 -1.190509,-0.71312 -0.394872,-0.3772 -0.394872,-1.06085 0,-0.68366 0.57168,-1.108 0.57168,-0.43024 1.408573,-0.43024 h 0.159128 q 1.096211,0 1.538232,0.25932 0.229851,0.13556 0.229851,0.75438 0,0.61883 -0.294681,0.61883 -0.165021,0 -0.453808,-0.3654 -0.282893,-0.3713 -0.518638,-0.52453 -0.235744,-0.15913 -0.65419,-0.15913 -0.412553,0 -0.654191,0.1886 -0.241638,0.18859 -0.241638,0.5481 0,0.35362 0.442021,0.63651 0.111978,0.0766 0.978339,0.45381 0.866361,0.37719 1.190509,0.68366 z" />
    <path
       inkscape:connector-curvature="0"
       id="path3860"
       style="font-style:normal;font-variant:normal;font-weight:normal;font-stretch:normal;font-size:12.07011414px;line-height:1.57162941px;font-family:'Averia Serif GWF';-inkscape-font-specification:'Averia Serif GWF';letter-spacing:0px;word-spacing:0px;fill:#000000;fill-opacity:1;stroke:none;stroke-width:0.06286518"
       d="m 42.419461,291.78303 q 0.465595,0.44202 0.465595,1.11979 0,0.67187 -0.553999,1.15514 -0.553999,0.47739 -1.532339,0.47739 h -0.159127 q -1.113893,0 -1.69736,-0.277 -0.324149,-0.15324 -0.324149,-0.68366 v -0.14734 q 0,-0.67777 0.253426,-0.67777 0.21217,0 0.500957,0.40077 0.288787,0.39487 0.483276,0.53042 0.377191,0.25932 0.884041,0.25932 0.512744,0 0.754382,-0.21217 0.241638,-0.21806 0.241638,-0.57168 0,-0.35362 -0.412552,-0.65419 -0.218064,-0.15913 -1.019595,-0.50096 -0.795637,-0.34183 -1.190509,-0.71312 -0.394872,-0.3772 -0.394872,-1.06085 0,-0.68366 0.57168,-1.108 0.57168,-0.43024 1.408573,-0.43024 h 0.159127 q 1.096212,0 1.538233,0.25932 0.229851,0.13556 0.229851,0.75438 0,0.61883 -0.294681,0.61883 -0.165021,0 -0.453808,-0.3654 -0.282893,-0.3713 -0.518638,-0.52453 -0.235744,-0.15913 -0.65419,-0.15913 -0.412553,0 -0.654191,0.1886 -0.241638,0.18859 -0.241638,0.5481 0,0.35362 0.442021,0.63651 0.111978,0.0766 0.978339,0.45381 0.866361,0.37719 1.190509,0.68366 z" />
    <path
       inkscape:connector-curvature="0"
       id="path3862"
       style="font-style:normal;font-variant:normal;font-weight:normal;font-stretch:normal;font-size:12.07011414px;line-height:1.57162941px;font-family:'Averia Serif GWF';-inkscape-font-specification:'Averia Serif GWF';letter-spacing:0px;word-spacing:0px;fill:#858585;fill-opacity:1;stroke:none;stroke-width:0.06286518"
       d="m 44.877096,294.57071 q -0.306467,0 -0.559893,-0.21807 -0.253425,-0.21806 -0.253425,-0.57168 v -0.053 q 0,-0.34183 0.259319,-0.56579 0.265212,-0.22395 0.536319,-0.22395 h 0.106085 q 0.0884,0.0177 0.129659,0.0177 0.206276,0 0.430234,0.22395 0.223957,0.22396 0.223957,0.51864 v 0.0825 q 0,0.27111 -0.218064,0.52453 -0.21217,0.24754 -0.48917,0.24754 l -0.135553,0.0177 z" />
    <path
       inkscape:connector-curvature="0"
       id="path3864"
       style="font-style:normal;font-variant:normal;font-weight:normal;font-stretch:normal;font-size:12.07011414px;line-height:1.57162941px;font-family:'Averia Serif GWF';-inkscape-font-specification:'Averia Serif GWF';letter-spacing:0px;word-spacing:0px;fill:#858585;fill-opacity:1;stroke:none;stroke-width:0.06286518"
       d="m 49.138177,286.86186 q 0,0.25932 -0.223957,0.48328 -0.218063,0.21806 -0.436127,0.21806 -0.04715,0.0118 -0.07662,0.0118 l -0.129659,0.0118 q -0.294681,0 -0.530425,-0.19449 -0.229851,-0.19449 -0.229851,-0.50096 v -0.10608 q 0,-0.30647 0.241638,-0.51275 0.247532,-0.21217 0.565787,-0.21217 h 0.02947 l 0.200382,0.0236 q 0.182702,0 0.377192,0.20038 0.200382,0.19449 0.200382,0.39487 l 0.01179,0.053 z m -1.874168,2.62855 q -0.306467,-0.14734 -0.306467,-0.27699 0,-0.12966 0.123765,-0.20628 0.430234,-0.25932 1.361424,-0.25932 h 0.170915 q 0.318255,0 0.35951,0.29468 0.02357,0.15913 0.02357,2.14527 0,1.98026 0.08251,2.27494 0.08251,0.28879 0.394872,0.44791 0.312362,0.15324 0.312362,0.31236 0,0.22396 -1.461616,0.22396 l -0.176808,0.006 H 47.42903 q -0.430233,0 -0.430233,-0.21217 0,-0.1768 0.259319,-0.34182 0.265212,-0.16503 0.365404,-0.36541 0.111978,-0.21806 0.111978,-1.01959 l 0.0059,-0.1886 v -0.1827 l 0.0059,-0.277 v -0.1827 l 0.0059,-0.1827 q 0,-1.39679 -0.0943,-1.62664 -0.0884,-0.23575 -0.394872,-0.38309 z" />
    <path
       inkscape:connector-curvature="0"
       id="path3866"
       style="font-style:normal;font-variant:normal;font-weight:normal;font-stretch:normal;font-size:12.07011414px;line-height:1.57162941px;font-family:'Averia Serif GWF';-inkscape-font-specification:'Averia Serif GWF';letter-spacing:0px;word-spacing:0px;fill:#858585;fill-opacity:1;stroke:none;stroke-width:0.06286518"
       d="m 52.037835,291.39405 v 0.21806 q 0,1.00192 0.388978,1.662 0.182702,0.31236 0.465596,0.49507 0.282893,0.1827 0.57168,0.1827 h 0.117872 q 0.536319,0 0.925297,-0.51864 0.394872,-0.52453 0.394872,-1.48519 v -0.41845 q 0,-0.94887 -0.394872,-1.60895 -0.388978,-0.66598 -0.990127,-0.66598 h -0.182702 q -0.542212,0 -0.919403,0.58347 -0.377191,0.58347 -0.377191,1.55591 z m 4.284655,0.0236 v 0.29468 q 0,0.46559 -0.188596,1.01959 -0.394872,1.15515 -1.573594,1.61485 -0.512744,0.20038 -0.990126,0.20038 h -0.194489 q -1.12568,0 -1.880062,-0.75438 -0.341829,-0.34183 -0.553999,-0.90172 -0.21217,-0.5599 -0.21217,-1.19051 v -0.10019 q 0,-0.57168 0.200382,-1.15515 0.388979,-1.13747 1.526445,-1.57949 0.512745,-0.20038 0.984233,-0.20038 h 0.294681 q 0.524531,0 1.031382,0.23574 0.960658,0.44792 1.337849,1.42626 0.218064,0.57757 0.218064,1.09032 z" />
    <g
       transform="matrix(0.16528396,0,0,0.16528396,112.17431,166.77706)"
       id="g5520-9-0-3"
       inkscape:export-xdpi="150.31148"
       inkscape:export-ydpi="150.31148">
      <path
         inkscape:connector-curvature="0"
         id="path7616-1-4-2-1-7-6"
         d="m -588.78727,772.80164 c -0.018,-25.24154 -11.1459,-48.96914 -29.81,-65.244 0.4353,0.8734 0.8476,1.7635 1.2347,2.6694 6.2692,14.67395 5.0452,31.13294 -2.6025,44.48039 -2.1694,3.78613 -4.8578,7.32007 -8.0367,10.49374 6.1004,4.69272 13.4451,7.83317 21.4466,8.87349 6.0829,0.7909 12.109,0.31009 17.7679,-1.27302 z"
         style="opacity:1;fill:#de1a5c;fill-opacity:1;stroke:none;stroke-width:1;stroke-miterlimit:4;stroke-dasharray:none;stroke-opacity:1" />
      <path
         inkscape:connector-curvature="0"
         id="path7614-7-9-4-9-5-7"
         d="m -603.75027,779.70459 c -1.1617,-0.069 -2.3269,-0.17675 -3.4938,-0.32849 -15.8239,-2.05736 -29.3774,-11.47508 -36.9867,-24.84442 -2.0833,-3.6603 -3.7199,-7.61752 -4.8366,-11.80032 -7.0829,2.91541 -13.4533,7.66827 -18.3536,14.02914 -3.7833,4.91091 -6.4155,10.42501 -7.8853,16.17761 21.9274,12.5569 48.1178,14.84053 71.556,6.76648 z"
         style="opacity:1;fill:#63b132;fill-opacity:1;stroke:none;stroke-width:1;stroke-miterlimit:4;stroke-dasharray:none;stroke-opacity:1" />
      <path
         inkscape:connector-curvature="0"
         id="path7612-4-5-7-6-8-53"
         d="m -624.59667,752.04594 c 1.9943,-3.47787 3.4988,-7.19153 4.4909,-11.03302 -7.975,-2.225 -16.2216,-2.14506 -23.8898,-0.0196 2.0693,8.02042 6.27,15.11884 11.9507,20.69121 2.9583,-2.90373 5.4491,-6.15256 7.448,-9.6384 z"
         style="opacity:1;fill:#000000;fill-opacity:1;stroke:none;stroke-width:1;stroke-miterlimit:4;stroke-dasharray:none;stroke-opacity:1" />
      <path
         inkscape:connector-curvature="0"
         id="path4587-9-6-2-3-9-0-04-2-3-0-7-9-7-5"
         d="m -619.08027,735.74951 c 1.0373,-7.77466 0.033,-15.85861 -3.1983,-23.42177 -2.3604,-5.5247 -5.7434,-10.3833 -9.8643,-14.4041 -13.1615,7.576 -24.0261,18.52819 -31.6437,31.66665 -4.8343,8.42152 -8.239,17.53813 -10.0603,26.9873 0.6876,-1.04728 1.4172,-2.07534 2.1909,-3.07966 9.7384,-12.64087 24.696,-19.61658 40.0785,-19.46746 4.1663,0.0405 8.3638,0.60411 12.4972,1.71904 z"
         style="opacity:1;fill:#5881d8;fill-opacity:1;stroke:none;stroke-width:1;stroke-miterlimit:4;stroke-dasharray:none;stroke-opacity:1" />
    </g>
  </g>
</svg>
