<?xml version="1.0" encoding="UTF-8" standalone="no"?>
<!-- Created with Inkscape (http://www.inkscape.org/) -->

<svg
   xmlns:dc="http://purl.org/dc/elements/1.1/"
   xmlns:cc="http://creativecommons.org/ns#"
   xmlns:rdf="http://www.w3.org/1999/02/22-rdf-syntax-ns#"
   xmlns:svg="http://www.w3.org/2000/svg"
   xmlns="http://www.w3.org/2000/svg"
   xmlns:sodipodi="http://sodipodi.sourceforge.net/DTD/sodipodi-0.dtd"
   xmlns:inkscape="http://www.inkscape.org/namespaces/inkscape"
   width="1in"
   height="1in"
   viewBox="0 0 25.4 25.400001"
   version="1.1"
   id="svg6796"
   inkscape:version="0.92.4 (f8dce91, 2019-08-02)"
   sodipodi:docname="bars.svg">
  <defs
     id="defs6790" />
  <sodipodi:namedview
     id="base"
     pagecolor="#ffffff"
     bordercolor="#666666"
     borderopacity="1.0"
     inkscape:pageopacity="0.0"
     inkscape:pageshadow="2"
     inkscape:zoom="11.2"
     inkscape:cx="-5.2735091"
     inkscape:cy="47.634218"
     inkscape:document-units="mm"
     inkscape:current-layer="layer1"
     showgrid="false"
     units="in"
     inkscape:window-width="3840"
     inkscape:window-height="2049"
     inkscape:window-x="0"
     inkscape:window-y="55"
     inkscape:window-maximized="1" />
  <metadata
     id="metadata6793">
    <rdf:RDF>
      <cc:Work
         rdf:about="">
        <dc:format>image/svg+xml</dc:format>
        <dc:type
           rdf:resource="http://purl.org/dc/dcmitype/StillImage" />
        <dc:title />
      </cc:Work>
    </rdf:RDF>
  </metadata>
  <g
     inkscape:label="Layer 1"
     inkscape:groupmode="layer"
     id="layer1"
     transform="translate(0,-271.59998)">
    <path
       style="opacity:1;fill:#c8c8c8;fill-opacity:1;stroke:none;stroke-width:0.63568938;stroke-linejoin:round;stroke-miterlimit:4;stroke-dasharray:none;stroke-opacity:1"
       d="m 5.296875,52.427734 c -1.50037,0 -2.7070312,1.208588 -2.7070312,2.708985 v 2.708984 c -1e-7,1.500397 1.2066612,2.707031 2.7070312,2.707031 h 44.253906 c 1.500371,0 2.708985,-1.206634 2.708985,-2.707031 v -2.708984 c 0,-1.500397 -1.208614,-2.708985 -2.708985,-2.708985 z m 0.8066406,16.00586 c -1.5003696,0 -2.7070312,1.206634 -2.7070312,2.707031 v 2.708984 c 0,1.500397 1.2066616,2.708985 2.7070312,2.708985 H 48.744141 c 1.50037,0 2.708984,-1.208588 2.708984,-2.708985 v -2.708984 c 0,-1.500397 -1.208614,-2.707031 -2.708984,-2.707031 z M 5.296875,84.4375 c -1.50037,0 -2.7070312,1.208625 -2.7070312,2.708984 v 2.707032 c -1e-7,1.500359 1.2066612,2.708984 2.7070312,2.708984 h 44.253906 c 1.500371,0 2.708985,-1.208625 2.708985,-2.708984 v -2.707032 c 0,-1.500359 -1.208614,-2.708984 -2.708985,-2.708984 z"
       transform="matrix(0.26458333,0,0,0.26458333,0,271.59998)"
       id="rect11048"
       inkscape:connector-curvature="0" />
  </g>
</svg>
