<?xml version="1.0" encoding="UTF-8" standalone="no"?>
<!-- Created with Inkscape (http://www.inkscape.org/) -->

<svg
   xmlns:dc="http://purl.org/dc/elements/1.1/"
   xmlns:cc="http://creativecommons.org/ns#"
   xmlns:rdf="http://www.w3.org/1999/02/22-rdf-syntax-ns#"
   xmlns:svg="http://www.w3.org/2000/svg"
   xmlns="http://www.w3.org/2000/svg"
   xmlns:sodipodi="http://sodipodi.sourceforge.net/DTD/sodipodi-0.dtd"
   xmlns:inkscape="http://www.inkscape.org/namespaces/inkscape"
   width="1in"
   height="1in"
   viewBox="0 0 25.4 25.400001"
   version="1.1"
   id="svg6796"
   inkscape:version="0.92.4 (f8dce91, 2019-08-02)"
   sodipodi:docname="bars.svg">
  <defs
     id="defs6790" />
  <sodipodi:namedview
     id="base"
     pagecolor="#ffffff"
     bordercolor="#666666"
     borderopacity="1.0"
     inkscape:pageopacity="0.0"
     inkscape:pageshadow="2"
     inkscape:zoom="11.2"
     inkscape:cx="-5.2735091"
     inkscape:cy="47.634218"
     inkscape:document-units="mm"
     inkscape:current-layer="layer1"
     showgrid="false"
     units="in"
     inkscape:window-width="3840"
     inkscape:window-height="2049"
     inkscape:window-x="0"
     inkscape:window-y="55"
     inkscape:window-maximized="1" />
  <metadata
     id="metadata6793">
    <rdf:RDF>
      <cc:Work
         rdf:about="">
        <dc:format>image/svg+xml</dc:format>
        <dc:type
           rdf:resource="http://purl.org/dc/dcmitype/StillImage" />
        <dc:title />
      </cc:Work>
    </rdf:RDF>
  </metadata>
  <g
     inkscape:label="Layer 1"
     inkscape:groupmode="layer"
     id="layer1"
     transform="translate(0,-271.59998)">
    <path
       style="opacity:1;fill:#c8c8c8;fill-opacity:1;stroke:none;stroke-width:0.23077723;stroke-linejoin:round;stroke-miterlimit:4;stroke-dasharray:none;stroke-opacity:1"
       d="m 1.6679755,281.52017 c -0.5446862,0 -0.982746,0.43875 -0.982746,0.98345 v 0.98346 c -4e-8,0.54469 0.4380598,0.98274 0.982746,0.98274 H 17.733675 c 0.544686,0 0.983455,-0.43805 0.983455,-0.98274 v -0.98346 c 0,-0.5447 -0.438769,-0.98345 -0.983455,-0.98345 z m 0.2928384,5.81068 c -0.544686,0 -0.98274595,0.43805 -0.98274595,0.98274 v 0.98346 c 0,0.54469 0.43805995,0.98345 0.98274595,0.98345 H 17.440836 c 0.544687,0 0.983455,-0.43876 0.983455,-0.98345 v -0.98346 c 0,-0.54469 -0.438768,-0.98274 -0.983455,-0.98274 z m -0.2928384,5.80997 c -0.5446862,0 -0.982746,0.43877 -0.982746,0.98345 v 0.98275 c -4e-8,0.54468 0.4380598,0.98345 0.982746,0.98345 H 17.733675 c 0.544686,0 0.983455,-0.43877 0.983455,-0.98345 v -0.98275 c 0,-0.54468 -0.438769,-0.98345 -0.983455,-0.98345 z"
       id="rect11048"
       inkscape:connector-curvature="0" />
  </g>
</svg>
