<?xml version="1.0" encoding="UTF-8" standalone="no"?>
<svg
   xmlns:dc="http://purl.org/dc/elements/1.1/"
   xmlns:cc="http://creativecommons.org/ns#"
   xmlns:rdf="http://www.w3.org/1999/02/22-rdf-syntax-ns#"
   xmlns:svg="http://www.w3.org/2000/svg"
   xmlns="http://www.w3.org/2000/svg"
   xmlns:sodipodi="http://sodipodi.sourceforge.net/DTD/sodipodi-0.dtd"
   xmlns:inkscape="http://www.inkscape.org/namespaces/inkscape"
   id="svg6796"
   version="1.1"
   viewBox="0 0 25.4 25.400001"
   height="1in"
   width="1in"
   sodipodi:docname="cycle.svg"
   inkscape:version="0.92.4 (f8dce91, 2019-08-02)">
  <sodipodi:namedview
     pagecolor="#ffffff"
     bordercolor="#666666"
     borderopacity="1"
     objecttolerance="10"
     gridtolerance="10"
     guidetolerance="10"
     inkscape:pageopacity="0"
     inkscape:pageshadow="2"
     inkscape:window-width="1617"
     inkscape:window-height="1102"
     id="namedview19934"
     showgrid="false"
     inkscape:zoom="8"
     inkscape:cx="12.592147"
     inkscape:cy="44.456508"
     inkscape:window-x="0"
     inkscape:window-y="55"
     inkscape:window-maximized="0"
     inkscape:current-layer="svg6796" />
  <defs
     id="defs6790" />
  <metadata
     id="metadata6793">
    <rdf:RDF>
      <cc:Work
         rdf:about="">
        <dc:format>image/svg+xml</dc:format>
        <dc:type
           rdf:resource="http://purl.org/dc/dcmitype/StillImage" />
        <dc:title />
      </cc:Work>
    </rdf:RDF>
  </metadata>
  <circle
     style="opacity:1;fill:#463839;fill-opacity:1;stroke:none;stroke-width:1.85208333;stroke-linecap:round;stroke-linejoin:round;stroke-miterlimit:4;stroke-dasharray:none;stroke-opacity:1"
     id="path20915"
     cx="12.7"
     cy="12.7"
     r="12.137761" />
  <path
     style="color:#000000;font-style:normal;font-variant:normal;font-weight:normal;font-stretch:normal;font-size:medium;line-height:normal;font-family:sans-serif;font-variant-ligatures:normal;font-variant-position:normal;font-variant-caps:normal;font-variant-numeric:normal;font-variant-alternates:normal;font-feature-settings:normal;text-indent:0;text-align:start;text-decoration:none;text-decoration-line:none;text-decoration-style:solid;text-decoration-color:#000000;letter-spacing:normal;word-spacing:normal;text-transform:none;writing-mode:lr-tb;direction:ltr;text-orientation:mixed;dominant-baseline:auto;baseline-shift:baseline;text-anchor:start;white-space:normal;shape-padding:0;clip-rule:nonzero;display:inline;overflow:visible;visibility:visible;opacity:1;isolation:auto;mix-blend-mode:normal;color-interpolation:sRGB;color-interpolation-filters:linearRGB;solid-color:#000000;solid-opacity:1;vector-effect:none;fill:#cccccc;fill-opacity:1;fill-rule:nonzero;stroke:none;stroke-width:1.44809926;stroke-linecap:round;stroke-linejoin:round;stroke-miterlimit:4;stroke-dasharray:none;stroke-dashoffset:0;stroke-opacity:1;color-rendering:auto;image-rendering:auto;shape-rendering:auto;text-rendering:auto;enable-background:accumulate"
     d="m 12.960886,3.733616 c -1.159376,0 -2.218468,0.7425236 -3.2245124,1.7573417 -0.039456,0.039799 -0.078314,0.083308 -0.1175994,0.1241061 l 1.0587888,0.9849883 c 0.01289,-0.013153 0.02579,-0.027959 0.03868,-0.040955 0.875288,-0.882921 1.731729,-1.3432409 2.244649,-1.3432409 0.51292,0 1.369362,0.4603199 2.244651,1.3432413 0.875288,0.8829213 1.770025,2.1330107 2.508656,3.4741415 0.225018,0.408565 0.433298,0.826068 0.625882,1.243956 l 1.415924,-0.336741 C 19.510915,10.385047 19.236084,9.8318245 18.938727,9.2919126 18.144419,7.8496923 17.191445,6.5057761 16.1854,5.4909577 15.179355,4.4761396 14.120262,3.733616 12.960886,3.733616 Z M 7.6507596,8.1646158 C 7.418389,8.5308398 7.1948555,8.9073338 6.9830472,9.2919126 6.1887407,10.734133 5.5551936,12.27114 5.2198451,13.691886 c -0.3353478,1.420745 -0.4186793,2.752967 0.1610086,3.805504 0.5076829,0.921799 1.4475208,1.489734 2.5741647,1.889308 L 8.4116042,17.979749 C 7.4744909,17.632174 6.8293634,17.163149 6.6053874,16.756477 6.3489273,16.290824 6.3002093,15.282917 6.5919701,14.046829 6.883733,12.810738 7.4689492,11.374369 8.2075809,10.033239 8.3712111,9.7361364 8.5435498,9.4447012 8.7205987,9.1595328 Z m 13.1293044,5.8917272 -1.380412,0.328054 c 0.207964,1.079639 0.149262,1.949882 -0.08327,2.37208 -0.25646,0.465654 -1.064576,1.01324 -2.231627,1.366408 -1.167051,0.353168 -2.64661,0.539448 -4.123873,0.539448 -0.487145,0 -0.973511,-0.02223 -1.449866,-0.06205 l -0.469608,1.447077 c 0.628847,0.06518 1.273519,0.09887 1.919474,0.09887 1.588615,0 3.174741,-0.193091 4.516134,-0.599018 1.341394,-0.405928 2.484212,-0.99728 3.0639,-2.049819 0.529697,-0.961769 0.503062,-2.158073 0.239145,-3.441047 z"
     id="path20825"
     inkscape:connector-curvature="0" />
  <path
     style="opacity:1;fill:#ffffff;fill-opacity:1;stroke:none;stroke-width:0;stroke-linecap:round;stroke-linejoin:round;stroke-miterlimit:4;stroke-dasharray:none;stroke-opacity:1"
     inkscape:transform-center-x="0.50851838"
     inkscape:transform-center-y="-0.32440527"
     d="M 9.2408245,13.031722 C 8.8930903,13.305247 4.295001,11.247579 4.2429016,10.795127 4.1908178,10.342673 8.1897451,7.1971401 8.5895788,7.3760676 8.9894127,7.554995 9.5885598,12.758198 9.2408221,13.031722 Z"
     id="path20514-3-1-9-4"
     inkscape:connector-curvature="0" />
  <path
     style="opacity:1;fill:#ffffff;fill-opacity:1;stroke:none;stroke-width:0;stroke-linecap:round;stroke-linejoin:round;stroke-miterlimit:4;stroke-dasharray:none;stroke-opacity:1"
     inkscape:transform-center-x="0.57307673"
     inkscape:transform-center-y="-0.13837013"
     d="m 14.945989,22.127586 c -0.375146,0.230307 -4.720245,-2.362056 -4.722934,-2.817785 -0.0027,-0.455728 4.311487,-3.104237 4.689322,-2.878815 0.377834,0.225423 0.408758,5.466296 0.03361,5.6966 z"
     id="path20514-3-1-9-4-6"
     inkscape:connector-curvature="0" />
  <path
     style="opacity:1;fill:#ffffff;fill-opacity:1;stroke:none;stroke-width:0;stroke-linecap:round;stroke-linejoin:round;stroke-miterlimit:4;stroke-dasharray:none;stroke-opacity:1"
     inkscape:transform-center-x="0.55372399"
     inkscape:transform-center-y="-0.05434867"
     d="m 19.700763,12.044529 c -0.385841,0.209992 -4.599446,-2.6108407 -4.580005,-3.0661217 0.01946,-0.45528 4.456614,-2.8701793 4.823014,-2.6248896 0.366402,0.2452893 0.142832,5.4810203 -0.243014,5.6910113 z"
     id="path20514-3-1-9-4-3"
     inkscape:connector-curvature="0" />
</svg>
