<svg version="1.1" viewBox="0.0 0.0 1046.0 485.0" fill="none" stroke="none" stroke-linecap="square" stroke-miterlimit="10" width="1046" height="485" xmlns:xlink="http://www.w3.org/1999/xlink" xmlns="http://www.w3.org/2000/svg"><path fill="#ffffff" d="M0 0L1046.0 0L1046.0 485.0L0 485.0L0 0Z" fill-rule="nonzero"/><path stroke="#cccccc" stroke-width="1.0" stroke-linecap="butt" d="M208.5 71.5L208.5 408.5" fill-rule="nonzero"/><path stroke="#cccccc" stroke-width="1.0" stroke-linecap="butt" d="M476.5 71.5L476.5 408.5" fill-rule="nonzero"/><path stroke="#cccccc" stroke-width="1.0" stroke-linecap="butt" d="M744.5 71.5L744.5 408.5" fill-rule="nonzero"/><path stroke="#cccccc" stroke-width="1.0" stroke-linecap="butt" d="M1012.5 71.5L1012.5 408.5" fill-rule="nonzero"/><path stroke="#333333" stroke-width="1.0" stroke-linecap="butt" d="M65.5 408.5L1021.5 408.5" fill-rule="nonzero"/><path stroke="#cccccc" stroke-width="1.0" stroke-linecap="butt" d="M65.5 296.5L1021.5 296.5" fill-rule="nonzero"/><path stroke="#cccccc" stroke-width="1.0" stroke-linecap="butt" d="M65.5 183.5L1021.5 183.5" fill-rule="nonzero"/><path stroke="#cccccc" stroke-width="1.0" stroke-linecap="butt" d="M65.5 71.5L1021.5 71.5" fill-rule="nonzero"/><clipPath id="id_0"><path d="M65.25 71.416664L1021.75 71.416664L1021.75 408.75L65.25 408.75L65.25 71.416664Z" clip-rule="nonzero"/></clipPath><path stroke="#000000" stroke-width="2.0" stroke-linecap="butt" stroke-opacity="0.0" clip-path="url(#id_0)" d="M79.0 409.0L70.0 409.0L70.0 347.0C70.0 345.89542 70.89543 345.0 72.0 345.0L77.0 345.0C78.10457 345.0 79.0 345.89542 79.0 347.0Z" fill-rule="nonzero"/><path fill="#6d9eeb" clip-path="url(#id_0)" d="M79.0 409.0L70.0 409.0L70.0 347.0C70.0 345.89542 70.89543 345.0 72.0 345.0L77.0 345.0C78.10457 345.0 79.0 345.89542 79.0 347.0Z" fill-rule="nonzero"/><path stroke="#000000" stroke-width="2.0" stroke-linecap="butt" stroke-opacity="0.0" clip-path="url(#id_0)" d="M93.0 409.0L84.0 409.0L84.0 157.0C84.0 155.89543 84.89543 155.0 86.0 155.0L91.0 155.0C92.10457 155.0 93.0 155.89543 93.0 157.0Z" fill-rule="nonzero"/><path fill="#6d9eeb" clip-path="url(#id_0)" d="M93.0 409.0L84.0 409.0L84.0 157.0C84.0 155.89543 84.89543 155.0 86.0 155.0L91.0 155.0C92.10457 155.0 93.0 155.89543 93.0 157.0Z" fill-rule="nonzero"/><path stroke="#000000" stroke-width="2.0" stroke-linecap="butt" stroke-opacity="0.0" clip-path="url(#id_0)" d="M106.0 409.0L97.0 409.0L97.0 157.0C97.0 155.89543 97.89543 155.0 99.0 155.0L104.0 155.0C105.10457 155.0 106.0 155.89543 106.0 157.0Z" fill-rule="nonzero"/><path fill="#6d9eeb" clip-path="url(#id_0)" d="M106.0 409.0L97.0 409.0L97.0 157.0C97.0 155.89543 97.89543 155.0 99.0 155.0L104.0 155.0C105.10457 155.0 106.0 155.89543 106.0 157.0Z" fill-rule="nonzero"/><path stroke="#000000" stroke-width="2.0" stroke-linecap="butt" stroke-opacity="0.0" clip-path="url(#id_0)" d="M120.0 409.0L111.0 409.0L111.0 157.0C111.0 155.89543 111.89543 155.0 113.0 155.0L118.0 155.0C119.10457 155.0 120.0 155.89543 120.0 157.0Z" fill-rule="nonzero"/><path fill="#6d9eeb" clip-path="url(#id_0)" d="M120.0 409.0L111.0 409.0L111.0 157.0C111.0 155.89543 111.89543 155.0 113.0 155.0L118.0 155.0C119.10457 155.0 120.0 155.89543 120.0 157.0Z" fill-rule="nonzero"/><path stroke="#000000" stroke-width="2.0" stroke-linecap="butt" stroke-opacity="0.0" clip-path="url(#id_0)" d="M133.0 409.0L124.0 409.0L124.0 156.0C124.0 154.89543 124.89543 154.0 126.0 154.0L131.0 154.0C132.10457 154.0 133.0 154.89543 133.0 156.0Z" fill-rule="nonzero"/><path fill="#6d9eeb" clip-path="url(#id_0)" d="M133.0 409.0L124.0 409.0L124.0 156.0C124.0 154.89543 124.89543 154.0 126.0 154.0L131.0 154.0C132.10457 154.0 133.0 154.89543 133.0 156.0Z" fill-rule="nonzero"/><path stroke="#000000" stroke-width="2.0" stroke-linecap="butt" stroke-opacity="0.0" clip-path="url(#id_0)" d="M146.0 409.0L137.0 409.0L137.0 229.0C137.0 227.89543 137.89543 227.0 139.0 227.0L144.0 227.0C145.10457 227.0 146.0 227.89543 146.0 229.0Z" fill-rule="nonzero"/><path fill="#6d9eeb" clip-path="url(#id_0)" d="M146.0 409.0L137.0 409.0L137.0 229.0C137.0 227.89543 137.89543 227.0 139.0 227.0L144.0 227.0C145.10457 227.0 146.0 227.89543 146.0 229.0Z" fill-rule="nonzero"/><path stroke="#000000" stroke-width="2.0" stroke-linecap="butt" stroke-opacity="0.0" clip-path="url(#id_0)" d="M160.0 409.0L151.0 409.0L151.0 230.0C151.0 228.89543 151.89543 228.0 153.0 228.0L158.0 228.0C159.10457 228.0 160.0 228.89543 160.0 230.0Z" fill-rule="nonzero"/><path fill="#6d9eeb" clip-path="url(#id_0)" d="M160.0 409.0L151.0 409.0L151.0 230.0C151.0 228.89543 151.89543 228.0 153.0 228.0L158.0 228.0C159.10457 228.0 160.0 228.89543 160.0 230.0Z" fill-rule="nonzero"/><path stroke="#000000" stroke-width="2.0" stroke-linecap="butt" stroke-opacity="0.0" clip-path="url(#id_0)" d="M173.0 409.0L164.0 409.0L164.0 231.0C164.0 229.89543 164.89543 229.0 166.0 229.0L171.0 229.0C172.10457 229.0 173.0 229.89543 173.0 231.0Z" fill-rule="nonzero"/><path fill="#6d9eeb" clip-path="url(#id_0)" d="M173.0 409.0L164.0 409.0L164.0 231.0C164.0 229.89543 164.89543 229.0 166.0 229.0L171.0 229.0C172.10457 229.0 173.0 229.89543 173.0 231.0Z" fill-rule="nonzero"/><path stroke="#000000" stroke-width="2.0" stroke-linecap="butt" stroke-opacity="0.0" clip-path="url(#id_0)" d="M187.0 409.0L178.0 409.0L178.0 156.0C178.0 154.89543 178.89543 154.0 180.0 154.0L185.0 154.0C186.10457 154.0 187.0 154.89543 187.0 156.0Z" fill-rule="nonzero"/><path fill="#6d9eeb" clip-path="url(#id_0)" d="M187.0 409.0L178.0 409.0L178.0 156.0C178.0 154.89543 178.89543 154.0 180.0 154.0L185.0 154.0C186.10457 154.0 187.0 154.89543 187.0 156.0Z" fill-rule="nonzero"/><path stroke="#000000" stroke-width="2.0" stroke-linecap="butt" stroke-opacity="0.0" clip-path="url(#id_0)" d="M200.0 409.0L191.0 409.0L191.0 155.0C191.0 153.89543 191.89543 153.0 193.0 153.0L198.0 153.0C199.10457 153.0 200.0 153.89543 200.0 155.0Z" fill-rule="nonzero"/><path fill="#6d9eeb" clip-path="url(#id_0)" d="M200.0 409.0L191.0 409.0L191.0 155.0C191.0 153.89543 191.89543 153.0 193.0 153.0L198.0 153.0C199.10457 153.0 200.0 153.89543 200.0 155.0Z" fill-rule="nonzero"/><path stroke="#000000" stroke-width="2.0" stroke-linecap="butt" stroke-opacity="0.0" clip-path="url(#id_0)" d="M213.0 409.0L204.0 409.0L204.0 155.0C204.0 153.89543 204.89543 153.0 206.0 153.0L211.0 153.0C212.10457 153.0 213.0 153.89543 213.0 155.0Z" fill-rule="nonzero"/><path fill="#6d9eeb" clip-path="url(#id_0)" d="M213.0 409.0L204.0 409.0L204.0 155.0C204.0 153.89543 204.89543 153.0 206.0 153.0L211.0 153.0C212.10457 153.0 213.0 153.89543 213.0 155.0Z" fill-rule="nonzero"/><path stroke="#000000" stroke-width="2.0" stroke-linecap="butt" stroke-opacity="0.0" clip-path="url(#id_0)" d="M227.0 409.0L218.0 409.0L218.0 155.0C218.0 153.89543 218.89543 153.0 220.0 153.0L225.0 153.0C226.10457 153.0 227.0 153.89543 227.0 155.0Z" fill-rule="nonzero"/><path fill="#6d9eeb" clip-path="url(#id_0)" d="M227.0 409.0L218.0 409.0L218.0 155.0C218.0 153.89543 218.89543 153.0 220.0 153.0L225.0 153.0C226.10457 153.0 227.0 153.89543 227.0 155.0Z" fill-rule="nonzero"/><path stroke="#000000" stroke-width="2.0" stroke-linecap="butt" stroke-opacity="0.0" clip-path="url(#id_0)" d="M240.0 409.0L231.0 409.0L231.0 155.0C231.0 153.89543 231.89543 153.0 233.0 153.0L238.0 153.0C239.10457 153.0 240.0 153.89543 240.0 155.0Z" fill-rule="nonzero"/><path fill="#6d9eeb" clip-path="url(#id_0)" d="M240.0 409.0L231.0 409.0L231.0 155.0C231.0 153.89543 231.89543 153.0 233.0 153.0L238.0 153.0C239.10457 153.0 240.0 153.89543 240.0 155.0Z" fill-rule="nonzero"/><path stroke="#000000" stroke-width="2.0" stroke-linecap="butt" stroke-opacity="0.0" clip-path="url(#id_0)" d="M254.0 409.0L245.0 409.0L245.0 155.0C245.0 153.89543 245.89543 153.0 247.0 153.0L252.0 153.0C253.10457 153.0 254.0 153.89543 254.0 155.0Z" fill-rule="nonzero"/><path fill="#6d9eeb" clip-path="url(#id_0)" d="M254.0 409.0L245.0 409.0L245.0 155.0C245.0 153.89543 245.89543 153.0 247.0 153.0L252.0 153.0C253.10457 153.0 254.0 153.89543 254.0 155.0Z" fill-rule="nonzero"/><path stroke="#000000" stroke-width="2.0" stroke-linecap="butt" stroke-opacity="0.0" clip-path="url(#id_0)" d="M267.0 409.0L258.0 409.0L258.0 154.0C258.0 152.89543 258.89542 152.0 260.0 152.0L265.0 152.0C266.10458 152.0 267.0 152.89543 267.0 154.0Z" fill-rule="nonzero"/><path fill="#6d9eeb" clip-path="url(#id_0)" d="M267.0 409.0L258.0 409.0L258.0 154.0C258.0 152.89543 258.89542 152.0 260.0 152.0L265.0 152.0C266.10458 152.0 267.0 152.89543 267.0 154.0Z" fill-rule="nonzero"/><path stroke="#000000" stroke-width="2.0" stroke-linecap="butt" stroke-opacity="0.0" clip-path="url(#id_0)" d="M280.0 409.0L271.0 409.0L271.0 154.0C271.0 152.89543 271.89542 152.0 273.0 152.0L278.0 152.0C279.10458 152.0 280.0 152.89543 280.0 154.0Z" fill-rule="nonzero"/><path fill="#6d9eeb" clip-path="url(#id_0)" d="M280.0 409.0L271.0 409.0L271.0 154.0C271.0 152.89543 271.89542 152.0 273.0 152.0L278.0 152.0C279.10458 152.0 280.0 152.89543 280.0 154.0Z" fill-rule="nonzero"/><path stroke="#000000" stroke-width="2.0" stroke-linecap="butt" stroke-opacity="0.0" clip-path="url(#id_0)" d="M294.0 409.0L285.0 409.0L285.0 154.0C285.0 152.89543 285.89542 152.0 287.0 152.0L292.0 152.0C293.10458 152.0 294.0 152.89543 294.0 154.0Z" fill-rule="nonzero"/><path fill="#6d9eeb" clip-path="url(#id_0)" d="M294.0 409.0L285.0 409.0L285.0 154.0C285.0 152.89543 285.89542 152.0 287.0 152.0L292.0 152.0C293.10458 152.0 294.0 152.89543 294.0 154.0Z" fill-rule="nonzero"/><path stroke="#000000" stroke-width="2.0" stroke-linecap="butt" stroke-opacity="0.0" clip-path="url(#id_0)" d="M307.0 409.0L298.0 409.0L298.0 154.0C298.0 152.89543 298.89542 152.0 300.0 152.0L305.0 152.0C306.10458 152.0 307.0 152.89543 307.0 154.0Z" fill-rule="nonzero"/><path fill="#6d9eeb" clip-path="url(#id_0)" d="M307.0 409.0L298.0 409.0L298.0 154.0C298.0 152.89543 298.89542 152.0 300.0 152.0L305.0 152.0C306.10458 152.0 307.0 152.89543 307.0 154.0Z" fill-rule="nonzero"/><path stroke="#000000" stroke-width="2.0" stroke-linecap="butt" stroke-opacity="0.0" clip-path="url(#id_0)" d="M321.0 409.0L312.0 409.0L312.0 154.0C312.0 152.89543 312.89542 152.0 314.0 152.0L319.0 152.0C320.10458 152.0 321.0 152.89543 321.0 154.0Z" fill-rule="nonzero"/><path fill="#6d9eeb" clip-path="url(#id_0)" d="M321.0 409.0L312.0 409.0L312.0 154.0C312.0 152.89543 312.89542 152.0 314.0 152.0L319.0 152.0C320.10458 152.0 321.0 152.89543 321.0 154.0Z" fill-rule="nonzero"/><path stroke="#000000" stroke-width="2.0" stroke-linecap="butt" stroke-opacity="0.0" clip-path="url(#id_0)" d="M334.0 409.0L325.0 409.0L325.0 340.0C325.0 338.89542 325.89542 338.0 327.0 338.0L332.0 338.0C333.10458 338.0 334.0 338.89542 334.0 340.0Z" fill-rule="nonzero"/><path fill="#6d9eeb" clip-path="url(#id_0)" d="M334.0 409.0L325.0 409.0L325.0 340.0C325.0 338.89542 325.89542 338.0 327.0 338.0L332.0 338.0C333.10458 338.0 334.0 338.89542 334.0 340.0Z" fill-rule="nonzero"/><path stroke="#000000" stroke-width="2.0" stroke-linecap="butt" stroke-opacity="0.0" clip-path="url(#id_0)" d="M347.0 409.0L338.0 409.0L338.0 341.0C338.0 339.89542 338.89542 339.0 340.0 339.0L345.0 339.0C346.10458 339.0 347.0 339.89542 347.0 341.0Z" fill-rule="nonzero"/><path fill="#6d9eeb" clip-path="url(#id_0)" d="M347.0 409.0L338.0 409.0L338.0 341.0C338.0 339.89542 338.89542 339.0 340.0 339.0L345.0 339.0C346.10458 339.0 347.0 339.89542 347.0 341.0Z" fill-rule="nonzero"/><path stroke="#000000" stroke-width="2.0" stroke-linecap="butt" stroke-opacity="0.0" clip-path="url(#id_0)" d="M361.0 409.0L352.0 409.0L352.0 344.0C352.0 342.89542 352.89542 342.0 354.0 342.0L359.0 342.0C360.10458 342.0 361.0 342.89542 361.0 344.0Z" fill-rule="nonzero"/><path fill="#6d9eeb" clip-path="url(#id_0)" d="M361.0 409.0L352.0 409.0L352.0 344.0C352.0 342.89542 352.89542 342.0 354.0 342.0L359.0 342.0C360.10458 342.0 361.0 342.89542 361.0 344.0Z" fill-rule="nonzero"/><path stroke="#000000" stroke-width="2.0" stroke-linecap="butt" stroke-opacity="0.0" clip-path="url(#id_0)" d="M374.0 409.0L365.0 409.0L365.0 344.0C365.0 342.89542 365.89542 342.0 367.0 342.0L372.0 342.0C373.10458 342.0 374.0 342.89542 374.0 344.0Z" fill-rule="nonzero"/><path fill="#6d9eeb" clip-path="url(#id_0)" d="M374.0 409.0L365.0 409.0L365.0 344.0C365.0 342.89542 365.89542 342.0 367.0 342.0L372.0 342.0C373.10458 342.0 374.0 342.89542 374.0 344.0Z" fill-rule="nonzero"/><path stroke="#000000" stroke-width="2.0" stroke-linecap="butt" stroke-opacity="0.0" clip-path="url(#id_0)" d="M388.0 409.0L379.0 409.0L379.0 343.0C379.0 341.89542 379.89542 341.0 381.0 341.0L386.0 341.0C387.10458 341.0 388.0 341.89542 388.0 343.0Z" fill-rule="nonzero"/><path fill="#6d9eeb" clip-path="url(#id_0)" d="M388.0 409.0L379.0 409.0L379.0 343.0C379.0 341.89542 379.89542 341.0 381.0 341.0L386.0 341.0C387.10458 341.0 388.0 341.89542 388.0 343.0Z" fill-rule="nonzero"/><path stroke="#000000" stroke-width="2.0" stroke-linecap="butt" stroke-opacity="0.0" clip-path="url(#id_0)" d="M401.0 409.0L392.0 409.0L392.0 342.0C392.0 340.89542 392.89542 340.0 394.0 340.0L399.0 340.0C400.10458 340.0 401.0 340.89542 401.0 342.0Z" fill-rule="nonzero"/><path fill="#6d9eeb" clip-path="url(#id_0)" d="M401.0 409.0L392.0 409.0L392.0 342.0C392.0 340.89542 392.89542 340.0 394.0 340.0L399.0 340.0C400.10458 340.0 401.0 340.89542 401.0 342.0Z" fill-rule="nonzero"/><path stroke="#000000" stroke-width="2.0" stroke-linecap="butt" stroke-opacity="0.0" clip-path="url(#id_0)" d="M414.0 409.0L405.0 409.0L405.0 342.0C405.0 340.89542 405.89542 340.0 407.0 340.0L412.0 340.0C413.10458 340.0 414.0 340.89542 414.0 342.0Z" fill-rule="nonzero"/><path fill="#6d9eeb" clip-path="url(#id_0)" d="M414.0 409.0L405.0 409.0L405.0 342.0C405.0 340.89542 405.89542 340.0 407.0 340.0L412.0 340.0C413.10458 340.0 414.0 340.89542 414.0 342.0Z" fill-rule="nonzero"/><path stroke="#000000" stroke-width="2.0" stroke-linecap="butt" stroke-opacity="0.0" clip-path="url(#id_0)" d="M428.0 409.0L419.0 409.0L419.0 406.0C419.0 404.89542 419.89542 404.0 421.0 404.0L426.0 404.0C427.10458 404.0 428.0 404.89542 428.0 406.0Z" fill-rule="nonzero"/><path fill="#6d9eeb" clip-path="url(#id_0)" d="M428.0 409.0L419.0 409.0L419.0 406.0C419.0 404.89542 419.89542 404.0 421.0 404.0L426.0 404.0C427.10458 404.0 428.0 404.89542 428.0 406.0Z" fill-rule="nonzero"/><path stroke="#000000" stroke-width="2.0" stroke-linecap="butt" stroke-opacity="0.0" clip-path="url(#id_0)" d="M441.0 409.0L432.0 409.0L432.0 406.0C432.0 404.89542 432.89542 404.0 434.0 404.0L439.0 404.0C440.10458 404.0 441.0 404.89542 441.0 406.0Z" fill-rule="nonzero"/><path fill="#6d9eeb" clip-path="url(#id_0)" d="M441.0 409.0L432.0 409.0L432.0 406.0C432.0 404.89542 432.89542 404.0 434.0 404.0L439.0 404.0C440.10458 404.0 441.0 404.89542 441.0 406.0Z" fill-rule="nonzero"/><path stroke="#000000" stroke-width="2.0" stroke-linecap="butt" stroke-opacity="0.0" clip-path="url(#id_0)" d="M455.0 409.0L446.0 409.0L446.0 406.0C446.0 404.89542 446.89542 404.0 448.0 404.0L453.0 404.0C454.10458 404.0 455.0 404.89542 455.0 406.0Z" fill-rule="nonzero"/><path fill="#6d9eeb" clip-path="url(#id_0)" d="M455.0 409.0L446.0 409.0L446.0 406.0C446.0 404.89542 446.89542 404.0 448.0 404.0L453.0 404.0C454.10458 404.0 455.0 404.89542 455.0 406.0Z" fill-rule="nonzero"/><path stroke="#000000" stroke-width="2.0" stroke-linecap="butt" stroke-opacity="0.0" clip-path="url(#id_0)" d="M468.0 409.0L459.0 409.0L459.0 141.0C459.0 139.89543 459.89542 139.0 461.0 139.0L466.0 139.0C467.10458 139.0 468.0 139.89543 468.0 141.0Z" fill-rule="nonzero"/><path fill="#6d9eeb" clip-path="url(#id_0)" d="M468.0 409.0L459.0 409.0L459.0 141.0C459.0 139.89543 459.89542 139.0 461.0 139.0L466.0 139.0C467.10458 139.0 468.0 139.89543 468.0 141.0Z" fill-rule="nonzero"/><path stroke="#000000" stroke-width="2.0" stroke-linecap="butt" stroke-opacity="0.0" clip-path="url(#id_0)" d="M481.0 409.0L472.0 409.0L472.0 139.0C472.0 137.89543 472.89542 137.0 474.0 137.0L479.0 137.0C480.10458 137.0 481.0 137.89543 481.0 139.0Z" fill-rule="nonzero"/><path fill="#6d9eeb" clip-path="url(#id_0)" d="M481.0 409.0L472.0 409.0L472.0 139.0C472.0 137.89543 472.89542 137.0 474.0 137.0L479.0 137.0C480.10458 137.0 481.0 137.89543 481.0 139.0Z" fill-rule="nonzero"/><path stroke="#000000" stroke-width="2.0" stroke-linecap="butt" stroke-opacity="0.0" clip-path="url(#id_0)" d="M495.0 409.0L486.0 409.0L486.0 138.0C486.0 136.89543 486.89542 136.0 488.0 136.0L493.0 136.0C494.10458 136.0 495.0 136.89543 495.0 138.0Z" fill-rule="nonzero"/><path fill="#6d9eeb" clip-path="url(#id_0)" d="M495.0 409.0L486.0 409.0L486.0 138.0C486.0 136.89543 486.89542 136.0 488.0 136.0L493.0 136.0C494.10458 136.0 495.0 136.89543 495.0 138.0Z" fill-rule="nonzero"/><path stroke="#000000" stroke-width="2.0" stroke-linecap="butt" stroke-opacity="0.0" clip-path="url(#id_0)" d="M508.0 409.0L499.0 409.0L499.0 406.0C499.0 404.89542 499.89542 404.0 501.0 404.0L506.0 404.0C507.10458 404.0 508.0 404.89542 508.0 406.0Z" fill-rule="nonzero"/><path fill="#6d9eeb" clip-path="url(#id_0)" d="M508.0 409.0L499.0 409.0L499.0 406.0C499.0 404.89542 499.89542 404.0 501.0 404.0L506.0 404.0C507.10458 404.0 508.0 404.89542 508.0 406.0Z" fill-rule="nonzero"/><path stroke="#000000" stroke-width="2.0" stroke-linecap="butt" stroke-opacity="0.0" clip-path="url(#id_0)" d="M522.0 409.0L513.0 409.0L513.0 135.0C513.0 133.89543 513.89545 133.0 515.0 133.0L520.0 133.0C521.10455 133.0 522.0 133.89543 522.0 135.0Z" fill-rule="nonzero"/><path fill="#6d9eeb" clip-path="url(#id_0)" d="M522.0 409.0L513.0 409.0L513.0 135.0C513.0 133.89543 513.89545 133.0 515.0 133.0L520.0 133.0C521.10455 133.0 522.0 133.89543 522.0 135.0Z" fill-rule="nonzero"/><path stroke="#000000" stroke-width="2.0" stroke-linecap="butt" stroke-opacity="0.0" clip-path="url(#id_0)" d="M535.0 409.0L526.0 409.0L526.0 134.0C526.0 132.89543 526.89545 132.0 528.0 132.0L533.0 132.0C534.10455 132.0 535.0 132.89543 535.0 134.0Z" fill-rule="nonzero"/><path fill="#6d9eeb" clip-path="url(#id_0)" d="M535.0 409.0L526.0 409.0L526.0 134.0C526.0 132.89543 526.89545 132.0 528.0 132.0L533.0 132.0C534.10455 132.0 535.0 132.89543 535.0 134.0Z" fill-rule="nonzero"/><path stroke="#000000" stroke-width="2.0" stroke-linecap="butt" stroke-opacity="0.0" clip-path="url(#id_0)" d="M549.0 409.0L540.0 409.0L540.0 132.0C540.0 130.89543 540.89545 130.0 542.0 130.0L547.0 130.0C548.10455 130.0 549.0 130.89543 549.0 132.0Z" fill-rule="nonzero"/><path fill="#6d9eeb" clip-path="url(#id_0)" d="M549.0 409.0L540.0 409.0L540.0 132.0C540.0 130.89543 540.89545 130.0 542.0 130.0L547.0 130.0C548.10455 130.0 549.0 130.89543 549.0 132.0Z" fill-rule="nonzero"/><path stroke="#000000" stroke-width="2.0" stroke-linecap="butt" stroke-opacity="0.0" clip-path="url(#id_0)" d="M562.0 409.0L553.0 409.0L553.0 131.0C553.0 129.89543 553.89545 129.0 555.0 129.0L560.0 129.0C561.10455 129.0 562.0 129.89543 562.0 131.0Z" fill-rule="nonzero"/><path fill="#6d9eeb" clip-path="url(#id_0)" d="M562.0 409.0L553.0 409.0L553.0 131.0C553.0 129.89543 553.89545 129.0 555.0 129.0L560.0 129.0C561.10455 129.0 562.0 129.89543 562.0 131.0Z" fill-rule="nonzero"/><path stroke="#000000" stroke-width="2.0" stroke-linecap="butt" stroke-opacity="0.0" clip-path="url(#id_0)" d="M575.0 409.0L566.0 409.0L566.0 129.0C566.0 127.89543 566.89545 127.0 568.0 127.0L573.0 127.0C574.10455 127.0 575.0 127.89543 575.0 129.0Z" fill-rule="nonzero"/><path fill="#6d9eeb" clip-path="url(#id_0)" d="M575.0 409.0L566.0 409.0L566.0 129.0C566.0 127.89543 566.89545 127.0 568.0 127.0L573.0 127.0C574.10455 127.0 575.0 127.89543 575.0 129.0Z" fill-rule="nonzero"/><path stroke="#000000" stroke-width="2.0" stroke-linecap="butt" stroke-opacity="0.0" clip-path="url(#id_0)" d="M589.0 409.0L580.0 409.0L580.0 128.0C580.0 126.89543 580.89545 126.0 582.0 126.0L587.0 126.0C588.10455 126.0 589.0 126.89543 589.0 128.0Z" fill-rule="nonzero"/><path fill="#6d9eeb" clip-path="url(#id_0)" d="M589.0 409.0L580.0 409.0L580.0 128.0C580.0 126.89543 580.89545 126.0 582.0 126.0L587.0 126.0C588.10455 126.0 589.0 126.89543 589.0 128.0Z" fill-rule="nonzero"/><path stroke="#000000" stroke-width="2.0" stroke-linecap="butt" stroke-opacity="0.0" clip-path="url(#id_0)" d="M602.0 409.0L593.0 409.0L593.0 126.0C593.0 124.89543 593.89545 124.0 595.0 124.0L600.0 124.0C601.10455 124.0 602.0 124.89543 602.0 126.0Z" fill-rule="nonzero"/><path fill="#6d9eeb" clip-path="url(#id_0)" d="M602.0 409.0L593.0 409.0L593.0 126.0C593.0 124.89543 593.89545 124.0 595.0 124.0L600.0 124.0C601.10455 124.0 602.0 124.89543 602.0 126.0Z" fill-rule="nonzero"/><path stroke="#000000" stroke-width="2.0" stroke-linecap="butt" stroke-opacity="0.0" clip-path="url(#id_0)" d="M616.0 409.0L607.0 409.0L607.0 124.0C607.0 122.89543 607.89545 122.0 609.0 122.0L614.0 122.0C615.10455 122.0 616.0 122.89543 616.0 124.0Z" fill-rule="nonzero"/><path fill="#6d9eeb" clip-path="url(#id_0)" d="M616.0 409.0L607.0 409.0L607.0 124.0C607.0 122.89543 607.89545 122.0 609.0 122.0L614.0 122.0C615.10455 122.0 616.0 122.89543 616.0 124.0Z" fill-rule="nonzero"/><path stroke="#000000" stroke-width="2.0" stroke-linecap="butt" stroke-opacity="0.0" clip-path="url(#id_0)" d="M629.0 409.0L620.0 409.0L620.0 123.0C620.0 121.89543 620.89545 121.0 622.0 121.0L627.0 121.0C628.10455 121.0 629.0 121.89543 629.0 123.0Z" fill-rule="nonzero"/><path fill="#6d9eeb" clip-path="url(#id_0)" d="M629.0 409.0L620.0 409.0L620.0 123.0C620.0 121.89543 620.89545 121.0 622.0 121.0L627.0 121.0C628.10455 121.0 629.0 121.89543 629.0 123.0Z" fill-rule="nonzero"/><path stroke="#000000" stroke-width="2.0" stroke-linecap="butt" stroke-opacity="0.0" clip-path="url(#id_0)" d="M642.0 409.0L633.0 409.0L633.0 122.0C633.0 120.89543 633.89545 120.0 635.0 120.0L640.0 120.0C641.10455 120.0 642.0 120.89543 642.0 122.0Z" fill-rule="nonzero"/><path fill="#6d9eeb" clip-path="url(#id_0)" d="M642.0 409.0L633.0 409.0L633.0 122.0C633.0 120.89543 633.89545 120.0 635.0 120.0L640.0 120.0C641.10455 120.0 642.0 120.89543 642.0 122.0Z" fill-rule="nonzero"/><path stroke="#000000" stroke-width="2.0" stroke-linecap="butt" stroke-opacity="0.0" clip-path="url(#id_0)" d="M656.0 409.0L647.0 409.0L647.0 120.0C647.0 118.89543 647.89545 118.0 649.0 118.0L654.0 118.0C655.10455 118.0 656.0 118.89543 656.0 120.0Z" fill-rule="nonzero"/><path fill="#6d9eeb" clip-path="url(#id_0)" d="M656.0 409.0L647.0 409.0L647.0 120.0C647.0 118.89543 647.89545 118.0 649.0 118.0L654.0 118.0C655.10455 118.0 656.0 118.89543 656.0 120.0Z" fill-rule="nonzero"/><path stroke="#000000" stroke-width="2.0" stroke-linecap="butt" stroke-opacity="0.0" clip-path="url(#id_0)" d="M669.0 409.0L660.0 409.0L660.0 119.0C660.0 117.89543 660.89545 117.0 662.0 117.0L667.0 117.0C668.10455 117.0 669.0 117.89543 669.0 119.0Z" fill-rule="nonzero"/><path fill="#6d9eeb" clip-path="url(#id_0)" d="M669.0 409.0L660.0 409.0L660.0 119.0C660.0 117.89543 660.89545 117.0 662.0 117.0L667.0 117.0C668.10455 117.0 669.0 117.89543 669.0 119.0Z" fill-rule="nonzero"/><path stroke="#000000" stroke-width="2.0" stroke-linecap="butt" stroke-opacity="0.0" clip-path="url(#id_0)" d="M683.0 409.0L674.0 409.0L674.0 116.0C674.0 114.89543 674.89545 114.0 676.0 114.0L681.0 114.0C682.10455 114.0 683.0 114.89543 683.0 116.0Z" fill-rule="nonzero"/><path fill="#6d9eeb" clip-path="url(#id_0)" d="M683.0 409.0L674.0 409.0L674.0 116.0C674.0 114.89543 674.89545 114.0 676.0 114.0L681.0 114.0C682.10455 114.0 683.0 114.89543 683.0 116.0Z" fill-rule="nonzero"/><path stroke="#000000" stroke-width="2.0" stroke-linecap="butt" stroke-opacity="0.0" clip-path="url(#id_0)" d="M696.0 409.0L687.0 409.0L687.0 115.0C687.0 113.89543 687.89545 113.0 689.0 113.0L694.0 113.0C695.10455 113.0 696.0 113.89543 696.0 115.0Z" fill-rule="nonzero"/><path fill="#6d9eeb" clip-path="url(#id_0)" d="M696.0 409.0L687.0 409.0L687.0 115.0C687.0 113.89543 687.89545 113.0 689.0 113.0L694.0 113.0C695.10455 113.0 696.0 113.89543 696.0 115.0Z" fill-rule="nonzero"/><path stroke="#000000" stroke-width="2.0" stroke-linecap="butt" stroke-opacity="0.0" clip-path="url(#id_0)" d="M709.0 409.0L700.0 409.0L700.0 404.0C700.0 402.89542 700.89545 402.0 702.0 402.0L707.0 402.0C708.10455 402.0 709.0 402.89542 709.0 404.0Z" fill-rule="nonzero"/><path fill="#6d9eeb" clip-path="url(#id_0)" d="M709.0 409.0L700.0 409.0L700.0 404.0C700.0 402.89542 700.89545 402.0 702.0 402.0L707.0 402.0C708.10455 402.0 709.0 402.89542 709.0 404.0Z" fill-rule="nonzero"/><path stroke="#000000" stroke-width="2.0" stroke-linecap="butt" stroke-opacity="0.0" clip-path="url(#id_0)" d="M723.0 409.0L714.0 409.0L714.0 404.0C714.0 402.89542 714.89545 402.0 716.0 402.0L721.0 402.0C722.10455 402.0 723.0 402.89542 723.0 404.0Z" fill-rule="nonzero"/><path fill="#6d9eeb" clip-path="url(#id_0)" d="M723.0 409.0L714.0 409.0L714.0 404.0C714.0 402.89542 714.89545 402.0 716.0 402.0L721.0 402.0C722.10455 402.0 723.0 402.89542 723.0 404.0Z" fill-rule="nonzero"/><path stroke="#000000" stroke-width="2.0" stroke-linecap="butt" stroke-opacity="0.0" clip-path="url(#id_0)" d="M736.0 409.0L727.0 409.0L727.0 112.0C727.0 110.89543 727.89545 110.0 729.0 110.0L734.0 110.0C735.10455 110.0 736.0 110.89543 736.0 112.0Z" fill-rule="nonzero"/><path fill="#6d9eeb" clip-path="url(#id_0)" d="M736.0 409.0L727.0 409.0L727.0 112.0C727.0 110.89543 727.89545 110.0 729.0 110.0L734.0 110.0C735.10455 110.0 736.0 110.89543 736.0 112.0Z" fill-rule="nonzero"/><path stroke="#000000" stroke-width="2.0" stroke-linecap="butt" stroke-opacity="0.0" clip-path="url(#id_0)" d="M750.0 409.0L741.0 409.0L741.0 109.0C741.0 107.89543 741.89545 107.0 743.0 107.0L748.0 107.0C749.10455 107.0 750.0 107.89543 750.0 109.0Z" fill-rule="nonzero"/><path fill="#6d9eeb" clip-path="url(#id_0)" d="M750.0 409.0L741.0 409.0L741.0 109.0C741.0 107.89543 741.89545 107.0 743.0 107.0L748.0 107.0C749.10455 107.0 750.0 107.89543 750.0 109.0Z" fill-rule="nonzero"/><path stroke="#000000" stroke-width="2.0" stroke-linecap="butt" stroke-opacity="0.0" clip-path="url(#id_0)" d="M763.0 409.0L754.0 409.0L754.0 107.0C754.0 105.89543 754.89545 105.0 756.0 105.0L761.0 105.0C762.10455 105.0 763.0 105.89543 763.0 107.0Z" fill-rule="nonzero"/><path fill="#6d9eeb" clip-path="url(#id_0)" d="M763.0 409.0L754.0 409.0L754.0 107.0C754.0 105.89543 754.89545 105.0 756.0 105.0L761.0 105.0C762.10455 105.0 763.0 105.89543 763.0 107.0Z" fill-rule="nonzero"/><path stroke="#000000" stroke-width="2.0" stroke-linecap="butt" stroke-opacity="0.0" clip-path="url(#id_0)" d="M776.0 409.0L767.0 409.0L767.0 106.0C767.0 104.89543 767.89545 104.0 769.0 104.0L774.0 104.0C775.10455 104.0 776.0 104.89543 776.0 106.0Z" fill-rule="nonzero"/><path fill="#6d9eeb" clip-path="url(#id_0)" d="M776.0 409.0L767.0 409.0L767.0 106.0C767.0 104.89543 767.89545 104.0 769.0 104.0L774.0 104.0C775.10455 104.0 776.0 104.89543 776.0 106.0Z" fill-rule="nonzero"/><path stroke="#000000" stroke-width="2.0" stroke-linecap="butt" stroke-opacity="0.0" clip-path="url(#id_0)" d="M790.0 409.0L781.0 409.0L781.0 105.0C781.0 103.89543 781.89545 103.0 783.0 103.0L788.0 103.0C789.10455 103.0 790.0 103.89543 790.0 105.0Z" fill-rule="nonzero"/><path fill="#6d9eeb" clip-path="url(#id_0)" d="M790.0 409.0L781.0 409.0L781.0 105.0C781.0 103.89543 781.89545 103.0 783.0 103.0L788.0 103.0C789.10455 103.0 790.0 103.89543 790.0 105.0Z" fill-rule="nonzero"/><path stroke="#000000" stroke-width="2.0" stroke-linecap="butt" stroke-opacity="0.0" clip-path="url(#id_0)" d="M803.0 409.0L794.0 409.0L794.0 104.0C794.0 102.89543 794.89545 102.0 796.0 102.0L801.0 102.0C802.10455 102.0 803.0 102.89543 803.0 104.0Z" fill-rule="nonzero"/><path fill="#6d9eeb" clip-path="url(#id_0)" d="M803.0 409.0L794.0 409.0L794.0 104.0C794.0 102.89543 794.89545 102.0 796.0 102.0L801.0 102.0C802.10455 102.0 803.0 102.89543 803.0 104.0Z" fill-rule="nonzero"/><path stroke="#000000" stroke-width="2.0" stroke-linecap="butt" stroke-opacity="0.0" clip-path="url(#id_0)" d="M817.0 409.0L808.0 409.0L808.0 102.0C808.0 100.89543 808.89545 100.0 810.0 100.0L815.0 100.0C816.10455 100.0 817.0 100.89543 817.0 102.0Z" fill-rule="nonzero"/><path fill="#6d9eeb" clip-path="url(#id_0)" d="M817.0 409.0L808.0 409.0L808.0 102.0C808.0 100.89543 808.89545 100.0 810.0 100.0L815.0 100.0C816.10455 100.0 817.0 100.89543 817.0 102.0Z" fill-rule="nonzero"/><path stroke="#000000" stroke-width="2.0" stroke-linecap="butt" stroke-opacity="0.0" clip-path="url(#id_0)" d="M830.0 409.0L821.0 409.0L821.0 100.0C821.0 98.89543 821.89545 98.0 823.0 98.0L828.0 98.0C829.10455 98.0 830.0 98.89543 830.0 100.0Z" fill-rule="nonzero"/><path fill="#6d9eeb" clip-path="url(#id_0)" d="M830.0 409.0L821.0 409.0L821.0 100.0C821.0 98.89543 821.89545 98.0 823.0 98.0L828.0 98.0C829.10455 98.0 830.0 98.89543 830.0 100.0Z" fill-rule="nonzero"/><path stroke="#000000" stroke-width="2.0" stroke-linecap="butt" stroke-opacity="0.0" clip-path="url(#id_0)" d="M843.0 409.0L834.0 409.0L834.0 98.0C834.0 96.89543 834.89545 96.0 836.0 96.0L841.0 96.0C842.10455 96.0 843.0 96.89543 843.0 98.0Z" fill-rule="nonzero"/><path fill="#6d9eeb" clip-path="url(#id_0)" d="M843.0 409.0L834.0 409.0L834.0 98.0C834.0 96.89543 834.89545 96.0 836.0 96.0L841.0 96.0C842.10455 96.0 843.0 96.89543 843.0 98.0Z" fill-rule="nonzero"/><path stroke="#000000" stroke-width="2.0" stroke-linecap="butt" stroke-opacity="0.0" clip-path="url(#id_0)" d="M857.0 409.0L848.0 409.0L848.0 97.0C848.0 95.89543 848.89545 95.0 850.0 95.0L855.0 95.0C856.10455 95.0 857.0 95.89543 857.0 97.0Z" fill-rule="nonzero"/><path fill="#6d9eeb" clip-path="url(#id_0)" d="M857.0 409.0L848.0 409.0L848.0 97.0C848.0 95.89543 848.89545 95.0 850.0 95.0L855.0 95.0C856.10455 95.0 857.0 95.89543 857.0 97.0Z" fill-rule="nonzero"/><path stroke="#000000" stroke-width="2.0" stroke-linecap="butt" stroke-opacity="0.0" clip-path="url(#id_0)" d="M870.0 409.0L861.0 409.0L861.0 96.0C861.0 94.89543 861.89545 94.0 863.0 94.0L868.0 94.0C869.10455 94.0 870.0 94.89543 870.0 96.0Z" fill-rule="nonzero"/><path fill="#6d9eeb" clip-path="url(#id_0)" d="M870.0 409.0L861.0 409.0L861.0 96.0C861.0 94.89543 861.89545 94.0 863.0 94.0L868.0 94.0C869.10455 94.0 870.0 94.89543 870.0 96.0Z" fill-rule="nonzero"/><path stroke="#000000" stroke-width="2.0" stroke-linecap="butt" stroke-opacity="0.0" clip-path="url(#id_0)" d="M884.0 409.0L875.0 409.0L875.0 406.0C875.0 404.89542 875.89545 404.0 877.0 404.0L882.0 404.0C883.10455 404.0 884.0 404.89542 884.0 406.0Z" fill-rule="nonzero"/><path fill="#6d9eeb" clip-path="url(#id_0)" d="M884.0 409.0L875.0 409.0L875.0 406.0C875.0 404.89542 875.89545 404.0 877.0 404.0L882.0 404.0C883.10455 404.0 884.0 404.89542 884.0 406.0Z" fill-rule="nonzero"/><path stroke="#000000" stroke-width="2.0" stroke-linecap="butt" stroke-opacity="0.0" clip-path="url(#id_0)" d="M897.0 409.0L888.0 409.0L888.0 93.0C888.0 91.89543 888.89545 91.0 890.0 91.0L895.0 91.0C896.10455 91.0 897.0 91.89543 897.0 93.0Z" fill-rule="nonzero"/><path fill="#6d9eeb" clip-path="url(#id_0)" d="M897.0 409.0L888.0 409.0L888.0 93.0C888.0 91.89543 888.89545 91.0 890.0 91.0L895.0 91.0C896.10455 91.0 897.0 91.89543 897.0 93.0Z" fill-rule="nonzero"/><path stroke="#000000" stroke-width="2.0" stroke-linecap="butt" stroke-opacity="0.0" clip-path="url(#id_0)" d="M910.0 409.0L901.0 409.0L901.0 90.0C901.0 88.89543 901.89545 88.0 903.0 88.0L908.0 88.0C909.10455 88.0 910.0 88.89543 910.0 90.0Z" fill-rule="nonzero"/><path fill="#6d9eeb" clip-path="url(#id_0)" d="M910.0 409.0L901.0 409.0L901.0 90.0C901.0 88.89543 901.89545 88.0 903.0 88.0L908.0 88.0C909.10455 88.0 910.0 88.89543 910.0 90.0Z" fill-rule="nonzero"/><path stroke="#000000" stroke-width="2.0" stroke-linecap="butt" stroke-opacity="0.0" clip-path="url(#id_0)" d="M924.0 409.0L915.0 409.0L915.0 89.0C915.0 87.89543 915.89545 87.0 917.0 87.0L922.0 87.0C923.10455 87.0 924.0 87.89543 924.0 89.0Z" fill-rule="nonzero"/><path fill="#6d9eeb" clip-path="url(#id_0)" d="M924.0 409.0L915.0 409.0L915.0 89.0C915.0 87.89543 915.89545 87.0 917.0 87.0L922.0 87.0C923.10455 87.0 924.0 87.89543 924.0 89.0Z" fill-rule="nonzero"/><path stroke="#000000" stroke-width="2.0" stroke-linecap="butt" stroke-opacity="0.0" clip-path="url(#id_0)" d="M937.0 409.0L928.0 409.0L928.0 88.0C928.0 86.89543 928.89545 86.0 930.0 86.0L935.0 86.0C936.10455 86.0 937.0 86.89543 937.0 88.0Z" fill-rule="nonzero"/><path fill="#6d9eeb" clip-path="url(#id_0)" d="M937.0 409.0L928.0 409.0L928.0 88.0C928.0 86.89543 928.89545 86.0 930.0 86.0L935.0 86.0C936.10455 86.0 937.0 86.89543 937.0 88.0Z" fill-rule="nonzero"/><path stroke="#000000" stroke-width="2.0" stroke-linecap="butt" stroke-opacity="0.0" clip-path="url(#id_0)" d="M951.0 409.0L942.0 409.0L942.0 86.0C942.0 84.89543 942.89545 84.0 944.0 84.0L949.0 84.0C950.10455 84.0 951.0 84.89543 951.0 86.0Z" fill-rule="nonzero"/><path fill="#6d9eeb" clip-path="url(#id_0)" d="M951.0 409.0L942.0 409.0L942.0 86.0C942.0 84.89543 942.89545 84.0 944.0 84.0L949.0 84.0C950.10455 84.0 951.0 84.89543 951.0 86.0Z" fill-rule="nonzero"/><path stroke="#000000" stroke-width="2.0" stroke-linecap="butt" stroke-opacity="0.0" clip-path="url(#id_0)" d="M964.0 409.0L955.0 409.0L955.0 85.0C955.0 83.89543 955.89545 83.0 957.0 83.0L962.0 83.0C963.10455 83.0 964.0 83.89543 964.0 85.0Z" fill-rule="nonzero"/><path fill="#6d9eeb" clip-path="url(#id_0)" d="M964.0 409.0L955.0 409.0L955.0 85.0C955.0 83.89543 955.89545 83.0 957.0 83.0L962.0 83.0C963.10455 83.0 964.0 83.89543 964.0 85.0Z" fill-rule="nonzero"/><path stroke="#000000" stroke-width="2.0" stroke-linecap="butt" stroke-opacity="0.0" clip-path="url(#id_0)" d="M977.0 409.0L968.0 409.0L968.0 84.0C968.0 82.89543 968.89545 82.0 970.0 82.0L975.0 82.0C976.10455 82.0 977.0 82.89543 977.0 84.0Z" fill-rule="nonzero"/><path fill="#6d9eeb" clip-path="url(#id_0)" d="M977.0 409.0L968.0 409.0L968.0 84.0C968.0 82.89543 968.89545 82.0 970.0 82.0L975.0 82.0C976.10455 82.0 977.0 82.89543 977.0 84.0Z" fill-rule="nonzero"/><path stroke="#000000" stroke-width="2.0" stroke-linecap="butt" stroke-opacity="0.0" clip-path="url(#id_0)" d="M991.0 409.0L982.0 409.0L982.0 82.0C982.0 80.89543 982.89545 80.0 984.0 80.0L989.0 80.0C990.10455 80.0 991.0 80.89543 991.0 82.0Z" fill-rule="nonzero"/><path fill="#6d9eeb" clip-path="url(#id_0)" d="M991.0 409.0L982.0 409.0L982.0 82.0C982.0 80.89543 982.89545 80.0 984.0 80.0L989.0 80.0C990.10455 80.0 991.0 80.89543 991.0 82.0Z" fill-rule="nonzero"/><path stroke="#000000" stroke-width="2.0" stroke-linecap="butt" stroke-opacity="0.0" clip-path="url(#id_0)" d="M1004.0 409.0L995.0 409.0L995.0 80.0C995.0 78.89543 995.89545 78.0 997.0 78.0L1002.0 78.0C1003.10455 78.0 1004.0 78.89543 1004.0 80.0Z" fill-rule="nonzero"/><path fill="#6d9eeb" clip-path="url(#id_0)" d="M1004.0 409.0L995.0 409.0L995.0 80.0C995.0 78.89543 995.89545 78.0 997.0 78.0L1002.0 78.0C1003.10455 78.0 1004.0 78.89543 1004.0 80.0Z" fill-rule="nonzero"/><path stroke="#000000" stroke-width="2.0" stroke-linecap="butt" stroke-opacity="0.0" clip-path="url(#id_0)" d="M1018.0 409.0L1009.0 409.0L1009.0 78.0C1009.0 76.89543 1009.89545 76.0 1011.0 76.0L1016.0 76.0C1017.10455 76.0 1018.0 76.89543 1018.0 78.0Z" fill-rule="nonzero"/><path fill="#6d9eeb" clip-path="url(#id_0)" d="M1018.0 409.0L1009.0 409.0L1009.0 78.0C1009.0 76.89543 1009.89545 76.0 1011.0 76.0L1016.0 76.0C1017.10455 76.0 1018.0 76.89543 1018.0 78.0Z" fill-rule="nonzero"/><path fill="#000000" d="M487.92188 457.75L487.92188 449.15625L489.07812 449.15625L493.59375 455.90625L493.59375 449.15625L494.6875 449.15625L494.6875 457.75L493.51562 457.75L489.0 451.0L489.0 457.75L487.92188 457.75ZM500.875 457.75L500.875 456.82812Q500.14062 457.89062 498.89062 457.89062Q498.34375 457.89062 497.85938 457.6875Q497.39062 457.46875 497.15625 457.15625Q496.92188 456.82812 496.82812 456.35938Q496.76562 456.0625 496.76562 455.375L496.76562 451.53125L497.82812 451.53125L497.82812 454.98438Q497.82812 455.79688 497.89062 456.09375Q497.98438 456.5 498.29688 456.75Q498.625 456.98438 499.10938 456.98438Q499.57812 456.98438 499.98438 456.75Q500.40625 456.5 500.57812 456.07812Q500.76562 455.65625 500.76562 454.85938L500.76562 451.53125L501.8125 451.53125L501.8125 457.75L500.875 457.75ZM503.79688 457.75L503.79688 451.53125L504.73438 451.53125L504.73438 452.40625Q505.03125 451.9375 505.51562 451.67188Q506.0 451.39062 506.625 451.39062Q507.3125 451.39062 507.75 451.67188Q508.20312 451.95312 508.375 452.46875Q509.125 451.39062 510.29688 451.39062Q511.23438 451.39062 511.71875 451.90625Q512.21875 452.40625 512.21875 453.48438L512.21875 457.75L511.17188 457.75L511.17188 453.82812Q511.17188 453.20312 511.0625 452.92188Q510.96875 452.64062 510.70312 452.46875Q510.4375 452.29688 510.0625 452.29688Q509.40625 452.29688 508.96875 452.73438Q508.54688 453.17188 508.54688 454.14062L508.54688 457.75L507.48438 457.75L507.48438 453.70312Q507.48438 453.0 507.21875 452.65625Q506.96875 452.29688 506.39062 452.29688Q505.9375 452.29688 505.5625 452.53125Q505.1875 452.76562 505.01562 453.21875Q504.84375 453.67188 504.84375 454.51562L504.84375 457.75L503.79688 457.75ZM515.7656 457.75L514.78125 457.75L514.78125 449.15625L515.84375 449.15625L515.84375 452.21875Q516.5156 451.39062 517.5469 451.39062Q518.125 451.39062 518.625 451.625Q519.1406 451.84375 519.46875 452.26562Q519.8125 452.6875 520.0 453.28125Q520.1875 453.875 520.1875 454.54688Q520.1875 456.14062 519.3906 457.01562Q518.59375 457.89062 517.5 457.89062Q516.3906 457.89062 515.7656 456.96875L515.7656 457.75ZM515.75 454.59375Q515.75 455.70312 516.0625 456.20312Q516.5625 457.01562 517.40625 457.01562Q518.09375 457.01562 518.59375 456.42188Q519.1094 455.82812 519.1094 454.625Q519.1094 453.40625 518.625 452.82812Q518.1406 452.25 517.4531 452.25Q516.7656 452.25 516.25 452.85938Q515.75 453.45312 515.75 454.59375ZM526.0469 455.75L527.1406 455.875Q526.8906 456.82812 526.1875 457.35938Q525.4844 457.89062 524.40625 457.89062Q523.0469 457.89062 522.2344 457.04688Q521.4375 456.20312 521.4375 454.6875Q521.4375 453.125 522.25 452.26562Q523.0625 451.39062 524.34375 451.39062Q525.59375 451.39062 526.375 452.23438Q527.1719 453.07812 527.1719 454.625Q527.1719 454.71875 527.1719 454.90625L522.53125 454.90625Q522.59375 455.9375 523.1094 456.48438Q523.625 457.01562 524.40625 457.01562Q524.9844 457.01562 525.3906 456.71875Q525.8125 456.40625 526.0469 455.75ZM522.59375 454.04688L526.0625 454.04688Q526.0 453.25 525.6719 452.85938Q525.15625 452.25 524.3594 452.25Q523.625 452.25 523.125 452.73438Q522.6406 453.21875 522.59375 454.04688ZM528.78125 457.75L528.78125 451.53125L529.7344 451.53125L529.7344 452.46875Q530.09375 451.8125 530.3906 451.60938Q530.7031 451.39062 531.0781 451.39062Q531.6094 451.39062 532.15625 451.71875L531.7969 452.70312Q531.40625 452.46875 531.03125 452.46875Q530.6719 452.46875 530.3906 452.6875Q530.125 452.89062 530.0156 453.26562Q529.8281 453.82812 529.8281 454.48438L529.8281 457.75L528.78125 457.75ZM535.40625 454.64062Q535.40625 452.90625 536.3594 452.07812Q537.15625 451.39062 538.3125 451.39062Q539.59375 451.39062 540.40625 452.23438Q541.2344 453.0625 541.2344 454.54688Q541.2344 455.75 540.875 456.4375Q540.5156 457.125 539.8125 457.51562Q539.125 457.89062 538.3125 457.89062Q537.0156 457.89062 536.2031 457.0625Q535.40625 456.21875 535.40625 454.64062ZM536.4844 454.64062Q536.4844 455.82812 537.0 456.42188Q537.53125 457.01562 538.3125 457.01562Q539.1094 457.01562 539.625 456.42188Q540.1406 455.82812 540.1406 454.60938Q540.1406 453.45312 539.6094 452.85938Q539.09375 452.26562 538.3125 452.26562Q537.53125 452.26562 537.0 452.85938Q536.4844 453.4375 536.4844 454.64062ZM543.0469 457.75L543.0469 452.34375L542.1094 452.34375L542.1094 451.53125L543.0469 451.53125L543.0469 450.85938Q543.0469 450.23438 543.15625 449.9375Q543.3125 449.51562 543.6875 449.26562Q544.0781 449.01562 544.7656 449.01562Q545.21875 449.01562 545.75 449.125L545.59375 450.03125Q545.2656 449.98438 544.96875 449.98438Q544.4844 449.98438 544.28125 450.1875Q544.09375 450.39062 544.09375 450.95312L544.09375 451.53125L545.3125 451.53125L545.3125 452.34375L544.09375 452.34375L544.09375 457.75L543.0469 457.75ZM553.0469 455.75L554.1406 455.875Q553.8906 456.82812 553.1875 457.35938Q552.4844 457.89062 551.40625 457.89062Q550.0469 457.89062 549.2344 457.04688Q548.4375 456.20312 548.4375 454.6875Q548.4375 453.125 549.25 452.26562Q550.0625 451.39062 551.34375 451.39062Q552.59375 451.39062 553.375 452.23438Q554.1719 453.07812 554.1719 454.625Q554.1719 454.71875 554.1719 454.90625L549.53125 454.90625Q549.59375 455.9375 550.1094 456.48438Q550.625 457.01562 551.40625 457.01562Q551.9844 457.01562 552.3906 456.71875Q552.8125 456.40625 553.0469 455.75ZM549.59375 454.04688L553.0625 454.04688Q553.0 453.25 552.6719 452.85938Q552.15625 452.25 551.3594 452.25Q550.625 452.25 550.125 452.73438Q549.6406 453.21875 549.59375 454.04688ZM555.7656 457.75L555.7656 449.15625L556.8281 449.15625L556.8281 457.75L555.7656 457.75ZM563.0469 455.75L564.1406 455.875Q563.8906 456.82812 563.1875 457.35938Q562.4844 457.89062 561.40625 457.89062Q560.0469 457.89062 559.2344 457.04688Q558.4375 456.20312 558.4375 454.6875Q558.4375 453.125 559.25 452.26562Q560.0625 451.39062 561.34375 451.39062Q562.59375 451.39062 563.375 452.23438Q564.1719 453.07812 564.1719 454.625Q564.1719 454.71875 564.1719 454.90625L559.53125 454.90625Q559.59375 455.9375 560.1094 456.48438Q560.625 457.01562 561.40625 457.01562Q561.9844 457.01562 562.3906 456.71875Q562.8125 456.40625 563.0469 455.75ZM559.59375 454.04688L563.0625 454.04688Q563.0 453.25 562.6719 452.85938Q562.15625 452.25 561.3594 452.25Q560.625 452.25 560.125 452.73438Q559.6406 453.21875 559.59375 454.04688ZM565.7969 457.75L565.7969 451.53125L566.7344 451.53125L566.7344 452.40625Q567.03125 451.9375 567.5156 451.67188Q568.0 451.39062 568.625 451.39062Q569.3125 451.39062 569.75 451.67188Q570.2031 451.95312 570.375 452.46875Q571.125 451.39062 572.2969 451.39062Q573.2344 451.39062 573.71875 451.90625Q574.21875 452.40625 574.21875 453.48438L574.21875 457.75L573.1719 457.75L573.1719 453.82812Q573.1719 453.20312 573.0625 452.92188Q572.96875 452.64062 572.7031 452.46875Q572.4375 452.29688 572.0625 452.29688Q571.40625 452.29688 570.96875 452.73438Q570.5469 453.17188 570.5469 454.14062L570.5469 457.75L569.4844 457.75L569.4844 453.70312Q569.4844 453.0 569.21875 452.65625Q568.96875 452.29688 568.3906 452.29688Q567.9375 452.29688 567.5625 452.53125Q567.1875 452.76562 567.0156 453.21875Q566.84375 453.67188 566.84375 454.51562L566.84375 457.75L565.7969 457.75ZM581.0469 455.75L582.1406 455.875Q581.8906 456.82812 581.1875 457.35938Q580.4844 457.89062 579.40625 457.89062Q578.0469 457.89062 577.2344 457.04688Q576.4375 456.20312 576.4375 454.6875Q576.4375 453.125 577.25 452.26562Q578.0625 451.39062 579.34375 451.39062Q580.59375 451.39062 581.375 452.23438Q582.1719 453.07812 582.1719 454.625Q582.1719 454.71875 582.1719 454.90625L577.53125 454.90625Q577.59375 455.9375 578.1094 456.48438Q578.625 457.01562 579.40625 457.01562Q579.9844 457.01562 580.3906 456.71875Q580.8125 456.40625 581.0469 455.75ZM577.59375 454.04688L581.0625 454.04688Q581.0 453.25 580.6719 452.85938Q580.15625 452.25 579.3594 452.25Q578.625 452.25 578.125 452.73438Q577.6406 453.21875 577.59375 454.04688ZM583.7969 457.75L583.7969 451.53125L584.7344 451.53125L584.7344 452.40625Q585.4219 451.39062 586.71875 451.39062Q587.28125 451.39062 587.75 451.59375Q588.2344 451.79688 588.46875 452.125Q588.7031 452.45312 588.7969 452.89062Q588.84375 453.1875 588.84375 453.92188L588.84375 457.75L587.7969 457.75L587.7969 453.96875Q587.7969 453.3125 587.6719 453.0Q587.5469 452.6875 587.2344 452.5Q586.9219 452.29688 586.5 452.29688Q585.8281 452.29688 585.3281 452.73438Q584.84375 453.15625 584.84375 454.34375L584.84375 457.75L583.7969 457.75ZM593.09375 456.8125L593.25 457.73438Q592.7969 457.82812 592.4531 457.82812Q591.875 457.82812 591.5625 457.65625Q591.25 457.46875 591.1094 457.17188Q590.9844 456.875 590.9844 455.92188L590.9844 452.34375L590.21875 452.34375L590.21875 451.53125L590.9844 451.53125L590.9844 449.98438L592.03125 449.35938L592.03125 451.53125L593.09375 451.53125L593.09375 452.34375L592.03125 452.34375L592.03125 455.98438Q592.03125 456.4375 592.0781 456.5625Q592.1406 456.6875 592.2656 456.76562Q592.3906 456.84375 592.625 456.84375Q592.8125 456.84375 593.09375 456.8125ZM593.375 455.89062L594.40625 455.73438Q594.5 456.35938 594.8906 456.6875Q595.2969 457.01562 596.03125 457.01562Q596.75 457.01562 597.09375 456.73438Q597.4531 456.4375 597.4531 456.03125Q597.4531 455.67188 597.1406 455.46875Q596.9219 455.32812 596.0625 455.10938Q594.90625 454.8125 594.4531 454.60938Q594.0156 454.39062 593.78125 454.01562Q593.5469 453.64062 593.5469 453.17188Q593.5469 452.76562 593.7344 452.40625Q593.9219 452.04688 594.25 451.8125Q594.5 451.64062 594.9219 451.51562Q595.34375 451.39062 595.84375 451.39062Q596.5625 451.39062 597.1094 451.60938Q597.6719 451.8125 597.9375 452.17188Q598.2031 452.53125 598.2969 453.125L597.2656 453.26562Q597.2031 452.79688 596.8594 452.53125Q596.53125 452.25 595.90625 452.25Q595.1875 452.25 594.875 452.5Q594.5625 452.73438 594.5625 453.0625Q594.5625 453.26562 594.6875 453.42188Q594.8281 453.59375 595.09375 453.70312Q595.25 453.76562 596.03125 453.96875Q597.15625 454.28125 597.59375 454.46875Q598.03125 454.65625 598.28125 455.01562Q598.53125 455.375 598.53125 455.92188Q598.53125 456.45312 598.21875 456.92188Q597.9219 457.375 597.34375 457.64062Q596.7656 457.89062 596.03125 457.89062Q594.8125 457.89062 594.1719 457.39062Q593.5469 456.875 593.375 455.89062Z" fill-rule="nonzero"/><path fill="#000000" d="M52.75 408.51562Q52.75 406.98438 53.0625 406.0625Q53.375 405.125 53.984375 404.625Q54.609375 404.125 55.546875 404.125Q56.234375 404.125 56.75 404.40625Q57.28125 404.6875 57.625 405.21875Q57.96875 405.73438 58.15625 406.48438Q58.34375 407.23438 58.34375 408.51562Q58.34375 410.03125 58.03125 410.95312Q57.734375 411.875 57.109375 412.39062Q56.5 412.89062 55.546875 412.89062Q54.3125 412.89062 53.59375 412.0Q52.75 410.9375 52.75 408.51562ZM53.828125 408.51562Q53.828125 410.625 54.328125 411.32812Q54.828125 412.03125 55.546875 412.03125Q56.28125 412.03125 56.765625 411.32812Q57.265625 410.625 57.265625 408.51562Q57.265625 406.39062 56.765625 405.70312Q56.28125 405.0 55.53125 405.0Q54.8125 405.0 54.375 405.60938Q53.828125 406.39062 53.828125 408.51562Z" fill-rule="nonzero"/><path fill="#000000" d="M28.71875 300.30554L27.671875 300.30554L27.671875 293.5868Q27.28125 293.94617 26.65625 294.32117Q26.046875 294.68054 25.5625 294.85242L25.5625 293.8368Q26.4375 293.41492 27.09375 292.8368Q27.765625 292.24304 28.046875 291.68054L28.71875 291.68054L28.71875 300.30554ZM31.75 296.07117Q31.75 294.53992 32.0625 293.61804Q32.375 292.68054 32.984375 292.18054Q33.609375 291.68054 34.546875 291.68054Q35.234375 291.68054 35.75 291.9618Q36.28125 292.24304 36.625 292.7743Q36.96875 293.28992 37.15625 294.03992Q37.34375 294.78992 37.34375 296.07117Q37.34375 297.5868 37.03125 298.50867Q36.734375 299.43054 36.109375 299.94617Q35.5 300.44617 34.546875 300.44617Q33.3125 300.44617 32.59375 299.55554Q31.75 298.49304 31.75 296.07117ZM32.828125 296.07117Q32.828125 298.18054 33.328125 298.88367Q33.828125 299.5868 34.546875 299.5868Q35.28125 299.5868 35.765625 298.88367Q36.265625 298.18054 36.265625 296.07117Q36.265625 293.94617 35.765625 293.25867Q35.28125 292.55554 34.53125 292.55554Q33.8125 292.55554 33.375 293.16492Q32.828125 293.94617 32.828125 296.07117ZM38.75 296.07117Q38.75 294.53992 39.0625 293.61804Q39.375 292.68054 39.984375 292.18054Q40.609375 291.68054 41.546875 291.68054Q42.234375 291.68054 42.75 291.9618Q43.28125 292.24304 43.625 292.7743Q43.96875 293.28992 44.15625 294.03992Q44.34375 294.78992 44.34375 296.07117Q44.34375 297.5868 44.03125 298.50867Q43.734375 299.43054 43.109375 299.94617Q42.5 300.44617 41.546875 300.44617Q40.3125 300.44617 39.59375 299.55554Q38.75 298.49304 38.75 296.07117ZM39.828125 296.07117Q39.828125 298.18054 40.328125 298.88367Q40.828125 299.5868 41.546875 299.5868Q42.28125 299.5868 42.765625 298.88367Q43.265625 298.18054 43.265625 296.07117Q43.265625 293.94617 42.765625 293.25867Q42.28125 292.55554 41.53125 292.55554Q40.8125 292.55554 40.375 293.16492Q39.828125 293.94617 39.828125 296.07117ZM45.75 296.07117Q45.75 294.53992 46.0625 293.61804Q46.375 292.68054 46.984375 292.18054Q47.609375 291.68054 48.546875 291.68054Q49.234375 291.68054 49.75 291.9618Q50.28125 292.24304 50.625 292.7743Q50.96875 293.28992 51.15625 294.03992Q51.34375 294.78992 51.34375 296.07117Q51.34375 297.5868 51.03125 298.50867Q50.734375 299.43054 50.109375 299.94617Q49.5 300.44617 48.546875 300.44617Q47.3125 300.44617 46.59375 299.55554Q45.75 298.49304 45.75 296.07117ZM46.828125 296.07117Q46.828125 298.18054 47.328125 298.88367Q47.828125 299.5868 48.546875 299.5868Q49.28125 299.5868 49.765625 298.88367Q50.265625 298.18054 50.265625 296.07117Q50.265625 293.94617 49.765625 293.25867Q49.28125 292.55554 48.53125 292.55554Q47.8125 292.55554 47.375 293.16492Q46.828125 293.94617 46.828125 296.07117ZM52.75 296.07117Q52.75 294.53992 53.0625 293.61804Q53.375 292.68054 53.984375 292.18054Q54.609375 291.68054 55.546875 291.68054Q56.234375 291.68054 56.75 291.9618Q57.28125 292.24304 57.625 292.7743Q57.96875 293.28992 58.15625 294.03992Q58.34375 294.78992 58.34375 296.07117Q58.34375 297.5868 58.03125 298.50867Q57.734375 299.43054 57.109375 299.94617Q56.5 300.44617 55.546875 300.44617Q54.3125 300.44617 53.59375 299.55554Q52.75 298.49304 52.75 296.07117ZM53.828125 296.07117Q53.828125 298.18054 54.328125 298.88367Q54.828125 299.5868 55.546875 299.5868Q56.28125 299.5868 56.765625 298.88367Q57.265625 298.18054 57.265625 296.07117Q57.265625 293.94617 56.765625 293.25867Q56.28125 292.55554 55.53125 292.55554Q54.8125 292.55554 54.375 293.16492Q53.828125 293.94617 53.828125 296.07117Z" fill-rule="nonzero"/><path fill="#000000" d="M30.296875 186.84549L30.296875 187.86111L24.609375 187.86111Q24.609375 187.48611 24.734375 187.12674Q24.953125 186.54861 25.421875 185.98611Q25.90625 185.42361 26.8125 184.68924Q28.21875 183.53299 28.703125 182.86111Q29.203125 182.18924 29.203125 181.59549Q29.203125 180.97049 28.75 180.54861Q28.296875 180.11111 27.578125 180.11111Q26.8125 180.11111 26.359375 180.56424Q25.90625 181.01736 25.890625 181.82986L24.8125 181.72049Q24.921875 180.50174 25.640625 179.87674Q26.375 179.23611 27.609375 179.23611Q28.84375 179.23611 29.5625 179.92361Q30.28125 180.61111 30.28125 181.62674Q30.28125 182.14236 30.0625 182.64236Q29.859375 183.12674 29.359375 183.68924Q28.875 184.23611 27.75 185.18924Q26.796875 185.98611 26.515625 186.28299Q26.25 186.56424 26.078125 186.84549L30.296875 186.84549ZM31.75 183.62674Q31.75 182.09549 32.0625 181.17361Q32.375 180.23611 32.984375 179.73611Q33.609375 179.23611 34.546875 179.23611Q35.234375 179.23611 35.75 179.51736Q36.28125 179.79861 36.625 180.32986Q36.96875 180.84549 37.15625 181.59549Q37.34375 182.34549 37.34375 183.62674Q37.34375 185.14236 37.03125 186.06424Q36.734375 186.98611 36.109375 187.50174Q35.5 188.00174 34.546875 188.00174Q33.3125 188.00174 32.59375 187.11111Q31.75 186.04861 31.75 183.62674ZM32.828125 183.62674Q32.828125 185.73611 33.328125 186.43924Q33.828125 187.14236 34.546875 187.14236Q35.28125 187.14236 35.765625 186.43924Q36.265625 185.73611 36.265625 183.62674Q36.265625 181.50174 35.765625 180.81424Q35.28125 180.11111 34.53125 180.11111Q33.8125 180.11111 33.375 180.72049Q32.828125 181.50174 32.828125 183.62674ZM38.75 183.62674Q38.75 182.09549 39.0625 181.17361Q39.375 180.23611 39.984375 179.73611Q40.609375 179.23611 41.546875 179.23611Q42.234375 179.23611 42.75 179.51736Q43.28125 179.79861 43.625 180.32986Q43.96875 180.84549 44.15625 181.59549Q44.34375 182.34549 44.34375 183.62674Q44.34375 185.14236 44.03125 186.06424Q43.734375 186.98611 43.109375 187.50174Q42.5 188.00174 41.546875 188.00174Q40.3125 188.00174 39.59375 187.11111Q38.75 186.04861 38.75 183.62674ZM39.828125 183.62674Q39.828125 185.73611 40.328125 186.43924Q40.828125 187.14236 41.546875 187.14236Q42.28125 187.14236 42.765625 186.43924Q43.265625 185.73611 43.265625 183.62674Q43.265625 181.50174 42.765625 180.81424Q42.28125 180.11111 41.53125 180.11111Q40.8125 180.11111 40.375 180.72049Q39.828125 181.50174 39.828125 183.62674ZM45.75 183.62674Q45.75 182.09549 46.0625 181.17361Q46.375 180.23611 46.984375 179.73611Q47.609375 179.23611 48.546875 179.23611Q49.234375 179.23611 49.75 179.51736Q50.28125 179.79861 50.625 180.32986Q50.96875 180.84549 51.15625 181.59549Q51.34375 182.34549 51.34375 183.62674Q51.34375 185.14236 51.03125 186.06424Q50.734375 186.98611 50.109375 187.50174Q49.5 188.00174 48.546875 188.00174Q47.3125 188.00174 46.59375 187.11111Q45.75 186.04861 45.75 183.62674ZM46.828125 183.62674Q46.828125 185.73611 47.328125 186.43924Q47.828125 187.14236 48.546875 187.14236Q49.28125 187.14236 49.765625 186.43924Q50.265625 185.73611 50.265625 183.62674Q50.265625 181.50174 49.765625 180.81424Q49.28125 180.11111 48.53125 180.11111Q47.8125 180.11111 47.375 180.72049Q46.828125 181.50174 46.828125 183.62674ZM52.75 183.62674Q52.75 182.09549 53.0625 181.17361Q53.375 180.23611 53.984375 179.73611Q54.609375 179.23611 55.546875 179.23611Q56.234375 179.23611 56.75 179.51736Q57.28125 179.79861 57.625 180.32986Q57.96875 180.84549 58.15625 181.59549Q58.34375 182.34549 58.34375 183.62674Q58.34375 185.14236 58.03125 186.06424Q57.734375 186.98611 57.109375 187.50174Q56.5 188.00174 55.546875 188.00174Q54.3125 188.00174 53.59375 187.11111Q52.75 186.04861 52.75 183.62674ZM53.828125 183.62674Q53.828125 185.73611 54.328125 186.43924Q54.828125 187.14236 55.546875 187.14236Q56.28125 187.14236 56.765625 186.43924Q57.265625 185.73611 57.265625 183.62674Q57.265625 181.50174 56.765625 180.81424Q56.28125 180.11111 55.53125 180.11111Q54.8125 180.11111 54.375 180.72049Q53.828125 181.50174 53.828125 183.62674Z" fill-rule="nonzero"/><path fill="#000000" d="M24.75 73.15104L25.8125 73.010414Q25.984375 73.90104 26.421875 74.30729Q26.859375 74.697914 27.484375 74.697914Q28.234375 74.697914 28.75 74.18229Q29.265625 73.666664 29.265625 72.90104Q29.265625 72.18229 28.78125 71.71354Q28.3125 71.229164 27.578125 71.229164Q27.28125 71.229164 26.828125 71.354164L26.953125 70.416664Q27.0625 70.43229 27.125 70.43229Q27.796875 70.43229 28.328125 70.08854Q28.875 69.729164 28.875 68.99479Q28.875 68.416664 28.484375 68.041664Q28.09375 67.65104 27.46875 67.65104Q26.859375 67.65104 26.4375 68.041664Q26.03125 68.43229 25.921875 69.197914L24.859375 69.010414Q25.046875 67.96354 25.734375 67.385414Q26.421875 66.791664 27.4375 66.791664Q28.140625 66.791664 28.734375 67.104164Q29.328125 67.40104 29.640625 67.916664Q29.953125 68.43229 29.953125 69.02604Q29.953125 69.572914 29.65625 70.041664Q29.359375 70.49479 28.78125 70.760414Q29.53125 70.93229 29.953125 71.49479Q30.375 72.041664 30.375 72.885414Q30.375 74.010414 29.546875 74.791664Q28.734375 75.572914 27.484375 75.572914Q26.359375 75.572914 25.609375 74.90104Q24.859375 74.21354 24.75 73.15104ZM31.75 71.18229Q31.75 69.65104 32.0625 68.729164Q32.375 67.791664 32.984375 67.291664Q33.609375 66.791664 34.546875 66.791664Q35.234375 66.791664 35.75 67.072914Q36.28125 67.354164 36.625 67.885414Q36.96875 68.40104 37.15625 69.15104Q37.34375 69.90104 37.34375 71.18229Q37.34375 72.697914 37.03125 73.61979Q36.734375 74.541664 36.109375 75.05729Q35.5 75.55729 34.546875 75.55729Q33.3125 75.55729 32.59375 74.666664Q31.75 73.604164 31.75 71.18229ZM32.828125 71.18229Q32.828125 73.291664 33.328125 73.99479Q33.828125 74.697914 34.546875 74.697914Q35.28125 74.697914 35.765625 73.99479Q36.265625 73.291664 36.265625 71.18229Q36.265625 69.05729 35.765625 68.36979Q35.28125 67.666664 34.53125 67.666664Q33.8125 67.666664 33.375 68.27604Q32.828125 69.05729 32.828125 71.18229ZM38.75 71.18229Q38.75 69.65104 39.0625 68.729164Q39.375 67.791664 39.984375 67.291664Q40.609375 66.791664 41.546875 66.791664Q42.234375 66.791664 42.75 67.072914Q43.28125 67.354164 43.625 67.885414Q43.96875 68.40104 44.15625 69.15104Q44.34375 69.90104 44.34375 71.18229Q44.34375 72.697914 44.03125 73.61979Q43.734375 74.541664 43.109375 75.05729Q42.5 75.55729 41.546875 75.55729Q40.3125 75.55729 39.59375 74.666664Q38.75 73.604164 38.75 71.18229ZM39.828125 71.18229Q39.828125 73.291664 40.328125 73.99479Q40.828125 74.697914 41.546875 74.697914Q42.28125 74.697914 42.765625 73.99479Q43.265625 73.291664 43.265625 71.18229Q43.265625 69.05729 42.765625 68.36979Q42.28125 67.666664 41.53125 67.666664Q40.8125 67.666664 40.375 68.27604Q39.828125 69.05729 39.828125 71.18229ZM45.75 71.18229Q45.75 69.65104 46.0625 68.729164Q46.375 67.791664 46.984375 67.291664Q47.609375 66.791664 48.546875 66.791664Q49.234375 66.791664 49.75 67.072914Q50.28125 67.354164 50.625 67.885414Q50.96875 68.40104 51.15625 69.15104Q51.34375 69.90104 51.34375 71.18229Q51.34375 72.697914 51.03125 73.61979Q50.734375 74.541664 50.109375 75.05729Q49.5 75.55729 48.546875 75.55729Q47.3125 75.55729 46.59375 74.666664Q45.75 73.604164 45.75 71.18229ZM46.828125 71.18229Q46.828125 73.291664 47.328125 73.99479Q47.828125 74.697914 48.546875 74.697914Q49.28125 74.697914 49.765625 73.99479Q50.265625 73.291664 50.265625 71.18229Q50.265625 69.05729 49.765625 68.36979Q49.28125 67.666664 48.53125 67.666664Q47.8125 67.666664 47.375 68.27604Q46.828125 69.05729 46.828125 71.18229ZM52.75 71.18229Q52.75 69.65104 53.0625 68.729164Q53.375 67.791664 53.984375 67.291664Q54.609375 66.791664 55.546875 66.791664Q56.234375 66.791664 56.75 67.072914Q57.28125 67.354164 57.625 67.885414Q57.96875 68.40104 58.15625 69.15104Q58.34375 69.90104 58.34375 71.18229Q58.34375 72.697914 58.03125 73.61979Q57.734375 74.541664 57.109375 75.05729Q56.5 75.55729 55.546875 75.55729Q54.3125 75.55729 53.59375 74.666664Q52.75 73.604164 52.75 71.18229ZM53.828125 71.18229Q53.828125 73.291664 54.328125 73.99479Q54.828125 74.697914 55.546875 74.697914Q56.28125 74.697914 56.765625 73.99479Q57.265625 73.291664 57.265625 71.18229Q57.265625 69.05729 56.765625 68.36979Q56.28125 67.666664 55.53125 67.666664Q54.8125 67.666664 54.375 68.27604Q53.828125 69.05729 53.828125 71.18229Z" fill-rule="nonzero"/><path fill="#000000" d="M195.32509 425.75L194.27821 425.75L194.27821 419.03125Q193.88759 419.39062 193.26259 419.76562Q192.65321 420.125 192.16884 420.29688L192.16884 419.28125Q193.04384 418.85938 193.70009 418.28125Q194.37196 417.6875 194.65321 417.125L195.32509 417.125L195.32509 425.75ZM199.98134 421.09375Q199.32509 420.84375 198.99696 420.40625Q198.68446 419.95312 198.68446 419.34375Q198.68446 418.40625 199.35634 417.76562Q200.04384 417.125 201.15321 417.125Q202.27821 417.125 202.96571 417.78125Q203.65321 418.4375 203.65321 419.375Q203.65321 419.96875 203.34071 420.40625Q203.02821 420.84375 202.38759 421.09375Q203.18446 421.34375 203.59071 421.92188Q203.99696 422.5 203.99696 423.29688Q203.99696 424.39062 203.21571 425.14062Q202.45009 425.89062 201.16884 425.89062Q199.90321 425.89062 199.12196 425.14062Q198.34071 424.39062 198.34071 423.26562Q198.34071 422.42188 198.76259 421.85938Q199.20009 421.29688 199.98134 421.09375ZM199.76259 419.29688Q199.76259 419.90625 200.15321 420.29688Q200.55946 420.6875 201.18446 420.6875Q201.79384 420.6875 202.18446 420.3125Q202.57509 419.92188 202.57509 419.35938Q202.57509 418.78125 202.16884 418.39062Q201.76259 417.98438 201.16884 417.98438Q200.55946 417.98438 200.15321 418.375Q199.76259 418.76562 199.76259 419.29688ZM199.43446 423.26562Q199.43446 423.71875 199.63759 424.14062Q199.85634 424.5625 200.27821 424.79688Q200.70009 425.03125 201.18446 425.03125Q201.93446 425.03125 202.41884 424.54688Q202.91884 424.0625 202.91884 423.3125Q202.91884 422.54688 202.41884 422.04688Q201.91884 421.54688 201.15321 421.54688Q200.40321 421.54688 199.91884 422.04688Q199.43446 422.53125 199.43446 423.26562ZM205.35634 421.51562Q205.35634 419.98438 205.66884 419.0625Q205.98134 418.125 206.59071 417.625Q207.21571 417.125 208.15321 417.125Q208.84071 417.125 209.35634 417.40625Q209.88759 417.6875 210.23134 418.21875Q210.57509 418.73438 210.76259 419.48438Q210.95009 420.23438 210.95009 421.51562Q210.95009 423.03125 210.63759 423.95312Q210.34071 424.875 209.71571 425.39062Q209.10634 425.89062 208.15321 425.89062Q206.91884 425.89062 206.20009 425.0Q205.35634 423.9375 205.35634 421.51562ZM206.43446 421.51562Q206.43446 423.625 206.93446 424.32812Q207.43446 425.03125 208.15321 425.03125Q208.88759 425.03125 209.37196 424.32812Q209.87196 423.625 209.87196 421.51562Q209.87196 419.39062 209.37196 418.70312Q208.88759 418.0 208.13759 418.0Q207.41884 418.0 206.98134 418.60938Q206.43446 419.39062 206.43446 421.51562ZM212.35634 421.51562Q212.35634 419.98438 212.66884 419.0625Q212.98134 418.125 213.59071 417.625Q214.21571 417.125 215.15321 417.125Q215.84071 417.125 216.35634 417.40625Q216.88759 417.6875 217.23134 418.21875Q217.57509 418.73438 217.76259 419.48438Q217.95009 420.23438 217.95009 421.51562Q217.95009 423.03125 217.63759 423.95312Q217.34071 424.875 216.71571 425.39062Q216.10634 425.89062 215.15321 425.89062Q213.91884 425.89062 213.20009 425.0Q212.35634 423.9375 212.35634 421.51562ZM213.43446 421.51562Q213.43446 423.625 213.93446 424.32812Q214.43446 425.03125 215.15321 425.03125Q215.88759 425.03125 216.37196 424.32812Q216.87196 423.625 216.87196 421.51562Q216.87196 419.39062 216.37196 418.70312Q215.88759 418.0 215.13759 418.0Q214.41884 418.0 213.98134 418.60938Q213.43446 419.39062 213.43446 421.51562ZM219.35634 421.51562Q219.35634 419.98438 219.66884 419.0625Q219.98134 418.125 220.59071 417.625Q221.21571 417.125 222.15321 417.125Q222.84071 417.125 223.35634 417.40625Q223.88759 417.6875 224.23134 418.21875Q224.57509 418.73438 224.76259 419.48438Q224.95009 420.23438 224.95009 421.51562Q224.95009 423.03125 224.63759 423.95312Q224.34071 424.875 223.71571 425.39062Q223.10634 425.89062 222.15321 425.89062Q220.91884 425.89062 220.20009 425.0Q219.35634 423.9375 219.35634 421.51562ZM220.43446 421.51562Q220.43446 423.625 220.93446 424.32812Q221.43446 425.03125 222.15321 425.03125Q222.88759 425.03125 223.37196 424.32812Q223.87196 423.625 223.87196 421.51562Q223.87196 419.39062 223.37196 418.70312Q222.88759 418.0 222.13759 418.0Q221.41884 418.0 220.98134 418.60938Q220.43446 419.39062 220.43446 421.51562Z" fill-rule="nonzero"/><path fill="#000000" d="M465.01816 424.73438L465.01816 425.75L459.33066 425.75Q459.33066 425.375 459.45566 425.01562Q459.6744 424.4375 460.14316 423.875Q460.62753 423.3125 461.53378 422.57812Q462.94003 421.42188 463.4244 420.75Q463.9244 420.07812 463.9244 419.48438Q463.9244 418.85938 463.47128 418.4375Q463.01816 418.0 462.2994 418.0Q461.53378 418.0 461.08066 418.45312Q460.62753 418.90625 460.6119 419.71875L459.53378 419.60938Q459.64316 418.39062 460.3619 417.76562Q461.09628 417.125 462.33066 417.125Q463.56503 417.125 464.28378 417.8125Q465.00253 418.5 465.00253 419.51562Q465.00253 420.03125 464.78378 420.53125Q464.58066 421.01562 464.08066 421.57812Q463.59628 422.125 462.47128 423.07812Q461.51816 423.875 461.2369 424.17188Q460.97128 424.45312 460.7994 424.73438L465.01816 424.73438ZM466.47128 421.51562Q466.47128 419.98438 466.78378 419.0625Q467.09628 418.125 467.70566 417.625Q468.33066 417.125 469.26816 417.125Q469.95566 417.125 470.47128 417.40625Q471.00253 417.6875 471.34628 418.21875Q471.69003 418.73438 471.87753 419.48438Q472.06503 420.23438 472.06503 421.51562Q472.06503 423.03125 471.75253 423.95312Q471.45566 424.875 470.83066 425.39062Q470.22128 425.89062 469.26816 425.89062Q468.03378 425.89062 467.31503 425.0Q466.47128 423.9375 466.47128 421.51562ZM467.5494 421.51562Q467.5494 423.625 468.0494 424.32812Q468.5494 425.03125 469.26816 425.03125Q470.00253 425.03125 470.4869 424.32812Q470.9869 423.625 470.9869 421.51562Q470.9869 419.39062 470.4869 418.70312Q470.00253 418.0 469.25253 418.0Q468.53378 418.0 468.09628 418.60938Q467.5494 419.39062 467.5494 421.51562ZM473.47128 421.51562Q473.47128 419.98438 473.78378 419.0625Q474.09628 418.125 474.70566 417.625Q475.33066 417.125 476.26816 417.125Q476.95566 417.125 477.47128 417.40625Q478.00253 417.6875 478.34628 418.21875Q478.69003 418.73438 478.87753 419.48438Q479.06503 420.23438 479.06503 421.51562Q479.06503 423.03125 478.75253 423.95312Q478.45566 424.875 477.83066 425.39062Q477.22128 425.89062 476.26816 425.89062Q475.03378 425.89062 474.31503 425.0Q473.47128 423.9375 473.47128 421.51562ZM474.5494 421.51562Q474.5494 423.625 475.0494 424.32812Q475.5494 425.03125 476.26816 425.03125Q477.00253 425.03125 477.4869 424.32812Q477.9869 423.625 477.9869 421.51562Q477.9869 419.39062 477.4869 418.70312Q477.00253 418.0 476.25253 418.0Q475.53378 418.0 475.09628 418.60938Q474.5494 419.39062 474.5494 421.51562ZM480.47128 421.51562Q480.47128 419.98438 480.78378 419.0625Q481.09628 418.125 481.70566 417.625Q482.33066 417.125 483.26816 417.125Q483.95566 417.125 484.47128 417.40625Q485.00253 417.6875 485.34628 418.21875Q485.69003 418.73438 485.87753 419.48438Q486.06503 420.23438 486.06503 421.51562Q486.06503 423.03125 485.75253 423.95312Q485.45566 424.875 484.83066 425.39062Q484.22128 425.89062 483.26816 425.89062Q482.03378 425.89062 481.31503 425.0Q480.47128 423.9375 480.47128 421.51562ZM481.5494 421.51562Q481.5494 423.625 482.0494 424.32812Q482.5494 425.03125 483.26816 425.03125Q484.00253 425.03125 484.4869 424.32812Q484.9869 423.625 484.9869 421.51562Q484.9869 419.39062 484.4869 418.70312Q484.00253 418.0 483.25253 418.0Q482.53378 418.0 482.09628 418.60938Q481.5494 419.39062 481.5494 421.51562ZM487.47128 421.51562Q487.47128 419.98438 487.78378 419.0625Q488.09628 418.125 488.70566 417.625Q489.33066 417.125 490.26816 417.125Q490.95566 417.125 491.47128 417.40625Q492.00253 417.6875 492.34628 418.21875Q492.69003 418.73438 492.87753 419.48438Q493.06503 420.23438 493.06503 421.51562Q493.06503 423.03125 492.75253 423.95312Q492.45566 424.875 491.83066 425.39062Q491.22128 425.89062 490.26816 425.89062Q489.03378 425.89062 488.31503 425.0Q487.47128 423.9375 487.47128 421.51562ZM488.5494 421.51562Q488.5494 423.625 489.0494 424.32812Q489.5494 425.03125 490.26816 425.03125Q491.00253 425.03125 491.4869 424.32812Q491.9869 423.625 491.9869 421.51562Q491.9869 419.39062 491.4869 418.70312Q491.00253 418.0 490.25253 418.0Q489.53378 418.0 489.09628 418.60938Q488.5494 419.39062 488.5494 421.51562Z" fill-rule="nonzero"/><path fill="#000000" d="M733.13306 424.73438L733.13306 425.75L727.44556 425.75Q727.44556 425.375 727.57056 425.01562Q727.7893 424.4375 728.25806 423.875Q728.74243 423.3125 729.6487 422.57812Q731.05493 421.42188 731.5393 420.75Q732.0393 420.07812 732.0393 419.48438Q732.0393 418.85938 731.5862 418.4375Q731.13306 418.0 730.4143 418.0Q729.6487 418.0 729.19556 418.45312Q728.74243 418.90625 728.7268 419.71875L727.6487 419.60938Q727.75806 418.39062 728.4768 417.76562Q729.2112 417.125 730.44556 417.125Q731.67993 417.125 732.3987 417.8125Q733.11743 418.5 733.11743 419.51562Q733.11743 420.03125 732.8987 420.53125Q732.69556 421.01562 732.19556 421.57812Q731.7112 422.125 730.5862 423.07812Q729.63306 423.875 729.3518 424.17188Q729.0862 424.45312 728.9143 424.73438L733.13306 424.73438ZM740.13306 424.73438L740.13306 425.75L734.44556 425.75Q734.44556 425.375 734.57056 425.01562Q734.7893 424.4375 735.25806 423.875Q735.74243 423.3125 736.6487 422.57812Q738.05493 421.42188 738.5393 420.75Q739.0393 420.07812 739.0393 419.48438Q739.0393 418.85938 738.5862 418.4375Q738.13306 418.0 737.4143 418.0Q736.6487 418.0 736.19556 418.45312Q735.74243 418.90625 735.7268 419.71875L734.6487 419.60938Q734.75806 418.39062 735.4768 417.76562Q736.2112 417.125 737.44556 417.125Q738.67993 417.125 739.3987 417.8125Q740.11743 418.5 740.11743 419.51562Q740.11743 420.03125 739.8987 420.53125Q739.69556 421.01562 739.19556 421.57812Q738.7112 422.125 737.5862 423.07812Q736.63306 423.875 736.3518 424.17188Q736.0862 424.45312 735.9143 424.73438L740.13306 424.73438ZM741.5862 421.51562Q741.5862 419.98438 741.8987 419.0625Q742.2112 418.125 742.82056 417.625Q743.44556 417.125 744.38306 417.125Q745.07056 417.125 745.5862 417.40625Q746.11743 417.6875 746.4612 418.21875Q746.80493 418.73438 746.99243 419.48438Q747.17993 420.23438 747.17993 421.51562Q747.17993 423.03125 746.86743 423.95312Q746.57056 424.875 745.94556 425.39062Q745.3362 425.89062 744.38306 425.89062Q743.1487 425.89062 742.42993 425.0Q741.5862 423.9375 741.5862 421.51562ZM742.6643 421.51562Q742.6643 423.625 743.1643 424.32812Q743.6643 425.03125 744.38306 425.03125Q745.11743 425.03125 745.6018 424.32812Q746.1018 423.625 746.1018 421.51562Q746.1018 419.39062 745.6018 418.70312Q745.11743 418.0 744.36743 418.0Q743.6487 418.0 743.2112 418.60938Q742.6643 419.39062 742.6643 421.51562ZM748.5862 421.51562Q748.5862 419.98438 748.8987 419.0625Q749.2112 418.125 749.82056 417.625Q750.44556 417.125 751.38306 417.125Q752.07056 417.125 752.5862 417.40625Q753.11743 417.6875 753.4612 418.21875Q753.80493 418.73438 753.99243 419.48438Q754.17993 420.23438 754.17993 421.51562Q754.17993 423.03125 753.86743 423.95312Q753.57056 424.875 752.94556 425.39062Q752.3362 425.89062 751.38306 425.89062Q750.1487 425.89062 749.42993 425.0Q748.5862 423.9375 748.5862 421.51562ZM749.6643 421.51562Q749.6643 423.625 750.1643 424.32812Q750.6643 425.03125 751.38306 425.03125Q752.11743 425.03125 752.6018 424.32812Q753.1018 423.625 753.1018 421.51562Q753.1018 419.39062 752.6018 418.70312Q752.11743 418.0 751.36743 418.0Q750.6487 418.0 750.2112 418.60938Q749.6643 419.39062 749.6643 421.51562ZM755.5862 421.51562Q755.5862 419.98438 755.8987 419.0625Q756.2112 418.125 756.82056 417.625Q757.44556 417.125 758.38306 417.125Q759.07056 417.125 759.5862 417.40625Q760.11743 417.6875 760.4612 418.21875Q760.80493 418.73438 760.99243 419.48438Q761.17993 420.23438 761.17993 421.51562Q761.17993 423.03125 760.86743 423.95312Q760.57056 424.875 759.94556 425.39062Q759.3362 425.89062 758.38306 425.89062Q757.1487 425.89062 756.42993 425.0Q755.5862 423.9375 755.5862 421.51562ZM756.6643 421.51562Q756.6643 423.625 757.1643 424.32812Q757.6643 425.03125 758.38306 425.03125Q759.11743 425.03125 759.6018 424.32812Q760.1018 423.625 760.1018 421.51562Q760.1018 419.39062 759.6018 418.70312Q759.11743 418.0 758.36743 418.0Q757.6487 418.0 757.2112 418.60938Q756.6643 419.39062 756.6643 421.51562Z" fill-rule="nonzero"/><path fill="#000000" d="M1001.248 424.73438L1001.248 425.75L995.5605 425.75Q995.5605 425.375 995.6855 425.01562Q995.90424 424.4375 996.373 423.875Q996.85736 423.3125 997.7636 422.57812Q999.16986 421.42188 999.65424 420.75Q1000.15424 420.07812 1000.15424 419.48438Q1000.15424 418.85938 999.7011 418.4375Q999.248 418.0 998.52924 418.0Q997.7636 418.0 997.3105 418.45312Q996.85736 418.90625 996.84174 419.71875L995.7636 419.60938Q995.873 418.39062 996.59174 417.76562Q997.3261 417.125 998.5605 417.125Q999.79486 417.125 1000.5136 417.8125Q1001.23236 418.5 1001.23236 419.51562Q1001.23236 420.03125 1001.0136 420.53125Q1000.8105 421.01562 1000.3105 421.57812Q999.8261 422.125 998.7011 423.07812Q997.748 423.875 997.46674 424.17188Q997.2011 424.45312 997.02924 424.73438L1001.248 424.73438ZM1006.0761 425.75L1006.0761 423.6875L1002.35736 423.6875L1002.35736 422.71875L1006.27924 417.15625L1007.1386 417.15625L1007.1386 422.71875L1008.29486 422.71875L1008.29486 423.6875L1007.1386 423.6875L1007.1386 425.75L1006.0761 425.75ZM1006.0761 422.71875L1006.0761 418.85938L1003.3886 422.71875L1006.0761 422.71875ZM1009.7011 421.51562Q1009.7011 419.98438 1010.0136 419.0625Q1010.3261 418.125 1010.9355 417.625Q1011.5605 417.125 1012.498 417.125Q1013.1855 417.125 1013.7011 417.40625Q1014.23236 417.6875 1014.5761 418.21875Q1014.91986 418.73438 1015.10736 419.48438Q1015.29486 420.23438 1015.29486 421.51562Q1015.29486 423.03125 1014.98236 423.95312Q1014.6855 424.875 1014.0605 425.39062Q1013.4511 425.89062 1012.498 425.89062Q1011.2636 425.89062 1010.54486 425.0Q1009.7011 423.9375 1009.7011 421.51562ZM1010.77924 421.51562Q1010.77924 423.625 1011.27924 424.32812Q1011.77924 425.03125 1012.498 425.03125Q1013.23236 425.03125 1013.71674 424.32812Q1014.21674 423.625 1014.21674 421.51562Q1014.21674 419.39062 1013.71674 418.70312Q1013.23236 418.0 1012.48236 418.0Q1011.7636 418.0 1011.3261 418.60938Q1010.77924 419.39062 1010.77924 421.51562ZM1016.7011 421.51562Q1016.7011 419.98438 1017.0136 419.0625Q1017.3261 418.125 1017.9355 417.625Q1018.5605 417.125 1019.498 417.125Q1020.1855 417.125 1020.7011 417.40625Q1021.23236 417.6875 1021.5761 418.21875Q1021.91986 418.73438 1022.10736 419.48438Q1022.29486 420.23438 1022.29486 421.51562Q1022.29486 423.03125 1021.98236 423.95312Q1021.6855 424.875 1021.0605 425.39062Q1020.4511 425.89062 1019.498 425.89062Q1018.2636 425.89062 1017.54486 425.0Q1016.7011 423.9375 1016.7011 421.51562ZM1017.77924 421.51562Q1017.77924 423.625 1018.27924 424.32812Q1018.77924 425.03125 1019.498 425.03125Q1020.23236 425.03125 1020.71674 424.32812Q1021.21674 423.625 1021.21674 421.51562Q1021.21674 419.39062 1020.71674 418.70312Q1020.23236 418.0 1019.48236 418.0Q1018.7636 418.0 1018.3261 418.60938Q1017.77924 419.39062 1017.77924 421.51562ZM1023.7011 421.51562Q1023.7011 419.98438 1024.0137 419.0625Q1024.3262 418.125 1024.9355 417.625Q1025.5605 417.125 1026.498 417.125Q1027.1855 417.125 1027.7012 417.40625Q1028.2324 417.6875 1028.5762 418.21875Q1028.9199 418.73438 1029.1074 419.48438Q1029.2949 420.23438 1029.2949 421.51562Q1029.2949 423.03125 1028.9824 423.95312Q1028.6855 424.875 1028.0605 425.39062Q1027.4512 425.89062 1026.498 425.89062Q1025.2637 425.89062 1024.5449 425.0Q1023.7011 423.9375 1023.7011 421.51562ZM1024.7793 421.51562Q1024.7793 423.625 1025.2793 424.32812Q1025.7793 425.03125 1026.498 425.03125Q1027.2324 425.03125 1027.7168 424.32812Q1028.2168 423.625 1028.2168 421.51562Q1028.2168 419.39062 1027.7168 418.70312Q1027.2324 418.0 1026.4824 418.0Q1025.7637 418.0 1025.3262 418.60938Q1024.7793 419.39062 1024.7793 421.51562Z" fill-rule="nonzero"/><path fill="#757575" d="M25.734375 43.25L25.734375 28.9375L28.59375 28.9375L31.96875 39.0625Q32.4375 40.484375 32.65625 41.1875Q32.90625 40.40625 33.421875 38.890625L36.84375 28.9375L39.390625 28.9375L39.390625 43.25L37.578125 43.25L37.578125 31.265625L33.40625 43.25L31.703125 43.25L27.5625 31.0625L27.5625 43.25L25.734375 43.25ZM42.578125 30.953125L42.578125 28.9375L44.34375 28.9375L44.34375 30.953125L42.578125 30.953125ZM42.578125 43.25L42.578125 32.875L44.34375 32.875L44.34375 43.25L42.578125 43.25ZM46.5625 43.25L46.5625 32.875L48.15625 32.875L48.15625 34.359375Q49.296875 32.640625 51.453125 32.640625Q52.390625 32.640625 53.171875 32.984375Q53.96875 33.3125 54.359375 33.859375Q54.75 34.40625 54.90625 35.15625Q55.0 35.65625 55.0 36.875L55.0 43.25L53.234375 43.25L53.234375 36.9375Q53.234375 35.859375 53.03125 35.328125Q52.828125 34.796875 52.296875 34.484375Q51.78125 34.171875 51.078125 34.171875Q49.953125 34.171875 49.140625 34.890625Q48.328125 35.59375 48.328125 37.578125L48.328125 43.25L46.5625 43.25ZM55.921875 38.0625Q55.921875 35.1875 57.515625 33.796875Q58.859375 32.640625 60.78125 32.640625Q62.921875 32.640625 64.265625 34.046875Q65.625 35.453125 65.625 37.921875Q65.625 39.921875 65.03125 41.078125Q64.4375 42.21875 63.28125 42.859375Q62.140625 43.484375 60.78125 43.484375Q58.59375 43.484375 57.25 42.09375Q55.921875 40.6875 55.921875 38.0625ZM57.71875 38.0625Q57.71875 40.0625 58.578125 41.046875Q59.453125 42.03125 60.78125 42.03125Q62.09375 42.03125 62.953125 41.046875Q63.828125 40.046875 63.828125 38.0Q63.828125 36.078125 62.953125 35.09375Q62.078125 34.09375 60.78125 34.09375Q59.453125 34.09375 58.578125 35.09375Q57.71875 36.078125 57.71875 38.0625ZM67.546875 43.25L67.546875 32.875L69.125 32.875L69.125 34.453125Q69.734375 33.34375 70.25 33.0Q70.765625 32.640625 71.375 32.640625Q72.265625 32.640625 73.1875 33.203125L72.578125 34.84375Q71.9375 34.453125 71.296875 34.453125Q70.71875 34.453125 70.25 34.8125Q69.796875 35.15625 69.59375 35.765625Q69.3125 36.703125 69.3125 37.8125L69.3125 43.25L67.546875 43.25ZM80.984375 43.25L80.984375 34.25L79.4375 34.25L79.4375 32.875L80.984375 32.875L80.984375 31.78125Q80.984375 30.734375 81.171875 30.21875Q81.421875 29.53125 82.0625 29.109375Q82.703125 28.6875 83.859375 28.6875Q84.609375 28.6875 85.5 28.859375L85.234375 30.390625Q84.6875 30.296875 84.203125 30.296875Q83.40625 30.296875 83.0625 30.640625Q82.734375 30.984375 82.734375 31.921875L82.734375 32.875L84.765625 32.875L84.765625 34.25L82.734375 34.25L82.734375 43.25L80.984375 43.25ZM93.34375 41.96875Q92.359375 42.796875 91.453125 43.140625Q90.546875 43.484375 89.515625 43.484375Q87.8125 43.484375 86.890625 42.65625Q85.96875 41.8125 85.96875 40.515625Q85.96875 39.75 86.3125 39.125Q86.671875 38.5 87.234375 38.125Q87.796875 37.734375 88.5 37.53125Q89.015625 37.40625 90.0625 37.265625Q92.1875 37.015625 93.1875 36.671875Q93.203125 36.3125 93.203125 36.203125Q93.203125 35.140625 92.703125 34.6875Q92.03125 34.09375 90.703125 34.09375Q89.453125 34.09375 88.859375 34.53125Q88.28125 34.96875 88.0 36.078125L86.28125 35.84375Q86.515625 34.734375 87.046875 34.0625Q87.578125 33.375 88.59375 33.015625Q89.609375 32.640625 90.953125 32.640625Q92.28125 32.640625 93.109375 32.953125Q93.9375 33.265625 94.328125 33.75Q94.71875 34.21875 94.875 34.9375Q94.96875 35.390625 94.96875 36.5625L94.96875 38.90625Q94.96875 41.359375 95.078125 42.015625Q95.1875 42.65625 95.53125 43.25L93.6875 43.25Q93.421875 42.703125 93.34375 41.96875ZM93.1875 38.046875Q92.234375 38.4375 90.3125 38.703125Q89.234375 38.859375 88.78125 39.0625Q88.34375 39.25 88.09375 39.625Q87.84375 40.0 87.84375 40.46875Q87.84375 41.171875 88.375 41.640625Q88.90625 42.109375 89.9375 42.109375Q90.953125 42.109375 91.734375 41.671875Q92.53125 41.21875 92.90625 40.453125Q93.1875 39.84375 93.1875 38.6875L93.1875 38.046875ZM104.359375 43.25L104.359375 41.71875Q103.15625 43.484375 101.078125 43.484375Q100.15625 43.484375 99.359375 43.140625Q98.5625 42.78125 98.171875 42.25Q97.796875 41.71875 97.640625 40.9375Q97.53125 40.421875 97.53125 39.296875L97.53125 32.875L99.28125 32.875L99.28125 38.625Q99.28125 40.0 99.390625 40.484375Q99.5625 41.171875 100.09375 41.578125Q100.640625 41.96875 101.421875 41.96875Q102.21875 41.96875 102.90625 41.5625Q103.609375 41.15625 103.890625 40.46875Q104.1875 39.765625 104.1875 38.4375L104.1875 32.875L105.9375 32.875L105.9375 43.25L104.359375 43.25ZM107.53125 43.25L107.53125 28.9375L109.28125 28.9375L109.28125 43.25L107.53125 43.25ZM115.40625 41.671875L115.65625 43.234375Q114.921875 43.390625 114.328125 43.390625Q113.375 43.390625 112.84375 43.09375Q112.328125 42.78125 112.109375 42.296875Q111.890625 41.796875 111.890625 40.21875L111.890625 34.25L110.609375 34.25L110.609375 32.875L111.890625 32.875L111.890625 30.3125L113.640625 29.25L113.640625 32.875L115.40625 32.875L115.40625 34.25L113.640625 34.25L113.640625 40.3125Q113.640625 41.0625 113.734375 41.28125Q113.828125 41.484375 114.03125 41.625Q114.25 41.75 114.640625 41.75Q114.921875 41.75 115.40625 41.671875ZM116.859375 40.15625L118.609375 39.875Q118.75 40.921875 119.421875 41.484375Q120.09375 42.03125 121.296875 42.03125Q122.5 42.03125 123.078125 41.546875Q123.671875 41.046875 123.671875 40.390625Q123.671875 39.796875 123.15625 39.453125Q122.796875 39.21875 121.359375 38.859375Q119.421875 38.359375 118.671875 38.015625Q117.9375 37.65625 117.546875 37.03125Q117.15625 36.390625 117.15625 35.625Q117.15625 34.9375 117.46875 34.34375Q117.796875 33.75 118.34375 33.359375Q118.75 33.0625 119.453125 32.859375Q120.171875 32.640625 120.984375 32.640625Q122.203125 32.640625 123.125 33.0Q124.046875 33.34375 124.484375 33.953125Q124.921875 34.546875 125.09375 35.546875L123.375 35.78125Q123.25 34.984375 122.6875 34.546875Q122.125 34.09375 121.109375 34.09375Q119.890625 34.09375 119.375 34.5Q118.859375 34.890625 118.859375 35.421875Q118.859375 35.765625 119.078125 36.046875Q119.28125 36.328125 119.75 36.515625Q120.015625 36.609375 121.296875 36.953125Q123.171875 37.453125 123.90625 37.78125Q124.640625 38.09375 125.0625 38.703125Q125.484375 39.296875 125.484375 40.203125Q125.484375 41.078125 124.96875 41.859375Q124.453125 42.640625 123.484375 43.0625Q122.515625 43.484375 121.296875 43.484375Q119.28125 43.484375 118.21875 42.640625Q117.15625 41.796875 116.859375 40.15625ZM133.98438 43.25L133.98438 34.25L132.4375 34.25L132.4375 32.875L133.98438 32.875L133.98438 31.78125Q133.98438 30.734375 134.17188 30.21875Q134.42188 29.53125 135.0625 29.109375Q135.70312 28.6875 136.85938 28.6875Q137.60938 28.6875 138.5 28.859375L138.23438 30.390625Q137.6875 30.296875 137.20312 30.296875Q136.40625 30.296875 136.0625 30.640625Q135.73438 30.984375 135.73438 31.921875L135.73438 32.875L137.76562 32.875L137.76562 34.25L135.73438 34.25L135.73438 43.25L133.98438 43.25ZM138.92188 38.0625Q138.92188 35.1875 140.51562 33.796875Q141.85938 32.640625 143.78125 32.640625Q145.92188 32.640625 147.26562 34.046875Q148.625 35.453125 148.625 37.921875Q148.625 39.921875 148.03125 41.078125Q147.4375 42.21875 146.28125 42.859375Q145.14062 43.484375 143.78125 43.484375Q141.59375 43.484375 140.25 42.09375Q138.92188 40.6875 138.92188 38.0625ZM140.71875 38.0625Q140.71875 40.0625 141.57812 41.046875Q142.45312 42.03125 143.78125 42.03125Q145.09375 42.03125 145.95312 41.046875Q146.82812 40.046875 146.82812 38.0Q146.82812 36.078125 145.95312 35.09375Q145.07812 34.09375 143.78125 34.09375Q142.45312 34.09375 141.57812 35.09375Q140.71875 36.078125 140.71875 38.0625ZM150.54688 43.25L150.54688 32.875L152.125 32.875L152.125 34.453125Q152.73438 33.34375 153.25 33.0Q153.76562 32.640625 154.375 32.640625Q155.26562 32.640625 156.1875 33.203125L155.57812 34.84375Q154.9375 34.453125 154.29688 34.453125Q153.71875 34.453125 153.25 34.8125Q152.79688 35.15625 152.59375 35.765625Q152.3125 36.703125 152.3125 37.8125L152.3125 43.25L150.54688 43.25ZM167.89062 43.25L162.34375 28.9375L164.39062 28.9375L168.10938 39.328125Q168.5625 40.578125 168.85938 41.671875Q169.1875 40.5 169.64062 39.328125L173.5 28.9375L175.4375 28.9375L169.82812 43.25L167.89062 43.25ZM183.67188 39.90625L185.48438 40.140625Q185.0625 41.71875 183.89062 42.609375Q182.73438 43.484375 180.92188 43.484375Q178.65625 43.484375 177.3125 42.09375Q175.98438 40.6875 175.98438 38.15625Q175.98438 35.53125 177.32812 34.09375Q178.67188 32.640625 180.82812 32.640625Q182.90625 32.640625 184.21875 34.0625Q185.54688 35.46875 185.54688 38.046875Q185.54688 38.203125 185.53125 38.515625L177.79688 38.515625Q177.89062 40.21875 178.76562 41.125Q179.64062 42.03125 180.9375 42.03125Q181.90625 42.03125 182.57812 41.53125Q183.26562 41.015625 183.67188 39.90625ZM177.89062 37.0625L183.6875 37.0625Q183.57812 35.765625 183.03125 35.109375Q182.1875 34.09375 180.84375 34.09375Q179.64062 34.09375 178.8125 34.90625Q177.98438 35.703125 177.89062 37.0625ZM194.34375 39.453125L196.0625 39.671875Q195.78125 41.46875 194.60938 42.484375Q193.45312 43.484375 191.75 43.484375Q189.625 43.484375 188.32812 42.09375Q187.03125 40.703125 187.03125 38.109375Q187.03125 36.421875 187.57812 35.171875Q188.14062 33.90625 189.28125 33.28125Q190.42188 32.640625 191.76562 32.640625Q193.45312 32.640625 194.51562 33.5Q195.59375 34.359375 195.90625 35.921875L194.1875 36.1875Q193.95312 35.140625 193.32812 34.625Q192.70312 34.09375 191.82812 34.09375Q190.5 34.09375 189.67188 35.046875Q188.84375 36.0 188.84375 38.046875Q188.84375 40.140625 189.64062 41.09375Q190.4375 42.03125 191.73438 42.03125Q192.76562 42.03125 193.45312 41.40625Q194.15625 40.765625 194.34375 39.453125ZM210.29688 43.25L210.29688 41.9375Q209.3125 43.484375 207.39062 43.484375Q206.15625 43.484375 205.10938 42.796875Q204.07812 42.109375 203.5 40.890625Q202.9375 39.671875 202.9375 38.078125Q202.9375 36.515625 203.45312 35.25Q203.96875 33.984375 205.0 33.3125Q206.04688 32.640625 207.3125 32.640625Q208.25 32.640625 208.98438 33.046875Q209.71875 33.4375 210.1875 34.0625L210.1875 28.9375L211.92188 28.9375L211.92188 43.25L210.29688 43.25ZM204.73438 38.078125Q204.73438 40.0625 205.57812 41.046875Q206.42188 42.03125 207.5625 42.03125Q208.71875 42.03125 209.51562 41.09375Q210.32812 40.15625 210.32812 38.21875Q210.32812 36.09375 209.5 35.09375Q208.6875 34.09375 207.48438 34.09375Q206.3125 34.09375 205.51562 35.0625Q204.73438 36.015625 204.73438 38.078125ZM221.67188 39.90625L223.48438 40.140625Q223.0625 41.71875 221.89062 42.609375Q220.73438 43.484375 218.92188 43.484375Q216.65625 43.484375 215.3125 42.09375Q213.98438 40.6875 213.98438 38.15625Q213.98438 35.53125 215.32812 34.09375Q216.67188 32.640625 218.82812 32.640625Q220.90625 32.640625 222.21875 34.0625Q223.54688 35.46875 223.54688 38.046875Q223.54688 38.203125 223.53125 38.515625L215.79688 38.515625Q215.89062 40.21875 216.76562 41.125Q217.64062 42.03125 218.9375 42.03125Q219.90625 42.03125 220.57812 41.53125Q221.26562 41.015625 221.67188 39.90625ZM215.89062 37.0625L221.6875 37.0625Q221.57812 35.765625 221.03125 35.109375Q220.1875 34.09375 218.84375 34.09375Q217.64062 34.09375 216.8125 34.90625Q215.98438 35.703125 215.89062 37.0625ZM229.40625 41.671875L229.65625 43.234375Q228.92188 43.390625 228.32812 43.390625Q227.375 43.390625 226.84375 43.09375Q226.32812 42.78125 226.10938 42.296875Q225.89062 41.796875 225.89062 40.21875L225.89062 34.25L224.60938 34.25L224.60938 32.875L225.89062 32.875L225.89062 30.3125L227.64062 29.25L227.64062 32.875L229.40625 32.875L229.40625 34.25L227.64062 34.25L227.64062 40.3125Q227.64062 41.0625 227.73438 41.28125Q227.82812 41.484375 228.03125 41.625Q228.25 41.75 228.64062 41.75Q228.92188 41.75 229.40625 41.671875ZM238.34375 41.96875Q237.35938 42.796875 236.45312 43.140625Q235.54688 43.484375 234.51562 43.484375Q232.8125 43.484375 231.89062 42.65625Q230.96875 41.8125 230.96875 40.515625Q230.96875 39.75 231.3125 39.125Q231.67188 38.5 232.23438 38.125Q232.79688 37.734375 233.5 37.53125Q234.01562 37.40625 235.0625 37.265625Q237.1875 37.015625 238.1875 36.671875Q238.20312 36.3125 238.20312 36.203125Q238.20312 35.140625 237.70312 34.6875Q237.03125 34.09375 235.70312 34.09375Q234.45312 34.09375 233.85938 34.53125Q233.28125 34.96875 233.0 36.078125L231.28125 35.84375Q231.51562 34.734375 232.04688 34.0625Q232.57812 33.375 233.59375 33.015625Q234.60938 32.640625 235.95312 32.640625Q237.28125 32.640625 238.10938 32.953125Q238.9375 33.265625 239.32812 33.75Q239.71875 34.21875 239.875 34.9375Q239.96875 35.390625 239.96875 36.5625L239.96875 38.90625Q239.96875 41.359375 240.07812 42.015625Q240.1875 42.65625 240.53125 43.25L238.6875 43.25Q238.42188 42.703125 238.34375 41.96875ZM238.1875 38.046875Q237.23438 38.4375 235.3125 38.703125Q234.23438 38.859375 233.78125 39.0625Q233.34375 39.25 233.09375 39.625Q232.84375 40.0 232.84375 40.46875Q232.84375 41.171875 233.375 41.640625Q233.90625 42.109375 234.9375 42.109375Q235.95312 42.109375 236.73438 41.671875Q237.53125 41.21875 237.90625 40.453125Q238.1875 39.84375 238.1875 38.6875L238.1875 38.046875ZM242.57812 30.953125L242.57812 28.9375L244.34375 28.9375L244.34375 30.953125L242.57812 30.953125ZM242.57812 43.25L242.57812 32.875L244.34375 32.875L244.34375 43.25L242.57812 43.25ZM246.53125 43.25L246.53125 28.9375L248.28125 28.9375L248.28125 43.25L246.53125 43.25Z" fill-rule="nonzero"/></svg>