<?xml version="1.0" encoding="UTF-8" standalone="no"?>
<svg
   xmlns:dc="http://purl.org/dc/elements/1.1/"
   xmlns:cc="http://creativecommons.org/ns#"
   xmlns:rdf="http://www.w3.org/1999/02/22-rdf-syntax-ns#"
   xmlns:svg="http://www.w3.org/2000/svg"
   xmlns="http://www.w3.org/2000/svg"
   xmlns:xlink="http://www.w3.org/1999/xlink"
   xmlns:sodipodi="http://sodipodi.sourceforge.net/DTD/sodipodi-0.dtd"
   xmlns:inkscape="http://www.inkscape.org/namespaces/inkscape"
   id="svg6796"
   version="1.1"
   viewBox="0 0 100 100"
   height="1in"
   width="1in"
   sodipodi:docname="important.svg"
   inkscape:version="0.92.4 (f8dce91, 2019-08-02)">
  <sodipodi:namedview
     pagecolor="#ffffff"
     bordercolor="#666666"
     borderopacity="1"
     objecttolerance="10"
     gridtolerance="10"
     guidetolerance="10"
     inkscape:pageopacity="0"
     inkscape:pageshadow="2"
     inkscape:window-width="2895"
     inkscape:window-height="2040"
     id="namedview4752"
     showgrid="true"
     inkscape:zoom="2.8284271"
     inkscape:cx="6.8453047"
     inkscape:cy="15.692197"
     inkscape:window-x="0"
     inkscape:window-y="56"
     inkscape:window-maximized="0"
     inkscape:current-layer="svg6796"
     viewbox-width="100"
     inkscape:snap-object-midpoints="false" />
  <defs
     id="defs6790">
    <linearGradient
       inkscape:collect="always"
       id="linearGradient15658">
      <stop
         style="stop-color:#f2f631;stop-opacity:1"
         offset="0"
         id="stop15654" />
      <stop
         style="stop-color:#f2f3a5;stop-opacity:1"
         offset="1"
         id="stop15656" />
    </linearGradient>
    <radialGradient
       inkscape:collect="always"
       xlink:href="#linearGradient15658"
       id="radialGradient15662"
       cx="18.337067"
       cy="33.972527"
       fx="18.337067"
       fy="33.972527"
       r="2.824043"
       gradientTransform="matrix(4.8934379,4.9419455,-4.0946276,4.0544365,188.10031,29.889695)"
       gradientUnits="userSpaceOnUse" />
  </defs>
  <metadata
     id="metadata6793">
    <rdf:RDF>
      <cc:Work
         rdf:about="">
        <dc:format>image/svg+xml</dc:format>
        <dc:type
           rdf:resource="http://purl.org/dc/dcmitype/StillImage" />
        <dc:title></dc:title>
      </cc:Work>
    </rdf:RDF>
  </metadata>
  <g
     id="g19875"
     transform="translate(102.75145,-226.86342)">
    <path
       id="path7768"
       d="m -16.743065,30.626564 -0.02663,4.402223 -3.131675,3.094008 -4.402223,-0.02664 -3.094008,-3.131675 0.02663,-4.402223 3.131675,-3.094008 4.402223,0.02663 z"
       style="opacity:1;fill:#d00000;fill-opacity:1;stroke:none;stroke-width:0.62;stroke-linecap:round;stroke-linejoin:round;stroke-miterlimit:4;stroke-dasharray:none;stroke-opacity:1"
       transform="matrix(4.1997733,-0.02781449,0.02781449,4.1997733,62.298074,114.29052)"
       inkscape:connector-curvature="0" />
    <path
       id="rect14186"
       d="m -36.540004,249.12817 h 14.119734 c 0.503115,0 0.90815,0.40504 0.90815,0.90815 v 5.20367 c 0,0.50311 -0.405035,0.90815 -0.90815,0.90815 h -14.119734 c -0.503115,0 -0.90815,-0.40504 -0.90815,-0.90815 v -5.20367 c 0,-0.50311 0.405035,-0.90815 0.90815,-0.90815 z"
       style="opacity:1;fill:#ffffff;fill-opacity:1;stroke:none;stroke-width:0.23477696;stroke-linecap:round;stroke-linejoin:round;stroke-miterlimit:4;stroke-dasharray:none;stroke-opacity:1"
       inkscape:connector-curvature="0" />
    <path
       inkscape:connector-curvature="0"
       id="path7768-4"
       d="m -38.082891,231.9061 -12.142029,12.15529 0.01533,17.17707 12.155292,12.14203 17.17712,-0.007 12.1420332,-12.15529 -0.015381,-17.18528 -0.2147355,-0.22006 -11.9405027,-11.91376 z m 0.633456,1.51337 15.92206,-0.007 11.263425,11.2456 0.0071,15.93027 -11.253806,11.26348 -15.922005,0.0152 -11.26348,-11.2538 -0.007,-15.92206 z"
       style="color:#000000;font-style:normal;font-variant:normal;font-weight:normal;font-stretch:normal;font-size:medium;line-height:normal;font-family:sans-serif;font-variant-ligatures:normal;font-variant-position:normal;font-variant-caps:normal;font-variant-numeric:normal;font-variant-alternates:normal;font-feature-settings:normal;text-indent:0;text-align:start;text-decoration:none;text-decoration-line:none;text-decoration-style:solid;text-decoration-color:#000000;letter-spacing:normal;word-spacing:normal;text-transform:none;writing-mode:lr-tb;direction:ltr;text-orientation:mixed;dominant-baseline:auto;baseline-shift:baseline;text-anchor:start;white-space:normal;shape-padding:0;clip-rule:nonzero;display:inline;overflow:visible;visibility:visible;opacity:1;isolation:auto;mix-blend-mode:normal;color-interpolation:sRGB;color-interpolation-filters:linearRGB;solid-color:#000000;solid-opacity:1;vector-effect:none;fill:#fdfdfd;fill-opacity:1;fill-rule:nonzero;stroke:none;stroke-width:1.51791883;stroke-linecap:round;stroke-linejoin:miter;stroke-miterlimit:4;stroke-dasharray:none;stroke-dashoffset:0;stroke-opacity:1;color-rendering:auto;image-rendering:auto;shape-rendering:auto;text-rendering:auto;enable-background:accumulate" />
  </g>
  <g
     id="g19866"
     transform="translate(-29.831067,-185.24724)">
    <path
       id="path10968"
       d="M 105.48285,257.73566 A 22.333868,22.333868 0 0 1 83.148987,280.06952 22.333868,22.333868 0 0 1 60.815119,257.73566 22.333868,22.333868 0 0 1 83.148987,235.40179 22.333868,22.333868 0 0 1 105.48285,257.73566 Z"
       style="opacity:1;fill:#3832db;fill-opacity:1;stroke:none;stroke-width:2.02241039;stroke-linecap:round;stroke-linejoin:round;stroke-miterlimit:4;stroke-dasharray:none;stroke-opacity:1"
       inkscape:connector-curvature="0" />
    <path
       sodipodi:nodetypes="cscsscsccsccsscccccccccccccccsscccc"
       inkscape:connector-curvature="0"
       d="m 79.430632,255.31143 c -0.678281,-0.32609 -1.017422,-0.63261 -1.017422,-0.91956 0,-0.28698 0.136972,-0.51526 0.410915,-0.68485 0.952205,-0.57393 2.458765,-0.86089 4.51968,-0.86089 h 0.567416 c 0.704367,0 1.102219,0.32611 1.19356,0.97833 0.05217,0.35218 0.07825,2.72615 0.07825,7.12191 0,4.38275 0.09129,6.90021 0.273876,7.5524 0.182635,0.63916 0.619613,1.13483 1.310933,1.48702 0.691321,0.33914 1.036981,0.6848 1.036981,1.03699 0,0.49567 -1.61745,0.74351 -4.852348,0.74351 l -0.586938,0.0195 h -2.387041 c -0.952205,0 -1.428307,-0.23479 -1.428307,-0.70437 0,-0.39129 0.286963,-0.76955 0.86089,-1.13479 0.587012,-0.36522 0.991387,-0.76959 1.213128,-1.21312 0.247852,-0.48259 0.371778,-1.61088 0.371778,-3.38483 l 0.01988,-0.62609 v -0.60656 l 0.01988,-0.91961 v -0.60651 l 0.01988,-0.60656 c 0,-3.09141 -0.104367,-4.89145 -0.3131,-5.40013 -0.19563,-0.52179 -0.632588,-0.94572 -1.310875,-1.2718 z m 6.221939,-8.72636 c 0,0.57396 -0.247839,1.10878 -0.743517,1.60445 -0.695325,0.62881 -1.282728,0.73397 -2.132676,0.80249 -0.652183,0 -1.23914,-0.21523 -1.76087,-0.64571 -0.508723,-0.43044 -0.763085,-0.98481 -0.763085,-1.66313 v -0.35212 c 0,-0.67827 0.267391,-1.24569 0.802174,-1.70226 0.547868,-0.46958 1.173965,-0.70437 1.878293,-0.70437 0.836727,-0.046 1.494402,0.32035 2.01535,0.74348 0.599824,0.6388 0.666806,1.13416 0.704331,1.91717 z"
       style="font-style:normal;font-variant:normal;font-weight:500;font-stretch:normal;font-size:medium;line-height:25px;font-family:'Averia Serif GWF';-inkscape-font-specification:'Averia Serif GWF, Medium';font-variant-ligatures:normal;font-variant-caps:normal;font-variant-numeric:normal;font-feature-settings:normal;text-align:start;letter-spacing:0px;word-spacing:0px;writing-mode:lr-tb;text-anchor:start;fill:#ffffff;fill-opacity:1;stroke:none;stroke-width:0.41740364"
       id="path4791-7-3-2-8-2" />
    <path
       inkscape:connector-curvature="0"
       id="path10968-3"
       d="m 83.148438,237.18164 c -11.342563,0 -20.552735,9.21213 -20.552735,20.55469 0,11.34256 9.210172,20.55273 20.552735,20.55273 11.342562,0 20.554682,-9.21017 20.554682,-20.55273 0,-11.34256 -9.21212,-20.55469 -20.554682,-20.55469 z m 0,1.45898 c 10.554464,0 19.095702,8.54124 19.095702,19.09571 0,10.55446 -8.541238,19.09375 -19.095702,19.09375 -10.554465,0 -19.09375,-8.53929 -19.09375,-19.09375 0,-10.55447 8.539285,-19.09571 19.09375,-19.09571 z"
       style="color:#000000;font-style:normal;font-variant:normal;font-weight:normal;font-stretch:normal;font-size:medium;line-height:normal;font-family:sans-serif;font-variant-ligatures:normal;font-variant-position:normal;font-variant-caps:normal;font-variant-numeric:normal;font-variant-alternates:normal;font-feature-settings:normal;text-indent:0;text-align:start;text-decoration:none;text-decoration-line:none;text-decoration-style:solid;text-decoration-color:#000000;letter-spacing:normal;word-spacing:normal;text-transform:none;writing-mode:lr-tb;direction:ltr;text-orientation:mixed;dominant-baseline:auto;baseline-shift:baseline;text-anchor:start;white-space:normal;shape-padding:0;clip-rule:nonzero;display:inline;overflow:visible;visibility:visible;opacity:1;isolation:auto;mix-blend-mode:normal;color-interpolation:sRGB;color-interpolation-filters:linearRGB;solid-color:#000000;solid-opacity:1;vector-effect:none;fill:#ffffff;fill-opacity:1;fill-rule:nonzero;stroke:none;stroke-width:1.45825326;stroke-linecap:round;stroke-linejoin:round;stroke-miterlimit:4;stroke-dasharray:none;stroke-dashoffset:0;stroke-opacity:1;color-rendering:auto;image-rendering:auto;shape-rendering:auto;text-rendering:auto;enable-background:accumulate" />
  </g>
  <g
     id="g19870"
     transform="translate(-20.992232,-183.40582)">
    <path
       sodipodi:nodetypes="cccc"
       inkscape:connector-curvature="0"
       id="path7787"
       d="m 49.156612,274.49677 c -14.912728,0 -29.825456,0 -44.738186,0 7.456365,-12.9148 14.91273,-25.8296 22.369097,-38.7444 7.456363,12.9148 14.912725,25.8296 22.369089,38.7444 z"
       inkscape:transform-center-y="-6.4574016"
       style="opacity:1;fill:#f0ec1b;fill-opacity:1;stroke:#464646;stroke-width:2.02241039;stroke-linecap:round;stroke-linejoin:round;stroke-miterlimit:4;stroke-dasharray:none;stroke-opacity:1" />
    <path
       inkscape:connector-curvature="0"
       d="m 29.040219,268.52666 a 2.3214271,2.3214271 0 0 1 -2.321427,2.32142 2.3214271,2.3214271 0 0 1 -2.321425,-2.32142 2.3214271,2.3214271 0 0 1 2.321425,-2.32143 2.3214271,2.3214271 0 0 1 2.321427,2.32143 z m -0.04978,-20.71988 c -0.0885,5.19233 -0.71433,10.59114 -1.231786,14.58405 -0.09249,0.75146 -0.393074,1.12719 -0.901757,1.12719 h -0.39884 c -0.404615,0 -0.670538,-0.49134 -0.797731,-1.47401 -0.378702,-4.81157 -0.98775,-9.37721 -1.023537,-14.18523 0,-0.75146 0.167617,-1.30638 0.502867,-1.66477 0.346825,-0.36997 0.847987,-0.55492 1.703508,-0.55492 h 0.41621 c 1.086726,0 1.730088,0.72256 1.730088,2.16767 z"
       style="opacity:1;fill:#010101;fill-opacity:1;stroke:none;stroke-width:1.45757985;stroke-linecap:round;stroke-linejoin:round;stroke-miterlimit:4;stroke-dasharray:none;stroke-opacity:1"
       id="path14178" />
  </g>
  <text
     xml:space="preserve"
     style="font-style:normal;font-weight:normal;font-size:41.66666794px;line-height:1.25;font-family:sans-serif;letter-spacing:0px;word-spacing:0px;fill:#000000;fill-opacity:1;stroke:none;stroke-width:1.04166675"
     x="5.5555558"
     y="-4.1666679"
     id="text19410"><tspan
       sodipodi:role="line"
       id="tspan19408"
       x="5.5555558"
       y="32.698566"
       style="stroke-width:1.04166675"></tspan></text>
  <g
     id="g19879"
     transform="translate(102.75145,-226.86342)">
    <path
       id="rect19743"
       d="m -103.82745,234.15332 h 37.510899 v 37.38178 h -37.510899 z"
       style="opacity:1;fill:#ff6700;fill-opacity:1;stroke:#000000;stroke-width:1.47186947;stroke-linecap:round;stroke-linejoin:miter;stroke-miterlimit:4;stroke-dasharray:none;stroke-dashoffset:0;stroke-opacity:1"
       inkscape:connector-curvature="0" />
    <path
       inkscape:connector-curvature="0"
       id="path19406-1-5"
       d="m -86.262145,238.73184 a 8.9251234,8.9251234 0 0 0 -7.735396,8.83535 8.9251234,8.9251234 0 0 0 0.123769,1.4695 8.9251234,8.9251234 0 0 0 -1.328314,0.61709 8.9251234,8.9251234 0 0 0 -3.78272,11.11805 l 0.27978,-0.16211 a 6.2475857,6.2475857 0 0 1 2.78039,-7.44516 6.2475857,6.2475857 0 0 1 8.376886,2.0343 l 0.803621,-0.46369 a 1.7850245,1.7850245 0 0 1 -0.113312,-0.62319 1.7850245,1.7850245 0 0 1 1.48781,-1.75974 v -0.93261 a 6.2475857,6.2475857 0 0 1 -5.950378,-6.23276 6.2475857,6.2475857 0 0 1 5.057864,-6.12819 z m 2.379453,8.6e-4 v 0.32336 a 6.2475857,6.2475857 0 0 1 5.057855,6.13079 6.2475857,6.2475857 0 0 1 -5.950369,6.23713 v 0.92999 a 1.7850245,1.7850245 0 0 1 1.48781,1.758 1.7850245,1.7850245 0 0 1 -0.113302,0.62058 l 0.809711,0.46717 a 6.2475857,6.2475857 0 0 1 8.372529,-2.03692 6.2475857,6.2475857 0 0 1 2.777773,7.4443 l 0.282393,0.16298 a 8.9251234,8.9251234 0 0 0 -3.784459,-11.11631 8.9251234,8.9251234 0 0 0 -1.335285,-0.62755 8.9251234,8.9251234 0 0 0 0.13074,-1.45905 8.9251234,8.9251234 0 0 0 -7.735396,-8.83447 z m -1.189721,7.34666 a 8.032611,8.032611 0 0 0 -4.9925,1.75016 5.6525775,5.6525775 0 0 0 1.291705,1.62552 5.9500817,5.9500817 0 0 1 3.700795,-1.29256 5.9500817,5.9500817 0 0 1 3.693813,1.29343 5.6525775,5.6525775 0 0 0 1.302162,-1.63336 8.032611,8.032611 0 0 0 -4.995975,-1.74319 z m 7.938472,6.84898 a 5.6525775,5.6525775 0 0 0 -2.053469,0.30593 5.9500817,5.9500817 0 0 1 -0.731274,3.85071 5.9500817,5.9500817 0 0 1 -2.966906,2.5529 5.6525775,5.6525775 0 0 0 0.763516,1.94452 8.0326106,8.0326106 0 0 0 4.007588,-3.45587 8.0326106,8.0326106 0 0 0 0.980545,-5.19819 z m -15.881312,0.003 a 8.0326106,8.0326106 0 0 0 0.988388,5.19819 8.0326106,8.0326106 0 0 0 4.011945,3.44802 5.6525775,5.6525775 0 0 0 0.761774,-1.93145 5.9500817,5.9500817 0 0 1 -2.969521,-2.55812 5.9500817,5.9500817 0 0 1 -0.726908,-3.84548 5.6525775,5.6525775 0 0 0 -2.065678,-0.31116 z m 9.318209,2.3167 a 1.7850245,1.7850245 0 0 1 -1.375369,0.64933 1.7850245,1.7850245 0 0 1 -1.373637,-0.64759 l -0.807968,0.4663 a 6.2475857,6.2475857 0 0 1 -2.423032,8.26969 6.2475857,6.2475857 0 0 1 -7.835628,-1.31612 l -0.282398,0.16299 a 8.9251234,8.9251234 0 0 0 11.518118,2.2801 8.9251234,8.9251234 0 0 0 1.210644,-0.84197 8.9251234,8.9251234 0 0 0 1.198436,0.84197 8.9251234,8.9251234 0 0 0 11.518994,-2.28184 l -0.278918,-0.16125 a 6.2475857,6.2475857 0 0 1 -7.838242,1.31525 6.2475857,6.2475857 0 0 1 -2.426518,-8.2723 z"
       style="opacity:1;fill:#000000;fill-opacity:1;stroke:none;stroke-width:0.70875973;stroke-linecap:round;stroke-linejoin:bevel;stroke-miterlimit:4;stroke-dasharray:none;stroke-dashoffset:0;stroke-opacity:1" />
  </g>
  <g
     id="g19861"
     transform="translate(-44.562458,-185.61552)">
    <path
       id="path3572"
       d="m 151.38641,258.84923 a 11.8606,11.8606 0 0 1 -11.8606,11.8606 11.8606,11.8606 0 0 1 -11.8606,-11.8606 11.8606,11.8606 0 0 1 11.8606,-11.8606 11.8606,11.8606 0 0 1 11.8606,11.8606 z"
       style="opacity:1;fill:url(#radialGradient15662);fill-opacity:1;stroke:none;stroke-width:6.61845589;stroke-linecap:round;stroke-linejoin:round;stroke-miterlimit:4;stroke-dasharray:none;stroke-opacity:1"
       inkscape:connector-curvature="0" />
    <path
       id="path3572-9"
       d="m 136.61882,250.60995 a 0.8419925,0.8419925 0 0 0 -0.30083,0.0751 c -2.1981,0.97164 -3.92978,2.76704 -4.82476,4.99746 a 0.8419925,0.8419925 0 1 0 1.56222,0.62536 c 0.7316,-1.82327 2.14508,-3.2882 3.94189,-4.08247 a 0.8419925,0.8419925 0 0 0 -0.37849,-1.6156 z"
       style="color:#000000;font-style:normal;font-variant:normal;font-weight:normal;font-stretch:normal;font-size:medium;line-height:normal;font-family:sans-serif;font-variant-ligatures:normal;font-variant-position:normal;font-variant-caps:normal;font-variant-numeric:normal;font-variant-alternates:normal;font-feature-settings:normal;text-indent:0;text-align:start;text-decoration:none;text-decoration-line:none;text-decoration-style:solid;text-decoration-color:#000000;letter-spacing:normal;word-spacing:normal;text-transform:none;writing-mode:lr-tb;direction:ltr;text-orientation:mixed;dominant-baseline:auto;baseline-shift:baseline;text-anchor:start;white-space:normal;shape-padding:0;clip-rule:nonzero;display:inline;overflow:visible;visibility:visible;opacity:1;isolation:auto;mix-blend-mode:normal;color-interpolation:sRGB;color-interpolation-filters:linearRGB;solid-color:#000000;solid-opacity:1;vector-effect:none;fill:#ffffff;fill-opacity:1;fill-rule:nonzero;stroke:none;stroke-width:1.68381655;stroke-linecap:round;stroke-linejoin:round;stroke-miterlimit:4;stroke-dasharray:none;stroke-dashoffset:0;stroke-opacity:1;color-rendering:auto;image-rendering:auto;shape-rendering:auto;text-rendering:auto;enable-background:accumulate"
       inkscape:connector-curvature="0" />
    <path
       id="rect15582"
       d="m -244.05557,139.2057 h 5.07372 c 0.45478,0 0.8209,0.36612 0.8209,0.8209 0,0.45478 -0.36612,0.8209 -0.8209,0.8209 h -5.07372 c -0.45478,0 -0.82089,-0.36612 -0.82089,-0.8209 0,-0.45478 0.36611,-0.8209 0.82089,-0.8209 z"
       style="opacity:1;fill:#f4f745;fill-opacity:1;stroke:none;stroke-width:1.55054939;stroke-linecap:round;stroke-linejoin:miter;stroke-miterlimit:4;stroke-dasharray:none;stroke-opacity:1"
       transform="matrix(0.00207317,-0.99999785,0.99999745,0.00225727,0,0)"
       inkscape:connector-curvature="0" />
    <path
       id="rect15582-3"
       d="m -172.51739,226.18944 h 4.79404 c 0.45478,0 0.8209,0.36612 0.8209,0.82089 0,0.45478 -0.36612,0.8209 -0.8209,0.8209 h -4.79404 c -0.45478,0 -0.8209,-0.36612 -0.8209,-0.8209 0,-0.45477 0.36612,-0.82089 0.8209,-0.82089 z"
       inkscape:transform-center-y="-15.764865"
       inkscape:transform-center-x="-6.5213625"
       style="opacity:1;fill:#f4f745;fill-opacity:1;stroke:none;stroke-width:1.51791894;stroke-linecap:round;stroke-linejoin:miter;stroke-miterlimit:4;stroke-dasharray:none;stroke-opacity:1"
       transform="rotate(-67.805472)"
       inkscape:connector-curvature="0" />
    <path
       id="rect15582-3-2"
       d="m -277.93377,29.587112 h 4.79404 c 0.45478,0 0.8209,0.36612 0.8209,0.820896 0,0.454777 -0.36612,0.820896 -0.8209,0.820896 h -4.79404 c -0.45478,0 -0.8209,-0.366119 -0.8209,-0.820896 0,-0.454776 0.36612,-0.820896 0.8209,-0.820896 z"
       inkscape:transform-center-y="-15.807863"
       inkscape:transform-center-x="6.4164736"
       style="opacity:1;fill:#f4f745;fill-opacity:1;stroke:none;stroke-width:1.51791918;stroke-linecap:round;stroke-linejoin:miter;stroke-miterlimit:4;stroke-dasharray:none;stroke-opacity:1"
       transform="rotate(-112.37095)"
       inkscape:connector-curvature="0" />
    <path
       id="rect15582-3-3"
       d="m 128.77062,248.91234 -3.30214,-3.47544 c -0.31326,-0.3297 -0.30003,-0.8473 0.0297,-1.16055 0.3297,-0.31325 0.84729,-0.30001 1.16055,0.0297 l 3.30215,3.47543 c 0.31325,0.3297 0.30002,0.8473 -0.0297,1.16056 -0.32968,0.31324 -0.84728,0.30001 -1.16054,-0.0297 z"
       inkscape:transform-center-y="-12.42495"
       inkscape:transform-center-x="11.690976"
       style="opacity:1;fill:#f4f745;fill-opacity:1;stroke:none;stroke-width:1.51791894;stroke-linecap:round;stroke-linejoin:miter;stroke-miterlimit:4;stroke-dasharray:none;stroke-opacity:1"
       inkscape:connector-curvature="0" />
    <path
       id="rect15582-3-1"
       d="m 148.84437,247.78845 3.26268,-3.5125 c 0.30952,-0.33321 0.82694,-0.35229 1.16014,-0.0428 0.33321,0.30952 0.35229,0.82693 0.0428,1.16015 l -3.26269,3.5125 c -0.30952,0.33321 -0.82693,0.35229 -1.16015,0.0428 -0.33319,-0.3095 -0.35227,-0.82691 -0.0428,-1.16013 z"
       inkscape:transform-center-y="-12.443268"
       inkscape:transform-center-x="-11.671525"
       style="opacity:1;fill:#f4f745;fill-opacity:1;stroke:none;stroke-width:1.51791894;stroke-linecap:round;stroke-linejoin:miter;stroke-miterlimit:4;stroke-dasharray:none;stroke-opacity:1"
       inkscape:connector-curvature="0" />
    <path
       id="rect19780"
       d="m 138.46788,274.75668 h 2.11588 c 0.55003,0 0.99283,0.44281 0.99283,0.99284 v 1.69271 c 0,0.55003 -0.4428,0.99284 -0.99283,0.99284 h -2.11588 c -0.55004,0 -0.99284,-0.44281 -0.99284,-0.99284 v -1.69271 c 0,-0.55003 0.4428,-0.99284 0.99284,-0.99284 z"
       style="opacity:1;fill:#b5b5c0;fill-opacity:1;stroke:none;stroke-width:1.77083337;stroke-linecap:round;stroke-linejoin:miter;stroke-miterlimit:4;stroke-dasharray:none;stroke-dashoffset:0;stroke-opacity:1"
       inkscape:connector-curvature="0" />
    <path
       id="rect19780-4"
       d="m 136.94757,268.46948 h 5.15647 c 0.82677,0 1.49236,0.66559 1.49236,1.49236 v 5.28048 c 0,0.82676 -0.66559,1.49235 -1.49236,1.49235 h -5.15647 c -0.82676,0 -1.49235,-0.66559 -1.49235,-1.49235 v -5.28048 c 0,-0.82677 0.66559,-1.49236 1.49235,-1.49236 z"
       style="opacity:1;fill:#c6c6cf;fill-opacity:1;stroke:none;stroke-width:1.74025929;stroke-linecap:round;stroke-linejoin:miter;stroke-miterlimit:4;stroke-dasharray:none;stroke-dashoffset:0;stroke-opacity:1"
       inkscape:connector-curvature="0" />
    <path
       id="rect19797"
       d="m 87.877508,294.33044 h 4.005097 c 0.267789,0 0.483374,0.21559 0.483374,0.48338 0,0.26779 -0.215585,0.48337 -0.483374,0.48337 h -4.005097 c -0.267789,0 -0.483373,-0.21558 -0.483373,-0.48337 0,-0.26779 0.215584,-0.48338 0.483373,-0.48338 z"
       style="opacity:1;fill:#b4b4c0;fill-opacity:1;stroke:none;stroke-width:1.77083349;stroke-linecap:round;stroke-linejoin:miter;stroke-miterlimit:4;stroke-dasharray:none;stroke-dashoffset:0;stroke-opacity:1"
       transform="rotate(-9.9619139)"
       inkscape:connector-curvature="0" />
    <path
       id="rect19797-9"
       d="m 88.235891,292.29004 h 4.005098 c 0.267789,0 0.483373,0.21558 0.483373,0.48337 0,0.26779 -0.215584,0.48338 -0.483373,0.48338 h -4.005098 c -0.267789,0 -0.483373,-0.21559 -0.483373,-0.48338 0,-0.26779 0.215584,-0.48337 0.483373,-0.48337 z"
       style="opacity:1;fill:#b4b4c0;fill-opacity:1;stroke:none;stroke-width:1.77083349;stroke-linecap:round;stroke-linejoin:miter;stroke-miterlimit:4;stroke-dasharray:none;stroke-dashoffset:0;stroke-opacity:1"
       transform="rotate(-9.9619139)"
       inkscape:connector-curvature="0" />
    <path
       id="rect19797-9-2"
       d="m 88.594267,290.24966 h 4.005097 c 0.267789,0 0.483374,0.21559 0.483374,0.48338 0,0.26779 -0.215585,0.48337 -0.483374,0.48337 h -4.005097 c -0.267789,0 -0.483374,-0.21558 -0.483374,-0.48337 0,-0.26779 0.215585,-0.48338 0.483374,-0.48338 z"
       style="opacity:1;fill:#b4b4c0;fill-opacity:1;stroke:none;stroke-width:1.77083349;stroke-linecap:round;stroke-linejoin:miter;stroke-miterlimit:4;stroke-dasharray:none;stroke-dashoffset:0;stroke-opacity:1"
       transform="rotate(-9.9619139)"
       inkscape:connector-curvature="0" />
  </g>
</svg>
