<?xml version="1.0" encoding="UTF-8" standalone="no"?>
<svg
   xmlns:dc="http://purl.org/dc/elements/1.1/"
   xmlns:cc="http://creativecommons.org/ns#"
   xmlns:rdf="http://www.w3.org/1999/02/22-rdf-syntax-ns#"
   xmlns:svg="http://www.w3.org/2000/svg"
   xmlns="http://www.w3.org/2000/svg"
   xmlns:sodipodi="http://sodipodi.sourceforge.net/DTD/sodipodi-0.dtd"
   xmlns:inkscape="http://www.inkscape.org/namespaces/inkscape"
   id="svg6796"
   version="1.1"
   viewBox="0 0 25.4 25.400001"
   height="1in"
   width="1in"
   sodipodi:docname="light-on.svg"
   inkscape:version="0.92.4 (f8dce91, 2019-08-02)">
  <sodipodi:namedview
     pagecolor="#ffffff"
     bordercolor="#666666"
     borderopacity="1"
     objecttolerance="10"
     gridtolerance="10"
     guidetolerance="10"
     inkscape:pageopacity="0"
     inkscape:pageshadow="2"
     inkscape:window-width="3840"
     inkscape:window-height="2049"
     id="namedview4032"
     showgrid="false"
     inkscape:zoom="6.9532167"
     inkscape:cx="49.405642"
     inkscape:cy="16.251559"
     inkscape:window-x="0"
     inkscape:window-y="55"
     inkscape:window-maximized="1"
     inkscape:current-layer="svg6796" />
  <defs
     id="defs6790" />
  <metadata
     id="metadata6793">
    <rdf:RDF>
      <cc:Work
         rdf:about="">
        <dc:format>image/svg+xml</dc:format>
        <dc:type
           rdf:resource="http://purl.org/dc/dcmitype/StillImage" />
        <dc:title />
      </cc:Work>
    </rdf:RDF>
  </metadata>
  <path
     style="opacity:1;fill:#4d4d4d;fill-opacity:1;stroke:none;stroke-width:4.24569082;stroke-linecap:round;stroke-linejoin:round;stroke-miterlimit:4;stroke-dasharray:none;stroke-opacity:1"
     d="m 12.275573,23.090054 h 0.816479 c 0.339247,0 0.612359,0.273112 0.612359,0.612359 0,0.339247 -0.273112,0.612359 -0.612359,0.612359 h -0.816479 c -0.339247,0 -0.612359,-0.273112 -0.612359,-0.612359 0,-0.339247 0.273112,-0.612359 0.612359,-0.612359 z"
     id="rect3360" />
  <path
     style="opacity:1;fill:#d3d3d3;fill-opacity:1;stroke:none;stroke-width:3.06801057;stroke-linecap:round;stroke-linejoin:round;stroke-miterlimit:4;stroke-dasharray:none;stroke-opacity:1"
     d="M 18.181839,15.127151 A 5.4980264,5.4980264 0 0 1 12.683813,20.625177 5.4980264,5.4980264 0 0 1 7.1857867,15.127151 5.4980264,5.4980264 0 0 1 12.683813,9.6291242 5.4980264,5.4980264 0 0 1 18.181839,15.127151 Z"
     id="path3572" />
  <path
     style="opacity:1;fill:#4d4d4d;fill-opacity:1;stroke:none;stroke-width:3.37428045;stroke-linecap:round;stroke-linejoin:round;stroke-miterlimit:4;stroke-dasharray:none;stroke-opacity:1"
     d="m 11.525088,19.577591 h 2.317448 c 0.449378,0 0.811151,0.361773 0.811151,0.811151 v 2.410148 c 0,0.449378 -0.361773,0.811151 -0.811151,0.811151 h -2.317448 c -0.449378,0 -0.811151,-0.361773 -0.811151,-0.811151 v -2.410148 c 0,-0.449378 0.361773,-0.811151 0.811151,-0.811151 z"
     id="rect3358" />
  <path
     transform="matrix(0.52210128,0.85288349,0.85288349,-0.52210128,0,0)"
     style="opacity:1;fill:#6c6c6c;fill-opacity:1;stroke:none;stroke-width:0.60946739;stroke-linecap:round;stroke-linejoin:round;stroke-miterlimit:4;stroke-dasharray:none;stroke-opacity:1"
     d="m 6.5645488,4.886034 h 5.5588782 c 0.208709,0 0.376731,0.1680221 0.376731,0.3767312 0,0.2087091 -0.168022,0.3767312 -0.376731,0.3767312 H 6.5645488 c -0.2087091,0 -0.3767312,-0.1680221 -0.3767312,-0.3767312 0,-0.2087091 0.1680221,-0.3767312 0.3767312,-0.3767312 z"
     id="rect3422-3" />
  <path
     transform="matrix(-0.00156832,0.99999877,0.99999877,0.00156832,0,0)"
     style="opacity:1;fill:#6c6c6c;fill-opacity:1;stroke:none;stroke-width:0.67762285;stroke-linecap:round;stroke-linejoin:round;stroke-miterlimit:4;stroke-dasharray:none;stroke-opacity:1"
     d="m 1.336798,12.232615 h 6.1805161 c 0.2320486,0 0.4188602,0.186812 0.4188602,0.418861 0,0.232048 -0.1868116,0.41886 -0.4188602,0.41886 H 1.336798 c -0.2320486,0 -0.4188603,-0.186812 -0.4188603,-0.41886 0,-0.232049 0.1868117,-0.418861 0.4188603,-0.418861 z"
     id="rect3422-1-7" />
  <path
     transform="rotate(121.47331)"
     style="opacity:1;fill:#6c6c6c;fill-opacity:1;stroke:none;stroke-width:0.57324362;stroke-linecap:round;stroke-linejoin:round;stroke-miterlimit:4;stroke-dasharray:none;stroke-opacity:1"
     d="m -6.358654,-16.796907 h 5.2284851 c 0.19630437,0 0.35434006,0.158035 0.35434006,0.35434 0,0.196304 -0.15803569,0.35434 -0.35434006,0.35434 H -6.358654 c -0.1963044,0 -0.3543401,-0.158036 -0.3543401,-0.35434 0,-0.196305 0.1580357,-0.35434 0.3543401,-0.35434 z"
     id="rect3422-2-5" />
  <path
     inkscape:connector-curvature="0"
     style="color:#000000;font-style:normal;font-variant:normal;font-weight:normal;font-stretch:normal;font-size:medium;line-height:normal;font-family:sans-serif;font-variant-ligatures:normal;font-variant-position:normal;font-variant-caps:normal;font-variant-numeric:normal;font-variant-alternates:normal;font-feature-settings:normal;text-indent:0;text-align:start;text-decoration:none;text-decoration-line:none;text-decoration-style:solid;text-decoration-color:#000000;letter-spacing:normal;word-spacing:normal;text-transform:none;writing-mode:lr-tb;direction:ltr;text-orientation:mixed;dominant-baseline:auto;baseline-shift:baseline;text-anchor:start;white-space:normal;shape-padding:0;clip-rule:nonzero;display:inline;overflow:visible;visibility:visible;opacity:1;isolation:auto;mix-blend-mode:normal;color-interpolation:sRGB;color-interpolation-filters:linearRGB;solid-color:#000000;solid-opacity:1;vector-effect:none;fill:#ffffff;fill-opacity:1;fill-rule:nonzero;stroke:none;stroke-width:0.78053963;stroke-linecap:round;stroke-linejoin:round;stroke-miterlimit:4;stroke-dasharray:none;stroke-dashoffset:0;stroke-opacity:1;color-rendering:auto;image-rendering:auto;shape-rendering:auto;text-rendering:auto;enable-background:accumulate"
     d="m 11.336268,11.307798 a 0.39030884,0.39030884 0 0 0 -0.139451,0.03479 c -1.018936,0.45041 -1.8216627,1.282673 -2.2365383,2.316593 a 0.39030884,0.39030884 0 1 0 0.7241757,0.289891 C 10.023592,13.10389 10.67881,12.424815 11.51173,12.056626 a 0.39030884,0.39030884 0 0 0 -0.175451,-0.748917 z"
     id="path3572-9" />
</svg>
