<?xml version="1.0" encoding="UTF-8" standalone="no"?>
<svg
   xmlns:dc="http://purl.org/dc/elements/1.1/"
   xmlns:cc="http://creativecommons.org/ns#"
   xmlns:rdf="http://www.w3.org/1999/02/22-rdf-syntax-ns#"
   xmlns:svg="http://www.w3.org/2000/svg"
   xmlns="http://www.w3.org/2000/svg"
   xmlns:sodipodi="http://sodipodi.sourceforge.net/DTD/sodipodi-0.dtd"
   xmlns:inkscape="http://www.inkscape.org/namespaces/inkscape"
   id="svg6796"
   version="1.1"
   viewBox="0 0 25.4 25.400001"
   height="1in"
   width="1in"
   sodipodi:docname="light-off.svg"
   inkscape:version="0.92.4 (f8dce91, 2019-08-02)">
  <sodipodi:namedview
     pagecolor="#ffffff"
     bordercolor="#666666"
     borderopacity="1"
     objecttolerance="10"
     gridtolerance="10"
     guidetolerance="10"
     inkscape:pageopacity="0"
     inkscape:pageshadow="2"
     inkscape:window-width="3840"
     inkscape:window-height="2049"
     id="namedview4032"
     showgrid="false"
     inkscape:zoom="6.9532167"
     inkscape:cx="7.6983269"
     inkscape:cy="16.251559"
     inkscape:window-x="0"
     inkscape:window-y="55"
     inkscape:window-maximized="1"
     inkscape:current-layer="svg6796" />
  <defs
     id="defs6790" />
  <metadata
     id="metadata6793">
    <rdf:RDF>
      <cc:Work
         rdf:about="">
        <dc:format>image/svg+xml</dc:format>
        <dc:type
           rdf:resource="http://purl.org/dc/dcmitype/StillImage" />
        <dc:title />
      </cc:Work>
    </rdf:RDF>
  </metadata>
  <path
     style="opacity:1;fill:#4d4d4d;fill-opacity:1;stroke:none;stroke-width:4.24569082;stroke-linecap:round;stroke-linejoin:round;stroke-miterlimit:4;stroke-dasharray:none;stroke-opacity:1"
     d="m 12.275573,20.198107 h 0.816479 c 0.339247,0 0.61236,0.273112 0.61236,0.612359 0,0.339247 -0.273113,0.61236 -0.61236,0.61236 h -0.816479 c -0.339247,0 -0.612359,-0.273113 -0.612359,-0.61236 0,-0.339247 0.273112,-0.612359 0.612359,-0.612359 z"
     id="rect3360-2"
     inkscape:connector-curvature="0" />
  <path
     style="opacity:1;fill:#808080;fill-opacity:1;stroke:none;stroke-width:3.06801057;stroke-linecap:round;stroke-linejoin:round;stroke-miterlimit:4;stroke-dasharray:none;stroke-opacity:1"
     d="M 18.181838,12.235205 A 5.4980264,5.4980264 0 0 1 12.683812,17.733231 5.4980264,5.4980264 0 0 1 7.1857852,12.235205 5.4980264,5.4980264 0 0 1 12.683812,6.7371791 5.4980264,5.4980264 0 0 1 18.181838,12.235205 Z"
     id="path3572-2"
     inkscape:connector-curvature="0" />
  <path
     style="opacity:1;fill:#4d4d4d;fill-opacity:1;stroke:none;stroke-width:3.37428045;stroke-linecap:round;stroke-linejoin:round;stroke-miterlimit:4;stroke-dasharray:none;stroke-opacity:1"
     d="m 11.525088,16.685644 h 2.317449 c 0.449377,0 0.81115,0.361774 0.81115,0.811151 v 2.410149 c 0,0.449377 -0.361773,0.811151 -0.81115,0.811151 h -2.317449 c -0.449378,0 -0.811151,-0.361774 -0.811151,-0.811151 v -2.410149 c 0,-0.449377 0.361773,-0.811151 0.811151,-0.811151 z"
     id="rect3358-8"
     inkscape:connector-curvature="0" />
  <path
     inkscape:connector-curvature="0"
     style="color:#000000;font-style:normal;font-variant:normal;font-weight:normal;font-stretch:normal;font-size:medium;line-height:normal;font-family:sans-serif;font-variant-ligatures:normal;font-variant-position:normal;font-variant-caps:normal;font-variant-numeric:normal;font-variant-alternates:normal;font-feature-settings:normal;text-indent:0;text-align:start;text-decoration:none;text-decoration-line:none;text-decoration-style:solid;text-decoration-color:#000000;letter-spacing:normal;word-spacing:normal;text-transform:none;writing-mode:lr-tb;direction:ltr;text-orientation:mixed;dominant-baseline:auto;baseline-shift:baseline;text-anchor:start;white-space:normal;shape-padding:0;clip-rule:nonzero;display:inline;overflow:visible;visibility:visible;opacity:1;isolation:auto;mix-blend-mode:normal;color-interpolation:sRGB;color-interpolation-filters:linearRGB;solid-color:#000000;solid-opacity:1;vector-effect:none;fill:#a9a9a9;fill-opacity:1;fill-rule:nonzero;stroke:none;stroke-width:0.78053963;stroke-linecap:round;stroke-linejoin:round;stroke-miterlimit:4;stroke-dasharray:none;stroke-dashoffset:0;stroke-opacity:1;color-rendering:auto;image-rendering:auto;shape-rendering:auto;text-rendering:auto;enable-background:accumulate"
     d="m 11.336268,8.4157741 a 0.39030884,0.39030884 0 0 0 -0.139451,0.03479 c -1.018936,0.450407 -1.8216638,1.28267 -2.2365394,2.3165899 a 0.39030884,0.39030884 0 1 0 0.7241761,0.28989 C 10.023592,10.211866 10.678809,9.5327901 11.51173,9.1646011 a 0.39030884,0.39030884 0 0 0 -0.17545,-0.748917 z"
     id="path3572-9-9" />
</svg>
