<svg version="1.1" viewBox="0.0 0.0 457.0 317.0" fill="none" stroke="none" stroke-linecap="square" stroke-miterlimit="10" width="457" height="317" xmlns:xlink="http://www.w3.org/1999/xlink" xmlns="http://www.w3.org/2000/svg"><path fill="#ffffff" d="M0 0L457.0 0L457.0 317.0L0 317.0L0 0Z" fill-rule="nonzero"/><path stroke="#cccccc" stroke-width="1.0" stroke-linecap="butt" d="M78.5 57.5L78.5 249.5" fill-rule="nonzero"/><path stroke="#cccccc" stroke-width="1.0" stroke-linecap="butt" d="M133.5 57.5L133.5 249.5" fill-rule="nonzero"/><path stroke="#cccccc" stroke-width="1.0" stroke-linecap="butt" d="M262.5 57.5L262.5 249.5" fill-rule="nonzero"/><path stroke="#cccccc" stroke-width="1.0" stroke-linecap="butt" d="M317.5 57.5L317.5 249.5" fill-rule="nonzero"/><path stroke="#333333" stroke-width="1.0" stroke-linecap="butt" d="M42.5 249.5L317.5 249.5" fill-rule="nonzero"/><path stroke="#cccccc" stroke-width="1.0" stroke-linecap="butt" d="M42.5 210.5L317.5 210.5" fill-rule="nonzero"/><path stroke="#cccccc" stroke-width="1.0" stroke-linecap="butt" d="M42.5 172.5L317.5 172.5" fill-rule="nonzero"/><path stroke="#cccccc" stroke-width="1.0" stroke-linecap="butt" d="M42.5 134.5L317.5 134.5" fill-rule="nonzero"/><path stroke="#cccccc" stroke-width="1.0" stroke-linecap="butt" d="M42.5 95.5L317.5 95.5" fill-rule="nonzero"/><path stroke="#cccccc" stroke-width="1.0" stroke-linecap="butt" d="M42.5 57.5L317.5 57.5" fill-rule="nonzero"/><clipPath id="id_0"><path d="M42.85 57.416668L317.43445 57.416668L317.43445 249.15L42.85 249.15L42.85 57.416668Z" clip-rule="nonzero"/></clipPath><path stroke="#4285f4" stroke-width="2.0" stroke-linecap="butt" clip-path="url(#id_0)" d="M42.85 141.0124L98.14528 107.267334L133.7475 116.470535L189.04277 131.8092L244.33806 119.53827L317.43445 140.24547" fill-rule="nonzero"/><path stroke="#ea4335" stroke-width="2.0" stroke-linecap="butt" stroke-dasharray="8.0,6.0" clip-path="url(#id_0)" d="M42.85 160.18573L98.14528 78.8908L133.7475 90.3948L189.04277 131.04227L244.33806 120.3052L317.43445 161.7196" fill-rule="nonzero"/><path stroke="#fbbc04" stroke-width="2.0" stroke-linecap="butt" clip-path="url(#id_0)" d="M42.85 172.45667L98.14528 172.45667L133.7475 172.45667L189.04277 172.45667L244.33806 172.45667L317.43445 172.45667" fill-rule="nonzero"/><path fill="#000000" fill-opacity="0.0" clip-path="url(#id_0)" d="M45.85 141.0124C45.85 142.66925 44.506855 144.0124 42.85 144.0124C41.193146 144.0124 39.85 142.66925 39.85 141.0124C39.85 139.35555 41.193146 138.0124 42.85 138.0124C44.506855 138.0124 45.85 139.35555 45.85 141.0124Z" fill-rule="nonzero"/><path fill="#000000" fill-opacity="0.0" clip-path="url(#id_0)" d="M101.14528 107.267334C101.14528 108.92419 99.80214 110.267334 98.14528 110.267334C96.48843 110.267334 95.14528 108.92419 95.14528 107.267334C95.14528 105.61048 96.48843 104.267334 98.14528 104.267334C99.80214 104.267334 101.14528 105.61048 101.14528 107.267334Z" fill-rule="nonzero"/><path fill="#000000" fill-opacity="0.0" clip-path="url(#id_0)" d="M136.7475 116.470535C136.7475 118.12739 135.40434 119.470535 133.7475 119.470535C132.09064 119.470535 130.7475 118.12739 130.7475 116.470535C130.7475 114.81368 132.09064 113.470535 133.7475 113.470535C135.40434 113.470535 136.7475 114.81368 136.7475 116.470535Z" fill-rule="nonzero"/><path fill="#000000" fill-opacity="0.0" clip-path="url(#id_0)" d="M192.04277 131.8092C192.04277 133.46605 190.69963 134.8092 189.04277 134.8092C187.38593 134.8092 186.04277 133.46605 186.04277 131.8092C186.04277 130.15234 187.38593 128.8092 189.04277 128.8092C190.69963 128.8092 192.04277 130.15234 192.04277 131.8092Z" fill-rule="nonzero"/><path fill="#000000" fill-opacity="0.0" clip-path="url(#id_0)" d="M247.33806 119.53827C247.33806 121.19512 245.99492 122.53827 244.33806 122.53827C242.6812 122.53827 241.33806 121.19512 241.33806 119.53827C241.33806 117.88141 242.6812 116.53827 244.33806 116.53827C245.99492 116.53827 247.33806 117.88141 247.33806 119.53827Z" fill-rule="nonzero"/><path fill="#000000" fill-opacity="0.0" clip-path="url(#id_0)" d="M320.43445 140.24547C320.43445 141.90233 319.0913 143.24547 317.43445 143.24547C315.7776 143.24547 314.43445 141.90233 314.43445 140.24547C314.43445 138.58861 315.7776 137.24547 317.43445 137.24547C319.0913 137.24547 320.43445 138.58861 320.43445 140.24547Z" fill-rule="nonzero"/><path fill="#000000" fill-opacity="0.0" clip-path="url(#id_0)" d="M45.85 160.18573C45.85 161.84259 44.506855 163.18573 42.85 163.18573C41.193146 163.18573 39.85 161.84259 39.85 160.18573C39.85 158.52888 41.193146 157.18573 42.85 157.18573C44.506855 157.18573 45.85 158.52888 45.85 160.18573Z" fill-rule="nonzero"/><path fill="#000000" fill-opacity="0.0" clip-path="url(#id_0)" d="M101.14528 78.8908C101.14528 80.54765 99.80214 81.8908 98.14528 81.8908C96.48843 81.8908 95.14528 80.54765 95.14528 78.8908C95.14528 77.23395 96.48843 75.8908 98.14528 75.8908C99.80214 75.8908 101.14528 77.23395 101.14528 78.8908Z" fill-rule="nonzero"/><path fill="#000000" fill-opacity="0.0" clip-path="url(#id_0)" d="M136.7475 90.3948C136.7475 92.05165 135.40434 93.3948 133.7475 93.3948C132.09064 93.3948 130.7475 92.05165 130.7475 90.3948C130.7475 88.737946 132.09064 87.3948 133.7475 87.3948C135.40434 87.3948 136.7475 88.737946 136.7475 90.3948Z" fill-rule="nonzero"/><path fill="#000000" fill-opacity="0.0" clip-path="url(#id_0)" d="M192.04277 131.04227C192.04277 132.69913 190.69963 134.04227 189.04277 134.04227C187.38593 134.04227 186.04277 132.69913 186.04277 131.04227C186.04277 129.3854 187.38593 128.04227 189.04277 128.04227C190.69963 128.04227 192.04277 129.3854 192.04277 131.04227Z" fill-rule="nonzero"/><path fill="#000000" fill-opacity="0.0" clip-path="url(#id_0)" d="M247.33806 120.3052C247.33806 121.96205 245.99492 123.3052 244.33806 123.3052C242.6812 123.3052 241.33806 121.96205 241.33806 120.3052C241.33806 118.648346 242.6812 117.3052 244.33806 117.3052C245.99492 117.3052 247.33806 118.648346 247.33806 120.3052Z" fill-rule="nonzero"/><path fill="#000000" fill-opacity="0.0" clip-path="url(#id_0)" d="M320.43445 161.7196C320.43445 163.37645 319.0913 164.7196 317.43445 164.7196C315.7776 164.7196 314.43445 163.37645 314.43445 161.7196C314.43445 160.06274 315.7776 158.7196 317.43445 158.7196C319.0913 158.7196 320.43445 160.06274 320.43445 161.7196Z" fill-rule="nonzero"/><path fill="#000000" fill-opacity="0.0" clip-path="url(#id_0)" d="M45.85 172.45667C45.85 174.11353 44.506855 175.45667 42.85 175.45667C41.193146 175.45667 39.85 174.11353 39.85 172.45667C39.85 170.79982 41.193146 169.45667 42.85 169.45667C44.506855 169.45667 45.85 170.79982 45.85 172.45667Z" fill-rule="nonzero"/><path fill="#000000" fill-opacity="0.0" clip-path="url(#id_0)" d="M101.14528 172.45667C101.14528 174.11353 99.80214 175.45667 98.14528 175.45667C96.48843 175.45667 95.14528 174.11353 95.14528 172.45667C95.14528 170.79982 96.48843 169.45667 98.14528 169.45667C99.80214 169.45667 101.14528 170.79982 101.14528 172.45667Z" fill-rule="nonzero"/><path fill="#000000" fill-opacity="0.0" clip-path="url(#id_0)" d="M136.7475 172.45667C136.7475 174.11353 135.40434 175.45667 133.7475 175.45667C132.09064 175.45667 130.7475 174.11353 130.7475 172.45667C130.7475 170.79982 132.09064 169.45667 133.7475 169.45667C135.40434 169.45667 136.7475 170.79982 136.7475 172.45667Z" fill-rule="nonzero"/><path fill="#000000" fill-opacity="0.0" clip-path="url(#id_0)" d="M192.04277 172.45667C192.04277 174.11353 190.69963 175.45667 189.04277 175.45667C187.38593 175.45667 186.04277 174.11353 186.04277 172.45667C186.04277 170.79982 187.38593 169.45667 189.04277 169.45667C190.69963 169.45667 192.04277 170.79982 192.04277 172.45667Z" fill-rule="nonzero"/><path fill="#000000" fill-opacity="0.0" clip-path="url(#id_0)" d="M247.33806 172.45667C247.33806 174.11353 245.99492 175.45667 244.33806 175.45667C242.6812 175.45667 241.33806 174.11353 241.33806 172.45667C241.33806 170.79982 242.6812 169.45667 244.33806 169.45667C245.99492 169.45667 247.33806 170.79982 247.33806 172.45667Z" fill-rule="nonzero"/><path fill="#000000" fill-opacity="0.0" clip-path="url(#id_0)" d="M320.43445 172.45667C320.43445 174.11353 319.0913 175.45667 317.43445 175.45667C315.7776 175.45667 314.43445 174.11353 314.43445 172.45667C314.43445 170.79982 315.7776 169.45667 317.43445 169.45667C319.0913 169.45667 320.43445 170.79982 320.43445 172.45667Z" fill-rule="nonzero"/><path fill="#000000" d="M169.1891 295.38437L170.2516 295.29062Q170.32973 295.94687 170.61098 296.35312Q170.89223 296.75937 171.47035 297.025Q172.0641 297.275 172.79848 297.275Q173.4391 297.275 173.9391 297.0875Q174.4391 296.88437 174.67348 296.55624Q174.92348 296.2125 174.92348 295.82187Q174.92348 295.41562 174.6891 295.11874Q174.45473 294.80624 173.92348 294.60312Q173.5641 294.4625 172.3766 294.18124Q171.20473 293.9 170.73598 293.65Q170.11098 293.32187 169.8141 292.85312Q169.51723 292.36874 169.51723 291.775Q169.51723 291.13437 169.8766 290.57187Q170.2516 289.99374 170.95473 289.7125Q171.67348 289.41562 172.53285 289.41562Q173.48598 289.41562 174.22035 289.72812Q174.95473 290.025 175.34535 290.63437Q175.73598 291.22812 175.76723 291.97812L174.67348 292.05624Q174.57973 291.24374 174.0641 290.8375Q173.5641 290.41562 172.57973 290.41562Q171.54848 290.41562 171.07973 290.79062Q170.61098 291.16562 170.61098 291.69687Q170.61098 292.16562 170.9391 292.4625Q171.26723 292.75937 172.64223 293.07187Q174.03285 293.38437 174.54848 293.61874Q175.29848 293.97812 175.65785 294.50937Q176.01723 295.025 176.01723 295.72812Q176.01723 296.41562 175.6266 297.025Q175.23598 297.61874 174.5016 297.9625Q173.76723 298.29062 172.84535 298.29062Q171.67348 298.29062 170.8766 297.9625Q170.09535 297.61874 169.64223 296.93124Q169.20473 296.24374 169.1891 295.38437ZM177.4391 290.775L177.4391 289.55624L178.5016 289.55624L178.5016 290.775L177.4391 290.775ZM177.4391 298.15L177.4391 291.93124L178.5016 291.93124L178.5016 298.15L177.4391 298.15ZM179.8766 298.15L179.8766 297.29062L183.84535 292.74374Q183.15785 292.775 182.64223 292.775L180.11098 292.775L180.11098 291.93124L185.20473 291.93124L185.20473 292.61874L181.82973 296.57187L181.17348 297.29062Q181.89223 297.24374 182.5016 297.24374L185.39223 297.24374L185.39223 298.15L179.8766 298.15ZM189.6891 296.15L190.78285 296.275Q190.53285 297.22812 189.82973 297.75937Q189.1266 298.29062 188.04848 298.29062Q186.6891 298.29062 185.8766 297.44687Q185.07973 296.60312 185.07973 295.0875Q185.07973 293.525 185.89223 292.66562Q186.70473 291.79062 187.98598 291.79062Q189.23598 291.79062 190.01723 292.63437Q190.8141 293.47812 190.8141 295.025Q190.8141 295.11874 190.8141 295.30624L186.17348 295.30624Q186.23598 296.3375 186.7516 296.88437Q187.26723 297.41562 188.04848 297.41562Q188.6266 297.41562 189.03285 297.11874Q189.45473 296.80624 189.6891 296.15ZM186.23598 294.44687L189.70473 294.44687Q189.64223 293.65 189.3141 293.25937Q188.79848 292.65 188.0016 292.65Q187.26723 292.65 186.76723 293.13437Q186.28285 293.61874 186.23598 294.44687Z" fill-rule="nonzero"/><path fill="#000000" d="M30.35 248.91562Q30.35 247.38437 30.6625 246.4625Q30.975 245.525 31.584375 245.025Q32.209373 244.525 33.146873 244.525Q33.834373 244.525 34.35 244.80624Q34.88125 245.0875 35.225 245.61874Q35.56875 246.13437 35.75625 246.88437Q35.94375 247.63437 35.94375 248.91562Q35.94375 250.43124 35.63125 251.35312Q35.334373 252.275 34.709373 252.79062Q34.1 253.29062 33.146873 253.29062Q31.9125 253.29062 31.19375 252.4Q30.35 251.3375 30.35 248.91562ZM31.428125 248.91562Q31.428125 251.025 31.928125 251.72812Q32.428123 252.43124 33.146873 252.43124Q33.88125 252.43124 34.365623 251.72812Q34.865623 251.025 34.865623 248.91562Q34.865623 246.79062 34.365623 246.10312Q33.88125 245.4 33.13125 245.4Q32.4125 245.4 31.975 246.00937Q31.428125 246.79062 31.428125 248.91562Z" fill-rule="nonzero"/><path fill="#000000" d="M23.35 212.55333L24.459375 212.45958Q24.584375 213.27208 25.021875 213.67833Q25.475 214.08458 26.115625 214.08458Q26.865625 214.08458 27.396875 213.50645Q27.928125 212.92833 27.928125 211.99083Q27.928125 211.08458 27.4125 210.56895Q26.9125 210.0377 26.084375 210.0377Q25.584375 210.0377 25.1625 210.27208Q24.75625 210.50645 24.521875 210.86583L23.5375 210.74083L24.365625 206.33458L28.646875 206.33458L28.646875 207.33458L25.209375 207.33458L24.75625 209.64708Q25.521875 209.1002 26.365625 209.1002Q27.490625 209.1002 28.25625 209.88145Q29.0375 210.6627 29.0375 211.89708Q29.0375 213.05333 28.365625 213.9127Q27.5375 214.94395 26.115625 214.94395Q24.94375 214.94395 24.19375 214.2877Q23.459375 213.63145 23.35 212.55333ZM30.35 210.56895Q30.35 209.0377 30.6625 208.11583Q30.975 207.17833 31.584375 206.67833Q32.209373 206.17833 33.146873 206.17833Q33.834373 206.17833 34.35 206.45958Q34.88125 206.74083 35.225 207.27208Q35.56875 207.7877 35.75625 208.5377Q35.94375 209.2877 35.94375 210.56895Q35.94375 212.08458 35.63125 213.00645Q35.334373 213.92833 34.709373 214.44395Q34.1 214.94395 33.146873 214.94395Q31.9125 214.94395 31.19375 214.05333Q30.35 212.99083 30.35 210.56895ZM31.428125 210.56895Q31.428125 212.67833 31.928125 213.38145Q32.428123 214.08458 33.146873 214.08458Q33.88125 214.08458 34.365623 213.38145Q34.865623 212.67833 34.865623 210.56895Q34.865623 208.44395 34.365623 207.75645Q33.88125 207.05333 33.13125 207.05333Q32.4125 207.05333 31.975 207.6627Q31.428125 208.44395 31.428125 210.56895Z" fill-rule="nonzero"/><path fill="#000000" d="M20.31875 176.45667L19.271875 176.45667L19.271875 169.73792Q18.88125 170.09729 18.25625 170.47229Q17.646875 170.83167 17.1625 171.00354L17.1625 169.98792Q18.0375 169.56604 18.69375 168.98792Q19.365625 168.39417 19.646875 167.83167L20.31875 167.83167L20.31875 176.45667ZM23.35 172.22229Q23.35 170.69104 23.6625 169.76917Q23.975 168.83167 24.584375 168.33167Q25.209375 167.83167 26.146875 167.83167Q26.834375 167.83167 27.35 168.11292Q27.88125 168.39417 28.225 168.92542Q28.56875 169.44104 28.75625 170.19104Q28.94375 170.94104 28.94375 172.22229Q28.94375 173.73792 28.63125 174.65979Q28.334375 175.58167 27.709375 176.09729Q27.1 176.59729 26.146875 176.59729Q24.9125 176.59729 24.19375 175.70667Q23.35 174.64417 23.35 172.22229ZM24.428125 172.22229Q24.428125 174.33167 24.928125 175.03479Q25.428125 175.73792 26.146875 175.73792Q26.88125 175.73792 27.365625 175.03479Q27.865625 174.33167 27.865625 172.22229Q27.865625 170.09729 27.365625 169.40979Q26.88125 168.70667 26.13125 168.70667Q25.4125 168.70667 24.975 169.31604Q24.428125 170.09729 24.428125 172.22229ZM30.35 172.22229Q30.35 170.69104 30.6625 169.76917Q30.975 168.83167 31.584375 168.33167Q32.209373 167.83167 33.146873 167.83167Q33.834373 167.83167 34.35 168.11292Q34.88125 168.39417 35.225 168.92542Q35.56875 169.44104 35.75625 170.19104Q35.94375 170.94104 35.94375 172.22229Q35.94375 173.73792 35.63125 174.65979Q35.334373 175.58167 34.709373 176.09729Q34.1 176.59729 33.146873 176.59729Q31.9125 176.59729 31.19375 175.70667Q30.35 174.64417 30.35 172.22229ZM31.428125 172.22229Q31.428125 174.33167 31.928125 175.03479Q32.428123 175.73792 33.146873 175.73792Q33.88125 175.73792 34.365623 175.03479Q34.865623 174.33167 34.865623 172.22229Q34.865623 170.09729 34.365623 169.40979Q33.88125 168.70667 33.13125 168.70667Q32.4125 168.70667 31.975 169.31604Q31.428125 170.09729 31.428125 172.22229Z" fill-rule="nonzero"/><path fill="#000000" d="M20.31875 138.11L19.271875 138.11L19.271875 131.39125Q18.88125 131.75063 18.25625 132.12563Q17.646875 132.485 17.1625 132.65688L17.1625 131.64125Q18.0375 131.21938 18.69375 130.64125Q19.365625 130.0475 19.646875 129.485L20.31875 129.485L20.31875 138.11ZM23.35 135.86L24.459375 135.76625Q24.584375 136.57875 25.021875 136.985Q25.475 137.39125 26.115625 137.39125Q26.865625 137.39125 27.396875 136.81313Q27.928125 136.235 27.928125 135.2975Q27.928125 134.39125 27.4125 133.87563Q26.9125 133.34438 26.084375 133.34438Q25.584375 133.34438 25.1625 133.57875Q24.75625 133.81313 24.521875 134.1725L23.5375 134.0475L24.365625 129.64125L28.646875 129.64125L28.646875 130.64125L25.209375 130.64125L24.75625 132.95375Q25.521875 132.40688 26.365625 132.40688Q27.490625 132.40688 28.25625 133.18813Q29.0375 133.96938 29.0375 135.20375Q29.0375 136.36 28.365625 137.21938Q27.5375 138.25063 26.115625 138.25063Q24.94375 138.25063 24.19375 137.59438Q23.459375 136.93813 23.35 135.86ZM30.35 133.87563Q30.35 132.34438 30.6625 131.4225Q30.975 130.485 31.584375 129.985Q32.209373 129.485 33.146873 129.485Q33.834373 129.485 34.35 129.76625Q34.88125 130.0475 35.225 130.57875Q35.56875 131.09438 35.75625 131.84438Q35.94375 132.59438 35.94375 133.87563Q35.94375 135.39125 35.63125 136.31313Q35.334373 137.235 34.709373 137.75063Q34.1 138.25063 33.146873 138.25063Q31.9125 138.25063 31.19375 137.36Q30.35 136.2975 30.35 133.87563ZM31.428125 133.87563Q31.428125 135.985 31.928125 136.68813Q32.428123 137.39125 33.146873 137.39125Q33.88125 137.39125 34.365623 136.68813Q34.865623 135.985 34.865623 133.87563Q34.865623 131.75063 34.365623 131.06313Q33.88125 130.36 33.13125 130.36Q32.4125 130.36 31.975 130.96938Q31.428125 131.75063 31.428125 133.87563Z" fill-rule="nonzero"/><path fill="#000000" d="M21.896875 98.74771L21.896875 99.763336L16.209375 99.763336Q16.209375 99.388336 16.334375 99.02896Q16.553125 98.450836 17.021875 97.888336Q17.50625 97.325836 18.4125 96.59146Q19.81875 95.43521 20.303125 94.763336Q20.803125 94.09146 20.803125 93.49771Q20.803125 92.87271 20.35 92.450836Q19.896875 92.013336 19.178125 92.013336Q18.4125 92.013336 17.959375 92.46646Q17.50625 92.919586 17.490625 93.732086L16.4125 93.62271Q16.521875 92.40396 17.240625 91.77896Q17.975 91.138336 19.209375 91.138336Q20.44375 91.138336 21.1625 91.825836Q21.88125 92.513336 21.88125 93.52896Q21.88125 94.044586 21.6625 94.544586Q21.459375 95.02896 20.959375 95.59146Q20.475 96.138336 19.35 97.09146Q18.396875 97.888336 18.115625 98.18521Q17.85 98.46646 17.678125 98.74771L21.896875 98.74771ZM23.35 95.52896Q23.35 93.99771 23.6625 93.075836Q23.975 92.138336 24.584375 91.638336Q25.209375 91.138336 26.146875 91.138336Q26.834375 91.138336 27.35 91.419586Q27.88125 91.700836 28.225 92.232086Q28.56875 92.74771 28.75625 93.49771Q28.94375 94.24771 28.94375 95.52896Q28.94375 97.044586 28.63125 97.96646Q28.334375 98.888336 27.709375 99.40396Q27.1 99.90396 26.146875 99.90396Q24.9125 99.90396 24.19375 99.013336Q23.35 97.950836 23.35 95.52896ZM24.428125 95.52896Q24.428125 97.638336 24.928125 98.34146Q25.428125 99.044586 26.146875 99.044586Q26.88125 99.044586 27.365625 98.34146Q27.865625 97.638336 27.865625 95.52896Q27.865625 93.40396 27.365625 92.71646Q26.88125 92.013336 26.13125 92.013336Q25.4125 92.013336 24.975 92.62271Q24.428125 93.40396 24.428125 95.52896ZM30.35 95.52896Q30.35 93.99771 30.6625 93.075836Q30.975 92.138336 31.584375 91.638336Q32.209373 91.138336 33.146873 91.138336Q33.834373 91.138336 34.35 91.419586Q34.88125 91.700836 35.225 92.232086Q35.56875 92.74771 35.75625 93.49771Q35.94375 94.24771 35.94375 95.52896Q35.94375 97.044586 35.63125 97.96646Q35.334373 98.888336 34.709373 99.40396Q34.1 99.90396 33.146873 99.90396Q31.9125 99.90396 31.19375 99.013336Q30.35 97.950836 30.35 95.52896ZM31.428125 95.52896Q31.428125 97.638336 31.928125 98.34146Q32.428123 99.044586 33.146873 99.044586Q33.88125 99.044586 34.365623 98.34146Q34.865623 97.638336 34.865623 95.52896Q34.865623 93.40396 34.365623 92.71646Q33.88125 92.013336 33.13125 92.013336Q32.4125 92.013336 31.975 92.62271Q31.428125 93.40396 31.428125 95.52896Z" fill-rule="nonzero"/><path fill="#000000" d="M21.896875 60.401043L21.896875 61.416668L16.209375 61.416668Q16.209375 61.041668 16.334375 60.682293Q16.553125 60.104168 17.021875 59.541668Q17.50625 58.979168 18.4125 58.244793Q19.81875 57.088543 20.303125 56.416668Q20.803125 55.744793 20.803125 55.151043Q20.803125 54.526043 20.35 54.104168Q19.896875 53.666668 19.178125 53.666668Q18.4125 53.666668 17.959375 54.119793Q17.50625 54.572918 17.490625 55.385418L16.4125 55.276043Q16.521875 54.057293 17.240625 53.432293Q17.975 52.791668 19.209375 52.791668Q20.44375 52.791668 21.1625 53.479168Q21.88125 54.166668 21.88125 55.182293Q21.88125 55.697918 21.6625 56.197918Q21.459375 56.682293 20.959375 57.244793Q20.475 57.791668 19.35 58.744793Q18.396875 59.541668 18.115625 59.838543Q17.85 60.119793 17.678125 60.401043L21.896875 60.401043ZM23.35 59.166668L24.459375 59.072918Q24.584375 59.885418 25.021875 60.291668Q25.475 60.697918 26.115625 60.697918Q26.865625 60.697918 27.396875 60.119793Q27.928125 59.541668 27.928125 58.604168Q27.928125 57.697918 27.4125 57.182293Q26.9125 56.651043 26.084375 56.651043Q25.584375 56.651043 25.1625 56.885418Q24.75625 57.119793 24.521875 57.479168L23.5375 57.354168L24.365625 52.947918L28.646875 52.947918L28.646875 53.947918L25.209375 53.947918L24.75625 56.260418Q25.521875 55.713543 26.365625 55.713543Q27.490625 55.713543 28.25625 56.494793Q29.0375 57.276043 29.0375 58.510418Q29.0375 59.666668 28.365625 60.526043Q27.5375 61.557293 26.115625 61.557293Q24.94375 61.557293 24.19375 60.901043Q23.459375 60.244793 23.35 59.166668ZM30.35 57.182293Q30.35 55.651043 30.6625 54.729168Q30.975 53.791668 31.584375 53.291668Q32.209373 52.791668 33.146873 52.791668Q33.834373 52.791668 34.35 53.072918Q34.88125 53.354168 35.225 53.885418Q35.56875 54.401043 35.75625 55.151043Q35.94375 55.901043 35.94375 57.182293Q35.94375 58.697918 35.63125 59.619793Q35.334373 60.541668 34.709373 61.057293Q34.1 61.557293 33.146873 61.557293Q31.9125 61.557293 31.19375 60.666668Q30.35 59.604168 30.35 57.182293ZM31.428125 57.182293Q31.428125 59.291668 31.928125 59.994793Q32.428123 60.697918 33.146873 60.697918Q33.88125 60.697918 34.365623 59.994793Q34.865623 59.291668 34.865623 57.182293Q34.865623 55.057293 34.365623 54.369793Q33.88125 53.666668 33.13125 53.666668Q32.4125 53.666668 31.975 54.276043Q31.428125 55.057293 31.428125 57.182293Z" fill-rule="nonzero"/><path fill="#000000" d="M61.45221 263.9L62.561584 263.80624Q62.686584 264.61874 63.124084 265.025Q63.57721 265.43124 64.217834 265.43124Q64.967834 265.43124 65.499084 264.85312Q66.030334 264.275 66.030334 263.3375Q66.030334 262.43124 65.51471 261.91562Q65.01471 261.38437 64.186584 261.38437Q63.686584 261.38437 63.26471 261.61874Q62.85846 261.85312 62.624084 262.2125L61.63971 262.0875L62.467834 257.68124L66.749084 257.68124L66.749084 258.68124L63.311584 258.68124L62.85846 260.99374Q63.624084 260.44687 64.467834 260.44687Q65.592834 260.44687 66.35846 261.22812Q67.13971 262.00937 67.13971 263.24374Q67.13971 264.4 66.467834 265.25937Q65.63971 266.29062 64.217834 266.29062Q63.04596 266.29062 62.29596 265.63437Q61.561584 264.97812 61.45221 263.9ZM68.45221 261.91562Q68.45221 260.38437 68.76471 259.4625Q69.07721 258.525 69.686584 258.025Q70.311584 257.525 71.249084 257.525Q71.936584 257.525 72.45221 257.80624Q72.98346 258.0875 73.32721 258.61874Q73.67096 259.13437 73.85846 259.88437Q74.04596 260.63437 74.04596 261.91562Q74.04596 263.43124 73.73346 264.35312Q73.436584 265.275 72.811584 265.79062Q72.20221 266.29062 71.249084 266.29062Q70.01471 266.29062 69.29596 265.4Q68.45221 264.3375 68.45221 261.91562ZM69.530334 261.91562Q69.530334 264.025 70.030334 264.72812Q70.530334 265.43124 71.249084 265.43124Q71.98346 265.43124 72.467834 264.72812Q72.967834 264.025 72.967834 261.91562Q72.967834 259.79062 72.467834 259.10312Q71.98346 258.4 71.23346 258.4Q70.51471 258.4 70.07721 259.00937Q69.530334 259.79062 69.530334 261.91562ZM75.45221 261.91562Q75.45221 260.38437 75.76471 259.4625Q76.07721 258.525 76.686584 258.025Q77.311584 257.525 78.249084 257.525Q78.936584 257.525 79.45221 257.80624Q79.98346 258.0875 80.32721 258.61874Q80.67096 259.13437 80.85846 259.88437Q81.04596 260.63437 81.04596 261.91562Q81.04596 263.43124 80.73346 264.35312Q80.436584 265.275 79.811584 265.79062Q79.20221 266.29062 78.249084 266.29062Q77.01471 266.29062 76.29596 265.4Q75.45221 264.3375 75.45221 261.91562ZM76.530334 261.91562Q76.530334 264.025 77.030334 264.72812Q77.530334 265.43124 78.249084 265.43124Q78.98346 265.43124 79.467834 264.72812Q79.967834 264.025 79.967834 261.91562Q79.967834 259.79062 79.467834 259.10312Q78.98346 258.4 78.23346 258.4Q77.51471 258.4 77.07721 259.00937Q76.530334 259.79062 76.530334 261.91562ZM82.45221 261.91562Q82.45221 260.38437 82.76471 259.4625Q83.07721 258.525 83.686584 258.025Q84.311584 257.525 85.249084 257.525Q85.936584 257.525 86.45221 257.80624Q86.98346 258.0875 87.32721 258.61874Q87.67096 259.13437 87.85846 259.88437Q88.04596 260.63437 88.04596 261.91562Q88.04596 263.43124 87.73346 264.35312Q87.436584 265.275 86.811584 265.79062Q86.20221 266.29062 85.249084 266.29062Q84.01471 266.29062 83.29596 265.4Q82.45221 264.3375 82.45221 261.91562ZM83.530334 261.91562Q83.530334 264.025 84.030334 264.72812Q84.530334 265.43124 85.249084 265.43124Q85.98346 265.43124 86.467834 264.72812Q86.967834 264.025 86.967834 261.91562Q86.967834 259.79062 86.467834 259.10312Q85.98346 258.4 85.23346 258.4Q84.51471 258.4 84.07721 259.00937Q83.530334 259.79062 83.530334 261.91562ZM89.45221 261.91562Q89.45221 260.38437 89.76471 259.4625Q90.07721 258.525 90.686584 258.025Q91.311584 257.525 92.249084 257.525Q92.936584 257.525 93.45221 257.80624Q93.98346 258.0875 94.32721 258.61874Q94.67096 259.13437 94.85846 259.88437Q95.04596 260.63437 95.04596 261.91562Q95.04596 263.43124 94.73346 264.35312Q94.436584 265.275 93.811584 265.79062Q93.20221 266.29062 92.249084 266.29062Q91.01471 266.29062 90.29596 265.4Q89.45221 264.3375 89.45221 261.91562ZM90.530334 261.91562Q90.530334 264.025 91.030334 264.72812Q91.530334 265.43124 92.249084 265.43124Q92.98346 265.43124 93.467834 264.72812Q93.967834 264.025 93.967834 261.91562Q93.967834 259.79062 93.467834 259.10312Q92.98346 258.4 92.23346 258.4Q91.51471 258.4 91.07721 259.00937Q90.530334 259.79062 90.530334 261.91562Z" fill-rule="nonzero"/><path fill="#000000" d="M117.21624 266.15L116.169365 266.15L116.169365 259.43124Q115.77874 259.79062 115.15374 260.16562Q114.544365 260.525 114.05999 260.69687L114.05999 259.68124Q114.93499 259.25937 115.59124 258.68124Q116.263115 258.0875 116.544365 257.525L117.21624 257.525L117.21624 266.15ZM120.24749 261.91562Q120.24749 260.38437 120.55999 259.4625Q120.87249 258.525 121.481865 258.025Q122.106865 257.525 123.044365 257.525Q123.731865 257.525 124.24749 257.80624Q124.77874 258.0875 125.12249 258.61874Q125.46624 259.13437 125.65374 259.88437Q125.84124 260.63437 125.84124 261.91562Q125.84124 263.43124 125.52874 264.35312Q125.231865 265.275 124.606865 265.79062Q123.99749 266.29062 123.044365 266.29062Q121.80999 266.29062 121.09124 265.4Q120.24749 264.3375 120.24749 261.91562ZM121.325615 261.91562Q121.325615 264.025 121.825615 264.72812Q122.325615 265.43124 123.044365 265.43124Q123.77874 265.43124 124.263115 264.72812Q124.763115 264.025 124.763115 261.91562Q124.763115 259.79062 124.263115 259.10312Q123.77874 258.4 123.02874 258.4Q122.30999 258.4 121.87249 259.00937Q121.325615 259.79062 121.325615 261.91562ZM127.24749 261.91562Q127.24749 260.38437 127.55999 259.4625Q127.87249 258.525 128.48187 258.025Q129.10687 257.525 130.04437 257.525Q130.73187 257.525 131.2475 257.80624Q131.77875 258.0875 132.1225 258.61874Q132.46625 259.13437 132.65375 259.88437Q132.84125 260.63437 132.84125 261.91562Q132.84125 263.43124 132.52875 264.35312Q132.23187 265.275 131.60687 265.79062Q130.9975 266.29062 130.04437 266.29062Q128.81 266.29062 128.09125 265.4Q127.24749 264.3375 127.24749 261.91562ZM128.32562 261.91562Q128.32562 264.025 128.82562 264.72812Q129.32562 265.43124 130.04437 265.43124Q130.77875 265.43124 131.26312 264.72812Q131.76312 264.025 131.76312 261.91562Q131.76312 259.79062 131.26312 259.10312Q130.77875 258.4 130.02875 258.4Q129.31 258.4 128.8725 259.00937Q128.32562 259.79062 128.32562 261.91562ZM134.2475 261.91562Q134.2475 260.38437 134.56 259.4625Q134.8725 258.525 135.48187 258.025Q136.10687 257.525 137.04437 257.525Q137.73187 257.525 138.2475 257.80624Q138.77875 258.0875 139.1225 258.61874Q139.46625 259.13437 139.65375 259.88437Q139.84125 260.63437 139.84125 261.91562Q139.84125 263.43124 139.52875 264.35312Q139.23187 265.275 138.60687 265.79062Q137.9975 266.29062 137.04437 266.29062Q135.81 266.29062 135.09125 265.4Q134.2475 264.3375 134.2475 261.91562ZM135.32562 261.91562Q135.32562 264.025 135.82562 264.72812Q136.32562 265.43124 137.04437 265.43124Q137.77875 265.43124 138.26312 264.72812Q138.76312 264.025 138.76312 261.91562Q138.76312 259.79062 138.26312 259.10312Q137.77875 258.4 137.02875 258.4Q136.31 258.4 135.8725 259.00937Q135.32562 259.79062 135.32562 261.91562ZM141.2475 261.91562Q141.2475 260.38437 141.56 259.4625Q141.8725 258.525 142.48187 258.025Q143.10687 257.525 144.04437 257.525Q144.73187 257.525 145.2475 257.80624Q145.77875 258.0875 146.1225 258.61874Q146.46625 259.13437 146.65375 259.88437Q146.84125 260.63437 146.84125 261.91562Q146.84125 263.43124 146.52875 264.35312Q146.23187 265.275 145.60687 265.79062Q144.9975 266.29062 144.04437 266.29062Q142.81 266.29062 142.09125 265.4Q141.2475 264.3375 141.2475 261.91562ZM142.32562 261.91562Q142.32562 264.025 142.82562 264.72812Q143.32562 265.43124 144.04437 265.43124Q144.77875 265.43124 145.26312 264.72812Q145.76312 264.025 145.76312 261.91562Q145.76312 259.79062 145.26312 259.10312Q144.77875 258.4 144.02875 258.4Q143.31 258.4 142.8725 259.00937Q142.32562 259.79062 142.32562 261.91562ZM148.2475 261.91562Q148.2475 260.38437 148.56 259.4625Q148.8725 258.525 149.48187 258.025Q150.10687 257.525 151.04437 257.525Q151.73187 257.525 152.2475 257.80624Q152.77875 258.0875 153.1225 258.61874Q153.46625 259.13437 153.65375 259.88437Q153.84125 260.63437 153.84125 261.91562Q153.84125 263.43124 153.52875 264.35312Q153.23187 265.275 152.60687 265.79062Q151.9975 266.29062 151.04437 266.29062Q149.81 266.29062 149.09125 265.4Q148.2475 264.3375 148.2475 261.91562ZM149.32562 261.91562Q149.32562 264.025 149.82562 264.72812Q150.32562 265.43124 151.04437 265.43124Q151.77875 265.43124 152.26312 264.72812Q152.76312 264.025 152.76312 261.91562Q152.76312 259.79062 152.26312 259.10312Q151.77875 258.4 151.02875 258.4Q150.31 258.4 149.8725 259.00937Q149.32562 259.79062 149.32562 261.91562Z" fill-rule="nonzero"/><path fill="#000000" d="M241.63916 263.9L242.74854 263.80624Q242.87354 264.61874 243.31104 265.025Q243.76416 265.43124 244.40479 265.43124Q245.15479 265.43124 245.68604 264.85312Q246.21729 264.275 246.21729 263.3375Q246.21729 262.43124 245.70166 261.91562Q245.20166 261.38437 244.37354 261.38437Q243.87354 261.38437 243.45166 261.61874Q243.04541 261.85312 242.81104 262.2125L241.82666 262.0875L242.65479 257.68124L246.93604 257.68124L246.93604 258.68124L243.49854 258.68124L243.04541 260.99374Q243.81104 260.44687 244.65479 260.44687Q245.77979 260.44687 246.54541 261.22812Q247.32666 262.00937 247.32666 263.24374Q247.32666 264.4 246.65479 265.25937Q245.82666 266.29062 244.40479 266.29062Q243.23291 266.29062 242.48291 265.63437Q241.74854 264.97812 241.63916 263.9ZM248.63916 261.91562Q248.63916 260.38437 248.95166 259.4625Q249.26416 258.525 249.87354 258.025Q250.49854 257.525 251.43604 257.525Q252.12354 257.525 252.63916 257.80624Q253.17041 258.0875 253.51416 258.61874Q253.85791 259.13437 254.04541 259.88437Q254.23291 260.63437 254.23291 261.91562Q254.23291 263.43124 253.92041 264.35312Q253.62354 265.275 252.99854 265.79062Q252.38916 266.29062 251.43604 266.29062Q250.20166 266.29062 249.48291 265.4Q248.63916 264.3375 248.63916 261.91562ZM249.71729 261.91562Q249.71729 264.025 250.21729 264.72812Q250.71729 265.43124 251.43604 265.43124Q252.17041 265.43124 252.65479 264.72812Q253.15479 264.025 253.15479 261.91562Q253.15479 259.79062 252.65479 259.10312Q252.17041 258.4 251.42041 258.4Q250.70166 258.4 250.26416 259.00937Q249.71729 259.79062 249.71729 261.91562ZM255.63916 261.91562Q255.63916 260.38437 255.95166 259.4625Q256.26416 258.525 256.87354 258.025Q257.49854 257.525 258.43604 257.525Q259.12354 257.525 259.63916 257.80624Q260.1704 258.0875 260.51416 258.61874Q260.8579 259.13437 261.0454 259.88437Q261.2329 260.63437 261.2329 261.91562Q261.2329 263.43124 260.9204 264.35312Q260.62354 265.275 259.99854 265.79062Q259.38916 266.29062 258.43604 266.29062Q257.20166 266.29062 256.4829 265.4Q255.63916 264.3375 255.63916 261.91562ZM256.7173 261.91562Q256.7173 264.025 257.2173 264.72812Q257.7173 265.43124 258.43604 265.43124Q259.1704 265.43124 259.6548 264.72812Q260.1548 264.025 260.1548 261.91562Q260.1548 259.79062 259.6548 259.10312Q259.1704 258.4 258.4204 258.4Q257.70166 258.4 257.26416 259.00937Q256.7173 259.79062 256.7173 261.91562ZM262.63916 261.91562Q262.63916 260.38437 262.95166 259.4625Q263.26416 258.525 263.87354 258.025Q264.49854 257.525 265.43604 257.525Q266.12354 257.525 266.63916 257.80624Q267.1704 258.0875 267.51416 258.61874Q267.8579 259.13437 268.0454 259.88437Q268.2329 260.63437 268.2329 261.91562Q268.2329 263.43124 267.9204 264.35312Q267.62354 265.275 266.99854 265.79062Q266.38916 266.29062 265.43604 266.29062Q264.20166 266.29062 263.4829 265.4Q262.63916 264.3375 262.63916 261.91562ZM263.7173 261.91562Q263.7173 264.025 264.2173 264.72812Q264.7173 265.43124 265.43604 265.43124Q266.1704 265.43124 266.6548 264.72812Q267.1548 264.025 267.1548 261.91562Q267.1548 259.79062 266.6548 259.10312Q266.1704 258.4 265.4204 258.4Q264.70166 258.4 264.26416 259.00937Q263.7173 259.79062 263.7173 261.91562ZM269.63916 261.91562Q269.63916 260.38437 269.95166 259.4625Q270.26416 258.525 270.87354 258.025Q271.49854 257.525 272.43604 257.525Q273.12354 257.525 273.63916 257.80624Q274.1704 258.0875 274.51416 258.61874Q274.8579 259.13437 275.0454 259.88437Q275.2329 260.63437 275.2329 261.91562Q275.2329 263.43124 274.9204 264.35312Q274.62354 265.275 273.99854 265.79062Q273.38916 266.29062 272.43604 266.29062Q271.20166 266.29062 270.4829 265.4Q269.63916 264.3375 269.63916 261.91562ZM270.7173 261.91562Q270.7173 264.025 271.2173 264.72812Q271.7173 265.43124 272.43604 265.43124Q273.1704 265.43124 273.6548 264.72812Q274.1548 264.025 274.1548 261.91562Q274.1548 259.79062 273.6548 259.10312Q273.1704 258.4 272.4204 258.4Q271.70166 258.4 271.26416 259.00937Q270.7173 259.79062 270.7173 261.91562ZM276.63916 261.91562Q276.63916 260.38437 276.95166 259.4625Q277.26416 258.525 277.87354 258.025Q278.49854 257.525 279.43604 257.525Q280.12354 257.525 280.63916 257.80624Q281.1704 258.0875 281.51416 258.61874Q281.8579 259.13437 282.0454 259.88437Q282.2329 260.63437 282.2329 261.91562Q282.2329 263.43124 281.9204 264.35312Q281.62354 265.275 280.99854 265.79062Q280.38916 266.29062 279.43604 266.29062Q278.20166 266.29062 277.4829 265.4Q276.63916 264.3375 276.63916 261.91562ZM277.7173 261.91562Q277.7173 264.025 278.2173 264.72812Q278.7173 265.43124 279.43604 265.43124Q280.1704 265.43124 280.6548 264.72812Q281.1548 264.025 281.1548 261.91562Q281.1548 259.79062 280.6548 259.10312Q280.1704 258.4 279.4204 258.4Q278.70166 258.4 278.26416 259.00937Q277.7173 259.79062 277.7173 261.91562Z" fill-rule="nonzero"/><path fill="#000000" d="M297.4032 266.15L296.35632 266.15L296.35632 259.43124Q295.9657 259.79062 295.3407 260.16562Q294.73132 260.525 294.24695 260.69687L294.24695 259.68124Q295.12195 259.25937 295.7782 258.68124Q296.45007 258.0875 296.73132 257.525L297.4032 257.525L297.4032 266.15ZM300.43445 261.91562Q300.43445 260.38437 300.74695 259.4625Q301.05945 258.525 301.66882 258.025Q302.29382 257.525 303.23132 257.525Q303.91882 257.525 304.43445 257.80624Q304.9657 258.0875 305.30945 258.61874Q305.6532 259.13437 305.8407 259.88437Q306.0282 260.63437 306.0282 261.91562Q306.0282 263.43124 305.7157 264.35312Q305.41882 265.275 304.79382 265.79062Q304.18445 266.29062 303.23132 266.29062Q301.99695 266.29062 301.2782 265.4Q300.43445 264.3375 300.43445 261.91562ZM301.51257 261.91562Q301.51257 264.025 302.01257 264.72812Q302.51257 265.43124 303.23132 265.43124Q303.9657 265.43124 304.45007 264.72812Q304.95007 264.025 304.95007 261.91562Q304.95007 259.79062 304.45007 259.10312Q303.9657 258.4 303.2157 258.4Q302.49695 258.4 302.05945 259.00937Q301.51257 259.79062 301.51257 261.91562ZM307.43445 261.91562Q307.43445 260.38437 307.74695 259.4625Q308.05945 258.525 308.66882 258.025Q309.29382 257.525 310.23132 257.525Q310.91882 257.525 311.43445 257.80624Q311.9657 258.0875 312.30945 258.61874Q312.6532 259.13437 312.8407 259.88437Q313.0282 260.63437 313.0282 261.91562Q313.0282 263.43124 312.7157 264.35312Q312.41882 265.275 311.79382 265.79062Q311.18445 266.29062 310.23132 266.29062Q308.99695 266.29062 308.2782 265.4Q307.43445 264.3375 307.43445 261.91562ZM308.51257 261.91562Q308.51257 264.025 309.01257 264.72812Q309.51257 265.43124 310.23132 265.43124Q310.9657 265.43124 311.45007 264.72812Q311.95007 264.025 311.95007 261.91562Q311.95007 259.79062 311.45007 259.10312Q310.9657 258.4 310.2157 258.4Q309.49695 258.4 309.05945 259.00937Q308.51257 259.79062 308.51257 261.91562ZM314.43445 261.91562Q314.43445 260.38437 314.74695 259.4625Q315.05945 258.525 315.66882 258.025Q316.29382 257.525 317.23132 257.525Q317.91882 257.525 318.43445 257.80624Q318.9657 258.0875 319.30945 258.61874Q319.6532 259.13437 319.8407 259.88437Q320.0282 260.63437 320.0282 261.91562Q320.0282 263.43124 319.7157 264.35312Q319.41882 265.275 318.79382 265.79062Q318.18445 266.29062 317.23132 266.29062Q315.99695 266.29062 315.2782 265.4Q314.43445 264.3375 314.43445 261.91562ZM315.51257 261.91562Q315.51257 264.025 316.01257 264.72812Q316.51257 265.43124 317.23132 265.43124Q317.9657 265.43124 318.45007 264.72812Q318.95007 264.025 318.95007 261.91562Q318.95007 259.79062 318.45007 259.10312Q317.9657 258.4 317.2157 258.4Q316.49695 258.4 316.05945 259.00937Q315.51257 259.79062 315.51257 261.91562ZM321.43445 261.91562Q321.43445 260.38437 321.74695 259.4625Q322.05945 258.525 322.66882 258.025Q323.29382 257.525 324.23132 257.525Q324.91882 257.525 325.43445 257.80624Q325.9657 258.0875 326.30945 258.61874Q326.6532 259.13437 326.8407 259.88437Q327.0282 260.63437 327.0282 261.91562Q327.0282 263.43124 326.7157 264.35312Q326.41882 265.275 325.79382 265.79062Q325.18445 266.29062 324.23132 266.29062Q322.99695 266.29062 322.2782 265.4Q321.43445 264.3375 321.43445 261.91562ZM322.51257 261.91562Q322.51257 264.025 323.01257 264.72812Q323.51257 265.43124 324.23132 265.43124Q324.9657 265.43124 325.45007 264.72812Q325.95007 264.025 325.95007 261.91562Q325.95007 259.79062 325.45007 259.10312Q324.9657 258.4 324.2157 258.4Q323.49695 258.4 323.05945 259.00937Q322.51257 259.79062 322.51257 261.91562ZM328.43445 261.91562Q328.43445 260.38437 328.74695 259.4625Q329.05945 258.525 329.66882 258.025Q330.29382 257.525 331.23132 257.525Q331.91882 257.525 332.43445 257.80624Q332.9657 258.0875 333.30945 258.61874Q333.6532 259.13437 333.8407 259.88437Q334.0282 260.63437 334.0282 261.91562Q334.0282 263.43124 333.7157 264.35312Q333.41882 265.275 332.79382 265.79062Q332.18445 266.29062 331.23132 266.29062Q329.99695 266.29062 329.2782 265.4Q328.43445 264.3375 328.43445 261.91562ZM329.51257 261.91562Q329.51257 264.025 330.01257 264.72812Q330.51257 265.43124 331.23132 265.43124Q331.9657 265.43124 332.45007 264.72812Q332.95007 264.025 332.95007 261.91562Q332.95007 259.79062 332.45007 259.10312Q331.9657 258.4 331.2157 258.4Q330.49695 258.4 330.05945 259.00937Q329.51257 259.79062 329.51257 261.91562ZM335.43445 261.91562Q335.43445 260.38437 335.74695 259.4625Q336.05945 258.525 336.66882 258.025Q337.29382 257.525 338.23132 257.525Q338.91882 257.525 339.43445 257.80624Q339.9657 258.0875 340.30945 258.61874Q340.6532 259.13437 340.8407 259.88437Q341.0282 260.63437 341.0282 261.91562Q341.0282 263.43124 340.7157 264.35312Q340.41882 265.275 339.79382 265.79062Q339.18445 266.29062 338.23132 266.29062Q336.99695 266.29062 336.2782 265.4Q335.43445 264.3375 335.43445 261.91562ZM336.51257 261.91562Q336.51257 264.025 337.01257 264.72812Q337.51257 265.43124 338.23132 265.43124Q338.9657 265.43124 339.45007 264.72812Q339.95007 264.025 339.95007 261.91562Q339.95007 259.79062 339.45007 259.10312Q338.9657 258.4 338.2157 258.4Q337.49695 258.4 337.05945 259.00937Q336.51257 259.79062 336.51257 261.91562Z" fill-rule="nonzero"/><path stroke="#4285f4" stroke-width="4.0" stroke-linecap="butt" d="M334.15 57.416668L369.15 57.416668" fill-rule="nonzero"/><path fill="#1a1a1a" d="M382.00937 59.135418L383.04062 59.276043Q382.86874 60.338543 382.16562 60.947918Q381.4625 61.557293 380.44687 61.557293Q379.16562 61.557293 378.38437 60.729168Q377.61874 59.885418 377.61874 58.322918Q377.61874 57.322918 377.94687 56.572918Q378.29062 55.807293 378.9625 55.432293Q379.65 55.057293 380.4625 55.057293Q381.4625 55.057293 382.10312 55.572918Q382.75937 56.072918 382.94687 57.026043L381.91562 57.182293Q381.775 56.557293 381.4 56.244793Q381.025 55.916668 380.49374 55.916668Q379.69687 55.916668 379.19687 56.494793Q378.69687 57.057293 378.69687 58.291668Q378.69687 59.557293 379.18124 60.119793Q379.66562 60.682293 380.43124 60.682293Q381.05624 60.682293 381.4625 60.307293Q381.88437 59.932293 382.00937 59.135418ZM383.9 63.807293L383.775 62.822918Q384.11874 62.916668 384.38437 62.916668Q384.72812 62.916668 384.93124 62.791668Q385.15 62.682293 385.29062 62.479168Q385.38437 62.307293 385.61874 61.682293Q385.63437 61.604168 385.7125 61.432293L383.3375 55.197918L384.47812 55.197918L385.775 58.791668Q386.025 59.479168 386.22812 60.244793Q386.41562 59.510418 386.66562 58.822918L387.99374 55.197918L389.04062 55.197918L386.68124 61.526043Q386.29062 62.541668 386.0875 62.932293Q385.80624 63.463543 385.43124 63.697918Q385.07187 63.947918 384.57187 63.947918Q384.275 63.947918 383.9 63.807293ZM393.00937 59.135418L394.04062 59.276043Q393.86874 60.338543 393.16562 60.947918Q392.4625 61.557293 391.44687 61.557293Q390.16562 61.557293 389.38437 60.729168Q388.61874 59.885418 388.61874 58.322918Q388.61874 57.322918 388.94687 56.572918Q389.29062 55.807293 389.9625 55.432293Q390.65 55.057293 391.4625 55.057293Q392.4625 55.057293 393.10312 55.572918Q393.75937 56.072918 393.94687 57.026043L392.91562 57.182293Q392.775 56.557293 392.4 56.244793Q392.025 55.916668 391.49374 55.916668Q390.69687 55.916668 390.19687 56.494793Q389.69687 57.057293 389.69687 58.291668Q389.69687 59.557293 390.18124 60.119793Q390.66562 60.682293 391.43124 60.682293Q392.05624 60.682293 392.4625 60.307293Q392.88437 59.932293 393.00937 59.135418ZM394.91562 61.416668L394.91562 52.822918L395.97812 52.822918L395.97812 61.416668L394.91562 61.416668ZM402.19687 59.416668L403.29062 59.541668Q403.04062 60.494793 402.3375 61.026043Q401.63437 61.557293 400.55624 61.557293Q399.19687 61.557293 398.38437 60.713543Q397.5875 59.869793 397.5875 58.354168Q397.5875 56.791668 398.4 55.932293Q399.2125 55.057293 400.49374 55.057293Q401.74374 55.057293 402.525 55.901043Q403.32187 56.744793 403.32187 58.291668Q403.32187 58.385418 403.32187 58.572918L398.68124 58.572918Q398.74374 59.604168 399.25937 60.151043Q399.775 60.682293 400.55624 60.682293Q401.13437 60.682293 401.54062 60.385418Q401.9625 60.072918 402.19687 59.416668ZM398.74374 57.713543L402.2125 57.713543Q402.15 56.916668 401.82187 56.526043Q401.30624 55.916668 400.50937 55.916668Q399.775 55.916668 399.275 56.401043Q398.79062 56.885418 398.74374 57.713543ZM404.525 59.557293L405.55624 59.401043Q405.65 60.026043 406.04062 60.354168Q406.44687 60.682293 407.18124 60.682293Q407.9 60.682293 408.24374 60.401043Q408.60312 60.104168 408.60312 59.697918Q408.60312 59.338543 408.29062 59.135418Q408.07187 58.994793 407.2125 58.776043Q406.05624 58.479168 405.60312 58.276043Q405.16562 58.057293 404.93124 57.682293Q404.69687 57.307293 404.69687 56.838543Q404.69687 56.432293 404.88437 56.072918Q405.07187 55.713543 405.4 55.479168Q405.65 55.307293 406.07187 55.182293Q406.49374 55.057293 406.99374 55.057293Q407.7125 55.057293 408.25937 55.276043Q408.82187 55.479168 409.0875 55.838543Q409.35312 56.197918 409.44687 56.791668L408.41562 56.932293Q408.35312 56.463543 408.00937 56.197918Q407.68124 55.916668 407.05624 55.916668Q406.3375 55.916668 406.025 56.166668Q405.7125 56.401043 405.7125 56.729168Q405.7125 56.932293 405.8375 57.088543Q405.97812 57.260418 406.24374 57.369793Q406.4 57.432293 407.18124 57.635418Q408.30624 57.947918 408.74374 58.135418Q409.18124 58.322918 409.43124 58.682293Q409.68124 59.041668 409.68124 59.588543Q409.68124 60.119793 409.36874 60.588543Q409.07187 61.041668 408.49374 61.307293Q407.91562 61.557293 407.18124 61.557293Q405.9625 61.557293 405.32187 61.057293Q404.69687 60.541668 404.525 59.557293Z" fill-rule="nonzero"/><path stroke="#ea4335" stroke-width="4.0" stroke-linecap="butt" stroke-dasharray="13.0,9.0" d="M334.15 81.416664L369.15 81.416664" fill-rule="nonzero"/><path fill="#1a1a1a" d="M382.00937 83.135414L383.04062 83.27604Q382.86874 84.33854 382.16562 84.947914Q381.4625 85.55729 380.44687 85.55729Q379.16562 85.55729 378.38437 84.729164Q377.61874 83.885414 377.61874 82.322914Q377.61874 81.322914 377.94687 80.572914Q378.29062 79.80729 378.9625 79.43229Q379.65 79.05729 380.4625 79.05729Q381.4625 79.05729 382.10312 79.572914Q382.75937 80.072914 382.94687 81.02604L381.91562 81.18229Q381.775 80.55729 381.4 80.24479Q381.025 79.916664 380.49374 79.916664Q379.69687 79.916664 379.19687 80.49479Q378.69687 81.05729 378.69687 82.291664Q378.69687 83.55729 379.18124 84.11979Q379.66562 84.68229 380.43124 84.68229Q381.05624 84.68229 381.4625 84.30729Q381.88437 83.93229 382.00937 83.135414ZM388.00937 84.65104Q387.41562 85.15104 386.86874 85.354164Q386.3375 85.55729 385.7125 85.55729Q384.68124 85.55729 384.13437 85.05729Q383.5875 84.55729 383.5875 83.77604Q383.5875 83.322914 383.79062 82.947914Q383.99374 82.55729 384.3375 82.33854Q384.68124 82.104164 385.10312 81.99479Q385.4 81.90104 386.04062 81.822914Q387.30624 81.68229 387.91562 81.46354Q387.91562 81.24479 387.91562 81.197914Q387.91562 80.541664 387.61874 80.27604Q387.2125 79.93229 386.41562 79.93229Q385.68124 79.93229 385.32187 80.197914Q384.9625 80.447914 384.79062 81.104164L383.75937 80.96354Q383.9 80.30729 384.22812 79.90104Q384.55624 79.49479 385.16562 79.27604Q385.775 79.05729 386.57187 79.05729Q387.36874 79.05729 387.86874 79.24479Q388.36874 79.43229 388.60312 79.71354Q388.8375 79.99479 388.93124 80.43229Q388.97812 80.697914 388.97812 81.40104L388.97812 82.80729Q388.97812 84.27604 389.04062 84.666664Q389.11874 85.05729 389.32187 85.416664L388.2125 85.416664Q388.05624 85.08854 388.00937 84.65104ZM387.91562 82.291664Q387.3375 82.52604 386.19687 82.697914Q385.54062 82.791664 385.275 82.916664Q385.00937 83.02604 384.85312 83.24479Q384.7125 83.46354 384.7125 83.74479Q384.7125 84.166664 385.025 84.447914Q385.35312 84.729164 385.9625 84.729164Q386.57187 84.729164 387.04062 84.46354Q387.525 84.197914 387.74374 83.729164Q387.91562 83.36979 387.91562 82.68229L387.91562 82.291664ZM395.00937 83.135414L396.04062 83.27604Q395.86874 84.33854 395.16562 84.947914Q394.4625 85.55729 393.44687 85.55729Q392.16562 85.55729 391.38437 84.729164Q390.61874 83.885414 390.61874 82.322914Q390.61874 81.322914 390.94687 80.572914Q391.29062 79.80729 391.9625 79.43229Q392.65 79.05729 393.4625 79.05729Q394.4625 79.05729 395.10312 79.572914Q395.75937 80.072914 395.94687 81.02604L394.91562 81.18229Q394.775 80.55729 394.4 80.24479Q394.025 79.916664 393.49374 79.916664Q392.69687 79.916664 392.19687 80.49479Q391.69687 81.05729 391.69687 82.291664Q391.69687 83.55729 392.18124 84.11979Q392.66562 84.68229 393.43124 84.68229Q394.05624 84.68229 394.4625 84.30729Q394.88437 83.93229 395.00937 83.135414ZM396.94687 85.416664L396.94687 76.822914L397.99374 76.822914L397.99374 79.90104Q398.72812 79.05729 399.85312 79.05729Q400.55624 79.05729 401.05624 79.33854Q401.57187 79.604164 401.79062 80.08854Q402.00937 80.55729 402.00937 81.479164L402.00937 85.416664L400.9625 85.416664L400.9625 81.479164Q400.9625 80.68229 400.61874 80.322914Q400.275 79.96354 399.65 79.96354Q399.18124 79.96354 398.75937 80.21354Q398.35312 80.447914 398.16562 80.86979Q397.99374 81.27604 397.99374 82.010414L397.99374 85.416664L396.94687 85.416664ZM408.19687 83.416664L409.29062 83.541664Q409.04062 84.49479 408.3375 85.02604Q407.63437 85.55729 406.55624 85.55729Q405.19687 85.55729 404.38437 84.71354Q403.5875 83.86979 403.5875 82.354164Q403.5875 80.791664 404.4 79.93229Q405.2125 79.05729 406.49374 79.05729Q407.74374 79.05729 408.525 79.90104Q409.32187 80.74479 409.32187 82.291664Q409.32187 82.385414 409.32187 82.572914L404.68124 82.572914Q404.74374 83.604164 405.25937 84.15104Q405.775 84.68229 406.55624 84.68229Q407.13437 84.68229 407.54062 84.385414Q407.9625 84.072914 408.19687 83.416664ZM404.74374 81.71354L408.2125 81.71354Q408.15 80.916664 407.82187 80.52604Q407.30624 79.916664 406.50937 79.916664Q405.775 79.916664 405.275 80.40104Q404.79062 80.885414 404.74374 81.71354ZM413.94687 85.416664L413.94687 79.197914L414.88437 79.197914L414.88437 80.072914Q415.18124 79.604164 415.66562 79.33854Q416.15 79.05729 416.775 79.05729Q417.4625 79.05729 417.9 79.33854Q418.35312 79.61979 418.525 80.135414Q419.275 79.05729 420.44687 79.05729Q421.38437 79.05729 421.86874 79.572914Q422.36874 80.072914 422.36874 81.15104L422.36874 85.416664L421.32187 85.416664L421.32187 81.49479Q421.32187 80.86979 421.2125 80.58854Q421.11874 80.30729 420.85312 80.135414Q420.5875 79.96354 420.2125 79.96354Q419.55624 79.96354 419.11874 80.40104Q418.69687 80.83854 418.69687 81.80729L418.69687 85.416664L417.63437 85.416664L417.63437 81.36979Q417.63437 80.666664 417.36874 80.322914Q417.11874 79.96354 416.54062 79.96354Q416.0875 79.96354 415.7125 80.197914Q415.3375 80.43229 415.16562 80.885414Q414.99374 81.33854 414.99374 82.18229L414.99374 85.416664L413.94687 85.416664ZM424.94687 78.041664L424.94687 76.822914L426.00937 76.822914L426.00937 78.041664L424.94687 78.041664ZM424.94687 85.416664L424.94687 79.197914L426.00937 79.197914L426.00937 85.416664L424.94687 85.416664ZM427.525 83.55729L428.55624 83.40104Q428.65 84.02604 429.04062 84.354164Q429.44687 84.68229 430.18124 84.68229Q430.9 84.68229 431.24374 84.40104Q431.60312 84.104164 431.60312 83.697914Q431.60312 83.33854 431.29062 83.135414Q431.07187 82.99479 430.2125 82.77604Q429.05624 82.479164 428.60312 82.27604Q428.16562 82.05729 427.93124 81.68229Q427.69687 81.30729 427.69687 80.83854Q427.69687 80.43229 427.88437 80.072914Q428.07187 79.71354 428.4 79.479164Q428.65 79.30729 429.07187 79.18229Q429.49374 79.05729 429.99374 79.05729Q430.7125 79.05729 431.25937 79.27604Q431.82187 79.479164 432.0875 79.83854Q432.35312 80.197914 432.44687 80.791664L431.41562 80.93229Q431.35312 80.46354 431.00937 80.197914Q430.68124 79.916664 430.05624 79.916664Q429.3375 79.916664 429.025 80.166664Q428.7125 80.40104 428.7125 80.729164Q428.7125 80.93229 428.8375 81.08854Q428.97812 81.260414 429.24374 81.36979Q429.4 81.43229 430.18124 81.635414Q431.30624 81.947914 431.74374 82.135414Q432.18124 82.322914 432.43124 82.68229Q432.68124 83.041664 432.68124 83.58854Q432.68124 84.11979 432.36874 84.58854Q432.07187 85.041664 431.49374 85.30729Q430.91562 85.55729 430.18124 85.55729Q428.9625 85.55729 428.32187 85.05729Q427.69687 84.541664 427.525 83.55729ZM434.525 83.55729L435.55624 83.40104Q435.65 84.02604 436.04062 84.354164Q436.44687 84.68229 437.18124 84.68229Q437.9 84.68229 438.24374 84.40104Q438.60312 84.104164 438.60312 83.697914Q438.60312 83.33854 438.29062 83.135414Q438.07187 82.99479 437.2125 82.77604Q436.05624 82.479164 435.60312 82.27604Q435.16562 82.05729 434.93124 81.68229Q434.69687 81.30729 434.69687 80.83854Q434.69687 80.43229 434.88437 80.072914Q435.07187 79.71354 435.4 79.479164Q435.65 79.30729 436.07187 79.18229Q436.49374 79.05729 436.99374 79.05729Q437.7125 79.05729 438.25937 79.27604Q438.82187 79.479164 439.0875 79.83854Q439.35312 80.197914 439.44687 80.791664L438.41562 80.93229Q438.35312 80.46354 438.00937 80.197914Q437.68124 79.916664 437.05624 79.916664Q436.3375 79.916664 436.025 80.166664Q435.7125 80.40104 435.7125 80.729164Q435.7125 80.93229 435.8375 81.08854Q435.97812 81.260414 436.24374 81.36979Q436.4 81.43229 437.18124 81.635414Q438.30624 81.947914 438.74374 82.135414Q439.18124 82.322914 439.43124 82.68229Q439.68124 83.041664 439.68124 83.58854Q439.68124 84.11979 439.36874 84.58854Q439.07187 85.041664 438.49374 85.30729Q437.91562 85.55729 437.18124 85.55729Q435.9625 85.55729 435.32187 85.05729Q434.69687 84.541664 434.525 83.55729Z" fill-rule="nonzero"/><path stroke="#fbbc04" stroke-width="4.0" stroke-linecap="butt" d="M334.15 105.416664L369.15 105.416664" fill-rule="nonzero"/><path fill="#1a1a1a" d="M377.94687 109.416664L377.94687 100.822914L378.99374 100.822914L378.99374 103.90104Q379.72812 103.05729 380.85312 103.05729Q381.55624 103.05729 382.05624 103.33854Q382.57187 103.604164 382.79062 104.08854Q383.00937 104.55729 383.00937 105.479164L383.00937 109.416664L381.9625 109.416664L381.9625 105.479164Q381.9625 104.68229 381.61874 104.322914Q381.275 103.96354 380.65 103.96354Q380.18124 103.96354 379.75937 104.21354Q379.35312 104.447914 379.16562 104.86979Q378.99374 105.27604 378.99374 106.010414L378.99374 109.416664L377.94687 109.416664ZM389.00937 108.65104Q388.41562 109.15104 387.86874 109.354164Q387.3375 109.55729 386.7125 109.55729Q385.68124 109.55729 385.13437 109.05729Q384.5875 108.55729 384.5875 107.77604Q384.5875 107.322914 384.79062 106.947914Q384.99374 106.55729 385.3375 106.33854Q385.68124 106.104164 386.10312 105.99479Q386.4 105.90104 387.04062 105.822914Q388.30624 105.68229 388.91562 105.46354Q388.91562 105.24479 388.91562 105.197914Q388.91562 104.541664 388.61874 104.27604Q388.2125 103.93229 387.41562 103.93229Q386.68124 103.93229 386.32187 104.197914Q385.9625 104.447914 385.79062 105.104164L384.75937 104.96354Q384.9 104.30729 385.22812 103.90104Q385.55624 103.49479 386.16562 103.27604Q386.775 103.05729 387.57187 103.05729Q388.36874 103.05729 388.86874 103.24479Q389.36874 103.43229 389.60312 103.71354Q389.8375 103.99479 389.93124 104.43229Q389.97812 104.697914 389.97812 105.40104L389.97812 106.80729Q389.97812 108.27604 390.04062 108.666664Q390.11874 109.05729 390.32187 109.416664L389.2125 109.416664Q389.05624 109.08854 389.00937 108.65104ZM388.91562 106.291664Q388.3375 106.52604 387.19687 106.697914Q386.54062 106.791664 386.275 106.916664Q386.00937 107.02604 385.85312 107.24479Q385.7125 107.46354 385.7125 107.74479Q385.7125 108.166664 386.025 108.447914Q386.35312 108.729164 386.9625 108.729164Q387.57187 108.729164 388.04062 108.46354Q388.525 108.197914 388.74374 107.729164Q388.91562 107.36979 388.91562 106.68229L388.91562 106.291664ZM391.525 107.55729L392.55624 107.40104Q392.65 108.02604 393.04062 108.354164Q393.44687 108.68229 394.18124 108.68229Q394.9 108.68229 395.24374 108.40104Q395.60312 108.104164 395.60312 107.697914Q395.60312 107.33854 395.29062 107.135414Q395.07187 106.99479 394.2125 106.77604Q393.05624 106.479164 392.60312 106.27604Q392.16562 106.05729 391.93124 105.68229Q391.69687 105.30729 391.69687 104.83854Q391.69687 104.43229 391.88437 104.072914Q392.07187 103.71354 392.4 103.479164Q392.65 103.30729 393.07187 103.18229Q393.49374 103.05729 393.99374 103.05729Q394.7125 103.05729 395.25937 103.27604Q395.82187 103.479164 396.0875 103.83854Q396.35312 104.197914 396.44687 104.791664L395.41562 104.93229Q395.35312 104.46354 395.00937 104.197914Q394.68124 103.916664 394.05624 103.916664Q393.3375 103.916664 393.025 104.166664Q392.7125 104.40104 392.7125 104.729164Q392.7125 104.93229 392.8375 105.08854Q392.97812 105.260414 393.24374 105.36979Q393.4 105.43229 394.18124 105.635414Q395.30624 105.947914 395.74374 106.135414Q396.18124 106.322914 396.43124 106.68229Q396.68124 107.041664 396.68124 107.58854Q396.68124 108.11979 396.36874 108.58854Q396.07187 109.041664 395.49374 109.30729Q394.91562 109.55729 394.18124 109.55729Q392.9625 109.55729 392.32187 109.05729Q391.69687 108.541664 391.525 107.55729ZM398.94687 109.416664L398.94687 100.822914L399.99374 100.822914L399.99374 103.90104Q400.72812 103.05729 401.85312 103.05729Q402.55624 103.05729 403.05624 103.33854Q403.57187 103.604164 403.79062 104.08854Q404.00937 104.55729 404.00937 105.479164L404.00937 109.416664L402.9625 109.416664L402.9625 105.479164Q402.9625 104.68229 402.61874 104.322914Q402.275 103.96354 401.65 103.96354Q401.18124 103.96354 400.75937 104.21354Q400.35312 104.447914 400.16562 104.86979Q399.99374 105.27604 399.99374 106.010414L399.99374 109.416664L398.94687 109.416664Z" fill-rule="nonzero"/><path fill="#757575" d="M17.334375 34.85L17.334375 20.537498L20.19375 20.537498L23.56875 30.662498Q24.0375 32.084373 24.25625 32.7875Q24.50625 32.00625 25.021875 30.490623L28.44375 20.537498L30.990625 20.537498L30.990625 34.85L29.178125 34.85L29.178125 22.865623L25.00625 34.85L23.303125 34.85L19.1625 22.662498L19.1625 34.85L17.334375 34.85ZM40.94375 33.56875Q39.959373 34.396873 39.053123 34.740623Q38.146873 35.084373 37.115623 35.084373Q35.4125 35.084373 34.490623 34.25625Q33.56875 33.4125 33.56875 32.115623Q33.56875 31.349998 33.9125 30.724998Q34.271873 30.099998 34.834373 29.724998Q35.396873 29.334373 36.1 29.131248Q36.615623 29.006248 37.6625 28.865623Q39.7875 28.615623 40.7875 28.271873Q40.803123 27.912498 40.803123 27.803123Q40.803123 26.740623 40.303123 26.287498Q39.63125 25.693748 38.303123 25.693748Q37.053123 25.693748 36.459373 26.131248Q35.88125 26.568748 35.6 27.678123L33.88125 27.443748Q34.115623 26.334373 34.646873 25.662498Q35.178123 24.974998 36.19375 24.615623Q37.209373 24.240623 38.553123 24.240623Q39.88125 24.240623 40.709373 24.553123Q41.5375 24.865623 41.928123 25.349998Q42.31875 25.818748 42.475 26.537498Q42.56875 26.990623 42.56875 28.162498L42.56875 30.506248Q42.56875 32.959373 42.678123 33.615623Q42.7875 34.25625 43.13125 34.85L41.2875 34.85Q41.021873 34.303123 40.94375 33.56875ZM40.7875 29.646873Q39.834373 30.037498 37.9125 30.303123Q36.834373 30.459373 36.38125 30.662498Q35.94375 30.849998 35.69375 31.224998Q35.44375 31.599998 35.44375 32.06875Q35.44375 32.771873 35.975 33.240623Q36.50625 33.709373 37.5375 33.709373Q38.553123 33.709373 39.334373 33.271873Q40.13125 32.81875 40.50625 32.053123Q40.7875 31.443748 40.7875 30.287498L40.7875 29.646873ZM45.1625 38.81875L45.1625 24.474998L46.771873 24.474998L46.771873 25.818748Q47.334373 25.037498 48.0375 24.646873Q48.75625 24.240623 49.771873 24.240623Q51.1 24.240623 52.115623 24.928123Q53.13125 25.615623 53.646873 26.865623Q54.178123 28.099998 54.178123 29.584373Q54.178123 31.178123 53.6 32.459373Q53.0375 33.725 51.94375 34.4125Q50.85 35.084373 49.646873 35.084373Q48.771873 35.084373 48.06875 34.709373Q47.38125 34.334373 46.928123 33.771873L46.928123 38.81875L45.1625 38.81875ZM46.75625 29.724998Q46.75625 31.724998 47.56875 32.678123Q48.38125 33.63125 49.5375 33.63125Q50.709373 33.63125 51.5375 32.646873Q52.38125 31.662498 52.38125 29.568748Q52.38125 27.599998 51.553123 26.615623Q50.740623 25.615623 49.615623 25.615623Q48.490623 25.615623 47.615623 26.678123Q46.75625 27.724998 46.75625 29.724998ZM68.94375 31.053123L70.6625 31.271873Q70.38125 33.06875 69.20937 34.084373Q68.05312 35.084373 66.35 35.084373Q64.225 35.084373 62.928123 33.69375Q61.63125 32.303123 61.63125 29.709373Q61.63125 28.021873 62.178123 26.771873Q62.740623 25.506248 63.88125 24.881248Q65.02187 24.240623 66.36562 24.240623Q68.05312 24.240623 69.11562 25.099998Q70.19375 25.959373 70.50625 27.521873L68.7875 27.787498Q68.55312 26.740623 67.92812 26.224998Q67.30312 25.693748 66.42812 25.693748Q65.1 25.693748 64.27187 26.646873Q63.44375 27.599998 63.44375 29.646873Q63.44375 31.740623 64.24062 32.69375Q65.0375 33.63125 66.33437 33.63125Q67.36562 33.63125 68.05312 33.00625Q68.75625 32.365623 68.94375 31.053123ZM78.94375 33.56875Q77.95937 34.396873 77.05312 34.740623Q76.14687 35.084373 75.11562 35.084373Q73.4125 35.084373 72.49062 34.25625Q71.56875 33.4125 71.56875 32.115623Q71.56875 31.349998 71.9125 30.724998Q72.27187 30.099998 72.83437 29.724998Q73.39687 29.334373 74.1 29.131248Q74.61562 29.006248 75.6625 28.865623Q77.7875 28.615623 78.7875 28.271873Q78.80312 27.912498 78.80312 27.803123Q78.80312 26.740623 78.30312 26.287498Q77.63125 25.693748 76.30312 25.693748Q75.05312 25.693748 74.45937 26.131248Q73.88125 26.568748 73.6 27.678123L71.88125 27.443748Q72.11562 26.334373 72.64687 25.662498Q73.17812 24.974998 74.19375 24.615623Q75.20937 24.240623 76.55312 24.240623Q77.88125 24.240623 78.70937 24.553123Q79.5375 24.865623 79.92812 25.349998Q80.31875 25.818748 80.475 26.537498Q80.56875 26.990623 80.56875 28.162498L80.56875 30.506248Q80.56875 32.959373 80.67812 33.615623Q80.7875 34.25625 81.13125 34.85L79.2875 34.85Q79.02187 34.303123 78.94375 33.56875ZM78.7875 29.646873Q77.83437 30.037498 75.9125 30.303123Q74.83437 30.459373 74.38125 30.662498Q73.94375 30.849998 73.69375 31.224998Q73.44375 31.599998 73.44375 32.06875Q73.44375 32.771873 73.975 33.240623Q74.50625 33.709373 75.5375 33.709373Q76.55312 33.709373 77.33437 33.271873Q78.13125 32.81875 78.50625 32.053123Q78.7875 31.443748 78.7875 30.287498L78.7875 29.646873ZM89.94375 31.053123L91.6625 31.271873Q91.38125 33.06875 90.20937 34.084373Q89.05312 35.084373 87.35 35.084373Q85.225 35.084373 83.92812 33.69375Q82.63125 32.303123 82.63125 29.709373Q82.63125 28.021873 83.17812 26.771873Q83.74062 25.506248 84.88125 24.881248Q86.02187 24.240623 87.36562 24.240623Q89.05312 24.240623 90.11562 25.099998Q91.19375 25.959373 91.50625 27.521873L89.7875 27.787498Q89.55312 26.740623 88.92812 26.224998Q88.30312 25.693748 87.42812 25.693748Q86.1 25.693748 85.27187 26.646873Q84.44375 27.599998 84.44375 29.646873Q84.44375 31.740623 85.24062 32.69375Q86.0375 33.63125 87.33437 33.63125Q88.36562 33.63125 89.05312 33.00625Q89.75625 32.365623 89.94375 31.053123ZM93.1625 34.85L93.1625 20.537498L94.92812 20.537498L94.92812 25.662498Q96.1625 24.240623 98.0375 24.240623Q99.17812 24.240623 100.02187 24.693748Q100.88125 25.146873 101.24062 25.959373Q101.61562 26.756248 101.61562 28.271873L101.61562 34.85L99.86562 34.85L99.86562 28.271873Q99.86562 26.959373 99.2875 26.365623Q98.70937 25.756248 97.67812 25.756248Q96.89687 25.756248 96.19375 26.162498Q95.50625 26.568748 95.20937 27.271873Q94.92812 27.959373 94.92812 29.178123L94.92812 34.85L93.1625 34.85ZM110.27187 31.506248L112.08437 31.740623Q111.6625 33.31875 110.49062 34.209373Q109.33437 35.084373 107.52187 35.084373Q105.25625 35.084373 103.9125 33.69375Q102.58437 32.2875 102.58437 29.756248Q102.58437 27.131248 103.92812 25.693748Q105.27187 24.240623 107.42812 24.240623Q109.50625 24.240623 110.81875 25.662498Q112.14687 27.068748 112.14687 29.646873Q112.14687 29.803123 112.13125 30.115623L104.39687 30.115623Q104.49062 31.818748 105.36562 32.725Q106.24062 33.63125 107.5375 33.63125Q108.50625 33.63125 109.17812 33.13125Q109.86562 32.615623 110.27187 31.506248ZM104.49062 28.662498L110.2875 28.662498Q110.17812 27.365623 109.63125 26.709373Q108.7875 25.693748 107.44375 25.693748Q106.24062 25.693748 105.4125 26.506248Q104.58437 27.303123 104.49062 28.662498ZM120.1625 34.85L120.1625 24.474998L121.74062 24.474998L121.74062 25.928123Q122.225 25.178123 123.0375 24.709373Q123.85 24.240623 124.88125 24.240623Q126.0375 24.240623 126.77187 24.724998Q127.50625 25.193748 127.81875 26.053123Q129.05313 24.240623 131.02188 24.240623Q132.56876 24.240623 133.39688 25.099998Q134.225 25.959373 134.225 27.724998L134.225 34.85L132.475 34.85L132.475 28.318748Q132.475 27.256248 132.30313 26.803123Q132.13126 26.334373 131.67813 26.053123Q131.24063 25.771873 130.63126 25.771873Q129.5375 25.771873 128.80313 26.506248Q128.08438 27.224998 128.08438 28.818748L128.08438 34.85L126.33437 34.85L126.33437 28.115623Q126.33437 26.943748 125.89687 26.365623Q125.475 25.771873 124.49062 25.771873Q123.75625 25.771873 123.11562 26.162498Q122.49062 26.553123 122.20937 27.303123Q121.92812 28.053123 121.92812 29.474998L121.92812 34.85L120.1625 34.85ZM136.17813 22.553123L136.17813 20.537498L137.94376 20.537498L137.94376 22.553123L136.17813 22.553123ZM136.17813 34.85L136.17813 24.474998L137.94376 24.474998L137.94376 34.85L136.17813 34.85ZM139.45938 31.756248L141.20938 31.474998Q141.35 32.521873 142.02188 33.084373Q142.69376 33.63125 143.89688 33.63125Q145.1 33.63125 145.67813 33.146873Q146.27188 32.646873 146.27188 31.990623Q146.27188 31.396873 145.75626 31.053123Q145.39688 30.818748 143.95938 30.459373Q142.02188 29.959373 141.27188 29.615623Q140.5375 29.256248 140.14688 28.631248Q139.75626 27.990623 139.75626 27.224998Q139.75626 26.537498 140.06876 25.943748Q140.39688 25.349998 140.94376 24.959373Q141.35 24.662498 142.05313 24.459373Q142.77188 24.240623 143.58438 24.240623Q144.80313 24.240623 145.725 24.599998Q146.64688 24.943748 147.08438 25.553123Q147.52188 26.146873 147.69376 27.146873L145.975 27.381248Q145.85 26.584373 145.2875 26.146873Q144.725 25.693748 143.70938 25.693748Q142.49063 25.693748 141.975 26.099998Q141.45938 26.490623 141.45938 27.021873Q141.45938 27.365623 141.67813 27.646873Q141.88126 27.928123 142.35 28.115623Q142.61563 28.209373 143.89688 28.553123Q145.77188 29.053123 146.50626 29.381248Q147.24063 29.693748 147.6625 30.303123Q148.08438 30.896873 148.08438 31.803123Q148.08438 32.678123 147.56876 33.459373Q147.05313 34.240623 146.08438 34.6625Q145.11563 35.084373 143.89688 35.084373Q141.88126 35.084373 140.81876 34.240623Q139.75626 33.396873 139.45938 31.756248ZM149.45938 31.756248L151.20938 31.474998Q151.35 32.521873 152.02188 33.084373Q152.69376 33.63125 153.89688 33.63125Q155.1 33.63125 155.67813 33.146873Q156.27188 32.646873 156.27188 31.990623Q156.27188 31.396873 155.75626 31.053123Q155.39688 30.818748 153.95938 30.459373Q152.02188 29.959373 151.27188 29.615623Q150.5375 29.256248 150.14688 28.631248Q149.75626 27.990623 149.75626 27.224998Q149.75626 26.537498 150.06876 25.943748Q150.39688 25.349998 150.94376 24.959373Q151.35 24.662498 152.05313 24.459373Q152.77188 24.240623 153.58438 24.240623Q154.80313 24.240623 155.725 24.599998Q156.64688 24.943748 157.08438 25.553123Q157.52188 26.146873 157.69376 27.146873L155.975 27.381248Q155.85 26.584373 155.2875 26.146873Q154.725 25.693748 153.70938 25.693748Q152.49063 25.693748 151.975 26.099998Q151.45938 26.490623 151.45938 27.021873Q151.45938 27.365623 151.67813 27.646873Q151.88126 27.928123 152.35 28.115623Q152.61563 28.209373 153.89688 28.553123Q155.77188 29.053123 156.50626 29.381248Q157.24063 29.693748 157.6625 30.303123Q158.08438 30.896873 158.08438 31.803123Q158.08438 32.678123 157.56876 33.459373Q157.05313 34.240623 156.08438 34.6625Q155.11563 35.084373 153.89688 35.084373Q151.88126 35.084373 150.81876 34.240623Q149.75626 33.396873 149.45938 31.756248ZM167.27188 31.506248L169.08438 31.740623Q168.6625 33.31875 167.49063 34.209373Q166.33438 35.084373 164.52188 35.084373Q162.25626 35.084373 160.9125 33.69375Q159.58438 32.2875 159.58438 29.756248Q159.58438 27.131248 160.92813 25.693748Q162.27188 24.240623 164.42813 24.240623Q166.50626 24.240623 167.81876 25.662498Q169.14688 27.068748 169.14688 29.646873Q169.14688 29.803123 169.13126 30.115623L161.39688 30.115623Q161.49063 31.818748 162.36563 32.725Q163.24063 33.63125 164.5375 33.63125Q165.50626 33.63125 166.17813 33.13125Q166.86563 32.615623 167.27188 31.506248ZM161.49063 28.662498L167.2875 28.662498Q167.17813 27.365623 166.63126 26.709373Q165.7875 25.693748 164.44376 25.693748Q163.24063 25.693748 162.4125 26.506248Q161.58438 27.303123 161.49063 28.662498ZM170.45938 31.756248L172.20938 31.474998Q172.35 32.521873 173.02188 33.084373Q173.69376 33.63125 174.89688 33.63125Q176.1 33.63125 176.67813 33.146873Q177.27188 32.646873 177.27188 31.990623Q177.27188 31.396873 176.75626 31.053123Q176.39688 30.818748 174.95938 30.459373Q173.02188 29.959373 172.27188 29.615623Q171.5375 29.256248 171.14688 28.631248Q170.75626 27.990623 170.75626 27.224998Q170.75626 26.537498 171.06876 25.943748Q171.39688 25.349998 171.94376 24.959373Q172.35 24.662498 173.05313 24.459373Q173.77188 24.240623 174.58438 24.240623Q175.80313 24.240623 176.725 24.599998Q177.64688 24.943748 178.08438 25.553123Q178.52188 26.146873 178.69376 27.146873L176.975 27.381248Q176.85 26.584373 176.2875 26.146873Q175.725 25.693748 174.70938 25.693748Q173.49063 25.693748 172.975 26.099998Q172.45938 26.490623 172.45938 27.021873Q172.45938 27.365623 172.67813 27.646873Q172.88126 27.928123 173.35 28.115623Q173.61563 28.209373 174.89688 28.553123Q176.77188 29.053123 177.50626 29.381248Q178.24063 29.693748 178.6625 30.303123Q179.08438 30.896873 179.08438 31.803123Q179.08438 32.678123 178.56876 33.459373Q178.05313 34.240623 177.08438 34.6625Q176.11563 35.084373 174.89688 35.084373Q172.88126 35.084373 171.81876 34.240623Q170.75626 33.396873 170.45938 31.756248Z" fill-rule="nonzero"/></svg>