<?xml version="1.0" encoding="UTF-8" standalone="no"?>
<!-- Created with Inkscape (http://www.inkscape.org/) -->

<svg
   xmlns:dc="http://purl.org/dc/elements/1.1/"
   xmlns:cc="http://creativecommons.org/ns#"
   xmlns:rdf="http://www.w3.org/1999/02/22-rdf-syntax-ns#"
   xmlns:svg="http://www.w3.org/2000/svg"
   xmlns="http://www.w3.org/2000/svg"
   xmlns:sodipodi="http://sodipodi.sourceforge.net/DTD/sodipodi-0.dtd"
   xmlns:inkscape="http://www.inkscape.org/namespaces/inkscape"
   width="1in"
   height="1in"
   viewBox="0 0 25.4 25.400001"
   version="1.1"
   id="svg6796"
   inkscape:version="0.92.4 (f8dce91, 2019-08-02)"
   sodipodi:docname="microwave-on.svg">
  <defs
     id="defs6790" />
  <sodipodi:namedview
     id="base"
     pagecolor="#ffffff"
     bordercolor="#666666"
     borderopacity="1.0"
     inkscape:pageopacity="0.0"
     inkscape:pageshadow="2"
     inkscape:zoom="7.919596"
     inkscape:cx="42.710201"
     inkscape:cy="42.586036"
     inkscape:document-units="mm"
     inkscape:current-layer="layer1"
     showgrid="false"
     units="in"
     inkscape:window-width="3840"
     inkscape:window-height="2049"
     inkscape:window-x="0"
     inkscape:window-y="55"
     inkscape:window-maximized="1" />
  <metadata
     id="metadata6793">
    <rdf:RDF>
      <cc:Work
         rdf:about="">
        <dc:format>image/svg+xml</dc:format>
        <dc:type
           rdf:resource="http://purl.org/dc/dcmitype/StillImage" />
        <dc:title></dc:title>
      </cc:Work>
    </rdf:RDF>
  </metadata>
  <g
     inkscape:label="Layer 1"
     inkscape:groupmode="layer"
     id="layer1"
     transform="translate(0,-271.59998)">
    <path
       style="opacity:1;fill:#777777;fill-opacity:1;stroke:none;stroke-width:1.87723732;stroke-linecap:round;stroke-linejoin:round;stroke-miterlimit:4;stroke-dasharray:none;stroke-opacity:1"
       d="M 3.3528456,277.02578 H 23.357984 c 0.544229,0 0.982364,0.43814 0.982364,0.98237 v 12.32084 c 0,0.54423 -0.438135,0.98236 -0.982364,0.98236 H 3.3528456 c -0.5442298,0 -0.9823642,-0.43813 -0.9823642,-0.98236 v -12.32084 c 0,-0.54423 0.4381344,-0.98237 0.9823642,-0.98237 z"
       id="rect3337-3-5-3-6"
       inkscape:connector-curvature="0" />
    <path
       style="opacity:1;fill:#4d4d4d;fill-opacity:1;stroke:none;stroke-width:1.87723732;stroke-linecap:round;stroke-linejoin:round;stroke-miterlimit:4;stroke-dasharray:none;stroke-opacity:1"
       d="M 2.2945123,277.55496 H 22.29965 c 0.54423,0 0.982364,0.43813 0.982364,0.98236 v 12.32084 c 0,0.54423 -0.438134,0.98237 -0.982364,0.98237 H 2.2945123 c -0.5442297,0 -0.9823641,-0.43814 -0.9823641,-0.98237 v -12.32084 c 0,-0.54423 0.4381344,-0.98236 0.9823641,-0.98236 z"
       id="rect3337-3-5"
       inkscape:connector-curvature="0" />
    <path
       style="opacity:1;fill:#a4a4a4;fill-opacity:1;stroke:none;stroke-width:1.20523131;stroke-linecap:round;stroke-linejoin:round;stroke-miterlimit:4;stroke-dasharray:none;stroke-opacity:1"
       d="M 3.9916243,280.43707 H 17.602353 c 0.332736,0 0.600607,0.26787 0.600607,0.6006 v 7.53284 c 0,0.33273 -0.267871,0.6006 -0.600607,0.6006 H 3.9916243 c -0.3327362,0 -0.6006069,-0.26787 -0.6006069,-0.6006 v -7.53284 c 0,-0.33273 0.2678707,-0.6006 0.6006069,-0.6006 z"
       id="rect3337-3-5-6"
       inkscape:connector-curvature="0" />
    <path
       style="opacity:1;fill:#cccccc;fill-opacity:1;stroke:none;stroke-width:1.00872397;stroke-linecap:round;stroke-linejoin:round;stroke-miterlimit:4;stroke-dasharray:none;stroke-opacity:1"
       d="m 22.148087,280.89434 a 1.4410343,1.4410343 0 0 1 -1.441034,1.44104 1.4410343,1.4410343 0 0 1 -1.441034,-1.44104 1.4410343,1.4410343 0 0 1 1.441034,-1.44103 1.4410343,1.4410343 0 0 1 1.441034,1.44103 z"
       id="path3356-2"
       inkscape:connector-curvature="0" />
    <path
       style="opacity:1;fill:#cccccc;fill-opacity:1;stroke:none;stroke-width:1.00872397;stroke-linecap:round;stroke-linejoin:round;stroke-miterlimit:4;stroke-dasharray:none;stroke-opacity:1"
       d="m 22.195334,285.07574 a 1.4410343,1.4410343 0 0 1 -1.441034,1.44103 1.4410343,1.4410343 0 0 1 -1.441034,-1.44103 1.4410343,1.4410343 0 0 1 1.441034,-1.44104 1.4410343,1.4410343 0 0 1 1.441034,1.44104 z"
       id="path3356-2-9"
       inkscape:connector-curvature="0" />
    <path
       style="opacity:1;fill:#ffffff;fill-opacity:1;stroke:none;stroke-width:0.34164059;stroke-linecap:round;stroke-linejoin:round;stroke-miterlimit:4;stroke-dasharray:none;stroke-opacity:1"
       d="m 7.709261,283.87876 1.6268989,-2.65764 c 0.061081,-0.0998 0.190599,-0.13093 0.2903693,-0.0698 0.099779,0.0611 0.1309214,0.19059 0.069846,0.29036 l -1.6268989,2.65764 c -0.061081,0.0998 -0.190599,0.13093 -0.2903607,0.0699 -0.099787,-0.0611 -0.13093,-0.1906 -0.069855,-0.29037 z"
       id="rect3422-7"
       inkscape:connector-curvature="0" />
    <path
       style="opacity:1;fill:#ffffff;fill-opacity:1;stroke:none;stroke-width:0.37984556;stroke-linecap:round;stroke-linejoin:round;stroke-miterlimit:4;stroke-dasharray:none;stroke-opacity:1"
       d="m 10.307848,284.827 -0.0054,-3.46452 c -2.04e-4,-0.13007 0.10435,-0.23496 0.234426,-0.23516 0.130076,-2.1e-4 0.234959,0.10435 0.235163,0.23443 l 0.0054,3.46451 c 2.04e-4,0.13008 -0.104351,0.23496 -0.234427,0.23516 -0.130076,2.1e-4 -0.234959,-0.10434 -0.235163,-0.23442 z"
       id="rect3422-1-0"
       inkscape:connector-curvature="0" />
    <path
       style="opacity:1;fill:#ffffff;fill-opacity:1;stroke:none;stroke-width:0.32133514;stroke-linecap:round;stroke-linejoin:round;stroke-miterlimit:4;stroke-dasharray:none;stroke-opacity:1"
       d="m 13.343209,283.71132 -1.530206,-2.49968 c -0.05745,-0.0938 -0.179265,-0.12314 -0.2731,-0.0657 -0.09385,0.0575 -0.12315,0.17927 -0.06571,0.27311 l 1.530206,2.49968 c 0.05745,0.0939 0.17927,0.12315 0.273113,0.0657 0.09385,-0.0574 0.123141,-0.17926 0.06569,-0.27311 z"
       id="rect3422-2-9"
       inkscape:connector-curvature="0" />
  </g>
</svg>
