<?xml version="1.0" encoding="UTF-8" standalone="no"?>
<svg
   xmlns:dc="http://purl.org/dc/elements/1.1/"
   xmlns:cc="http://creativecommons.org/ns#"
   xmlns:rdf="http://www.w3.org/1999/02/22-rdf-syntax-ns#"
   xmlns:svg="http://www.w3.org/2000/svg"
   xmlns="http://www.w3.org/2000/svg"
   xmlns:sodipodi="http://sodipodi.sourceforge.net/DTD/sodipodi-0.dtd"
   xmlns:inkscape="http://www.inkscape.org/namespaces/inkscape"
   id="svg6796"
   version="1.1"
   viewBox="0 0 25.4 25.400001"
   height="1in"
   width="1in"
   sodipodi:docname="people.svg"
   inkscape:version="0.92.4 (f8dce91, 2019-08-02)">
  <sodipodi:namedview
     pagecolor="#ffffff"
     bordercolor="#666666"
     borderopacity="1"
     objecttolerance="10"
     gridtolerance="10"
     guidetolerance="10"
     inkscape:pageopacity="0"
     inkscape:pageshadow="2"
     inkscape:window-width="1878"
     inkscape:window-height="1368"
     id="namedview19934"
     showgrid="false"
     inkscape:zoom="11.313708"
     inkscape:cx="47.652313"
     inkscape:cy="46.110648"
     inkscape:window-x="1094"
     inkscape:window-y="806"
     inkscape:window-maximized="0"
     inkscape:current-layer="svg6796" />
  <defs
     id="defs6790" />
  <metadata
     id="metadata6793">
    <rdf:RDF>
      <cc:Work
         rdf:about="">
        <dc:format>image/svg+xml</dc:format>
        <dc:type
           rdf:resource="http://purl.org/dc/dcmitype/StillImage" />
        <dc:title />
      </cc:Work>
    </rdf:RDF>
  </metadata>
  <path
     style="opacity:1;fill:#3d4537;fill-opacity:1;stroke:none;stroke-width:1.58749998;stroke-linecap:round;stroke-linejoin:round;stroke-miterlimit:4;stroke-dasharray:none;stroke-opacity:1"
     d="M 3.1662524,2.320478 21.267454,1.5997116 c 0.711759,-0.028341 1.250319,0.5264453 1.335921,1.2336063 l 2.36754,19.5581891 c 0.0856,0.707162 -0.521847,1.30758 -1.233606,1.335921 L 2.4636214,24.574519 C 1.7518622,24.60286 1.0985955,24.052642 1.1276998,23.340913 L 1.9326461,3.6563996 C 1.9617502,2.9446711 2.4544932,2.3488193 3.1662524,2.320478 Z"
     id="rect21627"
     inkscape:connector-curvature="0"
     sodipodi:nodetypes="sssssssss" />
  <path
     style="opacity:1;fill:#ffffff;fill-opacity:1;stroke:none;stroke-width:1.12047684;stroke-linecap:round;stroke-linejoin:round;stroke-miterlimit:4;stroke-dasharray:none;stroke-opacity:1"
     d="m 18.878435,11.05669 a 1.1035563,1.1035563 0 0 0 -1.103292,1.103291 1.1035563,1.1035563 0 0 0 1.103292,1.103809 1.1035563,1.1035563 0 0 0 1.103808,-1.103809 1.1035563,1.1035563 0 0 0 -1.103808,-1.103291 z m -2.593641,0.544153 c -0.108277,-0.0057 -0.218599,0.02991 -0.305924,0.10852 l -0.0093,0.0083 c -0.17465,0.15722 -0.188742,0.424797 -0.03152,0.599447 l 1.963704,2.181262 c 0.02951,0.03278 0.06382,0.05819 0.09974,0.07958 v 2.923336 c 0,0.0098 0.0023,0.01875 0.0026,0.02842 -0.01677,0.02892 -0.03109,0.05989 -0.04186,0.09302 l -0.999939,3.077332 c -0.08192,0.252027 0.05493,0.520627 0.306958,0.602547 l 0.05994,0.01964 c 0.252027,0.08192 0.520627,-0.05493 0.602548,-0.306958 l 0.874365,-2.688725 c 0.0079,2.21e-4 0.0153,0.0021 0.02325,0.0021 0.0028,0 0.0054,-0.001 0.0083,-0.001 l 0.865581,2.647384 c 0.08236,0.251884 0.351696,0.3888 0.60358,0.306441 l 0.05994,-0.01964 c 0.251884,-0.08236 0.388283,-0.351697 0.305924,-0.603581 L 19.667017,17.58239 c -0.0039,-0.01207 -0.0102,-0.02258 -0.01499,-0.03411 9.03e-4,-0.01591 0.0047,-0.03088 0.0047,-0.04703 v -2.863391 c 0.02084,-0.01303 0.04154,-0.02689 0.06046,-0.04392 l 2.181262,-1.964222 c 0.174651,-0.157219 0.188743,-0.424279 0.03152,-0.59893 l -0.0083,-0.0093 c -0.15722,-0.17465 -0.42428,-0.188742 -0.59893,-0.03152 l -1.979724,1.781803 c -0.141366,-0.112674 -0.318021,-0.182934 -0.513664,-0.182934 -0.171282,0 -0.330233,0.05161 -0.461987,0.140043 L 16.5778,11.740886 c -0.07861,-0.08732 -0.184728,-0.134357 -0.293006,-0.140043 z"
     id="rect21516"
     inkscape:connector-curvature="0" />
  <path
     style="opacity:1;fill:#cbcbcb;fill-opacity:1;stroke:none;stroke-width:6.73070288;stroke-linecap:round;stroke-linejoin:round;stroke-miterlimit:4;stroke-dasharray:none;stroke-opacity:1"
     d="M 33.558594 18.824219 A 6.6290608 6.6290608 0 0 0 26.929688 25.453125 A 6.6290608 6.6290608 0 0 0 33.558594 32.082031 A 6.6290608 6.6290608 0 0 0 40.189453 25.453125 A 6.6290608 6.6290608 0 0 0 33.558594 18.824219 z M 33.261719 34.037109 C 31.604378 34.037109 30.152427 34.84832 29.25 36.087891 C 29.205195 36.102463 29.159732 36.107799 29.115234 36.125 L 12.667969 42.482422 C 11.35133 42.991388 10.701971 44.460705 11.210938 45.777344 L 11.238281 45.847656 C 11.747247 47.164295 13.216565 47.815607 14.533203 47.306641 L 28.291016 41.988281 L 28.291016 57.537109 C 28.291016 57.623529 28.300374 57.707658 28.304688 57.792969 C 28.164088 58.005632 28.039853 58.231529 27.957031 58.486328 L 21.947266 76.972656 C 21.45517 78.486582 22.279043 80.101654 23.792969 80.59375 L 24.152344 80.710938 C 25.66627 81.203034 27.281341 80.381113 27.773438 78.867188 L 33.095703 62.5 C 33.121218 62.500836 33.146262 62.503452 33.171875 62.503906 L 38.513672 78.839844 C 39.008401 80.352911 40.623651 81.172464 42.136719 80.677734 L 42.498047 80.560547 C 44.011114 80.065817 44.830667 78.448614 44.335938 76.935547 L 38.294922 58.458984 C 38.265904 58.370238 38.220082 58.292836 38.183594 58.208984 C 38.213193 57.988701 38.234375 57.765754 38.234375 57.537109 L 38.234375 41.349609 L 52.837891 45.294922 C 54.200584 45.663228 55.592632 44.862693 55.960938 43.5 L 55.982422 43.427734 C 56.350728 42.065041 55.550193 40.67104 54.1875 40.302734 L 37.166016 35.701172 C 37.084802 35.679222 37.003085 35.675885 36.921875 35.662109 C 36.014069 34.669287 34.719238 34.037109 33.261719 34.037109 z "
     transform="scale(0.26458334)"
     id="rect21516-3" />
</svg>
