<?xml version="1.0" encoding="UTF-8" standalone="no"?>
<svg
   xmlns:dc="http://purl.org/dc/elements/1.1/"
   xmlns:cc="http://creativecommons.org/ns#"
   xmlns:rdf="http://www.w3.org/1999/02/22-rdf-syntax-ns#"
   xmlns:svg="http://www.w3.org/2000/svg"
   xmlns="http://www.w3.org/2000/svg"
   xmlns:sodipodi="http://sodipodi.sourceforge.net/DTD/sodipodi-0.dtd"
   xmlns:inkscape="http://www.inkscape.org/namespaces/inkscape"
   id="svg6796"
   version="1.1"
   viewBox="0 0 25.4 25.400001"
   height="1in"
   width="1in"
   sodipodi:docname="tv-off.svg"
   inkscape:version="0.92.4 (f8dce91, 2019-08-02)">
  <sodipodi:namedview
     pagecolor="#ffffff"
     bordercolor="#666666"
     borderopacity="1"
     objecttolerance="10"
     gridtolerance="10"
     guidetolerance="10"
     inkscape:pageopacity="0"
     inkscape:pageshadow="2"
     inkscape:window-width="3840"
     inkscape:window-height="2049"
     id="namedview4752"
     showgrid="false"
     inkscape:zoom="13.906433"
     inkscape:cx="18.425706"
     inkscape:cy="40.976851"
     inkscape:window-x="0"
     inkscape:window-y="55"
     inkscape:window-maximized="1"
     inkscape:current-layer="svg6796" />
  <defs
     id="defs6790" />
  <metadata
     id="metadata6793">
    <rdf:RDF>
      <cc:Work
         rdf:about="">
        <dc:format>image/svg+xml</dc:format>
        <dc:type
           rdf:resource="http://purl.org/dc/dcmitype/StillImage" />
        <dc:title />
      </cc:Work>
    </rdf:RDF>
  </metadata>
  <path
     inkscape:connector-curvature="0"
     style="opacity:1;fill:#848484;fill-opacity:1;stroke:none;stroke-width:1.90338027;stroke-linecap:round;stroke-linejoin:round;stroke-miterlimit:4;stroke-dasharray:none;stroke-opacity:1"
     d="M 2.7026287,6.381215 H 22.986364 c 0.551809,0 0.996044,0.4442366 0.996044,0.9960447 V 19.869686 c 0,0.55181 -0.444235,0.996045 -0.996044,0.996045 H 2.7026287 c -0.5518089,0 -0.9960449,-0.444235 -0.9960449,-0.996045 V 7.3772597 c 0,-0.5518081 0.444236,-0.9960447 0.9960449,-0.9960447 z"
     id="rect3337-3-9" />
  <path
     inkscape:connector-curvature="0"
     style="opacity:1;fill:#444444;fill-opacity:1;stroke:none;stroke-width:1.62800801;stroke-linecap:round;stroke-linejoin:round;stroke-miterlimit:4;stroke-dasharray:none;stroke-opacity:1"
     d="M 4.1699065,7.4289923 H 21.519084 c 0.471975,0 0.851942,0.3799668 0.851942,0.8519424 V 18.966014 c 0,0.471975 -0.379967,0.851941 -0.851942,0.851941 H 4.1699065 c -0.4719757,0 -0.8519417,-0.379966 -0.8519417,-0.851941 V 8.2809347 c 0,-0.4719756 0.379966,-0.8519424 0.8519417,-0.8519424 z"
     id="rect3337-4" />
  <path
     inkscape:connector-curvature="0"
     style="opacity:1;fill:#848484;fill-opacity:1;stroke:none;stroke-width:1.97333729;stroke-linecap:round;stroke-linejoin:round;stroke-miterlimit:4;stroke-dasharray:none;stroke-opacity:1"
     d="m 9.9305701,21.525068 h 5.8278509 c 0.563132,0 1.016485,0.453353 1.016485,1.016486 0,0.563133 -0.453353,1.016485 -1.016485,1.016485 H 9.9305701 c -0.5631328,0 -1.0164853,-0.453352 -1.0164853,-1.016485 0,-0.563133 0.4533525,-1.016486 1.0164853,-1.016486 z"
     id="rect3339-7" />
</svg>
