<svg version="1.1" viewBox="0.0 0.0 604.0 371.0" fill="none" stroke="none" stroke-linecap="square" stroke-miterlimit="10" width="604" height="371" xmlns:xlink="http://www.w3.org/1999/xlink" xmlns="http://www.w3.org/2000/svg"><path fill="#ffffff" d="M0 0L604.0 0L604.0 371.0L0 371.0L0 0Z" fill-rule="nonzero"/><path stroke="#cccccc" stroke-width="1.0" stroke-linecap="butt" d="M77.5 61.5L77.5 300.5" fill-rule="nonzero"/><path stroke="#cccccc" stroke-width="1.0" stroke-linecap="butt" d="M186.5 61.5L186.5 300.5" fill-rule="nonzero"/><path stroke="#cccccc" stroke-width="1.0" stroke-linecap="butt" d="M232.5 61.5L232.5 300.5" fill-rule="nonzero"/><path stroke="#cccccc" stroke-width="1.0" stroke-linecap="butt" d="M341.5 61.5L341.5 300.5" fill-rule="nonzero"/><path stroke="#cccccc" stroke-width="1.0" stroke-linecap="butt" d="M388.5 61.5L388.5 300.5" fill-rule="nonzero"/><path stroke="#cccccc" stroke-width="1.0" stroke-linecap="butt" d="M496.5 61.5L496.5 300.5" fill-rule="nonzero"/><path stroke="#333333" stroke-width="1.0" stroke-linecap="butt" d="M77.5 300.5L496.5 300.5" fill-rule="nonzero"/><path stroke="#cccccc" stroke-width="1.0" stroke-linecap="butt" d="M77.5 266.5L496.5 266.5" fill-rule="nonzero"/><path stroke="#cccccc" stroke-width="1.0" stroke-linecap="butt" d="M77.5 232.5L496.5 232.5" fill-rule="nonzero"/><path stroke="#cccccc" stroke-width="1.0" stroke-linecap="butt" d="M77.5 198.5L496.5 198.5" fill-rule="nonzero"/><path stroke="#cccccc" stroke-width="1.0" stroke-linecap="butt" d="M77.5 164.5L496.5 164.5" fill-rule="nonzero"/><path stroke="#cccccc" stroke-width="1.0" stroke-linecap="butt" d="M77.5 130.5L496.5 130.5" fill-rule="nonzero"/><path stroke="#cccccc" stroke-width="1.0" stroke-linecap="butt" d="M77.5 95.5L496.5 95.5" fill-rule="nonzero"/><path stroke="#cccccc" stroke-width="1.0" stroke-linecap="butt" d="M77.5 61.5L496.5 61.5" fill-rule="nonzero"/><clipPath id="id_0"><path d="M77.55 61.916668L496.61444 61.916668L496.61444 300.45L77.55 300.45L77.55 61.916668Z" clip-rule="nonzero"/></clipPath><path stroke="#4285f4" stroke-width="2.0" stroke-linecap="butt" clip-path="url(#id_0)" d="M77.55 72.395065L124.29041 176.94974L151.6318 208.9218L171.03082 227.40427L186.07788 234.75014L217.77124 253.41208L232.81828 255.2001L260.15967 261.1447L279.5587 266.1435L317.2948 271.36154L341.34616 274.22098L388.08658 277.4715L434.827 279.12177L496.61444 280.23737" fill-rule="nonzero"/><path stroke="#ea4335" stroke-width="2.0" stroke-linecap="butt" clip-path="url(#id_0)" d="M77.55 93.0432L124.29041 188.159L151.6318 218.95055L171.03082 238.64954L186.07788 243.4699L217.77124 260.0211L232.81828 260.2563L260.15967 264.9964L279.5587 268.41544L317.2948 272.9749L341.34616 275.18958L388.08658 277.53427L434.827 278.80997L496.61444 279.5246" fill-rule="nonzero"/><path stroke="#fbbc04" stroke-width="2.0" stroke-linecap="butt" clip-path="url(#id_0)" d="M77.55 115.28778L124.29041 212.54697L151.6318 231.56631L171.03082 246.66635L186.07788 249.41837L217.77124 263.99982L232.81828 264.0097L260.15967 268.44427L279.5587 271.5584L317.2948 274.04242L341.34616 275.98343L388.08658 277.58698L434.827 278.62106L496.61444 279.1532" fill-rule="nonzero"/><path stroke="#34a853" stroke-width="2.0" stroke-linecap="butt" clip-path="url(#id_0)" d="M77.55 123.6726L124.29041 214.69409L151.6318 233.19847L171.03082 246.12976L186.07788 249.87872L217.77124 260.1435L232.81828 262.44604L260.15967 266.37106L279.5587 268.97287L317.2948 270.9821L341.34616 272.59827L388.08658 273.84085L434.827 278.32867L496.61444 281.41968" fill-rule="nonzero"/><path stroke="#ff6d01" stroke-width="2.0" stroke-linecap="butt" clip-path="url(#id_0)" d="M77.55 142.03923L124.29041 218.63539L151.6318 236.1705L171.03082 247.93726L186.07788 251.61832L217.77124 262.8792L232.81828 263.05887L260.15967 267.76553L279.5587 269.4342L317.2948 272.1136L341.34616 275.07596L388.08658 277.3555L434.827 281.20087L496.61444 282.55054" fill-rule="nonzero"/><path stroke="#46bdc6" stroke-width="2.0" stroke-linecap="butt" clip-path="url(#id_0)" d="M77.55 171.63705L124.29041 229.87372L151.6318 246.2243L171.03082 255.98454L186.07788 260.4181L217.77124 266.63754L232.81828 268.32825L260.15967 272.07706L279.5587 272.5745L317.2948 277.31082L341.34616 279.18304L388.08658 281.53485L434.827 282.5696L496.61444 283.33105" fill-rule="nonzero"/><path stroke="#000000" stroke-width="2.0" stroke-linecap="butt" clip-path="url(#id_0)" d="M77.55 283.4119L124.29041 283.4119L151.6318 283.4119L171.03082 283.4119L186.07788 283.4119L217.77124 283.4119L232.81828 283.4119L260.15967 283.4119L279.5587 283.4119L317.2948 283.4119L341.34616 283.4119L388.08658 283.4119L434.827 283.4119L496.61444 283.4119" fill-rule="nonzero"/><path fill="#000000" fill-opacity="0.0" clip-path="url(#id_0)" d="M80.55 72.395065C80.55 74.05192 79.206856 75.395065 77.55 75.395065C75.89314 75.395065 74.55 74.05192 74.55 72.395065C74.55 70.73821 75.89314 69.395065 77.55 69.395065C79.206856 69.395065 80.55 70.73821 80.55 72.395065Z" fill-rule="nonzero"/><path fill="#000000" fill-opacity="0.0" clip-path="url(#id_0)" d="M127.29041 176.94974C127.29041 178.60658 125.947266 179.94974 124.29041 179.94974C122.63356 179.94974 121.29041 178.60658 121.29041 176.94974C121.29041 175.29288 122.63356 173.94974 124.29041 173.94974C125.947266 173.94974 127.29041 175.29288 127.29041 176.94974Z" fill-rule="nonzero"/><path fill="#000000" fill-opacity="0.0" clip-path="url(#id_0)" d="M154.6318 208.9218C154.6318 210.57864 153.28865 211.9218 151.6318 211.9218C149.97495 211.9218 148.6318 210.57864 148.6318 208.9218C148.6318 207.26494 149.97495 205.9218 151.6318 205.9218C153.28865 205.9218 154.6318 207.26494 154.6318 208.9218Z" fill-rule="nonzero"/><path fill="#000000" fill-opacity="0.0" clip-path="url(#id_0)" d="M174.03082 227.40427C174.03082 229.06113 172.68768 230.40427 171.03082 230.40427C169.37396 230.40427 168.03082 229.06113 168.03082 227.40427C168.03082 225.74742 169.37396 224.40427 171.03082 224.40427C172.68768 224.40427 174.03082 225.74742 174.03082 227.40427Z" fill-rule="nonzero"/><path fill="#000000" fill-opacity="0.0" clip-path="url(#id_0)" d="M189.07788 234.75014C189.07788 236.40698 187.73473 237.75014 186.07788 237.75014C184.42102 237.75014 183.07788 236.40698 183.07788 234.75014C183.07788 233.09328 184.42102 231.75014 186.07788 231.75014C187.73473 231.75014 189.07788 233.09328 189.07788 234.75014Z" fill-rule="nonzero"/><path fill="#000000" fill-opacity="0.0" clip-path="url(#id_0)" d="M220.77124 253.41208C220.77124 255.06892 219.42809 256.41208 217.77124 256.41208C216.11438 256.41208 214.77124 255.06892 214.77124 253.41208C214.77124 251.75522 216.11438 250.41208 217.77124 250.41208C219.42809 250.41208 220.77124 251.75522 220.77124 253.41208Z" fill-rule="nonzero"/><path fill="#000000" fill-opacity="0.0" clip-path="url(#id_0)" d="M235.81828 255.2001C235.81828 256.85696 234.47514 258.2001 232.81828 258.2001C231.16144 258.2001 229.81828 256.85696 229.81828 255.2001C229.81828 253.54326 231.16144 252.2001 232.81828 252.2001C234.47514 252.2001 235.81828 253.54326 235.81828 255.2001Z" fill-rule="nonzero"/><path fill="#000000" fill-opacity="0.0" clip-path="url(#id_0)" d="M263.15967 261.1447C263.15967 262.80157 261.81653 264.1447 260.15967 264.1447C258.5028 264.1447 257.15967 262.80157 257.15967 261.1447C257.15967 259.48785 258.5028 258.1447 260.15967 258.1447C261.81653 258.1447 263.15967 259.48785 263.15967 261.1447Z" fill-rule="nonzero"/><path fill="#000000" fill-opacity="0.0" clip-path="url(#id_0)" d="M282.5587 266.1435C282.5587 267.80035 281.21555 269.1435 279.5587 269.1435C277.90186 269.1435 276.5587 267.80035 276.5587 266.1435C276.5587 264.48663 277.90186 263.1435 279.5587 263.1435C281.21555 263.1435 282.5587 264.48663 282.5587 266.1435Z" fill-rule="nonzero"/><path fill="#000000" fill-opacity="0.0" clip-path="url(#id_0)" d="M320.2948 271.36154C320.2948 273.0184 318.95166 274.36154 317.2948 274.36154C315.63794 274.36154 314.2948 273.0184 314.2948 271.36154C314.2948 269.70468 315.63794 268.36154 317.2948 268.36154C318.95166 268.36154 320.2948 269.70468 320.2948 271.36154Z" fill-rule="nonzero"/><path fill="#000000" fill-opacity="0.0" clip-path="url(#id_0)" d="M344.34616 274.22098C344.34616 275.87784 343.00302 277.22098 341.34616 277.22098C339.6893 277.22098 338.34616 275.87784 338.34616 274.22098C338.34616 272.56415 339.6893 271.22098 341.34616 271.22098C343.00302 271.22098 344.34616 272.56415 344.34616 274.22098Z" fill-rule="nonzero"/><path fill="#000000" fill-opacity="0.0" clip-path="url(#id_0)" d="M391.08658 277.4715C391.08658 279.12836 389.74344 280.4715 388.08658 280.4715C386.42972 280.4715 385.08658 279.12836 385.08658 277.4715C385.08658 275.81464 386.42972 274.4715 388.08658 274.4715C389.74344 274.4715 391.08658 275.81464 391.08658 277.4715Z" fill-rule="nonzero"/><path fill="#000000" fill-opacity="0.0" clip-path="url(#id_0)" d="M437.827 279.12177C437.827 280.77863 436.48383 282.12177 434.827 282.12177C433.17014 282.12177 431.827 280.77863 431.827 279.12177C431.827 277.4649 433.17014 276.12177 434.827 276.12177C436.48383 276.12177 437.827 277.4649 437.827 279.12177Z" fill-rule="nonzero"/><path fill="#000000" fill-opacity="0.0" clip-path="url(#id_0)" d="M499.61444 280.23737C499.61444 281.89423 498.2713 283.23737 496.61444 283.23737C494.95758 283.23737 493.61444 281.89423 493.61444 280.23737C493.61444 278.58054 494.95758 277.23737 496.61444 277.23737C498.2713 277.23737 499.61444 278.58054 499.61444 280.23737Z" fill-rule="nonzero"/><path fill="#000000" fill-opacity="0.0" clip-path="url(#id_0)" d="M80.55 93.0432C80.55 94.70005 79.206856 96.0432 77.55 96.0432C75.89314 96.0432 74.55 94.70005 74.55 93.0432C74.55 91.386345 75.89314 90.0432 77.55 90.0432C79.206856 90.0432 80.55 91.386345 80.55 93.0432Z" fill-rule="nonzero"/><path fill="#000000" fill-opacity="0.0" clip-path="url(#id_0)" d="M127.29041 188.159C127.29041 189.81584 125.947266 191.159 124.29041 191.159C122.63356 191.159 121.29041 189.81584 121.29041 188.159C121.29041 186.50214 122.63356 185.159 124.29041 185.159C125.947266 185.159 127.29041 186.50214 127.29041 188.159Z" fill-rule="nonzero"/><path fill="#000000" fill-opacity="0.0" clip-path="url(#id_0)" d="M154.6318 218.95055C154.6318 220.6074 153.28865 221.95055 151.6318 221.95055C149.97495 221.95055 148.6318 220.6074 148.6318 218.95055C148.6318 217.2937 149.97495 215.95055 151.6318 215.95055C153.28865 215.95055 154.6318 217.2937 154.6318 218.95055Z" fill-rule="nonzero"/><path fill="#000000" fill-opacity="0.0" clip-path="url(#id_0)" d="M174.03082 238.64954C174.03082 240.3064 172.68768 241.64954 171.03082 241.64954C169.37396 241.64954 168.03082 240.3064 168.03082 238.64954C168.03082 236.99268 169.37396 235.64954 171.03082 235.64954C172.68768 235.64954 174.03082 236.99268 174.03082 238.64954Z" fill-rule="nonzero"/><path fill="#000000" fill-opacity="0.0" clip-path="url(#id_0)" d="M189.07788 243.4699C189.07788 245.12674 187.73473 246.4699 186.07788 246.4699C184.42102 246.4699 183.07788 245.12674 183.07788 243.4699C183.07788 241.81303 184.42102 240.4699 186.07788 240.4699C187.73473 240.4699 189.07788 241.81303 189.07788 243.4699Z" fill-rule="nonzero"/><path fill="#000000" fill-opacity="0.0" clip-path="url(#id_0)" d="M220.77124 260.0211C220.77124 261.67795 219.42809 263.0211 217.77124 263.0211C216.11438 263.0211 214.77124 261.67795 214.77124 260.0211C214.77124 258.36423 216.11438 257.0211 217.77124 257.0211C219.42809 257.0211 220.77124 258.36423 220.77124 260.0211Z" fill-rule="nonzero"/><path fill="#000000" fill-opacity="0.0" clip-path="url(#id_0)" d="M235.81828 260.2563C235.81828 261.91315 234.47514 263.2563 232.81828 263.2563C231.16144 263.2563 229.81828 261.91315 229.81828 260.2563C229.81828 258.59943 231.16144 257.2563 232.81828 257.2563C234.47514 257.2563 235.81828 258.59943 235.81828 260.2563Z" fill-rule="nonzero"/><path fill="#000000" fill-opacity="0.0" clip-path="url(#id_0)" d="M263.15967 264.9964C263.15967 266.65326 261.81653 267.9964 260.15967 267.9964C258.5028 267.9964 257.15967 266.65326 257.15967 264.9964C257.15967 263.33954 258.5028 261.9964 260.15967 261.9964C261.81653 261.9964 263.15967 263.33954 263.15967 264.9964Z" fill-rule="nonzero"/><path fill="#000000" fill-opacity="0.0" clip-path="url(#id_0)" d="M282.5587 268.41544C282.5587 270.0723 281.21555 271.41544 279.5587 271.41544C277.90186 271.41544 276.5587 270.0723 276.5587 268.41544C276.5587 266.75858 277.90186 265.41544 279.5587 265.41544C281.21555 265.41544 282.5587 266.75858 282.5587 268.41544Z" fill-rule="nonzero"/><path fill="#000000" fill-opacity="0.0" clip-path="url(#id_0)" d="M320.2948 272.9749C320.2948 274.63177 318.95166 275.9749 317.2948 275.9749C315.63794 275.9749 314.2948 274.63177 314.2948 272.9749C314.2948 271.31805 315.63794 269.9749 317.2948 269.9749C318.95166 269.9749 320.2948 271.31805 320.2948 272.9749Z" fill-rule="nonzero"/><path fill="#000000" fill-opacity="0.0" clip-path="url(#id_0)" d="M344.34616 275.18958C344.34616 276.84644 343.00302 278.18958 341.34616 278.18958C339.6893 278.18958 338.34616 276.84644 338.34616 275.18958C338.34616 273.5327 339.6893 272.18958 341.34616 272.18958C343.00302 272.18958 344.34616 273.5327 344.34616 275.18958Z" fill-rule="nonzero"/><path fill="#000000" fill-opacity="0.0" clip-path="url(#id_0)" d="M391.08658 277.53427C391.08658 279.1911 389.74344 280.53427 388.08658 280.53427C386.42972 280.53427 385.08658 279.1911 385.08658 277.53427C385.08658 275.8774 386.42972 274.53427 388.08658 274.53427C389.74344 274.53427 391.08658 275.8774 391.08658 277.53427Z" fill-rule="nonzero"/><path fill="#000000" fill-opacity="0.0" clip-path="url(#id_0)" d="M437.827 278.80997C437.827 280.46683 436.48383 281.80997 434.827 281.80997C433.17014 281.80997 431.827 280.46683 431.827 278.80997C431.827 277.1531 433.17014 275.80997 434.827 275.80997C436.48383 275.80997 437.827 277.1531 437.827 278.80997Z" fill-rule="nonzero"/><path fill="#000000" fill-opacity="0.0" clip-path="url(#id_0)" d="M499.61444 279.5246C499.61444 281.18146 498.2713 282.5246 496.61444 282.5246C494.95758 282.5246 493.61444 281.18146 493.61444 279.5246C493.61444 277.86774 494.95758 276.5246 496.61444 276.5246C498.2713 276.5246 499.61444 277.86774 499.61444 279.5246Z" fill-rule="nonzero"/><path fill="#000000" fill-opacity="0.0" clip-path="url(#id_0)" d="M80.55 115.28778C80.55 116.94463 79.206856 118.28778 77.55 118.28778C75.89314 118.28778 74.55 116.94463 74.55 115.28778C74.55 113.63093 75.89314 112.28778 77.55 112.28778C79.206856 112.28778 80.55 113.63093 80.55 115.28778Z" fill-rule="nonzero"/><path fill="#000000" fill-opacity="0.0" clip-path="url(#id_0)" d="M127.29041 212.54697C127.29041 214.20381 125.947266 215.54697 124.29041 215.54697C122.63356 215.54697 121.29041 214.20381 121.29041 212.54697C121.29041 210.8901 122.63356 209.54697 124.29041 209.54697C125.947266 209.54697 127.29041 210.8901 127.29041 212.54697Z" fill-rule="nonzero"/><path fill="#000000" fill-opacity="0.0" clip-path="url(#id_0)" d="M154.6318 231.56631C154.6318 233.22318 153.28865 234.56631 151.6318 234.56631C149.97495 234.56631 148.6318 233.22318 148.6318 231.56631C148.6318 229.90945 149.97495 228.56631 151.6318 228.56631C153.28865 228.56631 154.6318 229.90945 154.6318 231.56631Z" fill-rule="nonzero"/><path fill="#000000" fill-opacity="0.0" clip-path="url(#id_0)" d="M174.03082 246.66635C174.03082 248.32321 172.68768 249.66635 171.03082 249.66635C169.37396 249.66635 168.03082 248.32321 168.03082 246.66635C168.03082 245.00949 169.37396 243.66635 171.03082 243.66635C172.68768 243.66635 174.03082 245.00949 174.03082 246.66635Z" fill-rule="nonzero"/><path fill="#000000" fill-opacity="0.0" clip-path="url(#id_0)" d="M189.07788 249.41837C189.07788 251.07521 187.73473 252.41837 186.07788 252.41837C184.42102 252.41837 183.07788 251.07521 183.07788 249.41837C183.07788 247.7615 184.42102 246.41837 186.07788 246.41837C187.73473 246.41837 189.07788 247.7615 189.07788 249.41837Z" fill-rule="nonzero"/><path fill="#000000" fill-opacity="0.0" clip-path="url(#id_0)" d="M220.77124 263.99982C220.77124 265.65668 219.42809 266.99982 217.77124 266.99982C216.11438 266.99982 214.77124 265.65668 214.77124 263.99982C214.77124 262.34296 216.11438 260.99982 217.77124 260.99982C219.42809 260.99982 220.77124 262.34296 220.77124 263.99982Z" fill-rule="nonzero"/><path fill="#000000" fill-opacity="0.0" clip-path="url(#id_0)" d="M235.81828 264.0097C235.81828 265.66656 234.47514 267.0097 232.81828 267.0097C231.16144 267.0097 229.81828 265.66656 229.81828 264.0097C229.81828 262.35287 231.16144 261.0097 232.81828 261.0097C234.47514 261.0097 235.81828 262.35287 235.81828 264.0097Z" fill-rule="nonzero"/><path fill="#000000" fill-opacity="0.0" clip-path="url(#id_0)" d="M263.15967 268.44427C263.15967 270.10114 261.81653 271.44427 260.15967 271.44427C258.5028 271.44427 257.15967 270.10114 257.15967 268.44427C257.15967 266.78745 258.5028 265.44427 260.15967 265.44427C261.81653 265.44427 263.15967 266.78745 263.15967 268.44427Z" fill-rule="nonzero"/><path fill="#000000" fill-opacity="0.0" clip-path="url(#id_0)" d="M282.5587 271.5584C282.5587 273.21524 281.21555 274.5584 279.5587 274.5584C277.90186 274.5584 276.5587 273.21524 276.5587 271.5584C276.5587 269.90155 277.90186 268.5584 279.5587 268.5584C281.21555 268.5584 282.5587 269.90155 282.5587 271.5584Z" fill-rule="nonzero"/><path fill="#000000" fill-opacity="0.0" clip-path="url(#id_0)" d="M320.2948 274.04242C320.2948 275.69925 318.95166 277.04242 317.2948 277.04242C315.63794 277.04242 314.2948 275.69925 314.2948 274.04242C314.2948 272.38556 315.63794 271.04242 317.2948 271.04242C318.95166 271.04242 320.2948 272.38556 320.2948 274.04242Z" fill-rule="nonzero"/><path fill="#000000" fill-opacity="0.0" clip-path="url(#id_0)" d="M344.34616 275.98343C344.34616 277.64026 343.00302 278.98343 341.34616 278.98343C339.6893 278.98343 338.34616 277.64026 338.34616 275.98343C338.34616 274.32657 339.6893 272.98343 341.34616 272.98343C343.00302 272.98343 344.34616 274.32657 344.34616 275.98343Z" fill-rule="nonzero"/><path fill="#000000" fill-opacity="0.0" clip-path="url(#id_0)" d="M391.08658 277.58698C391.08658 279.24384 389.74344 280.58698 388.08658 280.58698C386.42972 280.58698 385.08658 279.24384 385.08658 277.58698C385.08658 275.9301 386.42972 274.58698 388.08658 274.58698C389.74344 274.58698 391.08658 275.9301 391.08658 277.58698Z" fill-rule="nonzero"/><path fill="#000000" fill-opacity="0.0" clip-path="url(#id_0)" d="M437.827 278.62106C437.827 280.27792 436.48383 281.62106 434.827 281.62106C433.17014 281.62106 431.827 280.27792 431.827 278.62106C431.827 276.96423 433.17014 275.62106 434.827 275.62106C436.48383 275.62106 437.827 276.96423 437.827 278.62106Z" fill-rule="nonzero"/><path fill="#000000" fill-opacity="0.0" clip-path="url(#id_0)" d="M499.61444 279.1532C499.61444 280.81006 498.2713 282.1532 496.61444 282.1532C494.95758 282.1532 493.61444 280.81006 493.61444 279.1532C493.61444 277.49637 494.95758 276.1532 496.61444 276.1532C498.2713 276.1532 499.61444 277.49637 499.61444 279.1532Z" fill-rule="nonzero"/><path fill="#000000" fill-opacity="0.0" clip-path="url(#id_0)" d="M80.55 123.6726C80.55 125.32945 79.206856 126.6726 77.55 126.6726C75.89314 126.6726 74.55 125.32945 74.55 123.6726C74.55 122.01574 75.89314 120.6726 77.55 120.6726C79.206856 120.6726 80.55 122.01574 80.55 123.6726Z" fill-rule="nonzero"/><path fill="#000000" fill-opacity="0.0" clip-path="url(#id_0)" d="M127.29041 214.69409C127.29041 216.35095 125.947266 217.69409 124.29041 217.69409C122.63356 217.69409 121.29041 216.35095 121.29041 214.69409C121.29041 213.03723 122.63356 211.69409 124.29041 211.69409C125.947266 211.69409 127.29041 213.03723 127.29041 214.69409Z" fill-rule="nonzero"/><path fill="#000000" fill-opacity="0.0" clip-path="url(#id_0)" d="M154.6318 233.19847C154.6318 234.85532 153.28865 236.19847 151.6318 236.19847C149.97495 236.19847 148.6318 234.85532 148.6318 233.19847C148.6318 231.54161 149.97495 230.19847 151.6318 230.19847C153.28865 230.19847 154.6318 231.54161 154.6318 233.19847Z" fill-rule="nonzero"/><path fill="#000000" fill-opacity="0.0" clip-path="url(#id_0)" d="M174.03082 246.12976C174.03082 247.7866 172.68768 249.12976 171.03082 249.12976C169.37396 249.12976 168.03082 247.7866 168.03082 246.12976C168.03082 244.4729 169.37396 243.12976 171.03082 243.12976C172.68768 243.12976 174.03082 244.4729 174.03082 246.12976Z" fill-rule="nonzero"/><path fill="#000000" fill-opacity="0.0" clip-path="url(#id_0)" d="M189.07788 249.87872C189.07788 251.53557 187.73473 252.87872 186.07788 252.87872C184.42102 252.87872 183.07788 251.53557 183.07788 249.87872C183.07788 248.22186 184.42102 246.87872 186.07788 246.87872C187.73473 246.87872 189.07788 248.22186 189.07788 249.87872Z" fill-rule="nonzero"/><path fill="#000000" fill-opacity="0.0" clip-path="url(#id_0)" d="M220.77124 260.1435C220.77124 261.80035 219.42809 263.1435 217.77124 263.1435C216.11438 263.1435 214.77124 261.80035 214.77124 260.1435C214.77124 258.48666 216.11438 257.1435 217.77124 257.1435C219.42809 257.1435 220.77124 258.48666 220.77124 260.1435Z" fill-rule="nonzero"/><path fill="#000000" fill-opacity="0.0" clip-path="url(#id_0)" d="M235.81828 262.44604C235.81828 264.1029 234.47514 265.44604 232.81828 265.44604C231.16144 265.44604 229.81828 264.1029 229.81828 262.44604C229.81828 260.78918 231.16144 259.44604 232.81828 259.44604C234.47514 259.44604 235.81828 260.78918 235.81828 262.44604Z" fill-rule="nonzero"/><path fill="#000000" fill-opacity="0.0" clip-path="url(#id_0)" d="M263.15967 266.37106C263.15967 268.02792 261.81653 269.37106 260.15967 269.37106C258.5028 269.37106 257.15967 268.02792 257.15967 266.37106C257.15967 264.7142 258.5028 263.37106 260.15967 263.37106C261.81653 263.37106 263.15967 264.7142 263.15967 266.37106Z" fill-rule="nonzero"/><path fill="#000000" fill-opacity="0.0" clip-path="url(#id_0)" d="M282.5587 268.97287C282.5587 270.62973 281.21555 271.97287 279.5587 271.97287C277.90186 271.97287 276.5587 270.62973 276.5587 268.97287C276.5587 267.316 277.90186 265.97287 279.5587 265.97287C281.21555 265.97287 282.5587 267.316 282.5587 268.97287Z" fill-rule="nonzero"/><path fill="#000000" fill-opacity="0.0" clip-path="url(#id_0)" d="M320.2948 270.9821C320.2948 272.63895 318.95166 273.9821 317.2948 273.9821C315.63794 273.9821 314.2948 272.63895 314.2948 270.9821C314.2948 269.32523 315.63794 267.9821 317.2948 267.9821C318.95166 267.9821 320.2948 269.32523 320.2948 270.9821Z" fill-rule="nonzero"/><path fill="#000000" fill-opacity="0.0" clip-path="url(#id_0)" d="M344.34616 272.59827C344.34616 274.25513 343.00302 275.59827 341.34616 275.59827C339.6893 275.59827 338.34616 274.25513 338.34616 272.59827C338.34616 270.94144 339.6893 269.59827 341.34616 269.59827C343.00302 269.59827 344.34616 270.94144 344.34616 272.59827Z" fill-rule="nonzero"/><path fill="#000000" fill-opacity="0.0" clip-path="url(#id_0)" d="M391.08658 273.84085C391.08658 275.49768 389.74344 276.84085 388.08658 276.84085C386.42972 276.84085 385.08658 275.49768 385.08658 273.84085C385.08658 272.184 386.42972 270.84085 388.08658 270.84085C389.74344 270.84085 391.08658 272.184 391.08658 273.84085Z" fill-rule="nonzero"/><path fill="#000000" fill-opacity="0.0" clip-path="url(#id_0)" d="M437.827 278.32867C437.827 279.98553 436.48383 281.32867 434.827 281.32867C433.17014 281.32867 431.827 279.98553 431.827 278.32867C431.827 276.67184 433.17014 275.32867 434.827 275.32867C436.48383 275.32867 437.827 276.67184 437.827 278.32867Z" fill-rule="nonzero"/><path fill="#000000" fill-opacity="0.0" clip-path="url(#id_0)" d="M499.61444 281.41968C499.61444 283.07654 498.2713 284.41968 496.61444 284.41968C494.95758 284.41968 493.61444 283.07654 493.61444 281.41968C493.61444 279.76282 494.95758 278.41968 496.61444 278.41968C498.2713 278.41968 499.61444 279.76282 499.61444 281.41968Z" fill-rule="nonzero"/><path fill="#000000" fill-opacity="0.0" clip-path="url(#id_0)" d="M80.55 142.03923C80.55 143.69609 79.206856 145.03923 77.55 145.03923C75.89314 145.03923 74.55 143.69609 74.55 142.03923C74.55 140.38239 75.89314 139.03923 77.55 139.03923C79.206856 139.03923 80.55 140.38239 80.55 142.03923Z" fill-rule="nonzero"/><path fill="#000000" fill-opacity="0.0" clip-path="url(#id_0)" d="M127.29041 218.63539C127.29041 220.29225 125.947266 221.63539 124.29041 221.63539C122.63356 221.63539 121.29041 220.29225 121.29041 218.63539C121.29041 216.97855 122.63356 215.63539 124.29041 215.63539C125.947266 215.63539 127.29041 216.97855 127.29041 218.63539Z" fill-rule="nonzero"/><path fill="#000000" fill-opacity="0.0" clip-path="url(#id_0)" d="M154.6318 236.1705C154.6318 237.82735 153.28865 239.1705 151.6318 239.1705C149.97495 239.1705 148.6318 237.82735 148.6318 236.1705C148.6318 234.51364 149.97495 233.1705 151.6318 233.1705C153.28865 233.1705 154.6318 234.51364 154.6318 236.1705Z" fill-rule="nonzero"/><path fill="#000000" fill-opacity="0.0" clip-path="url(#id_0)" d="M174.03082 247.93726C174.03082 249.5941 172.68768 250.93726 171.03082 250.93726C169.37396 250.93726 168.03082 249.5941 168.03082 247.93726C168.03082 246.2804 169.37396 244.93726 171.03082 244.93726C172.68768 244.93726 174.03082 246.2804 174.03082 247.93726Z" fill-rule="nonzero"/><path fill="#000000" fill-opacity="0.0" clip-path="url(#id_0)" d="M189.07788 251.61832C189.07788 253.27516 187.73473 254.61832 186.07788 254.61832C184.42102 254.61832 183.07788 253.27516 183.07788 251.61832C183.07788 249.96146 184.42102 248.61832 186.07788 248.61832C187.73473 248.61832 189.07788 249.96146 189.07788 251.61832Z" fill-rule="nonzero"/><path fill="#000000" fill-opacity="0.0" clip-path="url(#id_0)" d="M220.77124 262.8792C220.77124 264.53607 219.42809 265.8792 217.77124 265.8792C216.11438 265.8792 214.77124 264.53607 214.77124 262.8792C214.77124 261.22238 216.11438 259.8792 217.77124 259.8792C219.42809 259.8792 220.77124 261.22238 220.77124 262.8792Z" fill-rule="nonzero"/><path fill="#000000" fill-opacity="0.0" clip-path="url(#id_0)" d="M235.81828 263.05887C235.81828 264.7157 234.47514 266.05887 232.81828 266.05887C231.16144 266.05887 229.81828 264.7157 229.81828 263.05887C229.81828 261.402 231.16144 260.05887 232.81828 260.05887C234.47514 260.05887 235.81828 261.402 235.81828 263.05887Z" fill-rule="nonzero"/><path fill="#000000" fill-opacity="0.0" clip-path="url(#id_0)" d="M263.15967 267.76553C263.15967 269.42236 261.81653 270.76553 260.15967 270.76553C258.5028 270.76553 257.15967 269.42236 257.15967 267.76553C257.15967 266.10867 258.5028 264.76553 260.15967 264.76553C261.81653 264.76553 263.15967 266.10867 263.15967 267.76553Z" fill-rule="nonzero"/><path fill="#000000" fill-opacity="0.0" clip-path="url(#id_0)" d="M282.5587 269.4342C282.5587 271.09106 281.21555 272.4342 279.5587 272.4342C277.90186 272.4342 276.5587 271.09106 276.5587 269.4342C276.5587 267.77734 277.90186 266.4342 279.5587 266.4342C281.21555 266.4342 282.5587 267.77734 282.5587 269.4342Z" fill-rule="nonzero"/><path fill="#000000" fill-opacity="0.0" clip-path="url(#id_0)" d="M320.2948 272.1136C320.2948 273.77042 318.95166 275.1136 317.2948 275.1136C315.63794 275.1136 314.2948 273.77042 314.2948 272.1136C314.2948 270.45673 315.63794 269.1136 317.2948 269.1136C318.95166 269.1136 320.2948 270.45673 320.2948 272.1136Z" fill-rule="nonzero"/><path fill="#000000" fill-opacity="0.0" clip-path="url(#id_0)" d="M344.34616 275.07596C344.34616 276.73282 343.00302 278.07596 341.34616 278.07596C339.6893 278.07596 338.34616 276.73282 338.34616 275.07596C338.34616 273.41913 339.6893 272.07596 341.34616 272.07596C343.00302 272.07596 344.34616 273.41913 344.34616 275.07596Z" fill-rule="nonzero"/><path fill="#000000" fill-opacity="0.0" clip-path="url(#id_0)" d="M391.08658 277.3555C391.08658 279.01236 389.74344 280.3555 388.08658 280.3555C386.42972 280.3555 385.08658 279.01236 385.08658 277.3555C385.08658 275.69867 386.42972 274.3555 388.08658 274.3555C389.74344 274.3555 391.08658 275.69867 391.08658 277.3555Z" fill-rule="nonzero"/><path fill="#000000" fill-opacity="0.0" clip-path="url(#id_0)" d="M437.827 281.20087C437.827 282.85773 436.48383 284.20087 434.827 284.20087C433.17014 284.20087 431.827 282.85773 431.827 281.20087C431.827 279.544 433.17014 278.20087 434.827 278.20087C436.48383 278.20087 437.827 279.544 437.827 281.20087Z" fill-rule="nonzero"/><path fill="#000000" fill-opacity="0.0" clip-path="url(#id_0)" d="M499.61444 282.55054C499.61444 284.20737 498.2713 285.55054 496.61444 285.55054C494.95758 285.55054 493.61444 284.20737 493.61444 282.55054C493.61444 280.89368 494.95758 279.55054 496.61444 279.55054C498.2713 279.55054 499.61444 280.89368 499.61444 282.55054Z" fill-rule="nonzero"/><path fill="#000000" fill-opacity="0.0" clip-path="url(#id_0)" d="M80.55 171.63705C80.55 173.29391 79.206856 174.63705 77.55 174.63705C75.89314 174.63705 74.55 173.29391 74.55 171.63705C74.55 169.98021 75.89314 168.63705 77.55 168.63705C79.206856 168.63705 80.55 169.98021 80.55 171.63705Z" fill-rule="nonzero"/><path fill="#000000" fill-opacity="0.0" clip-path="url(#id_0)" d="M127.29041 229.87372C127.29041 231.53056 125.947266 232.87372 124.29041 232.87372C122.63356 232.87372 121.29041 231.53056 121.29041 229.87372C121.29041 228.21686 122.63356 226.87372 124.29041 226.87372C125.947266 226.87372 127.29041 228.21686 127.29041 229.87372Z" fill-rule="nonzero"/><path fill="#000000" fill-opacity="0.0" clip-path="url(#id_0)" d="M154.6318 246.2243C154.6318 247.88115 153.28865 249.2243 151.6318 249.2243C149.97495 249.2243 148.6318 247.88115 148.6318 246.2243C148.6318 244.56744 149.97495 243.2243 151.6318 243.2243C153.28865 243.2243 154.6318 244.56744 154.6318 246.2243Z" fill-rule="nonzero"/><path fill="#000000" fill-opacity="0.0" clip-path="url(#id_0)" d="M174.03082 255.98454C174.03082 257.6414 172.68768 258.98456 171.03082 258.98456C169.37396 258.98456 168.03082 257.6414 168.03082 255.98454C168.03082 254.3277 169.37396 252.98454 171.03082 252.98454C172.68768 252.98454 174.03082 254.3277 174.03082 255.98454Z" fill-rule="nonzero"/><path fill="#000000" fill-opacity="0.0" clip-path="url(#id_0)" d="M189.07788 260.4181C189.07788 262.07495 187.73473 263.4181 186.07788 263.4181C184.42102 263.4181 183.07788 262.07495 183.07788 260.4181C183.07788 258.76126 184.42102 257.4181 186.07788 257.4181C187.73473 257.4181 189.07788 258.76126 189.07788 260.4181Z" fill-rule="nonzero"/><path fill="#000000" fill-opacity="0.0" clip-path="url(#id_0)" d="M220.77124 266.63754C220.77124 268.2944 219.42809 269.63754 217.77124 269.63754C216.11438 269.63754 214.77124 268.2944 214.77124 266.63754C214.77124 264.9807 216.11438 263.63754 217.77124 263.63754C219.42809 263.63754 220.77124 264.9807 220.77124 266.63754Z" fill-rule="nonzero"/><path fill="#000000" fill-opacity="0.0" clip-path="url(#id_0)" d="M235.81828 268.32825C235.81828 269.9851 234.47514 271.32825 232.81828 271.32825C231.16144 271.32825 229.81828 269.9851 229.81828 268.32825C229.81828 266.6714 231.16144 265.32825 232.81828 265.32825C234.47514 265.32825 235.81828 266.6714 235.81828 268.32825Z" fill-rule="nonzero"/><path fill="#000000" fill-opacity="0.0" clip-path="url(#id_0)" d="M263.15967 272.07706C263.15967 273.73392 261.81653 275.07706 260.15967 275.07706C258.5028 275.07706 257.15967 273.73392 257.15967 272.07706C257.15967 270.4202 258.5028 269.07706 260.15967 269.07706C261.81653 269.07706 263.15967 270.4202 263.15967 272.07706Z" fill-rule="nonzero"/><path fill="#000000" fill-opacity="0.0" clip-path="url(#id_0)" d="M282.5587 272.5745C282.5587 274.23135 281.21555 275.5745 279.5587 275.5745C277.90186 275.5745 276.5587 274.23135 276.5587 272.5745C276.5587 270.91763 277.90186 269.5745 279.5587 269.5745C281.21555 269.5745 282.5587 270.91763 282.5587 272.5745Z" fill-rule="nonzero"/><path fill="#000000" fill-opacity="0.0" clip-path="url(#id_0)" d="M320.2948 277.31082C320.2948 278.96768 318.95166 280.31082 317.2948 280.31082C315.63794 280.31082 314.2948 278.96768 314.2948 277.31082C314.2948 275.654 315.63794 274.31082 317.2948 274.31082C318.95166 274.31082 320.2948 275.654 320.2948 277.31082Z" fill-rule="nonzero"/><path fill="#000000" fill-opacity="0.0" clip-path="url(#id_0)" d="M344.34616 279.18304C344.34616 280.8399 343.00302 282.18304 341.34616 282.18304C339.6893 282.18304 338.34616 280.8399 338.34616 279.18304C338.34616 277.5262 339.6893 276.18304 341.34616 276.18304C343.00302 276.18304 344.34616 277.5262 344.34616 279.18304Z" fill-rule="nonzero"/><path fill="#000000" fill-opacity="0.0" clip-path="url(#id_0)" d="M391.08658 281.53485C391.08658 283.1917 389.74344 284.53485 388.08658 284.53485C386.42972 284.53485 385.08658 283.1917 385.08658 281.53485C385.08658 279.878 386.42972 278.53485 388.08658 278.53485C389.74344 278.53485 391.08658 279.878 391.08658 281.53485Z" fill-rule="nonzero"/><path fill="#000000" fill-opacity="0.0" clip-path="url(#id_0)" d="M437.827 282.5696C437.827 284.22647 436.48383 285.5696 434.827 285.5696C433.17014 285.5696 431.827 284.22647 431.827 282.5696C431.827 280.91275 433.17014 279.5696 434.827 279.5696C436.48383 279.5696 437.827 280.91275 437.827 282.5696Z" fill-rule="nonzero"/><path fill="#000000" fill-opacity="0.0" clip-path="url(#id_0)" d="M499.61444 283.33105C499.61444 284.9879 498.2713 286.33105 496.61444 286.33105C494.95758 286.33105 493.61444 284.9879 493.61444 283.33105C493.61444 281.6742 494.95758 280.33105 496.61444 280.33105C498.2713 280.33105 499.61444 281.6742 499.61444 283.33105Z" fill-rule="nonzero"/><path fill="#000000" fill-opacity="0.0" clip-path="url(#id_0)" d="M80.55 283.4119C80.55 285.06876 79.206856 286.4119 77.55 286.4119C75.89314 286.4119 74.55 285.06876 74.55 283.4119C74.55 281.75504 75.89314 280.4119 77.55 280.4119C79.206856 280.4119 80.55 281.75504 80.55 283.4119Z" fill-rule="nonzero"/><path fill="#000000" fill-opacity="0.0" clip-path="url(#id_0)" d="M127.29041 283.4119C127.29041 285.06876 125.947266 286.4119 124.29041 286.4119C122.63356 286.4119 121.29041 285.06876 121.29041 283.4119C121.29041 281.75504 122.63356 280.4119 124.29041 280.4119C125.947266 280.4119 127.29041 281.75504 127.29041 283.4119Z" fill-rule="nonzero"/><path fill="#000000" fill-opacity="0.0" clip-path="url(#id_0)" d="M154.6318 283.4119C154.6318 285.06876 153.28865 286.4119 151.6318 286.4119C149.97495 286.4119 148.6318 285.06876 148.6318 283.4119C148.6318 281.75504 149.97495 280.4119 151.6318 280.4119C153.28865 280.4119 154.6318 281.75504 154.6318 283.4119Z" fill-rule="nonzero"/><path fill="#000000" fill-opacity="0.0" clip-path="url(#id_0)" d="M174.03082 283.4119C174.03082 285.06876 172.68768 286.4119 171.03082 286.4119C169.37396 286.4119 168.03082 285.06876 168.03082 283.4119C168.03082 281.75504 169.37396 280.4119 171.03082 280.4119C172.68768 280.4119 174.03082 281.75504 174.03082 283.4119Z" fill-rule="nonzero"/><path fill="#000000" fill-opacity="0.0" clip-path="url(#id_0)" d="M189.07788 283.4119C189.07788 285.06876 187.73473 286.4119 186.07788 286.4119C184.42102 286.4119 183.07788 285.06876 183.07788 283.4119C183.07788 281.75504 184.42102 280.4119 186.07788 280.4119C187.73473 280.4119 189.07788 281.75504 189.07788 283.4119Z" fill-rule="nonzero"/><path fill="#000000" fill-opacity="0.0" clip-path="url(#id_0)" d="M220.77124 283.4119C220.77124 285.06876 219.42809 286.4119 217.77124 286.4119C216.11438 286.4119 214.77124 285.06876 214.77124 283.4119C214.77124 281.75504 216.11438 280.4119 217.77124 280.4119C219.42809 280.4119 220.77124 281.75504 220.77124 283.4119Z" fill-rule="nonzero"/><path fill="#000000" fill-opacity="0.0" clip-path="url(#id_0)" d="M235.81828 283.4119C235.81828 285.06876 234.47514 286.4119 232.81828 286.4119C231.16144 286.4119 229.81828 285.06876 229.81828 283.4119C229.81828 281.75504 231.16144 280.4119 232.81828 280.4119C234.47514 280.4119 235.81828 281.75504 235.81828 283.4119Z" fill-rule="nonzero"/><path fill="#000000" fill-opacity="0.0" clip-path="url(#id_0)" d="M263.15967 283.4119C263.15967 285.06876 261.81653 286.4119 260.15967 286.4119C258.5028 286.4119 257.15967 285.06876 257.15967 283.4119C257.15967 281.75504 258.5028 280.4119 260.15967 280.4119C261.81653 280.4119 263.15967 281.75504 263.15967 283.4119Z" fill-rule="nonzero"/><path fill="#000000" fill-opacity="0.0" clip-path="url(#id_0)" d="M282.5587 283.4119C282.5587 285.06876 281.21555 286.4119 279.5587 286.4119C277.90186 286.4119 276.5587 285.06876 276.5587 283.4119C276.5587 281.75504 277.90186 280.4119 279.5587 280.4119C281.21555 280.4119 282.5587 281.75504 282.5587 283.4119Z" fill-rule="nonzero"/><path fill="#000000" fill-opacity="0.0" clip-path="url(#id_0)" d="M320.2948 283.4119C320.2948 285.06876 318.95166 286.4119 317.2948 286.4119C315.63794 286.4119 314.2948 285.06876 314.2948 283.4119C314.2948 281.75504 315.63794 280.4119 317.2948 280.4119C318.95166 280.4119 320.2948 281.75504 320.2948 283.4119Z" fill-rule="nonzero"/><path fill="#000000" fill-opacity="0.0" clip-path="url(#id_0)" d="M344.34616 283.4119C344.34616 285.06876 343.00302 286.4119 341.34616 286.4119C339.6893 286.4119 338.34616 285.06876 338.34616 283.4119C338.34616 281.75504 339.6893 280.4119 341.34616 280.4119C343.00302 280.4119 344.34616 281.75504 344.34616 283.4119Z" fill-rule="nonzero"/><path fill="#000000" fill-opacity="0.0" clip-path="url(#id_0)" d="M391.08658 283.4119C391.08658 285.06876 389.74344 286.4119 388.08658 286.4119C386.42972 286.4119 385.08658 285.06876 385.08658 283.4119C385.08658 281.75504 386.42972 280.4119 388.08658 280.4119C389.74344 280.4119 391.08658 281.75504 391.08658 283.4119Z" fill-rule="nonzero"/><path fill="#000000" fill-opacity="0.0" clip-path="url(#id_0)" d="M437.827 283.4119C437.827 285.06876 436.48383 286.4119 434.827 286.4119C433.17014 286.4119 431.827 285.06876 431.827 283.4119C431.827 281.75504 433.17014 280.4119 434.827 280.4119C436.48383 280.4119 437.827 281.75504 437.827 283.4119Z" fill-rule="nonzero"/><path fill="#000000" fill-opacity="0.0" clip-path="url(#id_0)" d="M499.61444 283.4119C499.61444 285.06876 498.2713 286.4119 496.61444 286.4119C494.95758 286.4119 493.61444 285.06876 493.61444 283.4119C493.61444 281.75504 494.95758 280.4119 496.61444 280.4119C498.2713 280.4119 499.61444 281.75504 499.61444 283.4119Z" fill-rule="nonzero"/><path fill="#000000" d="M242.1291 346.6844L243.1916 346.59064Q243.26973 347.2469 243.55098 347.65314Q243.83223 348.0594 244.41035 348.325Q245.0041 348.575 245.73848 348.575Q246.3791 348.575 246.8791 348.3875Q247.3791 348.1844 247.61348 347.85626Q247.86348 347.5125 247.86348 347.1219Q247.86348 346.71564 247.6291 346.41876Q247.39473 346.10626 246.86348 345.90314Q246.5041 345.7625 245.3166 345.48126Q244.14473 345.2 243.67598 344.95Q243.05098 344.6219 242.7541 344.15314Q242.45723 343.66876 242.45723 343.075Q242.45723 342.4344 242.8166 341.8719Q243.1916 341.29376 243.89473 341.0125Q244.61348 340.71564 245.47285 340.71564Q246.42598 340.71564 247.16035 341.02814Q247.89473 341.325 248.28535 341.9344Q248.67598 342.52814 248.70723 343.27814L247.61348 343.35626Q247.51973 342.54376 247.0041 342.1375Q246.5041 341.71564 245.51973 341.71564Q244.48848 341.71564 244.01973 342.09064Q243.55098 342.46564 243.55098 342.9969Q243.55098 343.46564 243.8791 343.7625Q244.20723 344.0594 245.58223 344.3719Q246.97285 344.6844 247.48848 344.91876Q248.23848 345.27814 248.59785 345.8094Q248.95723 346.325 248.95723 347.02814Q248.95723 347.71564 248.5666 348.325Q248.17598 348.91876 247.4416 349.2625Q246.70723 349.59064 245.78535 349.59064Q244.61348 349.59064 243.8166 349.2625Q243.03535 348.91876 242.58223 348.23126Q242.14473 347.54376 242.1291 346.6844ZM250.3791 349.45L250.3791 343.23126L251.3166 343.23126L251.3166 344.10626Q252.0041 343.09064 253.30098 343.09064Q253.86348 343.09064 254.33223 343.29376Q254.8166 343.4969 255.05098 343.825Q255.28535 344.15314 255.3791 344.59064Q255.42598 344.8875 255.42598 345.6219L255.42598 349.45L254.3791 349.45L254.3791 345.66876Q254.3791 345.0125 254.2541 344.7Q254.1291 344.3875 253.8166 344.2Q253.5041 343.9969 253.08223 343.9969Q252.41035 343.9969 251.91035 344.4344Q251.42598 344.85626 251.42598 346.04376L251.42598 349.45L250.3791 349.45ZM261.4416 348.6844Q260.84784 349.1844 260.30096 349.3875Q259.7697 349.59064 259.1447 349.59064Q258.11346 349.59064 257.5666 349.09064Q257.0197 348.59064 257.0197 347.8094Q257.0197 347.35626 257.22284 346.98126Q257.42596 346.59064 257.7697 346.3719Q258.11346 346.1375 258.53534 346.02814Q258.8322 345.9344 259.47284 345.85626Q260.73846 345.71564 261.34784 345.4969Q261.34784 345.27814 261.34784 345.23126Q261.34784 344.575 261.05096 344.3094Q260.6447 343.96564 259.84784 343.96564Q259.11346 343.96564 258.7541 344.23126Q258.3947 344.48126 258.22284 345.1375L257.1916 344.9969Q257.3322 344.34064 257.66034 343.9344Q257.98846 343.52814 258.59784 343.3094Q259.2072 343.09064 260.0041 343.09064Q260.80096 343.09064 261.30096 343.27814Q261.80096 343.46564 262.03534 343.7469Q262.2697 344.02814 262.36346 344.46564Q262.41034 344.73126 262.41034 345.4344L262.41034 346.84064Q262.41034 348.3094 262.47284 348.7Q262.55096 349.09064 262.7541 349.45L261.6447 349.45Q261.48846 349.1219 261.4416 348.6844ZM261.34784 346.325Q260.7697 346.5594 259.6291 346.73126Q258.97284 346.825 258.7072 346.95Q258.4416 347.0594 258.28534 347.27814Q258.1447 347.4969 258.1447 347.77814Q258.1447 348.2 258.4572 348.48126Q258.78534 348.7625 259.3947 348.7625Q260.0041 348.7625 260.47284 348.4969Q260.9572 348.23126 261.17596 347.7625Q261.34784 347.40314 261.34784 346.71564L261.34784 346.325ZM264.3791 351.84064L264.3791 343.23126L265.3322 343.23126L265.3322 344.02814Q265.67596 343.5594 266.09784 343.325Q266.53534 343.09064 267.1447 343.09064Q267.9416 343.09064 268.55096 343.4969Q269.16034 343.90314 269.4572 344.65314Q269.7697 345.40314 269.7697 346.29376Q269.7697 347.2469 269.42596 348.0125Q269.09784 348.77814 268.4416 349.1844Q267.78534 349.59064 267.0666 349.59064Q266.53534 349.59064 266.11346 349.3719Q265.6916 349.1375 265.42596 348.8094L265.42596 351.84064L264.3791 351.84064ZM265.3322 346.3719Q265.3322 347.575 265.8166 348.15314Q266.30096 348.71564 266.98846 348.71564Q267.6916 348.71564 268.1916 348.1219Q268.6916 347.52814 268.6916 346.27814Q268.6916 345.09064 268.2072 344.5125Q267.72284 343.91876 267.03534 343.91876Q266.36346 343.91876 265.84784 344.54376Q265.3322 345.16876 265.3322 346.3719ZM270.9572 347.59064L271.98846 347.4344Q272.0822 348.0594 272.47284 348.3875Q272.8791 348.71564 273.61346 348.71564Q274.3322 348.71564 274.67596 348.4344Q275.03534 348.1375 275.03534 347.73126Q275.03534 347.3719 274.72284 347.16876Q274.5041 347.02814 273.6447 346.8094Q272.48846 346.5125 272.03534 346.3094Q271.59784 346.09064 271.36346 345.71564Q271.1291 345.34064 271.1291 344.8719Q271.1291 344.46564 271.3166 344.10626Q271.5041 343.7469 271.8322 343.5125Q272.0822 343.34064 272.5041 343.21564Q272.92596 343.09064 273.42596 343.09064Q274.1447 343.09064 274.6916 343.3094Q275.2541 343.5125 275.5197 343.8719Q275.78534 344.23126 275.8791 344.825L274.84784 344.96564Q274.78534 344.4969 274.4416 344.23126Q274.11346 343.95 273.48846 343.95Q272.7697 343.95 272.4572 344.2Q272.1447 344.4344 272.1447 344.7625Q272.1447 344.96564 272.2697 345.1219Q272.41034 345.29376 272.67596 345.40314Q272.8322 345.46564 273.61346 345.66876Q274.73846 345.98126 275.17596 346.16876Q275.61346 346.35626 275.86346 346.71564Q276.11346 347.075 276.11346 347.6219Q276.11346 348.15314 275.80096 348.6219Q275.5041 349.075 274.92596 349.34064Q274.34784 349.59064 273.61346 349.59064Q272.3947 349.59064 271.7541 349.09064Q271.1291 348.575 270.9572 347.59064ZM278.3791 349.45L278.3791 340.85626L279.42596 340.85626L279.42596 343.9344Q280.16034 343.09064 281.28534 343.09064Q281.98846 343.09064 282.48846 343.3719Q283.0041 343.6375 283.22284 344.1219Q283.4416 344.59064 283.4416 345.5125L283.4416 349.45L282.3947 349.45L282.3947 345.5125Q282.3947 344.71564 282.05096 344.35626Q281.7072 343.9969 281.0822 343.9969Q280.61346 343.9969 280.1916 344.2469Q279.78534 344.48126 279.59784 344.90314Q279.42596 345.3094 279.42596 346.04376L279.42596 349.45L278.3791 349.45ZM284.98846 346.34064Q284.98846 344.60626 285.9416 343.77814Q286.73846 343.09064 287.8947 343.09064Q289.17596 343.09064 289.98846 343.9344Q290.8166 344.7625 290.8166 346.2469Q290.8166 347.45 290.4572 348.1375Q290.09784 348.825 289.3947 349.21564Q288.7072 349.59064 287.8947 349.59064Q286.59784 349.59064 285.78534 348.7625Q284.98846 347.91876 284.98846 346.34064ZM286.0666 346.34064Q286.0666 347.52814 286.5822 348.1219Q287.11346 348.71564 287.8947 348.71564Q288.6916 348.71564 289.2072 348.1219Q289.72284 347.52814 289.72284 346.3094Q289.72284 345.15314 289.1916 344.5594Q288.67596 343.96564 287.8947 343.96564Q287.11346 343.96564 286.5822 344.5594Q286.0666 345.1375 286.0666 346.34064ZM294.67596 348.5125L294.8322 349.4344Q294.3791 349.52814 294.03534 349.52814Q293.4572 349.52814 293.1447 349.35626Q292.8322 349.16876 292.6916 348.8719Q292.5666 348.575 292.5666 347.6219L292.5666 344.04376L291.80096 344.04376L291.80096 343.23126L292.5666 343.23126L292.5666 341.6844L293.61346 341.0594L293.61346 343.23126L294.67596 343.23126L294.67596 344.04376L293.61346 344.04376L293.61346 347.6844Q293.61346 348.1375 293.66034 348.2625Q293.72284 348.3875 293.84784 348.46564Q293.97284 348.54376 294.2072 348.54376Q294.3947 348.54376 294.67596 348.5125ZM294.9572 347.59064L295.98846 347.4344Q296.0822 348.0594 296.47284 348.3875Q296.8791 348.71564 297.61346 348.71564Q298.3322 348.71564 298.67596 348.4344Q299.03534 348.1375 299.03534 347.73126Q299.03534 347.3719 298.72284 347.16876Q298.5041 347.02814 297.6447 346.8094Q296.48846 346.5125 296.03534 346.3094Q295.59784 346.09064 295.36346 345.71564Q295.1291 345.34064 295.1291 344.8719Q295.1291 344.46564 295.3166 344.10626Q295.5041 343.7469 295.8322 343.5125Q296.0822 343.34064 296.5041 343.21564Q296.92596 343.09064 297.42596 343.09064Q298.1447 343.09064 298.6916 343.3094Q299.2541 343.5125 299.5197 343.8719Q299.78534 344.23126 299.8791 344.825L298.84784 344.96564Q298.78534 344.4969 298.4416 344.23126Q298.11346 343.95 297.48846 343.95Q296.7697 343.95 296.4572 344.2Q296.1447 344.4344 296.1447 344.7625Q296.1447 344.96564 296.2697 345.1219Q296.41034 345.29376 296.67596 345.40314Q296.8322 345.46564 297.61346 345.66876Q298.73846 345.98126 299.17596 346.16876Q299.61346 346.35626 299.86346 346.71564Q300.11346 347.075 300.11346 347.6219Q300.11346 348.15314 299.80096 348.6219Q299.5041 349.075 298.92596 349.34064Q298.34784 349.59064 297.61346 349.59064Q296.3947 349.59064 295.7541 349.09064Q295.1291 348.575 294.9572 347.59064ZM309.6291 347.45L310.72284 347.575Q310.47284 348.52814 309.7697 349.0594Q309.0666 349.59064 307.98846 349.59064Q306.6291 349.59064 305.8166 348.7469Q305.0197 347.90314 305.0197 346.3875Q305.0197 344.825 305.8322 343.96564Q306.6447 343.09064 307.92596 343.09064Q309.17596 343.09064 309.9572 343.9344Q310.7541 344.77814 310.7541 346.325Q310.7541 346.41876 310.7541 346.60626L306.11346 346.60626Q306.17596 347.6375 306.6916 348.1844Q307.2072 348.71564 307.98846 348.71564Q308.5666 348.71564 308.97284 348.41876Q309.3947 348.10626 309.6291 347.45ZM306.17596 345.7469L309.6447 345.7469Q309.5822 344.95 309.2541 344.5594Q308.73846 343.95 307.9416 343.95Q307.2072 343.95 306.7072 344.4344Q306.22284 344.91876 306.17596 345.7469ZM314.09784 349.45L311.73846 343.23126L312.84784 343.23126L314.1916 346.95Q314.3947 347.5594 314.5822 348.2Q314.72284 347.71564 314.97284 347.02814L316.36346 343.23126L317.4416 343.23126L315.0822 349.45L314.09784 349.45ZM321.6291 347.45L322.72284 347.575Q322.47284 348.52814 321.7697 349.0594Q321.0666 349.59064 319.98846 349.59064Q318.6291 349.59064 317.8166 348.7469Q317.0197 347.90314 317.0197 346.3875Q317.0197 344.825 317.8322 343.96564Q318.6447 343.09064 319.92596 343.09064Q321.17596 343.09064 321.9572 343.9344Q322.7541 344.77814 322.7541 346.325Q322.7541 346.41876 322.7541 346.60626L318.11346 346.60626Q318.17596 347.6375 318.6916 348.1844Q319.2072 348.71564 319.98846 348.71564Q320.5666 348.71564 320.97284 348.41876Q321.3947 348.10626 321.6291 347.45ZM318.17596 345.7469L321.6447 345.7469Q321.5822 344.95 321.2541 344.5594Q320.73846 343.95 319.9416 343.95Q319.2072 343.95 318.7072 344.4344Q318.22284 344.91876 318.17596 345.7469ZM324.36346 349.45L324.36346 343.23126L325.3166 343.23126L325.3166 344.16876Q325.67596 343.5125 325.97284 343.3094Q326.28534 343.09064 326.66034 343.09064Q327.1916 343.09064 327.73846 343.41876L327.3791 344.40314Q326.98846 344.16876 326.61346 344.16876Q326.2541 344.16876 325.97284 344.3875Q325.7072 344.59064 325.59784 344.96564Q325.41034 345.52814 325.41034 346.1844L325.41034 349.45L324.36346 349.45ZM328.3322 351.84064L328.2072 350.85626Q328.55096 350.95 328.8166 350.95Q329.16034 350.95 329.36346 350.825Q329.5822 350.71564 329.72284 350.5125Q329.8166 350.34064 330.05096 349.71564Q330.0666 349.6375 330.1447 349.46564L327.7697 343.23126L328.91034 343.23126L330.2072 346.825Q330.4572 347.5125 330.66034 348.27814Q330.84784 347.54376 331.09784 346.85626L332.42596 343.23126L333.47284 343.23126L331.11346 349.5594Q330.72284 350.575 330.5197 350.96564Q330.23846 351.4969 329.86346 351.73126Q329.5041 351.98126 329.0041 351.98126Q328.7072 351.98126 328.3322 351.84064Z" fill-rule="nonzero"/><path fill="#000000" d="M29.550013 198.57396L21.971888 198.57396L21.971888 201.40208L20.956263 201.40208L20.956263 194.58958L21.971888 194.58958L21.971888 197.43333L29.550013 197.43333L29.550013 198.57396ZM22.175013 193.88646L20.956263 193.88646L20.956263 192.82396L22.175013 192.82396L22.175013 193.88646ZM29.550013 193.88646L23.331263 193.88646L23.331263 192.82396L29.550013 192.82396L29.550013 193.88646ZM29.550013 190.88646L23.331263 190.88646L23.331263 189.94896L24.206263 189.94896Q23.737513 189.65208 23.471888 189.16771Q23.190638 188.68333 23.190638 188.05833Q23.190638 187.37083 23.471888 186.93333Q23.753138 186.48021 24.268763 186.30833Q23.190638 185.55833 23.190638 184.38646Q23.190638 183.44896 23.706263 182.96458Q24.206263 182.46458 25.284388 182.46458L29.550013 182.46458L29.550013 183.51146L25.628138 183.51146Q25.003138 183.51146 24.721888 183.62083Q24.440638 183.71458 24.268763 183.98021Q24.096888 184.24583 24.096888 184.62083Q24.096888 185.27708 24.534388 185.71458Q24.971888 186.13646 25.940638 186.13646L29.550013 186.13646L29.550013 187.19896L25.503138 187.19896Q24.800013 187.19896 24.456263 187.46458Q24.096888 187.71458 24.096888 188.29271Q24.096888 188.74583 24.331263 189.12083Q24.565638 189.49583 25.018763 189.66771Q25.471888 189.83958 26.315638 189.83958L29.550013 189.83958L29.550013 190.88646ZM27.550013 175.63646L27.675013 174.54271Q28.628138 174.79271 29.159388 175.49583Q29.690638 176.19896 29.690638 177.27708Q29.690638 178.63646 28.846888 179.44896Q28.003138 180.24583 26.487513 180.24583Q24.925013 180.24583 24.065638 179.43333Q23.190638 178.62083 23.190638 177.33958Q23.190638 176.08958 24.034388 175.30833Q24.878138 174.51146 26.425013 174.51146Q26.518763 174.51146 26.706263 174.51146L26.706263 179.15208Q27.737513 179.08958 28.284388 178.57396Q28.815638 178.05833 28.815638 177.27708Q28.815638 176.69896 28.518763 176.29271Q28.206263 175.87083 27.550013 175.63646ZM25.846888 179.08958L25.846888 175.62083Q25.050013 175.68333 24.659388 176.01146Q24.050013 176.52708 24.050013 177.32396Q24.050013 178.05833 24.534388 178.55833Q25.018763 179.04271 25.846888 179.08958Z" fill-rule="nonzero"/><path fill="#000000" d="M65.05 300.21564Q65.05 298.6844 65.3625 297.7625Q65.675 296.825 66.28438 296.325Q66.90938 295.825 67.84688 295.825Q68.53438 295.825 69.05 296.10626Q69.58125 296.3875 69.925 296.91876Q70.26875 297.4344 70.45625 298.1844Q70.64375 298.9344 70.64375 300.21564Q70.64375 301.73126 70.33125 302.65314Q70.03438 303.575 69.40938 304.09064Q68.8 304.59064 67.84688 304.59064Q66.6125 304.59064 65.89375 303.7Q65.05 302.6375 65.05 300.21564ZM66.12813 300.21564Q66.12813 302.325 66.62813 303.02814Q67.12813 303.73126 67.84688 303.73126Q68.58125 303.73126 69.06563 303.02814Q69.56563 302.325 69.56563 300.21564Q69.56563 298.09064 69.06563 297.40314Q68.58125 296.7 67.83125 296.7Q67.1125 296.7 66.675 297.3094Q66.12813 298.09064 66.12813 300.21564Z" fill-rule="nonzero"/><path fill="#000000" d="M70.59688 269.3582L70.59688 270.3738L64.90938 270.3738Q64.90938 269.9988 65.03438 269.63943Q65.25313 269.0613 65.72188 268.4988Q66.20625 267.9363 67.1125 267.20193Q68.51875 266.0457 69.00313 265.3738Q69.50313 264.70193 69.50313 264.1082Q69.50313 263.4832 69.05 263.0613Q68.59688 262.6238 67.87813 262.6238Q67.1125 262.6238 66.65938 263.07693Q66.20625 263.53006 66.19063 264.34256L65.1125 264.2332Q65.22188 263.01443 65.94063 262.38943Q66.675 261.7488 67.90938 261.7488Q69.14375 261.7488 69.8625 262.4363Q70.58125 263.1238 70.58125 264.13943Q70.58125 264.65506 70.3625 265.15506Q70.15938 265.63943 69.65938 266.20193Q69.175 266.7488 68.05 267.70193Q67.09688 268.4988 66.81563 268.7957Q66.55 269.07693 66.37813 269.3582L70.59688 269.3582Z" fill-rule="nonzero"/><path fill="#000000" d="M68.425 236.29762L68.425 234.23512L64.70625 234.23512L64.70625 233.26637L68.62813 227.70387L69.4875 227.70387L69.4875 233.26637L70.64375 233.26637L70.64375 234.23512L69.4875 234.23512L69.4875 236.29762L68.425 236.29762ZM68.425 233.26637L68.425 229.407L65.7375 233.26637L68.425 233.26637Z" fill-rule="nonzero"/><path fill="#000000" d="M70.51875 195.73706L69.47188 195.81519Q69.33125 195.19019 69.08125 194.90894Q68.64375 194.45581 68.01875 194.45581Q67.51875 194.45581 67.12813 194.73706Q66.64375 195.11206 66.34688 195.81519Q66.06563 196.50269 66.05 197.78394Q66.425 197.20581 66.97188 196.92456Q67.53438 196.64331 68.14375 196.64331Q69.19063 196.64331 69.925 197.42456Q70.675 198.20581 70.675 199.42456Q70.675 200.23706 70.31563 200.94019Q69.97188 201.62769 69.3625 202.00269Q68.75313 202.36206 67.9875 202.36206Q66.65938 202.36206 65.83125 201.39331Q65.00313 200.42456 65.00313 198.20581Q65.00313 195.70581 65.925 194.58081Q66.72188 193.59644 68.08125 193.59644Q69.09688 193.59644 69.7375 194.17456Q70.39375 194.73706 70.51875 195.73706ZM66.22188 199.44019Q66.22188 199.98706 66.44063 200.48706Q66.675 200.97144 67.08125 201.23706Q67.50313 201.50269 67.97188 201.50269Q68.62813 201.50269 69.1125 200.97144Q69.59688 200.42456 69.59688 199.50269Q69.59688 198.61206 69.1125 198.09644Q68.64375 197.58081 67.925 197.58081Q67.20625 197.58081 66.70625 198.09644Q66.22188 198.61206 66.22188 199.44019Z" fill-rule="nonzero"/><path fill="#000000" d="M66.675 163.48898Q66.01875 163.23898 65.69063 162.80148Q65.37813 162.34836 65.37813 161.73898Q65.37813 160.80148 66.05 160.16086Q66.7375 159.52023 67.84688 159.52023Q68.97188 159.52023 69.65938 160.17648Q70.34688 160.83273 70.34688 161.77023Q70.34688 162.36398 70.03438 162.80148Q69.72188 163.23898 69.08125 163.48898Q69.87813 163.73898 70.28438 164.31711Q70.69063 164.89523 70.69063 165.69211Q70.69063 166.78586 69.90938 167.53586Q69.14375 168.28586 67.8625 168.28586Q66.59688 168.28586 65.81563 167.53586Q65.03438 166.78586 65.03438 165.66086Q65.03438 164.81711 65.45625 164.25461Q65.89375 163.69211 66.675 163.48898ZM66.45625 161.69211Q66.45625 162.30148 66.84688 162.69211Q67.25313 163.08273 67.87813 163.08273Q68.4875 163.08273 68.87813 162.70773Q69.26875 162.31711 69.26875 161.75461Q69.26875 161.17648 68.8625 160.78586Q68.45625 160.37961 67.8625 160.37961Q67.25313 160.37961 66.84688 160.77023Q66.45625 161.16086 66.45625 161.69211ZM66.12813 165.66086Q66.12813 166.11398 66.33125 166.53586Q66.55 166.95773 66.97188 167.19211Q67.39375 167.42648 67.87813 167.42648Q68.62813 167.42648 69.1125 166.94211Q69.6125 166.45773 69.6125 165.70773Q69.6125 164.94211 69.1125 164.44211Q68.6125 163.94211 67.84688 163.94211Q67.09688 163.94211 66.6125 164.44211Q66.12813 164.92648 66.12813 165.66086Z" fill-rule="nonzero"/><path fill="#000000" d="M62.01875 134.06905L60.971874 134.06905L60.971874 127.350296Q60.58125 127.70967 59.95625 128.08467Q59.346874 128.44405 58.8625 128.61592L58.8625 127.600296Q59.7375 127.17842 60.39375 126.600296Q61.065624 126.006546 61.346874 125.444046L62.01875 125.444046L62.01875 134.06905ZM65.05 129.83467Q65.05 128.30342 65.3625 127.381546Q65.675 126.444046 66.28438 125.944046Q66.90938 125.444046 67.84688 125.444046Q68.53438 125.444046 69.05 125.725296Q69.58125 126.006546 69.925 126.537796Q70.26875 127.05342 70.45625 127.80342Q70.64375 128.55342 70.64375 129.83467Q70.64375 131.3503 70.33125 132.27217Q70.03438 133.19405 69.40938 133.70967Q68.8 134.20967 67.84688 134.20967Q66.6125 134.20967 65.89375 133.31905Q65.05 132.25655 65.05 129.83467ZM66.12813 129.83467Q66.12813 131.94405 66.62813 132.64717Q67.12813 133.3503 67.84688 133.3503Q68.58125 133.3503 69.06563 132.64717Q69.56563 131.94405 69.56563 129.83467Q69.56563 127.70967 69.06563 127.02217Q68.58125 126.319046 67.83125 126.319046Q67.1125 126.319046 66.675 126.92842Q66.12813 127.70967 66.12813 129.83467Z" fill-rule="nonzero"/><path fill="#000000" d="M62.01875 99.99286L60.971874 99.99286L60.971874 93.27411Q60.58125 93.633484 59.95625 94.008484Q59.346874 94.36786 58.8625 94.539734L58.8625 93.52411Q59.7375 93.102234 60.39375 92.52411Q61.065624 91.93036 61.346874 91.36786L62.01875 91.36786L62.01875 99.99286ZM70.59688 98.977234L70.59688 99.99286L64.90938 99.99286Q64.90938 99.61786 65.03438 99.258484Q65.25313 98.68036 65.72188 98.11786Q66.20625 97.55536 67.1125 96.820984Q68.51875 95.664734 69.00313 94.99286Q69.50313 94.320984 69.50313 93.727234Q69.50313 93.102234 69.05 92.68036Q68.59688 92.24286 67.87813 92.24286Q67.1125 92.24286 66.65938 92.695984Q66.20625 93.14911 66.19063 93.96161L65.1125 93.852234Q65.22188 92.633484 65.94063 92.008484Q66.675 91.36786 67.90938 91.36786Q69.14375 91.36786 69.8625 92.05536Q70.58125 92.74286 70.58125 93.758484Q70.58125 94.27411 70.3625 94.77411Q70.15938 95.258484 69.65938 95.820984Q69.175 96.36786 68.05 97.320984Q67.09688 98.11786 66.81563 98.414734Q66.55 98.695984 66.37813 98.977234L70.59688 98.977234Z" fill-rule="nonzero"/><path fill="#000000" d="M62.01875 65.916664L60.971874 65.916664L60.971874 59.197914Q60.58125 59.55729 59.95625 59.93229Q59.346874 60.291664 58.8625 60.46354L58.8625 59.447914Q59.7375 59.02604 60.39375 58.447914Q61.065624 57.854164 61.346874 57.291664L62.01875 57.291664L62.01875 65.916664ZM68.425 65.916664L68.425 63.854164L64.70625 63.854164L64.70625 62.885414L68.62813 57.322914L69.4875 57.322914L69.4875 62.885414L70.64375 62.885414L70.64375 63.854164L69.4875 63.854164L69.4875 65.916664L68.425 65.916664ZM68.425 62.885414L68.425 59.02604L65.7375 62.885414L68.425 62.885414Z" fill-rule="nonzero"/><path fill="#000000" d="M78.51875 317.45L77.47188 317.45L77.47188 310.73126Q77.08125 311.09064 76.45625 311.46564Q75.84688 311.825 75.3625 311.9969L75.3625 310.98126Q76.2375 310.5594 76.89375 309.98126Q77.56563 309.3875 77.84688 308.825L78.51875 308.825L78.51875 317.45Z" fill-rule="nonzero"/><path fill="#000000" d="M183.07788 315.2L184.18726 315.10626Q184.31226 315.91876 184.74976 316.325Q185.20288 316.73126 185.8435 316.73126Q186.5935 316.73126 187.12476 316.15314Q187.656 315.575 187.656 314.6375Q187.656 313.73126 187.14038 313.21564Q186.64038 312.6844 185.81226 312.6844Q185.31226 312.6844 184.89038 312.91876Q184.48413 313.15314 184.24976 313.5125L183.26538 313.3875L184.0935 308.98126L188.37476 308.98126L188.37476 309.98126L184.93726 309.98126L184.48413 312.29376Q185.24976 311.7469 186.0935 311.7469Q187.2185 311.7469 187.98413 312.52814Q188.76538 313.3094 188.76538 314.54376Q188.76538 315.7 188.0935 316.5594Q187.26538 317.59064 185.8435 317.59064Q184.67163 317.59064 183.92163 316.9344Q183.18726 316.27814 183.07788 315.2Z" fill-rule="nonzero"/><path fill="#000000" d="M230.28703 317.45L229.24016 317.45L229.24016 310.73126Q228.84953 311.09064 228.22453 311.46564Q227.61516 311.825 227.13078 311.9969L227.13078 310.98126Q228.00578 310.5594 228.66203 309.98126Q229.33391 309.3875 229.61516 308.825L230.28703 308.825L230.28703 317.45ZM233.31828 313.21564Q233.31828 311.6844 233.63078 310.7625Q233.94328 309.825 234.55266 309.325Q235.17766 308.825 236.11516 308.825Q236.80266 308.825 237.31828 309.10626Q237.84953 309.3875 238.19328 309.91876Q238.53703 310.4344 238.72453 311.1844Q238.91203 311.9344 238.91203 313.21564Q238.91203 314.73126 238.59953 315.65314Q238.30266 316.575 237.67766 317.09064Q237.06828 317.59064 236.11516 317.59064Q234.88078 317.59064 234.16203 316.7Q233.31828 315.6375 233.31828 313.21564ZM234.39641 313.21564Q234.39641 315.325 234.89641 316.02814Q235.39641 316.73126 236.11516 316.73126Q236.84953 316.73126 237.33391 316.02814Q237.83391 315.325 237.83391 313.21564Q237.83391 311.09064 237.33391 310.40314Q236.84953 309.7 236.09953 309.7Q235.38078 309.7 234.94328 310.3094Q234.39641 311.09064 234.39641 313.21564Z" fill-rule="nonzero"/><path fill="#000000" d="M334.84616 315.2L335.95554 315.10626Q336.08054 315.91876 336.51804 316.325Q336.97116 316.73126 337.6118 316.73126Q338.3618 316.73126 338.89304 316.15314Q339.4243 315.575 339.4243 314.6375Q339.4243 313.73126 338.90866 313.21564Q338.40866 312.6844 337.58054 312.6844Q337.08054 312.6844 336.65866 312.91876Q336.2524 313.15314 336.01804 313.5125L335.03366 313.3875L335.8618 308.98126L340.14304 308.98126L340.14304 309.98126L336.70554 309.98126L336.2524 312.29376Q337.01804 311.7469 337.8618 311.7469Q338.9868 311.7469 339.7524 312.52814Q340.53366 313.3094 340.53366 314.54376Q340.53366 315.7 339.8618 316.5594Q339.03366 317.59064 337.6118 317.59064Q336.4399 317.59064 335.6899 316.9344Q334.95554 316.27814 334.84616 315.2ZM341.84616 313.21564Q341.84616 311.6844 342.15866 310.7625Q342.47116 309.825 343.08054 309.325Q343.70554 308.825 344.64304 308.825Q345.33054 308.825 345.84616 309.10626Q346.3774 309.3875 346.72116 309.91876Q347.0649 310.4344 347.2524 311.1844Q347.4399 311.9344 347.4399 313.21564Q347.4399 314.73126 347.1274 315.65314Q346.83054 316.575 346.20554 317.09064Q345.59616 317.59064 344.64304 317.59064Q343.40866 317.59064 342.6899 316.7Q341.84616 315.6375 341.84616 313.21564ZM342.9243 313.21564Q342.9243 315.325 343.4243 316.02814Q343.9243 316.73126 344.64304 316.73126Q345.3774 316.73126 345.8618 316.02814Q346.3618 315.325 346.3618 313.21564Q346.3618 311.09064 345.8618 310.40314Q345.3774 309.7 344.6274 309.7Q343.90866 309.7 343.47116 310.3094Q342.9243 311.09064 342.9243 313.21564Z" fill-rule="nonzero"/><path fill="#000000" d="M382.05533 317.45L381.00845 317.45L381.00845 310.73126Q380.61783 311.09064 379.99283 311.46564Q379.38345 311.825 378.89908 311.9969L378.89908 310.98126Q379.77408 310.5594 380.43033 309.98126Q381.1022 309.3875 381.38345 308.825L382.05533 308.825L382.05533 317.45ZM385.08658 313.21564Q385.08658 311.6844 385.39908 310.7625Q385.71158 309.825 386.32095 309.325Q386.94595 308.825 387.88345 308.825Q388.57095 308.825 389.08658 309.10626Q389.61783 309.3875 389.96158 309.91876Q390.30533 310.4344 390.49283 311.1844Q390.68033 311.9344 390.68033 313.21564Q390.68033 314.73126 390.36783 315.65314Q390.07095 316.575 389.44595 317.09064Q388.83658 317.59064 387.88345 317.59064Q386.64908 317.59064 385.93033 316.7Q385.08658 315.6375 385.08658 313.21564ZM386.1647 313.21564Q386.1647 315.325 386.6647 316.02814Q387.1647 316.73126 387.88345 316.73126Q388.61783 316.73126 389.1022 316.02814Q389.6022 315.325 389.6022 313.21564Q389.6022 311.09064 389.1022 310.40314Q388.61783 309.7 387.86783 309.7Q387.14908 309.7 386.71158 310.3094Q386.1647 311.09064 386.1647 313.21564ZM392.08658 313.21564Q392.08658 311.6844 392.39908 310.7625Q392.71158 309.825 393.32095 309.325Q393.94595 308.825 394.88345 308.825Q395.57095 308.825 396.08658 309.10626Q396.61783 309.3875 396.96158 309.91876Q397.30533 310.4344 397.49283 311.1844Q397.68033 311.9344 397.68033 313.21564Q397.68033 314.73126 397.36783 315.65314Q397.07095 316.575 396.44595 317.09064Q395.83658 317.59064 394.88345 317.59064Q393.64908 317.59064 392.93033 316.7Q392.08658 315.6375 392.08658 313.21564ZM393.1647 313.21564Q393.1647 315.325 393.6647 316.02814Q394.1647 316.73126 394.88345 316.73126Q395.61783 316.73126 396.1022 316.02814Q396.6022 315.325 396.6022 313.21564Q396.6022 311.09064 396.1022 310.40314Q395.61783 309.7 394.86783 309.7Q394.14908 309.7 393.71158 310.3094Q393.1647 311.09064 393.1647 313.21564Z" fill-rule="nonzero"/><path fill="#000000" d="M486.61444 315.2L487.72382 315.10626Q487.84882 315.91876 488.28632 316.325Q488.73944 316.73126 489.38007 316.73126Q490.13007 316.73126 490.66132 316.15314Q491.19257 315.575 491.19257 314.6375Q491.19257 313.73126 490.67694 313.21564Q490.17694 312.6844 489.34882 312.6844Q488.84882 312.6844 488.42694 312.91876Q488.0207 313.15314 487.78632 313.5125L486.80194 313.3875L487.63007 308.98126L491.91132 308.98126L491.91132 309.98126L488.47382 309.98126L488.0207 312.29376Q488.78632 311.7469 489.63007 311.7469Q490.75507 311.7469 491.5207 312.52814Q492.30194 313.3094 492.30194 314.54376Q492.30194 315.7 491.63007 316.5594Q490.80194 317.59064 489.38007 317.59064Q488.2082 317.59064 487.4582 316.9344Q486.72382 316.27814 486.61444 315.2ZM493.61444 313.21564Q493.61444 311.6844 493.92694 310.7625Q494.23944 309.825 494.84882 309.325Q495.47382 308.825 496.41132 308.825Q497.09882 308.825 497.61444 309.10626Q498.1457 309.3875 498.48944 309.91876Q498.8332 310.4344 499.0207 311.1844Q499.2082 311.9344 499.2082 313.21564Q499.2082 314.73126 498.8957 315.65314Q498.59882 316.575 497.97382 317.09064Q497.36444 317.59064 496.41132 317.59064Q495.17694 317.59064 494.4582 316.7Q493.61444 315.6375 493.61444 313.21564ZM494.69257 313.21564Q494.69257 315.325 495.19257 316.02814Q495.69257 316.73126 496.41132 316.73126Q497.1457 316.73126 497.63007 316.02814Q498.13007 315.325 498.13007 313.21564Q498.13007 311.09064 497.63007 310.40314Q497.1457 309.7 496.3957 309.7Q495.67694 309.7 495.23944 310.3094Q494.69257 311.09064 494.69257 313.21564ZM500.61444 313.21564Q500.61444 311.6844 500.92694 310.7625Q501.23944 309.825 501.84882 309.325Q502.47382 308.825 503.41132 308.825Q504.09882 308.825 504.61444 309.10626Q505.1457 309.3875 505.48944 309.91876Q505.8332 310.4344 506.0207 311.1844Q506.2082 311.9344 506.2082 313.21564Q506.2082 314.73126 505.8957 315.65314Q505.59882 316.575 504.97382 317.09064Q504.36444 317.59064 503.41132 317.59064Q502.17694 317.59064 501.4582 316.7Q500.61444 315.6375 500.61444 313.21564ZM501.69257 313.21564Q501.69257 315.325 502.19257 316.02814Q502.69257 316.73126 503.41132 316.73126Q504.1457 316.73126 504.63007 316.02814Q505.13007 315.325 505.13007 313.21564Q505.13007 311.09064 504.63007 310.40314Q504.1457 309.7 503.3957 309.7Q502.67694 309.7 502.23944 310.3094Q501.69257 311.09064 501.69257 313.21564Z" fill-rule="nonzero"/><path stroke="#4285f4" stroke-width="4.0" stroke-linecap="butt" d="M516.45 61.916668L528.45 61.916668" fill-rule="nonzero"/><path fill="#1a1a1a" d="M536.825 64.05729L537.85626 63.90104Q537.95 64.52604 538.34064 64.854164Q538.7469 65.18229 539.48126 65.18229Q540.2 65.18229 540.54376 64.90104Q540.90314 64.604164 540.90314 64.197914Q540.90314 63.83854 540.59064 63.635414Q540.3719 63.49479 539.5125 63.27604Q538.35626 62.979164 537.90314 62.77604Q537.46564 62.55729 537.23126 62.18229Q536.9969 61.80729 536.9969 61.33854Q536.9969 60.93229 537.1844 60.572914Q537.3719 60.21354 537.7 59.979164Q537.95 59.80729 538.3719 59.68229Q538.79376 59.55729 539.29376 59.55729Q540.0125 59.55729 540.5594 59.77604Q541.1219 59.979164 541.3875 60.33854Q541.65314 60.697914 541.7469 61.291664L540.71564 61.43229Q540.65314 60.96354 540.3094 60.697914Q539.98126 60.416664 539.35626 60.416664Q538.6375 60.416664 538.325 60.666664Q538.0125 60.90104 538.0125 61.229164Q538.0125 61.43229 538.1375 61.58854Q538.27814 61.760414 538.54376 61.86979Q538.7 61.93229 539.48126 62.135414Q540.60626 62.447914 541.04376 62.635414Q541.48126 62.822914 541.73126 63.18229Q541.98126 63.541664 541.98126 64.08854Q541.98126 64.61979 541.66876 65.08854Q541.3719 65.541664 540.79376 65.80729Q540.21564 66.05729 539.48126 66.05729Q538.2625 66.05729 537.6219 65.55729Q536.9969 65.041664 536.825 64.05729ZM547.91876 65.916664L546.8719 65.916664L546.8719 59.197914Q546.48126 59.55729 545.85626 59.93229Q545.2469 60.291664 544.7625 60.46354L544.7625 59.447914Q545.6375 59.02604 546.29376 58.447914Q546.96564 57.854164 547.2469 57.291664L547.91876 57.291664L547.91876 65.916664ZM550.95 61.68229Q550.95 60.15104 551.2625 59.229164Q551.575 58.291664 552.1844 57.791664Q552.8094 57.291664 553.7469 57.291664Q554.4344 57.291664 554.95 57.572914Q555.48126 57.854164 555.825 58.385414Q556.16876 58.90104 556.35626 59.65104Q556.54376 60.40104 556.54376 61.68229Q556.54376 63.197914 556.23126 64.11979Q555.9344 65.041664 555.3094 65.55729Q554.7 66.05729 553.7469 66.05729Q552.5125 66.05729 551.79376 65.166664Q550.95 64.104164 550.95 61.68229ZM552.02814 61.68229Q552.02814 63.791664 552.52814 64.49479Q553.02814 65.197914 553.7469 65.197914Q554.48126 65.197914 554.96564 64.49479Q555.46564 63.791664 555.46564 61.68229Q555.46564 59.55729 554.96564 58.86979Q554.48126 58.166664 553.73126 58.166664Q553.0125 58.166664 552.575 58.77604Q552.02814 59.55729 552.02814 61.68229ZM557.95 61.68229Q557.95 60.15104 558.2625 59.229164Q558.575 58.291664 559.1844 57.791664Q559.8094 57.291664 560.7469 57.291664Q561.4344 57.291664 561.95 57.572914Q562.48126 57.854164 562.825 58.385414Q563.16876 58.90104 563.35626 59.65104Q563.54376 60.40104 563.54376 61.68229Q563.54376 63.197914 563.23126 64.11979Q562.9344 65.041664 562.3094 65.55729Q561.7 66.05729 560.7469 66.05729Q559.5125 66.05729 558.79376 65.166664Q557.95 64.104164 557.95 61.68229ZM559.02814 61.68229Q559.02814 63.791664 559.52814 64.49479Q560.02814 65.197914 560.7469 65.197914Q561.48126 65.197914 561.96564 64.49479Q562.46564 63.791664 562.46564 61.68229Q562.46564 59.55729 561.96564 58.86979Q561.48126 58.166664 560.73126 58.166664Q560.0125 58.166664 559.575 58.77604Q559.02814 59.55729 559.02814 61.68229ZM565.2469 65.916664L565.2469 57.322914L566.3094 57.322914L566.3094 62.229164L568.79376 59.697914L570.16876 59.697914L567.77814 61.99479L570.40314 65.916664L569.10626 65.916664L567.04376 62.729164L566.3094 63.447914L566.3094 65.916664L565.2469 65.916664Z" fill-rule="nonzero"/><path stroke="#ea4335" stroke-width="4.0" stroke-linecap="butt" d="M516.45 85.916664L528.45 85.916664" fill-rule="nonzero"/><path fill="#1a1a1a" d="M536.825 88.05729L537.85626 87.90104Q537.95 88.52604 538.34064 88.854164Q538.7469 89.18229 539.48126 89.18229Q540.2 89.18229 540.54376 88.90104Q540.90314 88.604164 540.90314 88.197914Q540.90314 87.83854 540.59064 87.635414Q540.3719 87.49479 539.5125 87.27604Q538.35626 86.979164 537.90314 86.77604Q537.46564 86.55729 537.23126 86.18229Q536.9969 85.80729 536.9969 85.33854Q536.9969 84.93229 537.1844 84.572914Q537.3719 84.21354 537.7 83.979164Q537.95 83.80729 538.3719 83.68229Q538.79376 83.55729 539.29376 83.55729Q540.0125 83.55729 540.5594 83.77604Q541.1219 83.979164 541.3875 84.33854Q541.65314 84.697914 541.7469 85.291664L540.71564 85.43229Q540.65314 84.96354 540.3094 84.697914Q539.98126 84.416664 539.35626 84.416664Q538.6375 84.416664 538.325 84.666664Q538.0125 84.90104 538.0125 85.229164Q538.0125 85.43229 538.1375 85.58854Q538.27814 85.760414 538.54376 85.86979Q538.7 85.93229 539.48126 86.135414Q540.60626 86.447914 541.04376 86.635414Q541.48126 86.822914 541.73126 87.18229Q541.98126 87.541664 541.98126 88.08854Q541.98126 88.61979 541.66876 89.08854Q541.3719 89.541664 540.79376 89.80729Q540.21564 90.05729 539.48126 90.05729Q538.2625 90.05729 537.6219 89.55729Q536.9969 89.041664 536.825 88.05729ZM547.91876 89.916664L546.8719 89.916664L546.8719 83.197914Q546.48126 83.55729 545.85626 83.93229Q545.2469 84.291664 544.7625 84.46354L544.7625 83.447914Q545.6375 83.02604 546.29376 82.447914Q546.96564 81.854164 547.2469 81.291664L547.91876 81.291664L547.91876 89.916664ZM550.95 85.68229Q550.95 84.15104 551.2625 83.229164Q551.575 82.291664 552.1844 81.791664Q552.8094 81.291664 553.7469 81.291664Q554.4344 81.291664 554.95 81.572914Q555.48126 81.854164 555.825 82.385414Q556.16876 82.90104 556.35626 83.65104Q556.54376 84.40104 556.54376 85.68229Q556.54376 87.197914 556.23126 88.11979Q555.9344 89.041664 555.3094 89.55729Q554.7 90.05729 553.7469 90.05729Q552.5125 90.05729 551.79376 89.166664Q550.95 88.104164 550.95 85.68229ZM552.02814 85.68229Q552.02814 87.791664 552.52814 88.49479Q553.02814 89.197914 553.7469 89.197914Q554.48126 89.197914 554.96564 88.49479Q555.46564 87.791664 555.46564 85.68229Q555.46564 83.55729 554.96564 82.86979Q554.48126 82.166664 553.73126 82.166664Q553.0125 82.166664 552.575 82.77604Q552.02814 83.55729 552.02814 85.68229ZM558.2469 89.916664L558.2469 81.322914L559.3094 81.322914L559.3094 86.229164L561.79376 83.697914L563.16876 83.697914L560.77814 85.99479L563.40314 89.916664L562.10626 89.916664L560.04376 86.729164L559.3094 87.447914L559.3094 89.916664L558.2469 89.916664Z" fill-rule="nonzero"/><path stroke="#fbbc04" stroke-width="4.0" stroke-linecap="butt" d="M516.45 109.916664L528.45 109.916664" fill-rule="nonzero"/><path fill="#1a1a1a" d="M536.825 112.05729L537.85626 111.90104Q537.95 112.52604 538.34064 112.854164Q538.7469 113.18229 539.48126 113.18229Q540.2 113.18229 540.54376 112.90104Q540.90314 112.604164 540.90314 112.197914Q540.90314 111.83854 540.59064 111.635414Q540.3719 111.49479 539.5125 111.27604Q538.35626 110.979164 537.90314 110.77604Q537.46564 110.55729 537.23126 110.18229Q536.9969 109.80729 536.9969 109.33854Q536.9969 108.93229 537.1844 108.572914Q537.3719 108.21354 537.7 107.979164Q537.95 107.80729 538.3719 107.68229Q538.79376 107.55729 539.29376 107.55729Q540.0125 107.55729 540.5594 107.77604Q541.1219 107.979164 541.3875 108.33854Q541.65314 108.697914 541.7469 109.291664L540.71564 109.43229Q540.65314 108.96354 540.3094 108.697914Q539.98126 108.416664 539.35626 108.416664Q538.6375 108.416664 538.325 108.666664Q538.0125 108.90104 538.0125 109.229164Q538.0125 109.43229 538.1375 109.58854Q538.27814 109.760414 538.54376 109.86979Q538.7 109.93229 539.48126 110.135414Q540.60626 110.447914 541.04376 110.635414Q541.48126 110.822914 541.73126 111.18229Q541.98126 111.541664 541.98126 112.08854Q541.98126 112.61979 541.66876 113.08854Q541.3719 113.541664 540.79376 113.80729Q540.21564 114.05729 539.48126 114.05729Q538.2625 114.05729 537.6219 113.55729Q536.9969 113.041664 536.825 112.05729ZM547.91876 113.916664L546.8719 113.916664L546.8719 107.197914Q546.48126 107.55729 545.85626 107.93229Q545.2469 108.291664 544.7625 108.46354L544.7625 107.447914Q545.6375 107.02604 546.29376 106.447914Q546.96564 105.854164 547.2469 105.291664L547.91876 105.291664L547.91876 113.916664ZM551.2469 113.916664L551.2469 105.322914L552.3094 105.322914L552.3094 110.229164L554.79376 107.697914L556.16876 107.697914L553.77814 109.99479L556.40314 113.916664L555.10626 113.916664L553.04376 110.729164L552.3094 111.447914L552.3094 113.916664L551.2469 113.916664Z" fill-rule="nonzero"/><path stroke="#34a853" stroke-width="4.0" stroke-linecap="butt" d="M516.45 133.91667L528.45 133.91667" fill-rule="nonzero"/><path fill="#1a1a1a" d="M536.825 136.0573L537.85626 135.90105Q537.95 136.52605 538.34064 136.85417Q538.7469 137.1823 539.48126 137.1823Q540.2 137.1823 540.54376 136.90105Q540.90314 136.60417 540.90314 136.19792Q540.90314 135.83855 540.59064 135.63542Q540.3719 135.4948 539.5125 135.27605Q538.35626 134.97917 537.90314 134.77605Q537.46564 134.5573 537.23126 134.1823Q536.9969 133.8073 536.9969 133.33855Q536.9969 132.9323 537.1844 132.57292Q537.3719 132.21355 537.7 131.97917Q537.95 131.8073 538.3719 131.6823Q538.79376 131.5573 539.29376 131.5573Q540.0125 131.5573 540.5594 131.77605Q541.1219 131.97917 541.3875 132.33855Q541.65314 132.69792 541.7469 133.29167L540.71564 133.4323Q540.65314 132.96355 540.3094 132.69792Q539.98126 132.41667 539.35626 132.41667Q538.6375 132.41667 538.325 132.66667Q538.0125 132.90105 538.0125 133.22917Q538.0125 133.4323 538.1375 133.58855Q538.27814 133.76042 538.54376 133.8698Q538.7 133.9323 539.48126 134.13542Q540.60626 134.44792 541.04376 134.63542Q541.48126 134.82292 541.73126 135.1823Q541.98126 135.54167 541.98126 136.08855Q541.98126 136.6198 541.66876 137.08855Q541.3719 137.54167 540.79376 137.8073Q540.21564 138.0573 539.48126 138.0573Q538.2625 138.0573 537.6219 137.5573Q536.9969 137.04167 536.825 136.0573ZM547.91876 137.91667L546.8719 137.91667L546.8719 131.19792Q546.48126 131.5573 545.85626 131.9323Q545.2469 132.29167 544.7625 132.46355L544.7625 131.44792Q545.6375 131.02605 546.29376 130.44792Q546.96564 129.85417 547.2469 129.29167L547.91876 129.29167L547.91876 137.91667ZM550.95 133.6823Q550.95 132.15105 551.2625 131.22917Q551.575 130.29167 552.1844 129.79167Q552.8094 129.29167 553.7469 129.29167Q554.4344 129.29167 554.95 129.57292Q555.48126 129.85417 555.825 130.38542Q556.16876 130.90105 556.35626 131.65105Q556.54376 132.40105 556.54376 133.6823Q556.54376 135.19792 556.23126 136.1198Q555.9344 137.04167 555.3094 137.5573Q554.7 138.0573 553.7469 138.0573Q552.5125 138.0573 551.79376 137.16667Q550.95 136.10417 550.95 133.6823ZM552.02814 133.6823Q552.02814 135.79167 552.52814 136.4948Q553.02814 137.19792 553.7469 137.19792Q554.48126 137.19792 554.96564 136.4948Q555.46564 135.79167 555.46564 133.6823Q555.46564 131.5573 554.96564 130.8698Q554.48126 130.16667 553.73126 130.16667Q553.0125 130.16667 552.575 130.77605Q552.02814 131.5573 552.02814 133.6823ZM557.95 133.6823Q557.95 132.15105 558.2625 131.22917Q558.575 130.29167 559.1844 129.79167Q559.8094 129.29167 560.7469 129.29167Q561.4344 129.29167 561.95 129.57292Q562.48126 129.85417 562.825 130.38542Q563.16876 130.90105 563.35626 131.65105Q563.54376 132.40105 563.54376 133.6823Q563.54376 135.19792 563.23126 136.1198Q562.9344 137.04167 562.3094 137.5573Q561.7 138.0573 560.7469 138.0573Q559.5125 138.0573 558.79376 137.16667Q557.95 136.10417 557.95 133.6823ZM559.02814 133.6823Q559.02814 135.79167 559.52814 136.4948Q560.02814 137.19792 560.7469 137.19792Q561.48126 137.19792 561.96564 136.4948Q562.46564 135.79167 562.46564 133.6823Q562.46564 131.5573 561.96564 130.8698Q561.48126 130.16667 560.73126 130.16667Q560.0125 130.16667 559.575 130.77605Q559.02814 131.5573 559.02814 133.6823Z" fill-rule="nonzero"/><path stroke="#ff6d01" stroke-width="4.0" stroke-linecap="butt" d="M516.45 157.91667L528.45 157.91667" fill-rule="nonzero"/><path fill="#1a1a1a" d="M536.825 160.0573L537.85626 159.90105Q537.95 160.52605 538.34064 160.85417Q538.7469 161.1823 539.48126 161.1823Q540.2 161.1823 540.54376 160.90105Q540.90314 160.60417 540.90314 160.19792Q540.90314 159.83855 540.59064 159.63542Q540.3719 159.4948 539.5125 159.27605Q538.35626 158.97917 537.90314 158.77605Q537.46564 158.5573 537.23126 158.1823Q536.9969 157.8073 536.9969 157.33855Q536.9969 156.9323 537.1844 156.57292Q537.3719 156.21355 537.7 155.97917Q537.95 155.8073 538.3719 155.6823Q538.79376 155.5573 539.29376 155.5573Q540.0125 155.5573 540.5594 155.77605Q541.1219 155.97917 541.3875 156.33855Q541.65314 156.69792 541.7469 157.29167L540.71564 157.4323Q540.65314 156.96355 540.3094 156.69792Q539.98126 156.41667 539.35626 156.41667Q538.6375 156.41667 538.325 156.66667Q538.0125 156.90105 538.0125 157.22917Q538.0125 157.4323 538.1375 157.58855Q538.27814 157.76042 538.54376 157.8698Q538.7 157.9323 539.48126 158.13542Q540.60626 158.44792 541.04376 158.63542Q541.48126 158.82292 541.73126 159.1823Q541.98126 159.54167 541.98126 160.08855Q541.98126 160.6198 541.66876 161.08855Q541.3719 161.54167 540.79376 161.8073Q540.21564 162.0573 539.48126 162.0573Q538.2625 162.0573 537.6219 161.5573Q536.9969 161.04167 536.825 160.0573ZM547.325 161.91667L547.325 159.85417L543.60626 159.85417L543.60626 158.88542L547.52814 153.32292L548.3875 153.32292L548.3875 158.88542L549.54376 158.88542L549.54376 159.85417L548.3875 159.85417L548.3875 161.91667L547.325 161.91667ZM547.325 158.88542L547.325 155.02605L544.6375 158.88542L547.325 158.88542ZM550.95 157.6823Q550.95 156.15105 551.2625 155.22917Q551.575 154.29167 552.1844 153.79167Q552.8094 153.29167 553.7469 153.29167Q554.4344 153.29167 554.95 153.57292Q555.48126 153.85417 555.825 154.38542Q556.16876 154.90105 556.35626 155.65105Q556.54376 156.40105 556.54376 157.6823Q556.54376 159.19792 556.23126 160.1198Q555.9344 161.04167 555.3094 161.5573Q554.7 162.0573 553.7469 162.0573Q552.5125 162.0573 551.79376 161.16667Q550.95 160.10417 550.95 157.6823ZM552.02814 157.6823Q552.02814 159.79167 552.52814 160.4948Q553.02814 161.19792 553.7469 161.19792Q554.48126 161.19792 554.96564 160.4948Q555.46564 159.79167 555.46564 157.6823Q555.46564 155.5573 554.96564 154.8698Q554.48126 154.16667 553.73126 154.16667Q553.0125 154.16667 552.575 154.77605Q552.02814 155.5573 552.02814 157.6823Z" fill-rule="nonzero"/><path stroke="#46bdc6" stroke-width="4.0" stroke-linecap="butt" d="M516.45 181.91667L528.45 181.91667" fill-rule="nonzero"/><path fill="#1a1a1a" d="M536.825 184.0573L537.85626 183.90105Q537.95 184.52605 538.34064 184.85417Q538.7469 185.1823 539.48126 185.1823Q540.2 185.1823 540.54376 184.90105Q540.90314 184.60417 540.90314 184.19792Q540.90314 183.83855 540.59064 183.63542Q540.3719 183.4948 539.5125 183.27605Q538.35626 182.97917 537.90314 182.77605Q537.46564 182.5573 537.23126 182.1823Q536.9969 181.8073 536.9969 181.33855Q536.9969 180.9323 537.1844 180.57292Q537.3719 180.21355 537.7 179.97917Q537.95 179.8073 538.3719 179.6823Q538.79376 179.5573 539.29376 179.5573Q540.0125 179.5573 540.5594 179.77605Q541.1219 179.97917 541.3875 180.33855Q541.65314 180.69792 541.7469 181.29167L540.71564 181.4323Q540.65314 180.96355 540.3094 180.69792Q539.98126 180.41667 539.35626 180.41667Q538.6375 180.41667 538.325 180.66667Q538.0125 180.90105 538.0125 181.22917Q538.0125 181.4323 538.1375 181.58855Q538.27814 181.76042 538.54376 181.8698Q538.7 181.9323 539.48126 182.13542Q540.60626 182.44792 541.04376 182.63542Q541.48126 182.82292 541.73126 183.1823Q541.98126 183.54167 541.98126 184.08855Q541.98126 184.6198 541.66876 185.08855Q541.3719 185.54167 540.79376 185.8073Q540.21564 186.0573 539.48126 186.0573Q538.2625 186.0573 537.6219 185.5573Q536.9969 185.04167 536.825 184.0573ZM549.4969 184.90105L549.4969 185.91667L543.8094 185.91667Q543.8094 185.54167 543.9344 185.1823Q544.15314 184.60417 544.6219 184.04167Q545.10626 183.47917 546.0125 182.7448Q547.41876 181.58855 547.90314 180.91667Q548.40314 180.2448 548.40314 179.65105Q548.40314 179.02605 547.95 178.60417Q547.4969 178.16667 546.77814 178.16667Q546.0125 178.16667 545.5594 178.6198Q545.10626 179.07292 545.09064 179.88542L544.0125 179.77605Q544.1219 178.5573 544.84064 177.9323Q545.575 177.29167 546.8094 177.29167Q548.04376 177.29167 548.7625 177.97917Q549.48126 178.66667 549.48126 179.6823Q549.48126 180.19792 549.2625 180.69792Q549.0594 181.1823 548.5594 181.7448Q548.075 182.29167 546.95 183.2448Q545.9969 184.04167 545.71564 184.33855Q545.45 184.6198 545.27814 184.90105L549.4969 184.90105ZM550.95 181.6823Q550.95 180.15105 551.2625 179.22917Q551.575 178.29167 552.1844 177.79167Q552.8094 177.29167 553.7469 177.29167Q554.4344 177.29167 554.95 177.57292Q555.48126 177.85417 555.825 178.38542Q556.16876 178.90105 556.35626 179.65105Q556.54376 180.40105 556.54376 181.6823Q556.54376 183.19792 556.23126 184.1198Q555.9344 185.04167 555.3094 185.5573Q554.7 186.0573 553.7469 186.0573Q552.5125 186.0573 551.79376 185.16667Q550.95 184.10417 550.95 181.6823ZM552.02814 181.6823Q552.02814 183.79167 552.52814 184.4948Q553.02814 185.19792 553.7469 185.19792Q554.48126 185.19792 554.96564 184.4948Q555.46564 183.79167 555.46564 181.6823Q555.46564 179.5573 554.96564 178.8698Q554.48126 178.16667 553.73126 178.16667Q553.0125 178.16667 552.575 178.77605Q552.02814 179.5573 552.02814 181.6823Z" fill-rule="nonzero"/><path stroke="#000000" stroke-width="4.0" stroke-linecap="butt" d="M516.45 205.91667L528.45 205.91667" fill-rule="nonzero"/><path fill="#1a1a1a" d="M537.325 209.91667L537.325 201.32292L540.5594 201.32292Q541.54376 201.32292 542.1375 201.58855Q542.73126 201.85417 543.0594 202.40105Q543.40314 202.9323 543.40314 203.52605Q543.40314 204.07292 543.10626 204.5573Q542.8094 205.04167 542.2 205.33855Q542.98126 205.57292 543.3875 206.13542Q543.8094 206.6823 543.8094 207.4323Q543.8094 208.02605 543.5594 208.5573Q543.3094 209.07292 542.9344 209.35417Q542.5594 209.63542 541.98126 209.77605Q541.41876 209.91667 540.60626 209.91667L537.325 209.91667ZM538.46564 204.9323L540.325 204.9323Q541.075 204.9323 541.40314 204.83855Q541.84064 204.71355 542.0594 204.41667Q542.27814 204.10417 542.27814 203.65105Q542.27814 203.22917 542.075 202.90105Q541.8719 202.57292 541.48126 202.46355Q541.10626 202.33855 540.1844 202.33855L538.46564 202.33855L538.46564 204.9323ZM538.46564 208.90105L540.60626 208.90105Q541.15314 208.90105 541.3719 208.85417Q541.77814 208.79167 542.02814 208.63542Q542.29376 208.46355 542.46564 208.15105Q542.6375 207.83855 542.6375 207.4323Q542.6375 206.94792 542.3875 206.58855Q542.15314 206.22917 541.71564 206.08855Q541.27814 205.94792 540.45 205.94792L538.46564 205.94792L538.46564 208.90105ZM549.3094 209.15105Q548.71564 209.65105 548.16876 209.85417Q547.6375 210.0573 547.0125 210.0573Q545.98126 210.0573 545.4344 209.5573Q544.8875 209.0573 544.8875 208.27605Q544.8875 207.82292 545.09064 207.44792Q545.29376 207.0573 545.6375 206.83855Q545.98126 206.60417 546.40314 206.4948Q546.7 206.40105 547.34064 206.32292Q548.60626 206.1823 549.21564 205.96355Q549.21564 205.7448 549.21564 205.69792Q549.21564 205.04167 548.91876 204.77605Q548.5125 204.4323 547.71564 204.4323Q546.98126 204.4323 546.6219 204.69792Q546.2625 204.94792 546.09064 205.60417L545.0594 205.46355Q545.2 204.8073 545.52814 204.40105Q545.85626 203.9948 546.46564 203.77605Q547.075 203.5573 547.8719 203.5573Q548.66876 203.5573 549.16876 203.7448Q549.66876 203.9323 549.90314 204.21355Q550.1375 204.4948 550.23126 204.9323Q550.27814 205.19792 550.27814 205.90105L550.27814 207.3073Q550.27814 208.77605 550.34064 209.16667Q550.41876 209.5573 550.6219 209.91667L549.5125 209.91667Q549.35626 209.58855 549.3094 209.15105ZM549.21564 206.79167Q548.6375 207.02605 547.4969 207.19792Q546.84064 207.29167 546.575 207.41667Q546.3094 207.52605 546.15314 207.7448Q546.0125 207.96355 546.0125 208.2448Q546.0125 208.66667 546.325 208.94792Q546.65314 209.22917 547.2625 209.22917Q547.8719 209.22917 548.34064 208.96355Q548.825 208.69792 549.04376 208.22917Q549.21564 207.8698 549.21564 207.1823L549.21564 206.79167ZM551.825 208.0573L552.85626 207.90105Q552.95 208.52605 553.34064 208.85417Q553.7469 209.1823 554.48126 209.1823Q555.2 209.1823 555.54376 208.90105Q555.90314 208.60417 555.90314 208.19792Q555.90314 207.83855 555.59064 207.63542Q555.3719 207.4948 554.5125 207.27605Q553.35626 206.97917 552.90314 206.77605Q552.46564 206.5573 552.23126 206.1823Q551.9969 205.8073 551.9969 205.33855Q551.9969 204.9323 552.1844 204.57292Q552.3719 204.21355 552.7 203.97917Q552.95 203.8073 553.3719 203.6823Q553.79376 203.5573 554.29376 203.5573Q555.0125 203.5573 555.5594 203.77605Q556.1219 203.97917 556.3875 204.33855Q556.65314 204.69792 556.7469 205.29167L555.71564 205.4323Q555.65314 204.96355 555.3094 204.69792Q554.98126 204.41667 554.35626 204.41667Q553.6375 204.41667 553.325 204.66667Q553.0125 204.90105 553.0125 205.22917Q553.0125 205.4323 553.1375 205.58855Q553.27814 205.76042 553.54376 205.8698Q553.7 205.9323 554.48126 206.13542Q555.60626 206.44792 556.04376 206.63542Q556.48126 206.82292 556.73126 207.1823Q556.98126 207.54167 556.98126 208.08855Q556.98126 208.6198 556.66876 209.08855Q556.3719 209.54167 555.79376 209.8073Q555.21564 210.0573 554.48126 210.0573Q553.2625 210.0573 552.6219 209.5573Q551.9969 209.04167 551.825 208.0573ZM563.4969 207.91667L564.59064 208.04167Q564.34064 208.9948 563.6375 209.52605Q562.9344 210.0573 561.85626 210.0573Q560.4969 210.0573 559.6844 209.21355Q558.8875 208.3698 558.8875 206.85417Q558.8875 205.29167 559.7 204.4323Q560.5125 203.5573 561.79376 203.5573Q563.04376 203.5573 563.825 204.40105Q564.6219 205.2448 564.6219 206.79167Q564.6219 206.88542 564.6219 207.07292L559.98126 207.07292Q560.04376 208.10417 560.5594 208.65105Q561.075 209.1823 561.85626 209.1823Q562.4344 209.1823 562.84064 208.88542Q563.2625 208.57292 563.4969 207.91667ZM560.04376 206.21355L563.5125 206.21355Q563.45 205.41667 563.1219 205.02605Q562.60626 204.41667 561.8094 204.41667Q561.075 204.41667 560.575 204.90105Q560.09064 205.38542 560.04376 206.21355ZM566.21564 209.91667L566.21564 201.32292L567.27814 201.32292L567.27814 209.91667L566.21564 209.91667ZM569.2469 202.54167L569.2469 201.32292L570.3094 201.32292L570.3094 202.54167L569.2469 202.54167ZM569.2469 209.91667L569.2469 203.69792L570.3094 203.69792L570.3094 209.91667L569.2469 209.91667ZM572.2469 209.91667L572.2469 203.69792L573.1844 203.69792L573.1844 204.57292Q573.8719 203.5573 575.16876 203.5573Q575.73126 203.5573 576.2 203.76042Q576.6844 203.96355 576.91876 204.29167Q577.15314 204.6198 577.2469 205.0573Q577.29376 205.35417 577.29376 206.08855L577.29376 209.91667L576.2469 209.91667L576.2469 206.13542Q576.2469 205.47917 576.1219 205.16667Q575.9969 204.85417 575.6844 204.66667Q575.3719 204.46355 574.95 204.46355Q574.27814 204.46355 573.77814 204.90105Q573.29376 205.32292 573.29376 206.51042L573.29376 209.91667L572.2469 209.91667ZM583.4969 207.91667L584.59064 208.04167Q584.34064 208.9948 583.6375 209.52605Q582.9344 210.0573 581.85626 210.0573Q580.4969 210.0573 579.6844 209.21355Q578.8875 208.3698 578.8875 206.85417Q578.8875 205.29167 579.7 204.4323Q580.5125 203.5573 581.79376 203.5573Q583.04376 203.5573 583.825 204.40105Q584.6219 205.2448 584.6219 206.79167Q584.6219 206.88542 584.6219 207.07292L579.98126 207.07292Q580.04376 208.10417 580.5594 208.65105Q581.075 209.1823 581.85626 209.1823Q582.4344 209.1823 582.84064 208.88542Q583.2625 208.57292 583.4969 207.91667ZM580.04376 206.21355L583.5125 206.21355Q583.45 205.41667 583.1219 205.02605Q582.60626 204.41667 581.8094 204.41667Q581.075 204.41667 580.575 204.90105Q580.09064 205.38542 580.04376 206.21355Z" fill-rule="nonzero"/><path fill="#757575" d="M18.690624 37.55L22.4875 32.159374L18.9875 27.175L21.175 27.175L22.76875 29.6125Q23.221874 30.3 23.4875 30.76875Q23.925 30.128124 24.284374 29.628124L26.034374 27.175L28.128124 27.175L24.55 32.065624L28.409374 37.55L26.253124 37.55L24.1125 34.33125L23.55 33.45625L20.83125 37.55L18.690624 37.55ZM35.003124 37.55L33.2375 37.55L33.2375 26.346874Q32.6125 26.95625 31.58125 27.565624Q30.55 28.159374 29.721874 28.471874L29.721874 26.76875Q31.20625 26.08125 32.3 25.096874Q33.409374 24.096874 33.8625 23.175L35.003124 23.175L35.003124 37.55ZM48.503124 26.7375L46.753124 26.878124Q46.51875 25.846874 46.096874 25.378124Q45.378124 24.6125 44.33125 24.6125Q43.4875 24.6125 42.8625 25.08125Q42.034374 25.690624 41.55 26.8625Q41.065624 28.01875 41.05 30.159374Q41.690624 29.20625 42.596874 28.7375Q43.51875 28.26875 44.534374 28.26875Q46.284374 28.26875 47.51875 29.565624Q48.753124 30.846874 48.753124 32.89375Q48.753124 34.253124 48.175 35.409374Q47.596874 36.565624 46.58125 37.190624Q45.565624 37.8 44.26875 37.8Q42.08125 37.8 40.690624 36.190624Q39.3 34.565624 39.3 30.846874Q39.3 26.70625 40.83125 24.815624Q42.175 23.175 44.440624 23.175Q46.128124 23.175 47.20625 24.128124Q48.284374 25.065624 48.503124 26.7375ZM41.33125 32.909374Q41.33125 33.815624 41.70625 34.64375Q42.096874 35.471874 42.784374 35.909374Q43.4875 36.346874 44.2375 36.346874Q45.3625 36.346874 46.159374 35.45625Q46.95625 34.55 46.95625 33.003124Q46.95625 31.51875 46.159374 30.675Q45.378124 29.815624 44.175 29.815624Q42.9875 29.815624 42.159374 30.675Q41.33125 31.51875 41.33125 32.909374ZM57.01875 37.55L57.01875 23.2375L58.909374 23.2375L58.909374 35.8625L65.95625 35.8625L65.95625 37.55L57.01875 37.55ZM67.87813 25.253124L67.87813 23.2375L69.64375 23.2375L69.64375 25.253124L67.87813 25.253124ZM67.87813 37.55L67.87813 27.175L69.64375 27.175L69.64375 37.55L67.87813 37.55ZM71.8625 37.55L71.8625 27.175L73.45625 27.175L73.45625 28.659374Q74.59688 26.940624 76.75313 26.940624Q77.69063 26.940624 78.47188 27.284374Q79.26875 27.6125 79.65938 28.159374Q80.05 28.70625 80.20625 29.45625Q80.3 29.95625 80.3 31.175L80.3 37.55L78.53438 37.55L78.53438 31.2375Q78.53438 30.159374 78.33125 29.628124Q78.12813 29.096874 77.59688 28.784374Q77.08125 28.471874 76.37813 28.471874Q75.25313 28.471874 74.44063 29.190624Q73.62813 29.89375 73.62813 31.878124L73.62813 37.55L71.8625 37.55ZM88.97188 34.20625L90.78438 34.440624Q90.3625 36.01875 89.19063 36.909374Q88.03438 37.784374 86.22188 37.784374Q83.95625 37.784374 82.6125 36.39375Q81.28438 34.9875 81.28438 32.45625Q81.28438 29.83125 82.62813 28.39375Q83.97188 26.940624 86.12813 26.940624Q88.20625 26.940624 89.51875 28.3625Q90.84688 29.76875 90.84688 32.346874Q90.84688 32.503124 90.83125 32.815624L83.09688 32.815624Q83.19063 34.51875 84.06563 35.425Q84.94063 36.33125 86.2375 36.33125Q87.20625 36.33125 87.87813 35.83125Q88.56563 35.315624 88.97188 34.20625ZM83.19063 31.3625L88.9875 31.3625Q88.87813 30.065624 88.33125 29.409374Q87.4875 28.39375 86.14375 28.39375Q84.94063 28.39375 84.1125 29.20625Q83.28438 30.003124 83.19063 31.3625ZM99.64375 36.26875Q98.65938 37.096874 97.75313 37.440624Q96.84688 37.784374 95.81563 37.784374Q94.1125 37.784374 93.19063 36.95625Q92.26875 36.1125 92.26875 34.815624Q92.26875 34.05 92.6125 33.425Q92.97188 32.8 93.53438 32.425Q94.09688 32.034374 94.8 31.83125Q95.31563 31.70625 96.3625 31.565624Q98.4875 31.315624 99.4875 30.971874Q99.50313 30.6125 99.50313 30.503124Q99.50313 29.440624 99.00313 28.9875Q98.33125 28.39375 97.00313 28.39375Q95.75313 28.39375 95.15938 28.83125Q94.58125 29.26875 94.3 30.378124L92.58125 30.14375Q92.81563 29.034374 93.34688 28.3625Q93.87813 27.675 94.89375 27.315624Q95.90938 26.940624 97.25313 26.940624Q98.58125 26.940624 99.40938 27.253124Q100.2375 27.565624 100.62813 28.05Q101.01875 28.51875 101.175 29.2375Q101.26875 29.690624 101.26875 30.8625L101.26875 33.20625Q101.26875 35.659374 101.37813 36.315624Q101.4875 36.95625 101.83125 37.55L99.9875 37.55Q99.72188 37.003124 99.64375 36.26875ZM99.4875 32.346874Q98.53438 32.7375 96.6125 33.003124Q95.53438 33.159374 95.08125 33.3625Q94.64375 33.55 94.39375 33.925Q94.14375 34.3 94.14375 34.76875Q94.14375 35.471874 94.675 35.940624Q95.20625 36.409374 96.2375 36.409374Q97.25313 36.409374 98.03438 35.971874Q98.83125 35.51875 99.20625 34.753124Q99.4875 34.14375 99.4875 32.9875L99.4875 32.346874ZM103.84688 37.55L103.84688 27.175L105.425 27.175L105.425 28.753124Q106.03438 27.64375 106.55 27.3Q107.06563 26.940624 107.675 26.940624Q108.56563 26.940624 109.4875 27.503124L108.87813 29.14375Q108.2375 28.753124 107.59688 28.753124Q107.01875 28.753124 106.55 29.1125Q106.09688 29.45625 105.89375 30.065624Q105.6125 31.003124 105.6125 32.1125L105.6125 37.55L103.84688 37.55ZM123.64375 36.26875Q122.65938 37.096874 121.75313 37.440624Q120.84688 37.784374 119.81563 37.784374Q118.1125 37.784374 117.19063 36.95625Q116.26875 36.1125 116.26875 34.815624Q116.26875 34.05 116.6125 33.425Q116.97188 32.8 117.53438 32.425Q118.09688 32.034374 118.8 31.83125Q119.31563 31.70625 120.3625 31.565624Q122.4875 31.315624 123.4875 30.971874Q123.50313 30.6125 123.50313 30.503124Q123.50313 29.440624 123.00313 28.9875Q122.33125 28.39375 121.00313 28.39375Q119.75313 28.39375 119.15938 28.83125Q118.58125 29.26875 118.3 30.378124L116.58125 30.14375Q116.81563 29.034374 117.34688 28.3625Q117.87813 27.675 118.89375 27.315624Q119.90938 26.940624 121.25313 26.940624Q122.58125 26.940624 123.40938 27.253124Q124.2375 27.565624 124.62813 28.05Q125.01875 28.51875 125.175 29.2375Q125.26875 29.690624 125.26875 30.8625L125.26875 33.20625Q125.26875 35.659374 125.37813 36.315624Q125.4875 36.95625 125.83125 37.55L123.9875 37.55Q123.72188 37.003124 123.64375 36.26875ZM123.4875 32.346874Q122.53438 32.7375 120.6125 33.003124Q119.53438 33.159374 119.08125 33.3625Q118.64375 33.55 118.39375 33.925Q118.14375 34.3 118.14375 34.76875Q118.14375 35.471874 118.675 35.940624Q119.20625 36.409374 120.2375 36.409374Q121.25313 36.409374 122.03438 35.971874Q122.83125 35.51875 123.20625 34.753124Q123.4875 34.14375 123.4875 32.9875L123.4875 32.346874ZM134.64375 33.753124L136.3625 33.971874Q136.08125 35.76875 134.90938 36.784374Q133.75313 37.784374 132.05 37.784374Q129.925 37.784374 128.62813 36.39375Q127.33125 35.003124 127.33125 32.409374Q127.33125 30.721874 127.87813 29.471874Q128.44063 28.20625 129.58125 27.58125Q130.72188 26.940624 132.06563 26.940624Q133.75313 26.940624 134.81563 27.8Q135.89375 28.659374 136.20625 30.221874L134.4875 30.4875Q134.25313 29.440624 133.62813 28.925Q133.00313 28.39375 132.12813 28.39375Q130.8 28.39375 129.97188 29.346874Q129.14375 30.3 129.14375 32.346874Q129.14375 34.440624 129.94063 35.39375Q130.7375 36.33125 132.03438 36.33125Q133.06563 36.33125 133.75313 35.70625Q134.45625 35.065624 134.64375 33.753124ZM144.64375 33.753124L146.3625 33.971874Q146.08125 35.76875 144.90938 36.784374Q143.75313 37.784374 142.05 37.784374Q139.925 37.784374 138.62813 36.39375Q137.33125 35.003124 137.33125 32.409374Q137.33125 30.721874 137.87813 29.471874Q138.44063 28.20625 139.58125 27.58125Q140.72188 26.940624 142.06563 26.940624Q143.75313 26.940624 144.81563 27.8Q145.89375 28.659374 146.20625 30.221874L144.4875 30.4875Q144.25313 29.440624 143.62813 28.925Q143.00313 28.39375 142.12813 28.39375Q140.8 28.39375 139.97188 29.346874Q139.14375 30.3 139.14375 32.346874Q139.14375 34.440624 139.94063 35.39375Q140.7375 36.33125 142.03438 36.33125Q143.06563 36.33125 143.75313 35.70625Q144.45625 35.065624 144.64375 33.753124ZM154.97188 34.20625L156.78438 34.440624Q156.3625 36.01875 155.19063 36.909374Q154.03438 37.784374 152.22188 37.784374Q149.95625 37.784374 148.6125 36.39375Q147.28438 34.9875 147.28438 32.45625Q147.28438 29.83125 148.62813 28.39375Q149.97188 26.940624 152.12813 26.940624Q154.20625 26.940624 155.51875 28.3625Q156.84688 29.76875 156.84688 32.346874Q156.84688 32.503124 156.83125 32.815624L149.09688 32.815624Q149.19063 34.51875 150.06563 35.425Q150.94063 36.33125 152.2375 36.33125Q153.20625 36.33125 153.87813 35.83125Q154.56563 35.315624 154.97188 34.20625ZM149.19063 31.3625L154.9875 31.3625Q154.87813 30.065624 154.33125 29.409374Q153.4875 28.39375 152.14375 28.39375Q150.94063 28.39375 150.1125 29.20625Q149.28438 30.003124 149.19063 31.3625ZM158.15938 34.45625L159.90938 34.175Q160.05 35.221874 160.72188 35.784374Q161.39375 36.33125 162.59688 36.33125Q163.8 36.33125 164.37813 35.846874Q164.97188 35.346874 164.97188 34.690624Q164.97188 34.096874 164.45625 33.753124Q164.09688 33.51875 162.65938 33.159374Q160.72188 32.659374 159.97188 32.315624Q159.2375 31.95625 158.84688 31.33125Q158.45625 30.690624 158.45625 29.925Q158.45625 29.2375 158.76875 28.64375Q159.09688 28.05 159.64375 27.659374Q160.05 27.3625 160.75313 27.159374Q161.47188 26.940624 162.28438 26.940624Q163.50313 26.940624 164.425 27.3Q165.34688 27.64375 165.78438 28.253124Q166.22188 28.846874 166.39375 29.846874L164.675 30.08125Q164.55 29.284374 163.9875 28.846874Q163.425 28.39375 162.40938 28.39375Q161.19063 28.39375 160.675 28.8Q160.15938 29.190624 160.15938 29.721874Q160.15938 30.065624 160.37813 30.346874Q160.58125 30.628124 161.05 30.815624Q161.31563 30.909374 162.59688 31.253124Q164.47188 31.753124 165.20625 32.08125Q165.94063 32.39375 166.3625 33.003124Q166.78438 33.596874 166.78438 34.503124Q166.78438 35.378124 166.26875 36.159374Q165.75313 36.940624 164.78438 37.3625Q163.81563 37.784374 162.59688 37.784374Q160.58125 37.784374 159.51875 36.940624Q158.45625 36.096874 158.15938 34.45625ZM168.15938 34.45625L169.90938 34.175Q170.05 35.221874 170.72188 35.784374Q171.39375 36.33125 172.59688 36.33125Q173.8 36.33125 174.37813 35.846874Q174.97188 35.346874 174.97188 34.690624Q174.97188 34.096874 174.45625 33.753124Q174.09688 33.51875 172.65938 33.159374Q170.72188 32.659374 169.97188 32.315624Q169.2375 31.95625 168.84688 31.33125Q168.45625 30.690624 168.45625 29.925Q168.45625 29.2375 168.76875 28.64375Q169.09688 28.05 169.64375 27.659374Q170.05 27.3625 170.75313 27.159374Q171.47188 26.940624 172.28438 26.940624Q173.50313 26.940624 174.425 27.3Q175.34688 27.64375 175.78438 28.253124Q176.22188 28.846874 176.39375 29.846874L174.675 30.08125Q174.55 29.284374 173.9875 28.846874Q173.425 28.39375 172.40938 28.39375Q171.19063 28.39375 170.675 28.8Q170.15938 29.190624 170.15938 29.721874Q170.15938 30.065624 170.37813 30.346874Q170.58125 30.628124 171.05 30.815624Q171.31563 30.909374 172.59688 31.253124Q174.47188 31.753124 175.20625 32.08125Q175.94063 32.39375 176.3625 33.003124Q176.78438 33.596874 176.78438 34.503124Q176.78438 35.378124 176.26875 36.159374Q175.75313 36.940624 174.78438 37.3625Q173.81563 37.784374 172.59688 37.784374Q170.58125 37.784374 169.51875 36.940624Q168.45625 36.096874 168.15938 34.45625Z" fill-rule="nonzero"/></svg>