<?xml version="1.0" encoding="UTF-8"?>
<svg version="1.1" xmlns="http://www.w3.org/2000/svg" viewBox="0 0 100 100" width="4in" height="4in">
 <defs><style type="text/css"><![CDATA[
  path { fill: #000000; /*black*/ }
 ]]></style></defs>
 <path d="M 50.000 6.720    c -27.05 15.606 -43.723 44.633 -43.799 75.863 13.307 7.7189 28.416 11.708 43.799 11.736 15.386 -0.038 30.496 -4.0051 43.799 -11.736 -0.0757 -31.206 -16.781 -60.248 -43.799 -75.863 Z
          m -0.10615 6.2714 c 3.7374 3.6513 6.7814 8.0837 8.8593 13.128 2.692 6.5334 3.5107 13.48 2.6161 20.16 -3.679 -0.98935 -7.415 -1.4835 -11.121 -1.5064 -13.537 -0.0834 -26.678 6.1024 -35.209 17.257 -0.62915 0.82256 -1.2239 1.6629 -1.7876 2.5179 4.1596 -21.415 17.424 -40.37 36.642 -51.556 Z
          m 11.826 8.3111   c 6.3999 5.5457 11.85 12.152 16.141 19.541 6.6611 11.586 10.227 24.686 10.21 38.049 -4.8775 1.3714 -10.069 1.8118 -15.318 1.1797 -7.1857 -0.86523 -13.788 -3.6569 -19.257 -7.8683 2.6684 -2.6596 4.9447 -5.6105 6.8088 -8.7679 6.882 -11.658 8.1472 -26.126 2.7985 -39.109 -0.42503 -1.0316 -0.88759 -2.04 -1.3831 -3.0249 Z
          m -11.875 28.173  c 3.5357 -0.01 7.1058 0.45837 10.617 1.4343 -1.7542 6.7792 -5.322 13.099 -10.527 18.198 -2.4911 -2.4464 -4.6594 -5.227 -6.4324 -8.2771  -1.777 -3.0571 -3.1569 -6.3851 -4.0683 -9.9173 3.3732 -0.93848 6.8746 -1.4268 10.41 -1.4369 Z
          m -14.869 2.9716  c 1.0199 3.819 2.5301 7.423 4.4608 10.742 6.8072 11.701 18.812 19.876 32.754 21.555 0.8608 0.1037 1.7202 0.18116 2.5774 0.23362 -20.615 7.063 -43.595 5.1033 -62.839 -5.9892 1.2835 -5.0093 3.5687 -9.8133 6.8479 -14.101 4.3136 -5.6402 9.9386 -9.8561 16.199 -12.44 Z"/>
</svg>
