<?xml version="1.0" encoding="UTF-8"?>
<svg version="1.1" xmlns="http://www.w3.org/2000/svg" viewBox="0 0 100 100" width="4in" height="4in">
 <defs><style type="text/css"><![CDATA[
  #shield { fill: #000000; /*black*/ opacity: 0.0; }
  #center { fill: #000000; /*black*/ }
  #right  { fill: #de1a5c; /*red*/ }
  #left   { fill: #63b132; /*green*/ }
  #top    { fill: #5881d8; /*blue*/ }
 ]]></style></defs>
 <path id="shield" d="M 50.000 0.000, c -30.88 17.816 -49.913 50.952 -50 86.603 15.19 8.8118 32.439 13.365 50 13.397 17.565 -0.04355 34.813 -4.5722 50 -13.397 -0.087109 -35.624 -19.156 -68.778 -50 -86.603 Z"/>
 <path id="center" d="M 57.546 61.55, c 2.02 -3.5227 3.5439 -7.2843 4.5488 -11.175 -8.0778 -2.2537 -16.431 -2.1727 -24.198 -0.0199 2.096 8.1239 6.3509 15.314 12.105 20.958 2.9964 -2.9412 5.5194 -6.2319 7.544 -9.7627 Z"/>
 <path id="right"  d="M 93.817 82.57, c -0.01823 -25.567 -11.29 -49.601 -30.194 -66.085 0.44091 0.88467 0.85853 1.7862 1.2506 2.7038 6.35 14.863 5.1103 31.534 -2.6361 45.054 -2.1974 3.835 -4.9204 7.4145 -8.1403 10.629 6.1791 4.7532 13.618 7.9342 21.723 8.9879 6.1613 0.8011 12.265 0.31409 17.997 -1.2894 Z"/>
 <path id="left"   d="M 78.661 89.56, c -1.1767 -0.0699 -2.3569 -0.17903 -3.5389 -0.33273 -16.028 -2.0839 -29.756 -11.623 -37.464 -25.165 -2.1102 -3.7075 -3.7679 -7.7158 -4.899 -11.952 -7.1742 2.953 -13.627 7.7672 -18.59 14.21 -3.8321 4.9742 -6.4982 10.559 -7.987 16.386 22.21 12.719 48.738 15.032 72.479 6.8537 Z"/>
 <path id="top"    d="M 63.134 45.04, c 1.0507 -7.8749 0.03343 -16.063 -3.2395 -23.724 -2.3908 -5.596 -5.8175 -10.517 -9.9915 -14.59 -13.331 7.6737 -24.336 18.767 -32.052 32.075 -4.8966 8.5301 -8.3452 17.764 -10.19 27.335 0.69647 -1.0608 1.4355 -2.1021 2.2192 -3.1194 9.864 -12.804 25.014 -19.87 40.595 -19.719 4.22 0.041 8.4717 0.6119 12.658 1.7412 Z"/>
</svg>
