<?xml version="1.0" encoding="UTF-8" standalone="no"?>
<svg
   xmlns:dc="http://purl.org/dc/elements/1.1/"
   xmlns:cc="http://creativecommons.org/ns#"
   xmlns:rdf="http://www.w3.org/1999/02/22-rdf-syntax-ns#"
   xmlns:svg="http://www.w3.org/2000/svg"
   xmlns="http://www.w3.org/2000/svg"
   width="1in"
   height="1in"
   viewBox="0 0 100 100"
   version="1.1"
   id="svg6796">
  <defs
     id="defs6790" />
  <metadata
     id="metadata6793">
    <rdf:RDF>
      <cc:Work
         rdf:about="">
        <dc:format>image/svg+xml</dc:format>
        <dc:type
           rdf:resource="http://purl.org/dc/dcmitype/StillImage" />
        <dc:title></dc:title>
      </cc:Work>
    </rdf:RDF>
  </metadata>
  <g
     transform="matrix(2.0965602,0,0,2.0965602,111.80687,-479.67106)"
     id="g19875">
    <path
       transform="matrix(4.1997733,-0.02781449,0.02781449,4.1997733,62.298074,114.29052)"
       style="opacity:1;fill:#d00000;fill-opacity:1;stroke:none;stroke-width:0.62;stroke-linecap:round;stroke-linejoin:round;stroke-miterlimit:4;stroke-dasharray:none;stroke-opacity:1"
       d="m -16.743065,30.626564 -0.02663,4.402223 -3.131675,3.094008 -4.402223,-0.02664 -3.094008,-3.131675 0.02663,-4.402223 3.131675,-3.094008 4.402223,0.02663 z"
       id="path7768" />
    <path
       style="opacity:1;fill:#ffffff;fill-opacity:1;stroke:none;stroke-width:0.23477696;stroke-linecap:round;stroke-linejoin:round;stroke-miterlimit:4;stroke-dasharray:none;stroke-opacity:1"
       d="m -36.540004,249.12817 h 14.119734 c 0.503115,0 0.90815,0.40504 0.90815,0.90815 v 5.20367 c 0,0.50311 -0.405035,0.90815 -0.90815,0.90815 h -14.119734 c -0.503115,0 -0.90815,-0.40504 -0.90815,-0.90815 v -5.20367 c 0,-0.50311 0.405035,-0.90815 0.90815,-0.90815 z"
       id="rect14186" />
    <path
       style="color:#000000;font-style:normal;font-variant:normal;font-weight:normal;font-stretch:normal;font-size:medium;line-height:normal;font-family:sans-serif;font-variant-ligatures:normal;font-variant-position:normal;font-variant-caps:normal;font-variant-numeric:normal;font-variant-alternates:normal;font-feature-settings:normal;text-indent:0;text-align:start;text-decoration:none;text-decoration-line:none;text-decoration-style:solid;text-decoration-color:#000000;letter-spacing:normal;word-spacing:normal;text-transform:none;writing-mode:lr-tb;direction:ltr;text-orientation:mixed;dominant-baseline:auto;baseline-shift:baseline;text-anchor:start;white-space:normal;shape-padding:0;clip-rule:nonzero;display:inline;overflow:visible;visibility:visible;opacity:1;isolation:auto;mix-blend-mode:normal;color-interpolation:sRGB;color-interpolation-filters:linearRGB;solid-color:#000000;solid-opacity:1;vector-effect:none;fill:#fdfdfd;fill-opacity:1;fill-rule:nonzero;stroke:none;stroke-width:1.51791883;stroke-linecap:round;stroke-linejoin:miter;stroke-miterlimit:4;stroke-dasharray:none;stroke-dashoffset:0;stroke-opacity:1;color-rendering:auto;image-rendering:auto;shape-rendering:auto;text-rendering:auto;enable-background:accumulate"
       d="m -38.082891,231.9061 -12.142029,12.15529 0.01533,17.17707 12.155292,12.14203 17.17712,-0.007 12.1420332,-12.15529 -0.015381,-17.18528 -0.2147355,-0.22006 -11.9405027,-11.91376 z m 0.633456,1.51337 15.92206,-0.007 11.263425,11.2456 0.0071,15.93027 -11.253806,11.26348 -15.922005,0.0152 -11.26348,-11.2538 -0.007,-15.92206 z"
       id="path7768-4" />
  </g>
  <text
     id="text19410"
     y="-4.1666679"
     x="5.5555558"
     style="font-style:normal;font-weight:normal;font-size:41.66666794px;line-height:1.25;font-family:sans-serif;letter-spacing:0px;word-spacing:0px;fill:#000000;fill-opacity:1;stroke:none;stroke-width:1.04166675"
     xml:space="preserve"><tspan
       style="stroke-width:1.04166675"
       y="32.698566"
       x="5.5555558"
       id="tspan19408"></tspan></text>
</svg>
