<?xml version="1.0" encoding="UTF-8" standalone="no"?>
<svg
   xmlns:dc="http://purl.org/dc/elements/1.1/"
   xmlns:cc="http://creativecommons.org/ns#"
   xmlns:rdf="http://www.w3.org/1999/02/22-rdf-syntax-ns#"
   xmlns:svg="http://www.w3.org/2000/svg"
   xmlns="http://www.w3.org/2000/svg"
   xmlns:xlink="http://www.w3.org/1999/xlink"
   width="1in"
   height="1in"
   viewBox="0 0 100 100"
   version="1.1"
   id="svg6796">
  <defs
     id="defs6790">
    <linearGradient
       id="linearGradient15658">
      <stop
         id="stop15654"
         offset="0"
         style="stop-color:#f2f631;stop-opacity:1" />
      <stop
         id="stop15656"
         offset="1"
         style="stop-color:#f2f3a5;stop-opacity:1" />
    </linearGradient>
    <radialGradient
       gradientUnits="userSpaceOnUse"
       gradientTransform="matrix(4.8934379,4.9419455,-4.0946276,4.0544365,188.10031,29.889695)"
       r="2.824043"
       fy="33.972527"
       fx="18.337067"
       cy="33.972527"
       cx="18.337067"
       id="radialGradient15662"
       xlink:href="#linearGradient15658" />
  </defs>
  <metadata
     id="metadata6793">
    <rdf:RDF>
      <cc:Work
         rdf:about="">
        <dc:format>image/svg+xml</dc:format>
        <dc:type
           rdf:resource="http://purl.org/dc/dcmitype/StillImage" />
        <dc:title></dc:title>
      </cc:Work>
    </rdf:RDF>
  </metadata>
  <text
     id="text19410"
     y="-4.1666679"
     x="5.5555558"
     style="font-style:normal;font-weight:normal;font-size:41.66666794px;line-height:1.25;font-family:sans-serif;letter-spacing:0px;word-spacing:0px;fill:#000000;fill-opacity:1;stroke:none;stroke-width:1.04166675"
     xml:space="preserve"><tspan
       style="stroke-width:1.04166675"
       y="32.698566"
       x="5.5555558"
       id="tspan19408"></tspan></text>
  <g
     transform="matrix(2.3295025,0,0,2.3295025,-274.70015,-552.07341)"
     id="g19861">
    <path
       style="opacity:1;fill:url(#radialGradient15662);fill-opacity:1;stroke:none;stroke-width:6.61845589;stroke-linecap:round;stroke-linejoin:round;stroke-miterlimit:4;stroke-dasharray:none;stroke-opacity:1"
       d="m 151.38641,258.84923 a 11.8606,11.8606 0 0 1 -11.8606,11.8606 11.8606,11.8606 0 0 1 -11.8606,-11.8606 11.8606,11.8606 0 0 1 11.8606,-11.8606 11.8606,11.8606 0 0 1 11.8606,11.8606 z"
       id="path3572" />
    <path
       style="color:#000000;font-style:normal;font-variant:normal;font-weight:normal;font-stretch:normal;font-size:medium;line-height:normal;font-family:sans-serif;font-variant-ligatures:normal;font-variant-position:normal;font-variant-caps:normal;font-variant-numeric:normal;font-variant-alternates:normal;font-feature-settings:normal;text-indent:0;text-align:start;text-decoration:none;text-decoration-line:none;text-decoration-style:solid;text-decoration-color:#000000;letter-spacing:normal;word-spacing:normal;text-transform:none;writing-mode:lr-tb;direction:ltr;text-orientation:mixed;dominant-baseline:auto;baseline-shift:baseline;text-anchor:start;white-space:normal;shape-padding:0;clip-rule:nonzero;display:inline;overflow:visible;visibility:visible;opacity:1;isolation:auto;mix-blend-mode:normal;color-interpolation:sRGB;color-interpolation-filters:linearRGB;solid-color:#000000;solid-opacity:1;vector-effect:none;fill:#ffffff;fill-opacity:1;fill-rule:nonzero;stroke:none;stroke-width:1.68381655;stroke-linecap:round;stroke-linejoin:round;stroke-miterlimit:4;stroke-dasharray:none;stroke-dashoffset:0;stroke-opacity:1;color-rendering:auto;image-rendering:auto;shape-rendering:auto;text-rendering:auto;enable-background:accumulate"
       d="m 136.61882,250.60995 a 0.8419925,0.8419925 0 0 0 -0.30083,0.0751 c -2.1981,0.97164 -3.92978,2.76704 -4.82476,4.99746 a 0.8419925,0.8419925 0 1 0 1.56222,0.62536 c 0.7316,-1.82327 2.14508,-3.2882 3.94189,-4.08247 a 0.8419925,0.8419925 0 0 0 -0.37849,-1.6156 z"
       id="path3572-9" />
    <path
       transform="matrix(0.00207317,-0.99999785,0.99999745,0.00225727,0,0)"
       style="opacity:1;fill:#f4f745;fill-opacity:1;stroke:none;stroke-width:1.55054939;stroke-linecap:round;stroke-linejoin:miter;stroke-miterlimit:4;stroke-dasharray:none;stroke-opacity:1"
       d="m -244.05557,139.2057 h 5.07372 c 0.45478,0 0.8209,0.36612 0.8209,0.8209 0,0.45478 -0.36612,0.8209 -0.8209,0.8209 h -5.07372 c -0.45478,0 -0.82089,-0.36612 -0.82089,-0.8209 0,-0.45478 0.36611,-0.8209 0.82089,-0.8209 z"
       id="rect15582" />
    <path
       transform="rotate(-67.805472)"
       style="opacity:1;fill:#f4f745;fill-opacity:1;stroke:none;stroke-width:1.51791894;stroke-linecap:round;stroke-linejoin:miter;stroke-miterlimit:4;stroke-dasharray:none;stroke-opacity:1"
       d="m -172.51739,226.18944 h 4.79404 c 0.45478,0 0.8209,0.36612 0.8209,0.82089 0,0.45478 -0.36612,0.8209 -0.8209,0.8209 h -4.79404 c -0.45478,0 -0.8209,-0.36612 -0.8209,-0.8209 0,-0.45477 0.36612,-0.82089 0.8209,-0.82089 z"
       id="rect15582-3" />
    <path
       transform="rotate(-112.37095)"
       style="opacity:1;fill:#f4f745;fill-opacity:1;stroke:none;stroke-width:1.51791918;stroke-linecap:round;stroke-linejoin:miter;stroke-miterlimit:4;stroke-dasharray:none;stroke-opacity:1"
       d="m -277.93377,29.587112 h 4.79404 c 0.45478,0 0.8209,0.36612 0.8209,0.820896 0,0.454777 -0.36612,0.820896 -0.8209,0.820896 h -4.79404 c -0.45478,0 -0.8209,-0.366119 -0.8209,-0.820896 0,-0.454776 0.36612,-0.820896 0.8209,-0.820896 z"
       id="rect15582-3-2" />
    <path
       style="opacity:1;fill:#f4f745;fill-opacity:1;stroke:none;stroke-width:1.51791894;stroke-linecap:round;stroke-linejoin:miter;stroke-miterlimit:4;stroke-dasharray:none;stroke-opacity:1"
       d="m 128.77062,248.91234 -3.30214,-3.47544 c -0.31326,-0.3297 -0.30003,-0.8473 0.0297,-1.16055 0.3297,-0.31325 0.84729,-0.30001 1.16055,0.0297 l 3.30215,3.47543 c 0.31325,0.3297 0.30002,0.8473 -0.0297,1.16056 -0.32968,0.31324 -0.84728,0.30001 -1.16054,-0.0297 z"
       id="rect15582-3-3" />
    <path
       style="opacity:1;fill:#f4f745;fill-opacity:1;stroke:none;stroke-width:1.51791894;stroke-linecap:round;stroke-linejoin:miter;stroke-miterlimit:4;stroke-dasharray:none;stroke-opacity:1"
       d="m 148.84437,247.78845 3.26268,-3.5125 c 0.30952,-0.33321 0.82694,-0.35229 1.16014,-0.0428 0.33321,0.30952 0.35229,0.82693 0.0428,1.16015 l -3.26269,3.5125 c -0.30952,0.33321 -0.82693,0.35229 -1.16015,0.0428 -0.33319,-0.3095 -0.35227,-0.82691 -0.0428,-1.16013 z"
       id="rect15582-3-1" />
    <path
       style="opacity:1;fill:#b5b5c0;fill-opacity:1;stroke:none;stroke-width:1.77083337;stroke-linecap:round;stroke-linejoin:miter;stroke-miterlimit:4;stroke-dasharray:none;stroke-dashoffset:0;stroke-opacity:1"
       d="m 138.46788,274.75668 h 2.11588 c 0.55003,0 0.99283,0.44281 0.99283,0.99284 v 1.69271 c 0,0.55003 -0.4428,0.99284 -0.99283,0.99284 h -2.11588 c -0.55004,0 -0.99284,-0.44281 -0.99284,-0.99284 v -1.69271 c 0,-0.55003 0.4428,-0.99284 0.99284,-0.99284 z"
       id="rect19780" />
    <path
       style="opacity:1;fill:#c6c6cf;fill-opacity:1;stroke:none;stroke-width:1.74025929;stroke-linecap:round;stroke-linejoin:miter;stroke-miterlimit:4;stroke-dasharray:none;stroke-dashoffset:0;stroke-opacity:1"
       d="m 136.94757,268.46948 h 5.15647 c 0.82677,0 1.49236,0.66559 1.49236,1.49236 v 5.28048 c 0,0.82676 -0.66559,1.49235 -1.49236,1.49235 h -5.15647 c -0.82676,0 -1.49235,-0.66559 -1.49235,-1.49235 v -5.28048 c 0,-0.82677 0.66559,-1.49236 1.49235,-1.49236 z"
       id="rect19780-4" />
    <path
       transform="rotate(-9.9619139)"
       style="opacity:1;fill:#b4b4c0;fill-opacity:1;stroke:none;stroke-width:1.77083349;stroke-linecap:round;stroke-linejoin:miter;stroke-miterlimit:4;stroke-dasharray:none;stroke-dashoffset:0;stroke-opacity:1"
       d="m 87.877508,294.33044 h 4.005097 c 0.267789,0 0.483374,0.21559 0.483374,0.48338 0,0.26779 -0.215585,0.48337 -0.483374,0.48337 h -4.005097 c -0.267789,0 -0.483373,-0.21558 -0.483373,-0.48337 0,-0.26779 0.215584,-0.48338 0.483373,-0.48338 z"
       id="rect19797" />
    <path
       transform="rotate(-9.9619139)"
       style="opacity:1;fill:#b4b4c0;fill-opacity:1;stroke:none;stroke-width:1.77083349;stroke-linecap:round;stroke-linejoin:miter;stroke-miterlimit:4;stroke-dasharray:none;stroke-dashoffset:0;stroke-opacity:1"
       d="m 88.235891,292.29004 h 4.005098 c 0.267789,0 0.483373,0.21558 0.483373,0.48337 0,0.26779 -0.215584,0.48338 -0.483373,0.48338 h -4.005098 c -0.267789,0 -0.483373,-0.21559 -0.483373,-0.48338 0,-0.26779 0.215584,-0.48337 0.483373,-0.48337 z"
       id="rect19797-9" />
    <path
       transform="rotate(-9.9619139)"
       style="opacity:1;fill:#b4b4c0;fill-opacity:1;stroke:none;stroke-width:1.77083349;stroke-linecap:round;stroke-linejoin:miter;stroke-miterlimit:4;stroke-dasharray:none;stroke-dashoffset:0;stroke-opacity:1"
       d="m 88.594267,290.24966 h 4.005097 c 0.267789,0 0.483374,0.21559 0.483374,0.48338 0,0.26779 -0.215585,0.48337 -0.483374,0.48337 h -4.005097 c -0.267789,0 -0.483374,-0.21558 -0.483374,-0.48337 0,-0.26779 0.215585,-0.48338 0.483374,-0.48338 z"
       id="rect19797-9-2" />
  </g>
</svg>
