<?xml version="1.0" encoding="UTF-8" standalone="no"?>
<svg
   xmlns:dc="http://purl.org/dc/elements/1.1/"
   xmlns:cc="http://creativecommons.org/ns#"
   xmlns:rdf="http://www.w3.org/1999/02/22-rdf-syntax-ns#"
   xmlns:svg="http://www.w3.org/2000/svg"
   xmlns="http://www.w3.org/2000/svg"
   width="1in"
   height="1in"
   viewBox="0 0 100 100"
   version="1.1"
   id="svg6796">
  <defs
     id="defs6790" />
  <metadata
     id="metadata6793">
    <rdf:RDF>
      <cc:Work
         rdf:about="">
        <dc:format>image/svg+xml</dc:format>
        <dc:type
           rdf:resource="http://purl.org/dc/dcmitype/StillImage" />
        <dc:title></dc:title>
      </cc:Work>
    </rdf:RDF>
  </metadata>
  <text
     id="text19410"
     y="-4.1666679"
     x="5.5555558"
     style="font-style:normal;font-weight:normal;font-size:41.66666794px;line-height:1.25;font-family:sans-serif;letter-spacing:0px;word-spacing:0px;fill:#000000;fill-opacity:1;stroke:none;stroke-width:1.04166675"
     xml:space="preserve"><tspan
       style="stroke-width:1.04166675"
       y="32.698566"
       x="5.5555558"
       id="tspan19408"></tspan></text>
  <g
     transform="matrix(2.411483,0,0,2.411483,255.14969,-559.72953)"
     id="g19879">
    <path
       style="opacity:1;fill:#ff6700;fill-opacity:1;stroke:#000000;stroke-width:1.47186947;stroke-linecap:round;stroke-linejoin:miter;stroke-miterlimit:4;stroke-dasharray:none;stroke-dashoffset:0;stroke-opacity:1"
       d="m -103.82745,234.15332 h 37.510899 v 37.38178 h -37.510899 z"
       id="rect19743" />
    <path
       style="opacity:1;fill:#000000;fill-opacity:1;stroke:none;stroke-width:0.70875973;stroke-linecap:round;stroke-linejoin:bevel;stroke-miterlimit:4;stroke-dasharray:none;stroke-dashoffset:0;stroke-opacity:1"
       d="m -86.262145,238.73184 a 8.9251234,8.9251234 0 0 0 -7.735396,8.83535 8.9251234,8.9251234 0 0 0 0.123769,1.4695 8.9251234,8.9251234 0 0 0 -1.328314,0.61709 8.9251234,8.9251234 0 0 0 -3.78272,11.11805 l 0.27978,-0.16211 a 6.2475857,6.2475857 0 0 1 2.78039,-7.44516 6.2475857,6.2475857 0 0 1 8.376886,2.0343 l 0.803621,-0.46369 a 1.7850245,1.7850245 0 0 1 -0.113312,-0.62319 1.7850245,1.7850245 0 0 1 1.48781,-1.75974 v -0.93261 a 6.2475857,6.2475857 0 0 1 -5.950378,-6.23276 6.2475857,6.2475857 0 0 1 5.057864,-6.12819 z m 2.379453,8.6e-4 v 0.32336 a 6.2475857,6.2475857 0 0 1 5.057855,6.13079 6.2475857,6.2475857 0 0 1 -5.950369,6.23713 v 0.92999 a 1.7850245,1.7850245 0 0 1 1.48781,1.758 1.7850245,1.7850245 0 0 1 -0.113302,0.62058 l 0.809711,0.46717 a 6.2475857,6.2475857 0 0 1 8.372529,-2.03692 6.2475857,6.2475857 0 0 1 2.777773,7.4443 l 0.282393,0.16298 a 8.9251234,8.9251234 0 0 0 -3.784459,-11.11631 8.9251234,8.9251234 0 0 0 -1.335285,-0.62755 8.9251234,8.9251234 0 0 0 0.13074,-1.45905 8.9251234,8.9251234 0 0 0 -7.735396,-8.83447 z m -1.189721,7.34666 a 8.032611,8.032611 0 0 0 -4.9925,1.75016 5.6525775,5.6525775 0 0 0 1.291705,1.62552 5.9500817,5.9500817 0 0 1 3.700795,-1.29256 5.9500817,5.9500817 0 0 1 3.693813,1.29343 5.6525775,5.6525775 0 0 0 1.302162,-1.63336 8.032611,8.032611 0 0 0 -4.995975,-1.74319 z m 7.938472,6.84898 a 5.6525775,5.6525775 0 0 0 -2.053469,0.30593 5.9500817,5.9500817 0 0 1 -0.731274,3.85071 5.9500817,5.9500817 0 0 1 -2.966906,2.5529 5.6525775,5.6525775 0 0 0 0.763516,1.94452 8.0326106,8.0326106 0 0 0 4.007588,-3.45587 8.0326106,8.0326106 0 0 0 0.980545,-5.19819 z m -15.881312,0.003 a 8.0326106,8.0326106 0 0 0 0.988388,5.19819 8.0326106,8.0326106 0 0 0 4.011945,3.44802 5.6525775,5.6525775 0 0 0 0.761774,-1.93145 5.9500817,5.9500817 0 0 1 -2.969521,-2.55812 5.9500817,5.9500817 0 0 1 -0.726908,-3.84548 5.6525775,5.6525775 0 0 0 -2.065678,-0.31116 z m 9.318209,2.3167 a 1.7850245,1.7850245 0 0 1 -1.375369,0.64933 1.7850245,1.7850245 0 0 1 -1.373637,-0.64759 l -0.807968,0.4663 a 6.2475857,6.2475857 0 0 1 -2.423032,8.26969 6.2475857,6.2475857 0 0 1 -7.835628,-1.31612 l -0.282398,0.16299 a 8.9251234,8.9251234 0 0 0 11.518118,2.2801 8.9251234,8.9251234 0 0 0 1.210644,-0.84197 8.9251234,8.9251234 0 0 0 1.198436,0.84197 8.9251234,8.9251234 0 0 0 11.518994,-2.28184 l -0.278918,-0.16125 a 6.2475857,6.2475857 0 0 1 -7.838242,1.31525 6.2475857,6.2475857 0 0 1 -2.426518,-8.2723 z"
       id="path19406-1-5" />
  </g>
</svg>
