<svg version="1" xmlns="http://www.w3.org/2000/svg" width="682.667" height="682.667" viewBox="0 0 512.000000 512.000000"><path d="M246 27.3c-24.5 15.1-42.2 28.1-68.9 51.2-2 1.6-10.1 9.5-18.1 17.5-52.7 52.6-91.8 116.2-114.8 187-6.3 19.3-15 53.6-13.8 54.7.2.2 1.4-1.3 2.7-3.4 1.3-2.1 2.9-4.5 3.5-5.3 16.6-21 25.8-31 39.4-43.3 9.3-8.4 27-21.4 38-28.1 5.2-3.1 10.2-6.1 11-6.6 4.1-2.5 22.9-11.3 34.5-16.1 7.1-2.9 30.7-9.9 39-11.5 1.1-.2 3.1-.6 4.5-.9 1.4-.2 4.1-.7 6-1 1.9-.3 4.2-.8 5-1 2-.5 9.3-1.4 20.5-2.4 9.6-.8 40.1-.6 47.5.3 9.6 1.3 12.7 1.7 18 2.6 3 .5 7.1 1.2 9 1.5 1.9.3 6 1.2 9.1 2 7.6 2 8.5 1.9 8.6-.8 0-1.2.4-5.8.8-10.2.4-4.4.8-11.8.8-16.5 0-8.5-1.2-31.1-1.8-32-.1-.3-.6-3.2-.9-6.5-.4-3.3-.9-6.8-1.2-7.7-.3-.9-.7-2.7-.9-4-7.6-40.8-30.6-85.5-59.7-116.3-4.4-4.7-8.3-8.5-8.7-8.4-.3 0-4.4 2.4-9.1 5.2z"/><path d="M330 75.5c0 .3.8 2.5 1.9 4.8 5.9 13.2 8.4 19.5 12 30.7 3.8 11.8 7.3 25.1 8.6 33 .3 1.9.8 4.2 1 5 .6 2.2 1.3 7.6 2 15.5.4 3.8.8 8.1 1.1 9.5.5 3.3.5 35.1-.1 41.5-.9 10.9-1.5 15.4-4.1 29.5-7 39.1-26.4 82.9-50.7 114-6.1 7.8-17 20.4-21.2 24.3-2.6 2.5-2.7 3-1.3 3.8 1 .5 2.3 1.5 3 2.2 3.9 3.7 24.3 15.9 37.3 22.2 25.9 12.7 54.4 21 78.9 23 3.9.4 8.2.8 9.6 1.1 3.6.6 29.7.7 35 0 2.5-.3 7.2-.8 10.5-1.1 3.3-.3 6.7-.8 7.5-1 .8-.2 3.5-.6 6-1 2.5-.3 8.7-1.6 13.9-2.8l9.4-2.2v-4.6c-.1-8.1-1.4-35.3-1.7-35.8-.2-.3-.7-4.3-1-8.8-.4-4.6-.9-9.1-1-10-.2-1-.7-3.8-1-6.3-.8-5.2-3.4-21.1-4.2-25.5-2.8-15.8-15.9-61.6-20.9-73-.7-1.7-3-7.3-5.1-12.5-6.9-17.6-22-47.6-33.7-67-9.7-16.2-36.7-53.7-42.1-58.5-.6-.6-3.6-3.9-6.6-7.5-10-11.9-43-44.5-43-42.5z"/><path d="M242.8 246.5c-.2.1-4.6.6-9.8.9-9 .7-28.5 4.1-37.6 6.5l-4.2 1.1 2.8 9.3c10.4 35.3 30.5 69.8 56.4 97.1l5.7 5.9 5.5-5.9c18.6-19.7 34.3-43.2 45.8-68.4 3.3-7.2 13.8-37.1 13.3-37.7-1.4-1.3-24.7-5.9-40.2-7.9-5-.6-37.1-1.4-37.7-.9z"/><path d="M148 271.8C101.7 295 66.6 329.4 41.5 376.4c-8.6 16-21.4 51.5-18.9 52.3.5.2 2.5 1.2 4.4 2.3 12.6 7.2 52.4 26 55.1 26 .5 0 3.2 1.1 6.1 2.4 13.5 6.1 52.4 17.2 77.3 22 18.9 3.6 25.4 4.6 47.5 7 7.3.8 30.8 1.9 41 1.9 9.6 0 38.4-1.2 43-1.7 1.4-.2 5.7-.7 9.5-1 7.3-.8 12.3-1.4 16.5-2.1 1.4-.2 4.5-.7 7-1 8-1.1 29.1-5.5 43-9 15.6-4 36.2-10.3 34-10.5-.8-.1-2.4-.3-3.5-.5s-4.7-.7-8-1c-5.5-.5-25.2-3.8-30-4.9-28.3-6.8-52.1-16.2-76.3-30.3-10.7-6.2-30.8-20-34.9-24-1.1-1-4.6-4.1-7.9-6.9-38.6-33.4-68.9-81.8-82-131.2-.6-2.1-2.4-1.4-16.4 5.6z"/></svg>